<svg fill="none"
    xmlns="http://www.w3.org/2000/svg" viewBox="0 0 73.66 16">
    <g clipPath="url(#clip0_2110_1515)">
        <path d="M7.65504 13.0509C5.13024 12.8832 3.1072 10.8551 2.94848 8.3277H0C0.16384 12.4851 3.49952 15.8272 7.65504 16V13.0509Z" fill="#FA6863"></path>
        <path d="M2.94912 7.65504C3.1168 5.13024 5.14496 3.1072 7.67232 2.94848V0C3.51488 0.16384 0.1728 3.49952 0 7.65504H2.94912Z" fill="#FA6863"></path>
        <path d="M13.0508 8.34497C12.8832 10.8698 10.855 12.8928 8.32764 13.0515V16C12.4851 15.8362 15.8272 12.5005 16 8.34497H13.0508Z" fill="#FA6863"></path>
        <path d="M8.34497 2.94912C10.8698 3.1168 12.8928 5.14496 13.0515 7.67232H16C15.8362 3.51488 12.5005 0.1728 8.34497 0V2.94912Z" fill="#FA6863"></path>
    </g>
    <path d="M31.5787 13.0598C30.8523 13.0598 30.204 12.8973 29.6331 12.5734C29.0622 12.2496 28.6148 11.7888 28.2904 11.1923C27.9659 10.5958 27.804 9.88221 27.804 9.05213V2.92285H29.8078V8.91517C29.8078 9.74525 30.0152 10.3584 30.4305 10.7539C30.8452 11.1494 31.4225 11.3472 32.1624 11.3472C32.9796 11.3472 33.6376 11.072 34.1374 10.5203C34.6366 9.96925 34.8862 9.07773 34.8862 8.03965V2.92285H36.89V13.0592H34.9252V11.4445H34.6142C34.4324 11.8336 34.1086 12.2003 33.6414 12.544C33.1742 12.8877 32.4868 13.0598 31.5793 13.0598H31.5787Z" fill="#160F26"></path>
    <path d="M48.7849 13.0598V2.92285H50.7887V13.0592H48.7849V13.0598Z" fill="#160F26"></path>
    <path d="M57.67 13.0598C56.71 13.0598 55.8575 12.8621 55.1113 12.4666C54.3651 12.071 53.7788 11.5034 53.3507 10.7642C52.9225 10.025 52.7087 9.14944 52.7087 8.1376V7.84576C52.7087 6.83392 52.9225 5.9616 53.3507 5.2288C53.7788 4.496 54.3657 3.92832 55.1113 3.5264C55.8569 3.12448 56.71 2.92352 57.67 2.92352C58.63 2.92352 59.4857 3.12448 60.2383 3.5264C60.9903 3.92832 61.5811 4.496 62.0086 5.2288C62.4367 5.9616 62.6505 6.83392 62.6505 7.84576V8.1376C62.6505 9.14944 62.4367 10.025 62.0086 10.7642C61.5804 11.5034 60.9903 12.071 60.2383 12.4666C59.4857 12.8621 58.63 13.0598 57.67 13.0598ZM57.67 11.2698C58.5519 11.2698 59.2687 10.9875 59.8198 10.4237C60.3708 9.8592 60.6467 9.0784 60.6467 8.07936V7.904C60.6467 6.9056 60.374 6.12352 59.8294 5.55968C59.2847 4.9952 58.5647 4.7136 57.67 4.7136C56.7753 4.7136 56.0905 4.99584 55.5395 5.55968C54.9878 6.12416 54.7126 6.9056 54.7126 7.904V8.07936C54.7126 9.0784 54.9878 9.85984 55.5395 10.4237C56.0905 10.9882 56.8009 11.2698 57.67 11.2698Z" fill="#160F26"></path>
    <path d="M64.5713 13.0598V2.92285H66.5361V4.51837H66.8471C67.0289 4.12925 67.3527 3.76637 67.8199 3.42909C68.2871 3.09181 68.9809 2.92349 69.9018 2.92349C70.6282 2.92349 71.2734 3.08605 71.8378 3.40989C72.4023 3.73437 72.8459 4.19133 73.1703 4.78141C73.4942 5.37149 73.6567 6.08189 73.6567 6.91197V13.0598H71.6529V7.06749C71.6529 6.23741 71.4455 5.62493 71.0302 5.22877C70.6148 4.83325 70.0446 4.63549 69.3182 4.63549C68.4881 4.63549 67.8231 4.90813 67.3239 5.45277C66.8247 5.99741 66.5751 6.90557 66.5751 7.94301V13.0598H64.5713Z" fill="#160F26"></path>
    <path d="M42.9154 13.0598H38.8105V11.4451H42.9154C43.5509 11.4451 44.0405 11.3222 44.3842 11.0752C44.7279 10.8288 44.9001 10.5107 44.9001 10.1216C44.9001 9.73248 44.7375 9.44704 44.4137 9.26528C44.0892 9.08416 43.6092 8.9344 42.9737 8.81792L42.3119 8.70144C41.6629 8.58496 41.0729 8.416 40.5417 8.19584C40.0098 7.97568 39.5881 7.6704 39.277 7.28128C38.966 6.89216 38.8098 6.39296 38.8098 5.78304C38.8098 4.87552 39.1471 4.17152 39.8217 3.67232C40.4962 3.17312 41.3909 2.92352 42.5065 2.92352H46.7093V4.55808H42.5065C41.9618 4.55808 41.5337 4.65856 41.2226 4.85952C40.9116 5.06048 40.7554 5.34272 40.7554 5.7056C40.7554 6.09472 40.9077 6.38016 41.2124 6.56192C41.517 6.74368 41.9292 6.88 42.4476 6.97024L43.1285 7.08672C43.8159 7.2032 44.445 7.36576 45.0159 7.57312C45.5868 7.78048 46.0373 8.07872 46.3682 8.46784C46.6991 8.85696 46.8642 9.376 46.8642 10.0243C46.8642 10.9843 46.5071 11.7299 45.7941 12.2618C45.0805 12.7936 44.1212 13.0592 42.9148 13.0592L42.9154 13.0598Z" fill="#160F26"></path>
    <path d="M21.5178 0.52736C21.1722 0.87872 21 1.34784 21 1.93344V13.0598H23.0115V4.62656H25.8845V2.92736H24.4957L23.3629 4.06016H23.0115V2.26496C23.0115 1.87456 23.1997 1.67936 23.5779 1.67936H25.8768V0H22.9334C22.3338 0 21.8621 0.176 21.5178 0.52736Z" fill="#160F26"></path>
    <defs>
        <clipPath id="clip0_2110_1515">
            <rect width="16" height="16" fill="white"></rect>
        </clipPath>
    </defs>
</svg>
