<svg width="24" height="24" viewBox="0 0 24 24" fill="none" xmlns="http://www.w3.org/2000/svg">
<path d="M7.19221 10.1747C7.16741 10.9551 7.55742 11.3006 7.56707 11.5201C7.55775 11.6107 7.5051 11.6912 7.42581 11.7361L6.98482 12.0448C6.92775 12.0848 6.86046 12.1078 6.79084 12.111C6.77603 12.1103 6.50868 12.174 6.08526 11.2286C5.56175 11.8821 4.76539 12.2567 3.92818 12.2433C3.36729 12.2739 1.84724 11.9249 1.92545 10.3067C1.87067 8.98783 3.0989 8.16855 4.36917 8.2378C4.61378 8.23849 5.11334 8.25055 5.98809 8.45382V7.91567C6.08077 7.00406 5.48164 6.29675 4.44427 6.40286C4.36159 6.4032 3.7759 6.38563 2.86497 6.75118C2.6114 6.86762 2.57902 6.84833 2.49462 6.84833C2.23932 6.84833 2.3444 6.10829 2.39333 6.01458C2.57282 5.79408 3.62878 5.38237 4.66512 5.38823C5.35804 5.32695 6.04727 5.54081 6.58379 5.98357C7.02451 6.47654 7.24444 7.1283 7.19255 7.78751L7.19221 10.1747ZM4.21483 11.2906C5.33213 11.2745 5.80515 10.6026 5.91299 10.2409C5.99774 9.89463 5.98362 9.67551 5.98362 9.29687C5.65046 9.21694 5.17089 9.12978 4.62068 9.12909C4.09873 9.08982 3.14543 9.32306 3.18263 10.2405C3.13991 10.819 3.56575 11.3223 4.21483 11.2906ZM10.1035 12.0848C9.83267 12.1096 9.70657 11.9173 9.6666 11.7275L7.95086 6.05489C7.91744 5.95911 7.8954 5.86023 7.88472 5.75928C7.87154 5.67263 7.93105 5.59167 8.0177 5.57841C8.02596 5.57703 7.94431 5.57841 8.78426 5.57841C9.08676 5.54809 9.1853 5.78616 9.21665 5.93568L10.4473 10.7876L11.5898 5.93568C11.608 5.82474 11.691 5.55429 12.0307 5.58289H12.622C12.6967 5.57669 13.0047 5.56566 13.0588 5.94016L14.2102 10.8541L15.4805 5.94016C15.497 5.86506 15.5742 5.54843 15.9173 5.58289H16.5967C16.626 5.57841 16.8086 5.55498 16.7776 5.87849C16.7628 5.94223 16.8951 5.51123 14.9603 11.732C14.9206 11.9218 14.7942 12.1141 14.5234 12.0893H13.8795C13.5026 12.1289 13.4485 11.7564 13.4426 11.7189L12.3002 6.99441L11.1708 11.7141C11.1653 11.7516 11.1112 12.1241 10.734 12.0844L10.1035 12.0848ZM19.5256 12.2787C19.323 12.2791 18.3569 12.2684 17.5494 11.8553C17.3848 11.7857 17.2786 11.6236 17.2803 11.445V11.0746C17.2803 10.7835 17.4939 10.8369 17.5845 10.8717C17.9304 11.0116 18.1523 11.1177 18.5771 11.2024C19.8398 11.4619 20.3951 11.1232 20.5312 11.0481C20.9843 10.779 21.0201 10.1634 20.7121 9.84398C20.351 9.54114 20.1788 9.52977 18.8816 9.12048C18.7218 9.07603 17.3761 8.65158 17.373 7.31654C17.3519 6.3436 18.236 5.381 19.7681 5.38892C20.2046 5.38858 21.3677 5.53121 21.6826 5.92707C21.7291 5.99907 21.7522 6.08383 21.7488 6.16962V6.51793C21.7488 6.6709 21.693 6.74739 21.581 6.74739C21.3154 6.71776 20.8441 6.36255 19.8873 6.37702C19.6499 6.36462 18.513 6.40837 18.564 7.2373C18.5492 7.89052 19.4808 8.13548 19.5872 8.16373C20.8434 8.54167 21.2633 8.60438 21.7619 9.18284C22.3524 9.94941 22.034 10.8469 21.9117 11.0929C21.2544 12.3845 19.5545 12.2794 19.5256 12.2787ZM20.9106 15.8914C18.4978 17.6733 14.9954 18.6218 12.0049 18.6218C7.96982 18.6484 4.07075 17.1647 1.07414 14.4623C0.849156 14.2594 1.0476 13.9814 1.32115 14.1361C4.64529 16.0376 8.40892 17.0367 12.2385 17.0342C15.0983 17.0189 17.9269 16.4387 20.5619 15.3271C20.9677 15.1548 21.3119 15.5958 20.9106 15.8914ZM21.9162 14.7445C21.6075 14.3476 19.8739 14.5592 19.0977 14.6518C18.8637 14.6784 18.8241 14.4754 19.036 14.3256C20.4165 13.355 22.6838 13.6331 22.9443 13.9593C23.2044 14.2856 22.8737 16.5574 21.5813 17.6427C21.3829 17.8104 21.1931 17.7219 21.2813 17.5014C21.572 16.7693 22.2249 15.1417 21.9162 14.7445Z" fill="white"/>
</svg>
