<svg width="24" height="24" viewBox="0 0 24 24" fill="none" xmlns="http://www.w3.org/2000/svg">
<path d="M7.19063 10.1747C7.16583 10.9551 7.55583 11.3006 7.56548 11.5201C7.55616 11.6107 7.50351 11.6912 7.42422 11.7361L6.98323 12.0448C6.92616 12.0848 6.85888 12.1078 6.78926 12.111C6.77445 12.1103 6.50709 12.174 6.08367 11.2286C5.56016 11.8821 4.76381 12.2567 3.9266 12.2433C3.36571 12.2739 1.84566 11.9249 1.92387 10.3067C1.86909 8.98783 3.09732 8.16855 4.36759 8.2378C4.6122 8.23849 5.11176 8.25055 5.98651 8.45382V7.91567C6.07919 7.00406 5.48006 6.29675 4.44269 6.40286C4.36001 6.4032 3.77432 6.38563 2.86339 6.75118C2.60982 6.86762 2.57743 6.84833 2.49303 6.84833C2.23773 6.84833 2.34281 6.10829 2.39174 6.01458C2.57123 5.79408 3.6272 5.38237 4.66354 5.38823C5.35646 5.32695 6.04568 5.54081 6.5822 5.98357C7.02292 6.47654 7.24286 7.1283 7.19097 7.78751L7.19063 10.1747ZM4.21324 11.2906C5.33054 11.2745 5.80357 10.6026 5.91141 10.2409C5.99616 9.89463 5.98204 9.67551 5.98204 9.29687C5.64888 9.21694 5.1693 9.12978 4.61909 9.12909C4.09714 9.08982 3.14384 9.32306 3.18104 10.2405C3.13832 10.819 3.56416 11.3223 4.21324 11.2906ZM10.1019 12.0848C9.83108 12.1096 9.70498 11.9173 9.66501 11.7275L7.94928 6.05489C7.91586 5.95911 7.89381 5.86023 7.88313 5.75928C7.86995 5.67263 7.92947 5.59167 8.01612 5.57841C8.02438 5.57703 7.94273 5.57841 8.78268 5.57841C9.08518 5.54809 9.18371 5.78616 9.21506 5.93568L10.4457 10.7876L11.5882 5.93568C11.6064 5.82474 11.6894 5.55429 12.0291 5.58289H12.6204C12.6951 5.57669 13.0031 5.56566 13.0572 5.94016L14.2086 10.8541L15.4789 5.94016C15.4954 5.86506 15.5726 5.54843 15.9157 5.58289H16.5951C16.6244 5.57841 16.807 5.55498 16.776 5.87849C16.7612 5.94223 16.8935 5.51123 14.9587 11.732C14.919 11.9218 14.7926 12.1141 14.5218 12.0893H13.8779C13.501 12.1289 13.4469 11.7564 13.441 11.7189L12.2986 6.99441L11.1692 11.7141C11.1637 11.7516 11.1096 12.1241 10.7324 12.0844L10.1019 12.0848ZM19.524 12.2787C19.3214 12.2791 18.3553 12.2684 17.5478 11.8553C17.3832 11.7857 17.277 11.6236 17.2787 11.445V11.0746C17.2787 10.7835 17.4923 10.8369 17.5829 10.8717C17.9288 11.0116 18.1507 11.1177 18.5755 11.2024C19.8382 11.4619 20.3935 11.1232 20.5296 11.0481C20.9827 10.779 21.0185 10.1634 20.7105 9.84398C20.3494 9.54114 20.1772 9.52977 18.88 9.12048C18.7202 9.07603 17.3745 8.65158 17.3714 7.31654C17.3503 6.3436 18.2344 5.381 19.7665 5.38892C20.203 5.38858 21.3661 5.53121 21.681 5.92707C21.7275 5.99907 21.7506 6.08383 21.7472 6.16962V6.51793C21.7472 6.6709 21.6914 6.74739 21.5794 6.74739C21.3138 6.71776 20.8425 6.36255 19.8857 6.37702C19.6483 6.36462 18.5114 6.40837 18.5624 7.2373C18.5476 7.89052 19.4792 8.13548 19.5856 8.16373C20.8418 8.54167 21.2617 8.60438 21.7603 9.18284C22.3508 9.94941 22.0324 10.8469 21.9101 11.0929C21.2528 12.3845 19.5529 12.2794 19.524 12.2787ZM20.909 15.8914C18.4962 17.6733 14.9938 18.6218 12.0033 18.6218C7.96824 18.6484 4.06917 17.1647 1.07255 14.4623C0.847571 14.2594 1.04602 13.9814 1.31957 14.1361C4.64371 16.0376 8.40733 17.0367 12.2369 17.0342C15.0967 17.0189 17.9253 16.4387 20.5603 15.3271C20.9661 15.1548 21.3103 15.5958 20.909 15.8914ZM21.9146 14.7445C21.6059 14.3476 19.8723 14.5592 19.0961 14.6518C18.8621 14.6784 18.8225 14.4754 19.0344 14.3256C20.4149 13.355 22.6822 13.6331 22.9427 13.9593C23.2028 14.2856 22.8721 16.5574 21.5797 17.6427C21.3813 17.8104 21.1915 17.7219 21.2797 17.5014C21.5704 16.7693 22.2233 15.1417 21.9146 14.7445Z" fill="black"/>
</svg>
