<svg width="24" height="24" viewBox="0 0 24 24" fill="none" xmlns="http://www.w3.org/2000/svg">
<path d="M6.00091 19.2201L14.001 2.72011C14.0505 2.61768 14.0637 2.50141 14.0382 2.3905C14.0127 2.27959 13.9502 2.18068 13.861 2.11011C13.7743 2.03681 13.6645 1.99658 13.551 1.99658C13.4375 1.99658 13.3276 2.03681 13.241 2.11011L6.24091 7.61011C6.18739 7.65029 6.14307 7.70143 6.11091 7.76011L0.110914 18.7601C0.0688998 18.8367 0.046875 18.9227 0.046875 19.0101C0.046875 19.0975 0.0688998 19.1835 0.110914 19.2601C0.155785 19.3338 0.218968 19.3947 0.294319 19.4367C0.36967 19.4788 0.454623 19.5006 0.540914 19.5001H5.54091C5.63631 19.5022 5.73032 19.4769 5.81183 19.4273C5.89334 19.3777 5.95895 19.3058 6.00091 19.2201Z" fill="white"/>
<path d="M23.9391 21.2701L15.2391 4.74012C15.1995 4.65546 15.1355 4.58456 15.0553 4.53646C14.9752 4.48837 14.8825 4.46527 14.7891 4.47012C14.6971 4.47178 14.6074 4.4988 14.5297 4.5482C14.4521 4.59761 14.3896 4.66747 14.3491 4.75012L10.6491 12.4001C10.6072 12.4866 10.5906 12.5832 10.6012 12.6788C10.6119 12.7743 10.6493 12.8649 10.7091 12.9401L15.5891 18.7001L5.87919 21.0001C5.76024 21.0307 5.65631 21.1031 5.5865 21.2042C5.51669 21.3052 5.48568 21.428 5.49918 21.5501C5.51373 21.673 5.57248 21.7864 5.66447 21.8692C5.75646 21.952 5.87542 21.9985 5.99918 22.0001H23.4991C23.5854 22.0006 23.6704 21.9788 23.7457 21.9367C23.8211 21.8947 23.8843 21.8338 23.9291 21.7601C23.9727 21.6862 23.9965 21.6022 23.9983 21.5164C24 21.4306 23.9797 21.3458 23.9391 21.2701Z" fill="white"/>
</svg>
