<svg width="24" height="24" viewBox="0 0 24 24" fill="none" xmlns="http://www.w3.org/2000/svg">
<path d="M6.00006 19.2201L14.0001 2.72011C14.0496 2.61768 14.0628 2.50141 14.0373 2.3905C14.0118 2.27959 13.9493 2.18068 13.8601 2.11011C13.7734 2.03681 13.6636 1.99658 13.5501 1.99658C13.4366 1.99658 13.3267 2.03681 13.2401 2.11011L6.24006 7.61011C6.18654 7.65029 6.14222 7.70143 6.11006 7.76011L0.11006 18.7601C0.0680453 18.8367 0.0460205 18.9227 0.0460205 19.0101C0.0460205 19.0975 0.0680453 19.1835 0.11006 19.2601C0.154931 19.3338 0.218114 19.3947 0.293465 19.4367C0.368816 19.4788 0.453769 19.5006 0.54006 19.5001H5.54006C5.63546 19.5022 5.72947 19.4769 5.81098 19.4273C5.89249 19.3777 5.9581 19.3058 6.00006 19.2201Z" fill="black"/>
<path d="M23.94 21.2701L15.24 4.74012C15.2004 4.65546 15.1364 4.58456 15.0562 4.53646C14.9761 4.48837 14.8834 4.46527 14.79 4.47012C14.698 4.47178 14.6083 4.4988 14.5306 4.5482C14.453 4.59761 14.3905 4.66747 14.35 4.75012L10.65 12.4001C10.6081 12.4866 10.5915 12.5832 10.6021 12.6788C10.6128 12.7743 10.6502 12.8649 10.71 12.9401L15.59 18.7001L5.88004 21.0001C5.76109 21.0307 5.65717 21.1031 5.58736 21.2042C5.51755 21.3052 5.48654 21.428 5.50004 21.5501C5.51459 21.673 5.57334 21.7864 5.66533 21.8692C5.75732 21.952 5.87628 21.9985 6.00004 22.0001H23.5C23.5863 22.0006 23.6713 21.9788 23.7466 21.9367C23.822 21.8947 23.8852 21.8338 23.93 21.7601C23.9736 21.6862 23.9974 21.6022 23.9992 21.5164C24.0009 21.4306 23.9806 21.3458 23.94 21.2701Z" fill="black"/>
</svg>
