<svg width="24" height="24" viewBox="0 0 24 24" fill="none" xmlns="http://www.w3.org/2000/svg">
<g clip-path="url(#clip0_15_775)">
<path d="M11.4826 19.5763C7.69536 19.3247 4.6608 16.2825 4.42272 12.4915H0C0.24576 18.7276 5.24928 23.7407 11.4826 23.9999V19.5763Z" fill="#FA6863"/>
<path d="M4.42368 11.4826C4.6752 7.69536 7.71744 4.6608 11.5085 4.42272V0C5.27232 0.24576 0.2592 5.24928 0 11.4826H4.42368Z" fill="#FA6863"/>
<path d="M19.5764 12.5173C19.3249 16.3045 16.2826 19.3391 12.4916 19.5772V23.9999C18.7277 23.7541 23.7409 18.7506 24.0001 12.5173H19.5764Z" fill="#FA6863"/>
<path d="M12.5175 4.42368C16.3047 4.6752 19.3392 7.71744 19.5773 11.5085H24C23.7543 5.27232 18.7507 0.2592 12.5175 0V4.42368Z" fill="#FA6863"/>
</g>
<defs>
<clipPath id="clip0_15_775">
<rect width="24" height="24" fill="white"/>
</clipPath>
</defs>
</svg>
