<svg width="24" height="24" viewBox="0 0 24 24" fill="none" xmlns="http://www.w3.org/2000/svg">
<g clip-path="url(#clip0_5816_73083)">
<path d="M19.7618 9.93455C19.6158 8.61717 19.1302 7.36027 18.3527 6.28687L15.8542 8.78528L15.7043 8.94518C16.0075 9.53929 16.1651 10.197 16.164 10.864C16.1657 11.5203 16.0116 12.1676 15.7143 12.7528C15.675 12.8266 15.6544 12.9089 15.6544 12.9926C15.6544 13.0763 15.675 13.1586 15.7143 13.2325C15.7606 13.3048 15.824 13.3646 15.899 13.4065C15.974 13.4483 16.0582 13.4709 16.1441 13.4723H17.9929C18.4533 13.5064 18.8837 13.7134 19.1979 14.0516C19.512 14.3899 19.6866 14.8345 19.6866 15.2961C19.6866 15.7578 19.512 16.2024 19.1979 16.5406C18.8837 16.8789 18.4533 17.0859 17.9929 17.12H12.9961V20.7677H18.5126C19.8571 20.7727 21.1563 20.2821 22.1618 19.3896C23.1674 18.4971 23.8088 17.2653 23.9634 15.9297C24.1179 14.5941 23.7749 13.2484 22.9998 12.1498C22.2247 11.0511 21.0719 10.2767 19.7618 9.97451V9.93455Z" fill="white"/>
<path d="M6.66101 17.9793L4.3125 20.3278C5.01971 20.589 5.76721 20.7242 6.5211 20.7275H11.5179V17.0798H7.56044L6.66101 17.9793Z" fill="white"/>
<path d="M6.51916 6.19695C7.49008 6.19381 8.45292 6.3735 9.35735 6.72662C9.63011 6.83212 9.89699 6.95221 10.1569 7.08639C10.7259 6.79488 11.3564 6.64409 11.9957 6.64667C13.0306 6.64381 14.029 7.0289 14.7939 7.72598L17.3723 5.14762C16.5663 4.37917 15.6045 3.79284 14.5522 3.42831C13.4999 3.06379 12.3816 2.92958 11.2729 3.03476C10.1643 3.13994 9.09109 3.48206 8.12612 4.03797C7.16114 4.59388 6.32684 5.3506 5.67969 6.25691C5.95825 6.22203 6.23847 6.20202 6.51916 6.19695Z" fill="white"/>
<path d="M2.89286 19.6285L5.60114 16.9202C5.17123 16.7655 4.78447 16.5104 4.47309 16.1761C4.16171 15.8417 3.9347 15.4378 3.81098 14.998C3.68725 14.5582 3.67039 14.0952 3.76179 13.6475C3.85319 13.1999 4.05021 12.7805 4.33645 12.4244C4.62269 12.0683 4.98985 11.7857 5.40738 11.6002C5.82491 11.4147 6.28072 11.3316 6.73685 11.3579C7.19298 11.3841 7.63624 11.519 8.02972 11.7512C8.4232 11.9834 8.75551 12.3063 8.99898 12.6929C9.03928 12.7575 9.09328 12.8125 9.15718 12.8539C9.22108 12.8954 9.29331 12.9223 9.36875 12.9327H9.41872C9.48575 12.9337 9.55227 12.9209 9.61416 12.8951C9.67605 12.8693 9.73198 12.8311 9.77849 12.7828L11.6773 10.884C11.7574 10.7928 11.8016 10.6756 11.8016 10.5542C11.8016 10.4329 11.7574 10.3156 11.6773 10.2244C10.94 9.27523 9.95412 8.54881 8.82909 8.12578C8.09295 7.8404 7.31008 7.69467 6.52056 7.69605C5.91564 7.69704 5.31373 7.7811 4.7317 7.9459C3.53573 8.28639 2.46217 8.96199 1.63778 9.89292C0.813388 10.8239 0.272592 11.9712 0.079248 13.1996C-0.114096 14.428 0.0480873 15.686 0.546647 16.8252C1.04521 17.9643 1.85932 18.9371 2.89286 19.6285Z" fill="white"/>
</g>
<defs>
<clipPath id="clip0_5816_73083">
<rect width="24" height="24" fill="white"/>
</clipPath>
</defs>
</svg>
