<svg width="22" height="22" viewBox="0 0 22 22" fill="none" xmlns="http://www.w3.org/2000/svg">
<mask id="mask0_2321_230" style="mask-type:luminance" maskUnits="userSpaceOnUse" x="0" y="0" width="22" height="22">
<path d="M21.912 0H0V22H21.912V0Z" fill="white"/>
</mask>
<g mask="url(#mask0_2321_230)">
<path d="M18.6038 11.3905L18.634 11.4015L18.6643 11.4125L18.6945 11.4263L18.7248 11.4428L18.7523 11.4593L18.7798 11.4758L18.8073 11.495L18.832 11.5143L18.8568 11.5363L18.8815 11.5583L18.9035 11.583L18.9255 11.6078L18.9475 11.6353L18.9668 11.6628L18.986 11.6903L19.0025 11.7178L19.0163 11.748L19.03 11.7783L19.041 11.8085L19.052 11.8388L19.0603 11.8718L19.0685 11.902L19.074 11.935L19.0795 11.9653V11.9983L19.085 12.0313V12.0643V12.0973V12.1303L19.0795 12.1633L19.074 12.1963L19.0685 12.2293L19.0603 12.2623L19.052 12.2925L19.041 12.3255L19.03 12.3558L19.0163 12.386L19.0025 12.4163L18.986 12.4438L18.9668 12.4713L18.9475 12.4988L18.9255 12.5235L18.9035 12.5483L18.8815 12.5703L18.8568 12.595L18.832 12.617L18.8073 12.6363L18.7798 12.6555L18.7523 12.6748L18.7248 12.6913L18.6945 12.7078L18.6643 12.7215L18.634 12.7353L18.6038 12.7463L18.5735 12.7573L18.5433 12.7655L18.513 12.7738L18.48 12.7793H18.4498L18.4168 12.7875H18.4113H18.4443L18.5048 12.7848H18.5653L18.6258 12.7765L18.6835 12.7683L18.744 12.76L18.8018 12.749L18.8595 12.738L18.9173 12.7243L18.975 12.7105L19.0328 12.694L19.0905 12.6748L19.1455 12.6555L19.2005 12.6335L19.2555 12.6115L19.3105 12.5868L19.3655 12.562L19.4178 12.5345L19.47 12.507L19.5223 12.4768L19.5718 12.4438L19.6213 12.4108L19.6708 12.3778L19.7203 12.342L19.767 12.3063L19.8138 12.2705L19.8605 12.232L19.9045 12.1908L19.9485 12.1495L19.9925 12.1055L20.0338 12.0615L20.0723 12.0175L20.1108 11.9708L20.1493 11.924L20.185 11.8745L20.2208 11.825L20.2538 11.7755L20.2868 11.7233L20.317 11.671L20.3473 11.6188L20.3775 11.5665L20.405 11.5143L20.4298 11.4593L20.4545 11.4043L20.4765 11.3493L20.4985 11.2943L20.5178 11.2365L20.5343 11.1788L20.5508 11.121L20.5645 11.0633L20.5783 11.0055L20.5893 10.945L20.6003 10.8873L20.6085 10.8295L20.614 10.769L20.6195 10.7085L20.625 10.648V10.5875V10.527V10.4665V10.406L20.6195 10.3455L20.614 10.285L20.6085 10.2273L20.6003 10.1668L20.5893 10.1063L20.5783 10.0485L20.5645 9.99078L20.5535 9.94678H18.381H13.3403L18.5708 11.3905L18.6065 11.4015L18.6038 11.3905Z" fill="white"/>
<path d="M21.9092 11.9132L21.9038 11.8362L21.8982 11.762L21.89 11.685L21.8818 11.6107L21.8708 11.5365L21.8597 11.4622L21.846 11.388L21.8323 11.3137L21.8158 11.2395L21.7965 11.1652L21.7773 11.091L21.7553 11.0195L21.7333 10.948L21.7085 10.8765L21.681 10.805L21.6535 10.7362L21.6232 10.6647L21.593 10.596L21.5628 10.5272L21.5298 10.4585L21.494 10.3925L21.4583 10.3265L21.4198 10.2605L21.3813 10.1945L21.3428 10.1312L21.3015 10.068L21.2602 10.0075L21.2163 9.94698L21.2025 9.92773H20.548L20.559 9.97173L20.5727 10.0295L20.5838 10.0872L20.5948 10.1477L20.603 10.2082L20.6085 10.266L20.614 10.3265L20.6195 10.387V10.4475V10.508V10.5685V10.629L20.614 10.6895L20.6085 10.75L20.603 10.8105L20.5948 10.8682L20.5838 10.926L20.5727 10.9865L20.559 11.0442L20.5453 11.102L20.5288 11.1597L20.5122 11.2175L20.493 11.2752L20.471 11.3302L20.449 11.3852L20.4242 11.4402L20.3995 11.4952L20.372 11.5475L20.3418 11.5997L20.3115 11.652L20.2813 11.7042L20.2482 11.7565L20.2153 11.806L20.1795 11.8555L20.1438 11.905L20.1053 11.9517L20.0668 11.9985L20.0283 12.0425L19.987 12.0865L19.943 12.1305L19.899 12.1717L19.855 12.213L19.8083 12.2515L19.7615 12.2872L19.7148 12.323L19.6653 12.3587L19.6158 12.3917L19.5663 12.4247L19.5168 12.4577L19.4645 12.488L19.4122 12.5155L19.36 12.543L19.305 12.5677L19.25 12.5925L19.195 12.6145L19.14 12.6365L19.085 12.6557L19.0273 12.675L18.9695 12.6915L18.9117 12.7052L18.854 12.719L18.7962 12.73L18.7385 12.741L18.678 12.7492L18.6203 12.7575L18.5597 12.763H18.4992L18.4388 12.7685H18.3783H0V15.6065H18.4553H18.5295L18.6038 15.601L18.678 15.5955L18.7523 15.5872L18.8265 15.579L18.9008 15.568L18.975 15.557L19.0492 15.5432L19.1235 15.5267L19.1977 15.5102L19.2693 15.4937L19.3408 15.4745L19.4122 15.4525L19.4838 15.4305L19.5553 15.4057L19.6268 15.381L19.6982 15.3535L19.767 15.326L19.8357 15.2957L19.9045 15.2627L19.9732 15.2297L20.0393 15.1967L20.1053 15.161L20.1713 15.1252L20.2372 15.0867L20.3005 15.0482L20.3638 15.007L20.427 14.963L20.4875 14.919L20.548 14.8722L20.6058 14.8255L20.6635 14.776L20.7213 14.7265L20.7763 14.677L20.8313 14.6247L20.8835 14.5725L20.9357 14.5175L20.9852 14.4625L21.0347 14.4075L21.0842 14.3497L21.131 14.292L21.1778 14.2342L21.2245 14.1737L21.2685 14.1132L21.3097 14.0527L21.351 13.9895L21.3895 13.9262L21.428 13.8602L21.4665 13.7942L21.5023 13.7282L21.538 13.6622L21.571 13.5935L21.6013 13.5247L21.6315 13.456L21.6617 13.3872L21.6893 13.3185L21.7168 13.247L21.7415 13.1755L21.7635 13.104L21.7855 13.0297L21.8048 12.9582L21.824 12.884L21.8405 12.8097L21.8543 12.7355L21.868 12.6612L21.879 12.587L21.89 12.5127L21.8982 12.4385L21.9065 12.3642L21.912 12.2872L21.9175 12.213V12.1387L21.9203 12.0617V11.9847L21.9175 11.9105L21.9092 11.9132Z" fill="#FA6863"/>
<path d="M3.31102 10.6067L3.28077 10.5957L3.25052 10.5847L3.22027 10.5709L3.19002 10.5544L3.16252 10.5379L3.13502 10.5214L3.10752 10.5022L3.08277 10.4829L3.05802 10.4609L3.03327 10.4389L3.01127 10.4142L2.98927 10.3894L2.96727 10.3619L2.94802 10.3344L2.92877 10.3069L2.91227 10.2794L2.89852 10.2492L2.88477 10.2189L2.87377 10.1887L2.86277 10.1584L2.85452 10.1254L2.84627 10.0952L2.83802 10.0622L2.83252 10.0319V9.9989L2.82702 9.9659V9.9329V9.8999V9.8669L2.83252 9.8339L2.83802 9.8009L2.84627 9.7679L2.85452 9.7349L2.86277 9.70465L2.87377 9.67165L2.88477 9.6414L2.89852 9.61115L2.91227 9.58365L2.92877 9.5534L2.94802 9.5259L2.96727 9.4984L2.98927 9.47365L3.01127 9.4489L3.03327 9.42415L3.05802 9.40215L3.08277 9.38015L3.10752 9.3609L3.13502 9.34165L3.16252 9.3224L3.19002 9.3059L3.22027 9.29215L3.25052 9.2784L3.28077 9.26465L3.31102 9.25365L3.34127 9.24265L3.37152 9.2344L3.40177 9.22615L3.43477 9.22065H3.46502L3.49802 9.2124H3.50352H3.41002L3.34952 9.22065L3.28902 9.22615L3.23127 9.2344L3.17077 9.24265L3.11027 9.25365L3.05252 9.26465L2.99477 9.2784L2.93702 9.29215L2.87927 9.30865L2.82152 9.3279L2.76652 9.34715L2.70877 9.3664L2.65377 9.3884L2.59877 9.41315L2.54377 9.4379L2.49152 9.4654L2.43927 9.4929L2.38977 9.52315L2.34027 9.55615L2.29077 9.58915L2.24127 9.62215L2.19177 9.6579L2.14227 9.69365L2.09552 9.73215L2.04877 9.77065L2.00477 9.8119L1.96077 9.85315L1.91677 9.8944L1.87552 9.9384L1.83702 9.9824L1.79852 10.0292L1.76277 10.0759L1.72427 10.1227L1.69127 10.1722L1.65827 10.2217L1.62527 10.2712L1.59502 10.3234L1.56477 10.3757L1.53452 10.4307L1.50702 10.4829L1.48227 10.5379L1.45752 10.5929L1.43552 10.6479L1.41352 10.7029L1.39427 10.7607L1.37777 10.8184L1.36127 10.8762L1.34752 10.9339L1.33377 10.9917L1.32277 11.0494L1.31177 11.1099L1.30352 11.1677L1.29802 11.2282L1.29252 11.2859L1.28702 11.3464V11.4069V11.4674V11.5279V11.5884L1.29252 11.6489L1.29802 11.7094L1.30352 11.7699L1.31177 11.8304L1.32277 11.8882L1.33377 11.9459L1.34752 12.0037L1.35852 12.0504H3.53102H8.57177L3.34127 10.6067L3.30552 10.5957L3.31102 10.6067Z" fill="white"/>
<path d="M0.00275684 10.0842V10.1612L0.0137568 10.2354L0.0220068 10.3097L0.0302568 10.3839L0.0412568 10.4582L0.0522568 10.5324L0.0660068 10.6067L0.0797568 10.6809L0.0962568 10.7552L0.115507 10.8294L0.134757 10.9037L0.156757 10.9752L0.178757 11.0467L0.203507 11.1182L0.231007 11.1897L0.258507 11.2584L0.288757 11.3299L0.319007 11.3987L0.349257 11.4674L0.382257 11.5334L0.418007 11.5994L0.453757 11.6654L0.492257 11.7314L0.530757 11.7947L0.569257 11.8579L0.610507 11.9212L0.654507 11.9844L0.698507 12.0449L0.712257 12.0642H1.36676L1.35576 12.0174L1.34201 11.9597L1.33101 11.9019L1.32001 11.8442L1.31176 11.7837L1.30626 11.7232L1.30076 11.6627L1.29526 11.6022V11.5417V11.4812V11.4207V11.3602L1.30076 11.2997L1.30626 11.2419L1.31176 11.1814L1.32001 11.1237L1.33101 11.0632L1.34201 11.0054L1.35576 10.9477L1.36951 10.8899L1.38601 10.8322L1.40251 10.7744L1.42176 10.7167L1.44376 10.6617L1.46576 10.6067L1.49051 10.5517L1.51526 10.4967L1.54276 10.4444L1.57301 10.3894L1.60326 10.3372L1.63351 10.2849L1.66651 10.2354L1.69951 10.1859L1.73251 10.1364L1.77101 10.0897L1.80676 10.0429L1.84526 9.99618L1.88376 9.95218L1.92501 9.90818L1.96901 9.86693L2.01301 9.82568L2.05701 9.78443L2.10376 9.74593L2.15051 9.70743L2.20001 9.67168L2.24951 9.63593L2.29901 9.60293L2.34851 9.56993L2.39801 9.53693L2.44751 9.50668L2.49976 9.47918L2.55201 9.45168L2.60701 9.42693L2.66201 9.40218L2.71701 9.38018L2.77476 9.36093L2.82976 9.34168L2.88751 9.32243L2.94526 9.30593L3.00301 9.29218L3.06076 9.27843L3.11851 9.26743L3.17901 9.25643L3.23951 9.24818L3.29726 9.23993L3.35776 9.23443L3.41826 9.22893H3.47876L3.53926 9.22618H21.9175V6.38818H3.45951H3.38526L3.31101 6.39368L3.23676 6.39918L3.16251 6.40743L3.08826 6.41568L3.01401 6.42668L2.93976 6.43768L2.86551 6.45143L2.79126 6.46518L2.71976 6.48168L2.64826 6.50093L2.57676 6.52018L2.50526 6.54218L2.43376 6.56418L2.36226 6.58893L2.29076 6.61368L2.21926 6.64118L2.15051 6.66868L2.08176 6.69893L2.01301 6.73193L1.94426 6.76493L1.87826 6.79793L1.81226 6.83368L1.74626 6.86943L1.68026 6.90793L1.61701 6.94918L1.55376 6.99043L1.49326 7.03443L1.43276 7.07843L1.37226 7.12243L1.31451 7.16918L1.25676 7.21868L1.19901 7.26818L1.14401 7.31768L1.08901 7.36993L1.03676 7.42218L0.984507 7.47718L0.932257 7.53218L0.882757 7.58718L0.833257 7.64493L0.786507 7.70268L0.739757 7.76043L0.693007 7.82093L0.649007 7.88143L0.605007 7.94193L0.563757 8.00518L0.525257 8.06843L0.486757 8.13443L0.448257 8.20043L0.412507 8.26643L0.376757 8.33243L0.343757 8.40118L0.313507 8.46993L0.283257 8.53868L0.253007 8.60743L0.225507 8.67893L0.198007 8.75043L0.173257 8.82193L0.151257 8.89343L0.129257 8.96493L0.110007 9.03918L0.0907568 9.11343L0.0742568 9.18768L0.0605068 9.26193L0.0467568 9.33618L0.0357568 9.41043L0.0247568 9.48468L0.0165068 9.55893L0.00825684 9.63318L0.00275684 9.70743V9.78168L-0.00549316 9.85868V10.0842H0.00275684Z" fill="#F18046"/>
<path d="M3.31101 4.2214L3.28076 4.2104L3.25051 4.19665L3.22026 4.1829L3.19276 4.1664L3.16251 4.1499L3.13501 4.1334L3.10751 4.11415L3.08001 4.0949L3.05526 4.0729L3.03051 4.0509L3.00851 4.02615L2.98651 4.0014L2.96451 3.9739L2.94526 3.9464L2.92876 3.9189L2.91226 3.8914L2.89851 3.86115L2.88476 3.8309L2.87376 3.80065L2.86276 3.76765L2.85176 3.7374L2.84351 3.70715L2.83526 3.67415L2.82976 3.64115L2.82426 3.60815V3.57515V3.54215V3.50915V3.47615L2.82976 3.44315L2.83526 3.41015L2.84351 3.37715L2.85176 3.34415L2.86276 3.31115L2.87376 3.2809L2.88476 3.25065L2.89851 3.2204L2.91226 3.19015L2.92876 3.16265L2.94526 3.13515L2.96451 3.10765L2.98651 3.0829L3.00851 3.05815L3.03051 3.0334L3.05526 3.0114L3.08001 2.9894L3.10751 2.97015L3.13501 2.9509L3.16251 2.93165L3.19276 2.91515L3.22026 2.89865L3.25051 2.8849L3.28076 2.8739L3.31101 2.8629L3.34126 2.8519L3.37151 2.84365L3.40451 2.83815L3.43476 2.83265H3.46776L3.50076 2.82715H3.51176H3.41276L3.35226 2.8354L3.29176 2.8409L3.23401 2.84915L3.17351 2.8574L3.11301 2.8684L3.05526 2.8794L2.99751 2.89315L2.93976 2.9069L2.88201 2.9234L2.82426 2.94265L2.76926 2.9619L2.71151 2.9839L2.65651 3.0059L2.60151 3.03065L2.54651 3.0554L2.49426 3.0829L2.44201 3.1104L2.39251 3.14065L2.34026 3.17365L2.29076 3.20665L2.24126 3.23965L2.19176 3.2754L2.14226 3.31115L2.09551 3.34965L2.05151 3.38815L2.00751 3.42665L1.96351 3.4679L1.92226 3.50915L1.88101 3.55315L1.84251 3.59715L1.80401 3.6439L1.76826 3.69065L1.72976 3.74015L1.69676 3.78965L1.66376 3.83915L1.63076 3.88865L1.60051 3.9409L1.57026 3.99315L1.54001 4.04815L1.51251 4.1004L1.48776 4.1554L1.46301 4.2104L1.44101 4.2654L1.41901 4.3204L1.39976 4.37815L1.38326 4.4359L1.36676 4.49365L1.35301 4.5514L1.33926 4.60915L1.32826 4.6669L1.31726 4.7274L1.30901 4.78515L1.30076 4.84565L1.29526 4.9034L1.28976 4.9639V5.0244V5.0849V5.1454V5.2059L1.29526 5.2664L1.30076 5.3269L1.30901 5.38465L1.31726 5.44515L1.32826 5.50565L1.33926 5.5634L1.35301 5.62115L1.36676 5.6789L1.38326 5.73665L1.39976 5.7944L1.41901 5.8494L1.44101 5.9044L1.46301 5.9594L1.48776 6.0144L1.51251 6.0694L1.54001 6.1244L1.55651 6.15465L1.63076 6.11615L1.70501 6.0804L1.77926 6.04465L1.85351 6.01165L1.92776 5.97865L2.00476 5.9484L2.08176 5.9209L2.15876 5.89065L2.23576 5.8659L2.31551 5.84115L2.39526 5.81915L2.47501 5.79715L2.55476 5.7779L2.63451 5.7614L2.71426 5.7449L2.79401 5.7284L2.87651 5.71465L2.95901 5.70365L3.04151 5.69265L3.12401 5.6844L3.20651 5.67615L3.28901 5.67065H3.36876L3.45401 5.66515H3.53651H8.57726L3.34676 4.2214L3.31101 4.2104V4.2214Z" fill="white"/>
<path d="M18.3783 19.1622H18.4993L18.5598 19.154L18.6203 19.1485L18.6808 19.1402L18.7413 19.132L18.799 19.121L18.8568 19.11L18.9145 19.0962L18.9723 19.0825L19.03 19.066L19.0878 19.0467L19.1455 19.0275L19.2005 19.0055L19.2555 18.9835L19.3105 18.9587L19.3655 18.934L19.4178 18.9065L19.47 18.879L19.5223 18.8487L19.5718 18.8157L19.6213 18.7827L19.6708 18.7497L19.7203 18.714L19.767 18.6782L19.8138 18.6425L19.8605 18.604L19.9045 18.5627L19.9485 18.5215L19.9898 18.4775L20.031 18.4335L20.0723 18.3895L20.1108 18.3427L20.1493 18.296L20.185 18.2465L20.218 18.197L20.251 18.1475L20.284 18.0952L20.3143 18.043L20.3445 17.9907L20.3748 17.9385L20.4023 17.8835L20.427 17.8285L20.449 17.7735L20.4738 17.7185L20.493 17.6635L20.5123 17.6057L20.5315 17.548L20.548 17.4902L20.5645 17.4325L20.5783 17.3747L20.5893 17.3142L20.6003 17.2565L20.6085 17.1987L20.6168 17.1382L20.6223 17.0805V17.02L20.6278 16.9595V16.778L20.6223 16.7175L20.6168 16.657L20.6085 16.5992L20.6003 16.5387L20.5893 16.4782L20.5783 16.4205L20.5645 16.3627L20.548 16.305L20.5315 16.2472L20.5123 16.1895L20.493 16.1317L20.4738 16.0767L20.449 16.0217L20.427 15.9667L20.4023 15.9117L20.3748 15.8567L20.3583 15.8237L20.284 15.8622L20.2098 15.898L20.1355 15.9337L20.0613 15.9667L19.9843 15.9997L19.9073 16.03L19.8303 16.0575L19.7533 16.085L19.6735 16.1125L19.5965 16.1372L19.5195 16.1592L19.4398 16.1812L19.36 16.2005L19.2803 16.2197L19.2005 16.2362L19.1208 16.25L19.041 16.2637L18.9585 16.2747L18.876 16.2857L18.7935 16.294L18.711 16.3022L18.6285 16.3077L18.546 16.3132H18.4635L18.381 16.316H13.3403L18.5708 17.7597L18.6065 17.7707L18.6368 17.7817L18.667 17.7927L18.6973 17.8065L18.7275 17.823L18.755 17.8395L18.7825 17.856L18.81 17.8752L18.8348 17.8945L18.8595 17.9165L18.8843 17.9385L18.9063 17.9632L18.9283 17.988L18.9503 18.0155L18.9695 18.043L18.9888 18.0705L19.0053 18.098L19.019 18.1282L19.0328 18.1585L19.0438 18.1887L19.0548 18.219L19.063 18.252L19.0713 18.2822L19.0768 18.3152L19.0823 18.3482V18.3812L19.0878 18.4142V18.4472V18.4802V18.5132L19.0823 18.5462L19.0768 18.5792L19.0713 18.6122L19.063 18.6452L19.0548 18.6755L19.0438 18.7085L19.0328 18.7387L19.019 18.769L19.0053 18.7965L18.9888 18.8267L18.9695 18.8542L18.9503 18.8817L18.9283 18.9065L18.9063 18.9312L18.8843 18.956L18.8595 18.978L18.8348 19L18.81 19.0192L18.7825 19.0385L18.755 19.0577L18.7275 19.0742L18.6973 19.088L18.667 19.1017L18.6368 19.1155L18.6065 19.1265L18.5763 19.1375L18.546 19.1457L18.5158 19.154L18.4828 19.1595H18.4525L18.4195 19.1677H18.3865" fill="white"/>
<path d="M21.9092 18.3015V18.2272L21.901 18.153L21.8928 18.076L21.8845 18.0017L21.8735 17.9275L21.8625 17.8532L21.8487 17.779L21.835 17.7047L21.8185 17.6305L21.7992 17.559L21.78 17.4847L21.758 17.4105L21.736 17.339L21.7112 17.2675L21.6838 17.196L21.6563 17.1272L21.626 17.0557L21.5958 16.987L21.5655 16.9182L21.5325 16.8495L21.4967 16.7835L21.461 16.7175L21.4225 16.6515L21.384 16.5855L21.3455 16.5222L21.3043 16.459L21.2602 16.3985L21.2163 16.338L21.1695 16.2775L21.1227 16.2197L21.0732 16.162L21.0237 16.107L20.9742 16.052L20.922 15.997L20.8698 15.942L20.8148 15.8897L20.7597 15.8375L20.7048 15.788L20.647 15.7385L20.5893 15.689H20.5865L20.504 15.7357L20.4325 15.777L20.3583 15.8182L20.3472 15.8237L20.3665 15.8595L20.394 15.9145L20.4188 15.9695L20.4408 16.0245L20.4655 16.0795L20.4847 16.1345L20.504 16.1922L20.5232 16.25L20.5398 16.3077L20.5563 16.3655L20.57 16.4232L20.581 16.481L20.592 16.5415L20.6003 16.602L20.6085 16.6597L20.614 16.7202V16.7807L20.6195 16.8412V17.02L20.614 17.0805L20.6085 17.1382L20.6003 17.1987L20.592 17.2565L20.581 17.3142L20.57 17.3747L20.5563 17.4325L20.5398 17.4902L20.5232 17.548L20.504 17.6057L20.4847 17.6635L20.4655 17.7185L20.4408 17.7735L20.4188 17.8285L20.394 17.8835L20.3665 17.9385L20.3362 17.9907L20.306 18.043L20.2758 18.0952L20.2428 18.1475L20.2097 18.197L20.1768 18.2465L20.141 18.296L20.1025 18.3427L20.064 18.3895L20.0227 18.4335L19.9815 18.4775L19.9403 18.5215L19.8963 18.5627L19.8523 18.604L19.8055 18.6425L19.7588 18.6782L19.712 18.714L19.6625 18.7497L19.613 18.7827L19.5635 18.8157L19.514 18.8487L19.4617 18.879L19.4095 18.9065L19.3573 18.934L19.3023 18.9587L19.2472 18.9835L19.1923 19.0055L19.1372 19.0275L19.0795 19.0467L19.0217 19.066L18.964 19.0825L18.9063 19.0962L18.8485 19.11L18.7908 19.121L18.733 19.132L18.6725 19.1402L18.612 19.1485L18.5515 19.154H18.491L18.4305 19.1622H0V22.0002H18.4553H18.5295L18.6038 21.9947L18.678 21.9892L18.7523 21.9837L18.8265 21.9755L18.9008 21.9645L18.975 21.9535L19.0492 21.9397L19.1235 21.9232L19.195 21.9067L19.2665 21.8902L19.338 21.871L19.4095 21.849L19.481 21.827L19.5525 21.8022L19.624 21.7775L19.6928 21.75L19.7615 21.7225L19.8303 21.6922L19.899 21.6592L19.965 21.6262L20.0338 21.5932L20.0997 21.5575L20.1658 21.5217L20.229 21.4832L20.2923 21.442L20.3555 21.4007L20.416 21.3567L20.4765 21.3127L20.537 21.2687L20.5948 21.222L20.6525 21.1725L20.7102 21.123L20.7653 21.0735L20.8203 21.0212L20.8753 20.969L20.9275 20.9167L20.9798 20.8617L21.0293 20.8067L21.0788 20.749L21.1283 20.6912L21.175 20.6335L21.2217 20.573L21.2658 20.5125L21.3097 20.452L21.351 20.3887L21.3895 20.3255L21.428 20.2595L21.4665 20.1935L21.5023 20.1275L21.538 20.0615L21.571 19.9927L21.6013 19.924L21.6315 19.8552L21.6617 19.7865L21.6893 19.7177L21.7168 19.6462L21.7415 19.5747L21.7635 19.5032L21.7855 19.4317L21.8048 19.3602L21.824 19.286L21.8405 19.2117L21.8543 19.1375L21.868 19.0632L21.879 18.989L21.89 18.9147L21.8982 18.8405L21.9065 18.7662L21.912 18.6892V18.615L21.9203 18.5407V18.3125L21.9092 18.3015Z" fill="#3D95FD"/>
<path d="M0.00275684 3.69875V3.77575L0.0110068 3.85L0.0192568 3.927L0.0275068 4.00125L0.0385068 4.0755L0.0495068 4.14975L0.0632568 4.224L0.0770068 4.29825L0.0935068 4.3725L0.112757 4.44675L0.132007 4.51825L0.154007 4.5925L0.178757 4.664L0.203507 4.7355L0.231007 4.807L0.258507 4.87575L0.288757 4.94725L0.319007 5.016L0.349257 5.08475L0.382257 5.15075L0.418007 5.21675L0.453757 5.28275L0.489507 5.34875L0.528007 5.41475L0.566507 5.478L0.607757 5.54125L0.651757 5.6045L0.695757 5.665L0.742507 5.7255L0.789257 5.78325L0.836007 5.841L0.885507 5.896L0.935007 5.951L0.987257 6.006L1.03951 6.061L1.09176 6.11325L1.14676 6.1655L1.20176 6.215L1.25951 6.2645L1.31726 6.31125L1.39976 6.2645L1.47126 6.22325L1.54551 6.182L1.55651 6.1765L1.53726 6.14075L1.50976 6.08575L1.48501 6.03075L1.46026 5.97575L1.43826 5.92075L1.41626 5.86575L1.39701 5.81075L1.38051 5.753L1.36401 5.69525L1.35026 5.6375L1.33651 5.57975L1.32551 5.522L1.31451 5.4615L1.30626 5.401L1.29801 5.34325L1.29251 5.28275L1.28701 5.22225V5.16175V5.10125V5.04075V4.98025L1.29251 4.91975L1.29801 4.862L1.30626 4.8015L1.31451 4.74375L1.32551 4.68325L1.33651 4.6255L1.35026 4.56775L1.36401 4.51L1.38051 4.45225L1.39701 4.3945L1.41626 4.33675L1.43826 4.28175L1.46026 4.22675L1.48501 4.17175L1.50976 4.11675L1.53726 4.0645L1.56751 4.0095L1.59776 3.95725L1.62801 3.905L1.66101 3.8555L1.69401 3.806L1.72701 3.7565L1.76551 3.707L1.80126 3.66025L1.83976 3.6135L1.87826 3.5695L1.91951 3.5255L1.96076 3.48425L2.00476 3.443L2.04876 3.4045L2.09276 3.366L2.13951 3.3275L2.18901 3.29175L2.23851 3.256L2.28801 3.223L2.33751 3.19L2.38976 3.157L2.43926 3.12675L2.49151 3.09925L2.54376 3.07175L2.59876 3.047L2.65376 3.02225L2.70876 3.00025L2.76651 2.97825L2.82151 2.959L2.87926 2.93975L2.93701 2.92325L2.99476 2.9095L3.05251 2.89575L3.11026 2.88475L3.17076 2.87375L3.23126 2.8655L3.28901 2.85725L3.34951 2.85175L3.41001 2.84625H3.47051H3.53101H21.9093V0H3.38526L3.31101 0.00825L3.23676 0.01375L3.16251 0.01925L3.08826 0.0275L3.01401 0.0385L2.93976 0.0495L2.86551 0.06325L2.79126 0.077L2.71976 0.0935L2.64826 0.11L2.57676 0.12925L2.50526 0.15125L2.43376 0.17325L2.36226 0.198L2.29076 0.22275L2.21926 0.25025L2.15051 0.27775L2.08176 0.308L2.01301 0.341L1.94426 0.374L1.87826 0.40975L1.81226 0.4455L1.74626 0.48125L1.68026 0.51975L1.61701 0.561L1.55376 0.60225L1.49326 0.64625L1.43276 0.69025L1.37226 0.737L1.31451 0.78375L1.25676 0.83325L1.19901 0.88275L1.14401 0.93225L1.08901 0.9845L1.03676 1.03675L0.984507 1.09175L0.932257 1.14675L0.882757 1.20175L0.833257 1.2595L0.786507 1.31725L0.739757 1.375L0.693007 1.4355L0.649007 1.496L0.605007 1.5565L0.563757 1.61975L0.525257 1.683L0.486757 1.74625L0.451007 1.81225L0.415257 1.87825L0.379507 1.94425L0.346507 2.013L0.316257 2.08175L0.286007 2.1505L0.255757 2.21925L0.228257 2.288L0.200757 2.3595L0.176007 2.431L0.151257 2.5025L0.129257 2.574L0.110007 2.64825L0.0907568 2.7225L0.0742568 2.79675L0.0605068 2.871L0.0467568 2.94525L0.0357568 3.0195L0.0247568 3.09375L0.0165068 3.168L0.00825684 3.24225L0.00275684 3.31925V3.3935L-0.00549316 3.46775V3.69325L0.00275684 3.69875Z" fill="#0DC09D"/>
</g>
</svg>
