<svg width="163" height="40" viewBox="0 0 163 40" fill="none" xmlns="http://www.w3.org/2000/svg">
<g clip-path="url(#clip0_3_1309)">
<g clip-path="url(#clip1_3_1309)">
<path d="M7.54829 19.0418C7.9654 12.7614 13.0104 7.72911 19.2972 7.3343V0C8.95561 0.40755 0.64224 8.705 0.212402 19.0418H7.54829Z" fill="#3D95FD"/>
<path d="M7.5483 39.8001C7.9654 33.5197 13.0104 28.4874 19.2972 28.0926V20.7583C8.95561 21.1659 0.64224 29.4633 0.212402 39.8001H7.5483Z" fill="#3D95FD"/>
<path d="M32.6761 0.000244141C32.259 6.28065 27.214 11.3129 20.9272 11.7077V19.042C31.2688 18.6345 39.5822 10.337 40.012 0.000244141L32.6761 0.000244141Z" fill="#3D95FD"/>
<path d="M32.6761 20.7583C32.259 27.0387 27.214 32.071 20.9272 32.4658V39.8001C31.2688 39.3925 39.5822 31.0951 40.012 20.7583H32.6761Z" fill="#3D95FD"/>
</g>
<path d="M55.6267 28.3187L52.2373 7.29328H57.2218L60.2227 29.1688H60.9964L64.4033 11.2589C64.8411 8.9585 66.8518 7.29328 69.1952 7.29328C71.5418 7.29328 73.5541 8.96328 73.9887 11.2685L77.3541 29.1672H78.1278L81.1287 7.29169H86.1133L82.7239 28.3171C82.3355 30.7306 80.2516 32.5056 77.8063 32.5056C75.4103 32.5056 73.3551 30.8006 72.9109 28.4476L69.5629 10.6794H68.7892L65.4397 28.4476C64.9955 30.8022 62.9403 32.5056 60.5443 32.5056C58.099 32.5056 56.0151 30.7306 55.6267 28.3171V28.3187Z" fill="white"/>
<path d="M119.965 28.7264L113.136 7.29346H118.412L124.751 28.8299H125.525L131.864 7.29346H137.14L130.31 28.7264C129.592 30.9791 127.5 32.5074 125.136 32.5074C122.772 32.5074 120.68 30.9775 119.962 28.7264H119.965Z" fill="white"/>
<path d="M162.43 19.3926C162.43 16.9728 161.946 14.8602 160.979 13.0533C160.011 11.2464 158.662 9.83427 156.938 8.81858C155.211 7.80289 153.202 7.29346 150.912 7.29346C148.623 7.29346 146.491 7.80926 144.718 8.84246C143.83 9.35827 143.038 9.97437 142.341 10.6939C142.254 10.7831 142.168 10.8754 142.082 10.9678C141.827 11.248 141.59 11.5409 141.364 11.8466C141.064 12.2557 140.786 12.6903 140.531 13.1504C139.515 14.9891 139.006 17.1511 139.006 19.6362V20.2172C139.006 22.7023 139.514 24.8627 140.531 26.703C141.547 28.5418 142.959 29.9698 144.766 30.9855C146.571 32.0012 148.685 32.5106 151.105 32.5106C153.235 32.5106 155.009 32.1715 156.429 31.4949C157.849 30.8167 158.977 29.9777 159.816 28.978C160.049 28.6994 160.268 28.4255 160.474 28.1549C161.009 27.4528 161.451 26.7762 161.8 26.1219L157.639 23.9918C157.123 25.0903 156.387 26.0583 155.437 26.8956C154.483 27.7346 153.073 28.1533 151.202 28.1533C149.201 28.1533 147.531 27.5308 146.194 26.2907C146.111 26.2127 146.03 26.1363 145.952 26.0535C145.872 25.9707 145.797 25.8895 145.722 25.8067C145.544 25.6014 145.379 25.3864 145.226 25.1604C144.575 24.1829 144.202 23.0191 144.108 21.6707C144.099 21.5418 144.094 21.4112 144.089 21.2807H162.432V19.3926H162.43ZM147.427 17.4567L144.879 20.0055H144.04C144.027 19.2716 144.04 18.3291 144.137 17.4567C144.185 17.1256 144.248 16.8056 144.331 16.4983C144.411 16.1911 144.508 15.8982 144.621 15.618C144.997 14.6835 145.555 13.8923 146.291 13.2459C147.467 12.2127 148.991 11.6969 150.865 11.6969C152.738 11.6969 154.252 12.2127 155.414 13.2459C156.577 14.2791 157.237 15.6832 157.398 17.4567H147.429H147.427Z" fill="white"/>
<path d="M110.238 16.3214C110.238 13.4048 109.348 11.1522 107.565 9.56497C105.784 7.97775 103.337 7.18335 100.224 7.18335C98.1835 7.18335 96.4578 7.50652 95.0473 8.15606C93.6384 8.80559 92.5033 9.66367 91.6452 10.7319C90.7871 11.8017 90.1631 12.9686 89.7731 14.2311L94.4392 15.7387C94.7305 14.4428 95.3307 13.3889 96.2381 12.5786C97.1472 11.7699 98.4574 11.3639 100.175 11.3639C101.893 11.3639 103.222 11.7938 104.064 12.6518C104.908 13.5099 105.328 14.6211 105.328 15.9823V20.1278H104.52L101.926 17.5377H98.0371C95.4119 17.5377 93.2324 18.1617 91.4988 19.4098C89.7651 20.6564 88.8975 22.4967 88.8975 24.9277C88.8975 26.5483 89.2955 27.9238 90.0883 29.0589C90.8827 30.194 91.9525 31.0521 93.2961 31.6347C94.6429 32.2174 96.1744 32.5103 97.889 32.5103C99.6036 32.5103 100.871 32.2747 101.875 31.8051C102.88 31.3354 103.642 30.7846 104.16 30.1526C104.68 29.5206 105.066 28.9443 105.327 28.4269H106.105V32.5103H110.237V16.323L110.238 16.3214ZM105.328 21.9109C105.328 23.9215 104.704 25.5008 103.456 26.6502C102.21 27.7996 100.599 28.3759 98.6197 28.3759C97.1615 28.3759 96.0121 28.0528 95.1683 27.4032C94.3246 26.7537 93.9043 25.8797 93.9043 24.778C93.9043 23.6764 94.3102 22.8406 95.119 22.2754C95.9309 21.7087 96.9975 21.4253 98.3268 21.4253H105.327V21.9109H105.328Z" fill="white"/>
</g>
<defs>
<clipPath id="clip0_3_1309">
<rect width="162.516" height="39.8" fill="white"/>
</clipPath>
<clipPath id="clip1_3_1309">
<rect width="40.6289" height="39.8" fill="white"/>
</clipPath>
</defs>
</svg>
