<svg width="163" height="22" viewBox="0 0 163 22" fill="none" xmlns="http://www.w3.org/2000/svg">
<path d="M158.156 17.9881C154.979 17.9881 153.768 16.5938 153.288 14.4225L154.751 14.1254C155.116 15.5882 155.939 16.7081 158.179 16.7081C159.871 16.7081 160.716 16.0681 160.716 14.9025C160.716 13.7825 159.916 13.3254 157.585 12.9368C154.888 12.4797 153.859 11.4969 153.859 9.85125C153.859 8.06846 155.185 6.83423 157.768 6.83423C160.442 6.83423 161.448 8.04561 161.928 9.94267L160.465 10.2855C160.076 8.66273 159.231 8.09132 157.745 8.09132C156.191 8.09132 155.391 8.70844 155.391 9.78268C155.391 10.7198 156.054 11.3598 158.202 11.7026C161.128 12.1826 162.27 13.1425 162.27 14.8568C162.27 16.7081 161.036 17.9881 158.156 17.9881Z" fill="white"/>
<path d="M150.3 10.9941C149.911 9.27984 149.065 8.25131 146.986 8.25131C144.746 8.25131 143.374 9.6684 143.374 12.4111C143.374 14.971 144.677 16.5481 147.054 16.5481C149.271 16.5481 149.934 15.291 150.368 13.7368L151.831 14.1254C151.305 16.5481 149.843 17.9652 147.077 17.9652C143.74 17.9652 141.774 15.9081 141.774 12.4111C141.774 8.91414 143.9 6.83423 147.008 6.83423C149.911 6.83423 151.305 8.22846 151.785 10.6741L150.3 10.9941Z" fill="white"/>
<path d="M134.911 17.9652C131.551 17.9652 129.654 15.8167 129.654 12.3654C129.654 8.89129 131.757 6.83423 134.911 6.83423C138.065 6.83423 140.168 8.89129 140.168 12.3654C140.168 15.8167 138.248 17.9652 134.911 17.9652ZM134.911 8.22846C132.534 8.22846 131.231 9.78268 131.231 12.3426C131.231 14.9025 132.42 16.571 134.888 16.571C137.357 16.571 138.591 14.9025 138.591 12.3426C138.591 9.78268 137.288 8.22846 134.911 8.22846Z" fill="white"/>
<path d="M116.104 17.7137V4H121.246C125.841 4 128.08 6.3999 128.08 10.7883C128.08 15.131 125.521 17.7137 121.315 17.7137H116.104ZM117.749 16.2966H121.178C124.949 16.2966 126.435 14.171 126.435 10.7883C126.435 7.1313 124.789 5.41709 121.018 5.41709H117.749V16.2966Z" fill="white"/>
<mask id="mask0_2276_347" style="mask-type:luminance" maskUnits="userSpaceOnUse" x="0" y="0" width="107" height="22">
<path d="M106.208 0H0V22H106.208V0Z" fill="white"/>
</mask>
<g mask="url(#mask0_2276_347)">
<mask id="mask1_2276_347" style="mask-type:luminance" maskUnits="userSpaceOnUse" x="0" y="0" width="22" height="22">
<path d="M21.912 0H0V22H21.912V0Z" fill="white"/>
</mask>
<g mask="url(#mask1_2276_347)">
<path d="M18.6036 11.3905L18.6338 11.4015L18.6641 11.4125L18.6943 11.4263L18.7246 11.4428L18.7521 11.4593L18.7796 11.4758L18.8071 11.495L18.8318 11.5143L18.8566 11.5363L18.8813 11.5583L18.9033 11.583L18.9253 11.6078L18.9473 11.6353L18.9666 11.6628L18.9858 11.6903L19.0023 11.7178L19.0161 11.748L19.0298 11.7783L19.0408 11.8085L19.0518 11.8388L19.0601 11.8718L19.0683 11.902L19.0738 11.935L19.0793 11.9653V11.9983L19.0848 12.0313V12.0643V12.0973V12.1303L19.0793 12.1633L19.0738 12.1963L19.0683 12.2293L19.0601 12.2623L19.0518 12.2925L19.0408 12.3255L19.0298 12.3558L19.0161 12.386L19.0023 12.4163L18.9858 12.4438L18.9666 12.4713L18.9473 12.4988L18.9253 12.5235L18.9033 12.5483L18.8813 12.5703L18.8566 12.595L18.8318 12.617L18.8071 12.6363L18.7796 12.6555L18.7521 12.6748L18.7246 12.6913L18.6943 12.7078L18.6641 12.7215L18.6338 12.7353L18.6036 12.7463L18.5733 12.7573L18.5431 12.7655L18.5128 12.7738L18.4798 12.7793H18.4496L18.4166 12.7875H18.4111H18.4441L18.5046 12.7848H18.5651L18.6256 12.7765L18.6833 12.7683L18.7438 12.76L18.8016 12.749L18.8593 12.738L18.9171 12.7243L18.9748 12.7105L19.0326 12.694L19.0903 12.6748L19.1453 12.6555L19.2003 12.6335L19.2553 12.6115L19.3103 12.5868L19.3653 12.562L19.4176 12.5345L19.4698 12.507L19.5221 12.4768L19.5716 12.4438L19.6211 12.4108L19.6706 12.3778L19.7201 12.342L19.7668 12.3063L19.8136 12.2705L19.8603 12.232L19.9043 12.1908L19.9483 12.1495L19.9923 12.1055L20.0336 12.0615L20.0721 12.0175L20.1106 11.9708L20.1491 11.924L20.1848 11.8745L20.2206 11.825L20.2536 11.7755L20.2866 11.7233L20.3168 11.671L20.3471 11.6188L20.3773 11.5665L20.4048 11.5143L20.4296 11.4593L20.4543 11.4043L20.4763 11.3493L20.4983 11.2943L20.5176 11.2365L20.5341 11.1788L20.5506 11.121L20.5643 11.0633L20.5781 11.0055L20.5891 10.945L20.6001 10.8873L20.6083 10.8295L20.6138 10.769L20.6193 10.7085L20.6248 10.648V10.5875V10.527V10.4665V10.406L20.6193 10.3455L20.6138 10.285L20.6083 10.2273L20.6001 10.1668L20.5891 10.1063L20.5781 10.0485L20.5643 9.99078L20.5533 9.94678H18.3808H13.3401L18.5706 11.3905L18.6063 11.4015L18.6036 11.3905Z" fill="white"/>
<path d="M21.9092 11.913L21.9038 11.836L21.8982 11.7617L21.89 11.6847L21.8818 11.6105L21.8708 11.5362L21.8597 11.462L21.846 11.3877L21.8323 11.3135L21.8158 11.2392L21.7965 11.165L21.7773 11.0907L21.7553 11.0192L21.7333 10.9477L21.7085 10.8762L21.681 10.8047L21.6535 10.736L21.6232 10.6645L21.593 10.5957L21.5628 10.527L21.5298 10.4582L21.494 10.3922L21.4583 10.3262L21.4198 10.2602L21.3813 10.1942L21.3428 10.131L21.3015 10.0677L21.2602 10.0072L21.2163 9.94674L21.2025 9.92749H20.548L20.559 9.97149L20.5727 10.0292L20.5838 10.087L20.5948 10.1475L20.603 10.208L20.6085 10.2657L20.614 10.3262L20.6195 10.3867V10.4472V10.5077V10.5682V10.6287L20.614 10.6892L20.6085 10.7497L20.603 10.8102L20.5948 10.868L20.5838 10.9257L20.5727 10.9862L20.559 11.044L20.5453 11.1017L20.5288 11.1595L20.5122 11.2172L20.493 11.275L20.471 11.33L20.449 11.385L20.4242 11.44L20.3995 11.495L20.372 11.5472L20.3418 11.5995L20.3115 11.6517L20.2813 11.704L20.2482 11.7562L20.2153 11.8057L20.1795 11.8552L20.1438 11.9047L20.1053 11.9515L20.0668 11.9982L20.0283 12.0422L19.987 12.0862L19.943 12.1302L19.899 12.1715L19.855 12.2127L19.8083 12.2512L19.7615 12.287L19.7148 12.3227L19.6653 12.3585L19.6158 12.3915L19.5663 12.4245L19.5168 12.4575L19.4645 12.4877L19.4122 12.5152L19.36 12.5427L19.305 12.5675L19.25 12.5922L19.195 12.6142L19.14 12.6362L19.085 12.6555L19.0273 12.6747L18.9695 12.6912L18.9117 12.705L18.854 12.7187L18.7962 12.7297L18.7385 12.7407L18.678 12.749L18.6203 12.7572L18.5597 12.7627H18.4992L18.4388 12.7682H18.3783H0V15.6062H18.4553H18.5295L18.6038 15.6007L18.678 15.5952L18.7523 15.587L18.8265 15.5787L18.9008 15.5677L18.975 15.5567L19.0492 15.543L19.1235 15.5265L19.1977 15.51L19.2693 15.4935L19.3408 15.4742L19.4122 15.4522L19.4838 15.4302L19.5553 15.4055L19.6268 15.3807L19.6982 15.3532L19.767 15.3257L19.8357 15.2955L19.9045 15.2625L19.9732 15.2295L20.0393 15.1965L20.1053 15.1607L20.1713 15.125L20.2372 15.0865L20.3005 15.048L20.3638 15.0067L20.427 14.9627L20.4875 14.9187L20.548 14.872L20.6058 14.8252L20.6635 14.7757L20.7213 14.7262L20.7763 14.6767L20.8313 14.6245L20.8835 14.5722L20.9357 14.5172L20.9852 14.4622L21.0347 14.4072L21.0842 14.3495L21.131 14.2917L21.1778 14.234L21.2245 14.1735L21.2685 14.113L21.3097 14.0525L21.351 13.9892L21.3895 13.926L21.428 13.86L21.4665 13.794L21.5023 13.728L21.538 13.662L21.571 13.5932L21.6013 13.5245L21.6315 13.4557L21.6617 13.387L21.6893 13.3182L21.7168 13.2467L21.7415 13.1752L21.7635 13.1037L21.7855 13.0295L21.8048 12.958L21.824 12.8837L21.8405 12.8095L21.8543 12.7352L21.868 12.661L21.879 12.5867L21.89 12.5125L21.8982 12.4382L21.9065 12.364L21.912 12.287L21.9175 12.2127V12.1385L21.9203 12.0615V11.9845L21.9175 11.9102L21.9092 11.913Z" fill="#FA6863"/>
<path d="M3.31087 10.6067L3.28062 10.5957L3.25037 10.5847L3.22012 10.5709L3.18987 10.5544L3.16237 10.5379L3.13487 10.5214L3.10737 10.5022L3.08262 10.4829L3.05787 10.4609L3.03312 10.4389L3.01112 10.4142L2.98912 10.3894L2.96712 10.3619L2.94787 10.3344L2.92862 10.3069L2.91212 10.2794L2.89837 10.2492L2.88462 10.2189L2.87362 10.1887L2.86262 10.1584L2.85437 10.1254L2.84612 10.0952L2.83787 10.0622L2.83237 10.0319V9.9989L2.82687 9.9659V9.9329V9.8999V9.8669L2.83237 9.8339L2.83787 9.8009L2.84612 9.7679L2.85437 9.7349L2.86262 9.70465L2.87362 9.67165L2.88462 9.6414L2.89837 9.61115L2.91212 9.58365L2.92862 9.5534L2.94787 9.5259L2.96712 9.4984L2.98912 9.47365L3.01112 9.4489L3.03312 9.42415L3.05787 9.40215L3.08262 9.38015L3.10737 9.3609L3.13487 9.34165L3.16237 9.3224L3.18987 9.3059L3.22012 9.29215L3.25037 9.2784L3.28062 9.26465L3.31087 9.25365L3.34112 9.24265L3.37137 9.2344L3.40162 9.22615L3.43462 9.22065H3.46487L3.49787 9.2124H3.50337H3.40987L3.34937 9.22065L3.28887 9.22615L3.23112 9.2344L3.17062 9.24265L3.11012 9.25365L3.05237 9.26465L2.99462 9.2784L2.93687 9.29215L2.87912 9.30865L2.82137 9.3279L2.76637 9.34715L2.70862 9.3664L2.65362 9.3884L2.59862 9.41315L2.54362 9.4379L2.49137 9.4654L2.43912 9.4929L2.38962 9.52315L2.34012 9.55615L2.29062 9.58915L2.24112 9.62215L2.19162 9.6579L2.14212 9.69365L2.09537 9.73215L2.04862 9.77065L2.00462 9.8119L1.96062 9.85315L1.91662 9.8944L1.87537 9.9384L1.83687 9.9824L1.79837 10.0292L1.76262 10.0759L1.72412 10.1227L1.69112 10.1722L1.65812 10.2217L1.62512 10.2712L1.59487 10.3234L1.56462 10.3757L1.53437 10.4307L1.50687 10.4829L1.48212 10.5379L1.45737 10.5929L1.43537 10.6479L1.41337 10.7029L1.39412 10.7607L1.37762 10.8184L1.36112 10.8762L1.34737 10.9339L1.33362 10.9917L1.32262 11.0494L1.31162 11.1099L1.30337 11.1677L1.29787 11.2282L1.29237 11.2859L1.28687 11.3464V11.4069V11.4674V11.5279V11.5884L1.29237 11.6489L1.29787 11.7094L1.30337 11.7699L1.31162 11.8304L1.32262 11.8882L1.33362 11.9459L1.34737 12.0037L1.35837 12.0504H3.53087H8.57162L3.34112 10.6067L3.30537 10.5957L3.31087 10.6067Z" fill="white"/>
<path d="M0.00263477 10.0842V10.1612L0.0136348 10.2354L0.0218848 10.3097L0.0301348 10.3839L0.0411348 10.4582L0.0521348 10.5324L0.0658848 10.6067L0.0796348 10.6809L0.0961348 10.7552L0.115385 10.8294L0.134635 10.9037L0.156635 10.9752L0.178635 11.0467L0.203385 11.1182L0.230885 11.1897L0.258385 11.2584L0.288635 11.3299L0.318885 11.3987L0.349135 11.4674L0.382135 11.5334L0.417885 11.5994L0.453635 11.6654L0.492135 11.7314L0.530635 11.7947L0.569135 11.8579L0.610385 11.9212L0.654385 11.9844L0.698385 12.0449L0.712135 12.0642H1.36663L1.35563 12.0174L1.34188 11.9597L1.33088 11.9019L1.31988 11.8442L1.31163 11.7837L1.30613 11.7232L1.30063 11.6627L1.29513 11.6022V11.5417V11.4812V11.4207V11.3602L1.30063 11.2997L1.30613 11.2419L1.31163 11.1814L1.31988 11.1237L1.33088 11.0632L1.34188 11.0054L1.35563 10.9477L1.36938 10.8899L1.38588 10.8322L1.40238 10.7744L1.42163 10.7167L1.44363 10.6617L1.46563 10.6067L1.49038 10.5517L1.51513 10.4967L1.54263 10.4444L1.57288 10.3894L1.60313 10.3372L1.63338 10.2849L1.66638 10.2354L1.69938 10.1859L1.73238 10.1364L1.77088 10.0897L1.80663 10.0429L1.84513 9.99618L1.88363 9.95218L1.92488 9.90818L1.96888 9.86693L2.01288 9.82568L2.05688 9.78443L2.10363 9.74593L2.15038 9.70743L2.19988 9.67168L2.24939 9.63593L2.29888 9.60293L2.34838 9.56993L2.39789 9.53693L2.44738 9.50668L2.49963 9.47918L2.55188 9.45168L2.60688 9.42693L2.66189 9.40218L2.71688 9.38018L2.77463 9.36093L2.82963 9.34168L2.88738 9.32243L2.94513 9.30593L3.00288 9.29218L3.06063 9.27843L3.11839 9.26743L3.17889 9.25643L3.23938 9.24818L3.29713 9.23993L3.35763 9.23443L3.41814 9.22893H3.47863L3.53913 9.22618H21.9174V6.38818H3.45938H3.38514L3.31088 6.39368L3.23664 6.39918L3.16238 6.40743L3.08813 6.41568L3.01388 6.42668L2.93963 6.43768L2.86538 6.45143L2.79113 6.46518L2.71964 6.48168L2.64813 6.50093L2.57663 6.52018L2.50513 6.54218L2.43364 6.56418L2.36213 6.58893L2.29063 6.61368L2.21913 6.64118L2.15038 6.66868L2.08163 6.69893L2.01288 6.73193L1.94413 6.76493L1.87813 6.79793L1.81213 6.83368L1.74613 6.86943L1.68013 6.90793L1.61688 6.94918L1.55363 6.99043L1.49313 7.03443L1.43263 7.07843L1.37213 7.12243L1.31438 7.16918L1.25663 7.21868L1.19888 7.26818L1.14388 7.31768L1.08888 7.36993L1.03663 7.42218L0.984385 7.47718L0.932135 7.53218L0.882635 7.58718L0.833135 7.64493L0.786385 7.70268L0.739635 7.76043L0.692885 7.82093L0.648885 7.88143L0.604885 7.94193L0.563635 8.00518L0.525135 8.06843L0.486635 8.13443L0.448135 8.20043L0.412385 8.26643L0.376635 8.33243L0.343635 8.40118L0.313385 8.46993L0.283135 8.53868L0.252885 8.60743L0.225385 8.67893L0.197885 8.75043L0.173135 8.82193L0.151135 8.89343L0.129135 8.96493L0.109885 9.03918L0.0906348 9.11343L0.0741348 9.18768L0.0603848 9.26193L0.0466348 9.33618L0.0356348 9.41043L0.0246348 9.48468L0.0163848 9.55893L0.00813477 9.63318L0.00263477 9.70743V9.78168L-0.00561523 9.85868V10.0842H0.00263477Z" fill="#F18046"/>
<path d="M3.3108 4.22115L3.28055 4.21015L3.2503 4.1964L3.22005 4.18265L3.19255 4.16615L3.1623 4.14965L3.1348 4.13315L3.1073 4.1139L3.0798 4.09465L3.05505 4.07265L3.0303 4.05065L3.0083 4.0259L2.9863 4.00115L2.9643 3.97365L2.94505 3.94615L2.92855 3.91865L2.91205 3.89115L2.8983 3.8609L2.88455 3.83065L2.87355 3.8004L2.86255 3.7674L2.85155 3.73715L2.8433 3.7069L2.83505 3.6739L2.82955 3.6409L2.82405 3.6079V3.5749V3.5419V3.5089V3.4759L2.82955 3.4429L2.83505 3.4099L2.8433 3.3769L2.85155 3.3439L2.86255 3.3109L2.87355 3.28065L2.88455 3.2504L2.8983 3.22015L2.91205 3.1899L2.92855 3.1624L2.94505 3.1349L2.9643 3.1074L2.9863 3.08265L3.0083 3.0579L3.0303 3.03315L3.05505 3.01115L3.0798 2.98915L3.1073 2.9699L3.1348 2.95065L3.1623 2.9314L3.19255 2.9149L3.22005 2.8984L3.2503 2.88465L3.28055 2.87365L3.3108 2.86265L3.34105 2.85165L3.3713 2.8434L3.4043 2.8379L3.43455 2.8324H3.46755L3.50055 2.8269H3.51155H3.41255L3.35205 2.83515L3.29155 2.84065L3.2338 2.8489L3.1733 2.85715L3.1128 2.86815L3.05505 2.87915L2.9973 2.8929L2.93955 2.90665L2.8818 2.92315L2.82405 2.9424L2.76905 2.96165L2.7113 2.98365L2.6563 3.00565L2.6013 3.0304L2.5463 3.05515L2.49405 3.08265L2.4418 3.11015L2.3923 3.1404L2.34005 3.1734L2.29055 3.2064L2.24105 3.2394L2.19155 3.27515L2.14205 3.3109L2.0953 3.3494L2.0513 3.3879L2.0073 3.4264L1.9633 3.46765L1.92205 3.5089L1.8808 3.5529L1.8423 3.5969L1.8038 3.64365L1.76805 3.6904L1.72955 3.7399L1.69655 3.7894L1.66355 3.8389L1.63055 3.8884L1.6003 3.94065L1.57005 3.9929L1.5398 4.0479L1.5123 4.10015L1.48755 4.15515L1.4628 4.21015L1.4408 4.26515L1.4188 4.32015L1.39955 4.3779L1.38305 4.43565L1.36655 4.4934L1.3528 4.55115L1.33905 4.6089L1.32805 4.66665L1.31705 4.72715L1.3088 4.7849L1.30055 4.8454L1.29505 4.90315L1.28955 4.96365V5.02415V5.08465V5.14515V5.20565L1.29505 5.26615L1.30055 5.32665L1.3088 5.3844L1.31705 5.4449L1.32805 5.5054L1.33905 5.56315L1.3528 5.6209L1.36655 5.67865L1.38305 5.7364L1.39955 5.79415L1.4188 5.84915L1.4408 5.90415L1.4628 5.95915L1.48755 6.01415L1.5123 6.06915L1.5398 6.12415L1.5563 6.1544L1.63055 6.1159L1.7048 6.08015L1.77905 6.0444L1.8533 6.0114L1.92755 5.9784L2.00455 5.94815L2.08155 5.92065L2.15855 5.8904L2.23555 5.86565L2.3153 5.8409L2.39505 5.8189L2.4748 5.7969L2.55455 5.77765L2.6343 5.76115L2.71405 5.74465L2.7938 5.72815L2.8763 5.7144L2.9588 5.7034L3.0413 5.6924L3.1238 5.68415L3.2063 5.6759L3.2888 5.6704H3.36855L3.4538 5.6649H3.5363H8.57705L3.34655 4.22115L3.3108 4.21015V4.22115Z" fill="white"/>
<path d="M18.3781 19.162H18.4991L18.5596 19.1537L18.6201 19.1482L18.6806 19.14L18.7411 19.1317L18.7988 19.1207L18.8566 19.1097L18.9143 19.096L18.9721 19.0822L19.0298 19.0657L19.0876 19.0465L19.1453 19.0272L19.2003 19.0052L19.2553 18.9832L19.3103 18.9585L19.3653 18.9337L19.4176 18.9062L19.4698 18.8787L19.5221 18.8485L19.5716 18.8155L19.6211 18.7825L19.6706 18.7495L19.7201 18.7137L19.7668 18.678L19.8136 18.6422L19.8603 18.6037L19.9043 18.5625L19.9483 18.5212L19.9896 18.4772L20.0308 18.4332L20.0721 18.3892L20.1106 18.3425L20.1491 18.2957L20.1848 18.2462L20.2178 18.1967L20.2508 18.1472L20.2838 18.095L20.3141 18.0427L20.3443 17.9905L20.3746 17.9382L20.4021 17.8832L20.4268 17.8282L20.4488 17.7732L20.4736 17.7182L20.4928 17.6632L20.5121 17.6055L20.5313 17.5477L20.5478 17.49L20.5643 17.4322L20.5781 17.3745L20.5891 17.314L20.6001 17.2562L20.6083 17.1985L20.6166 17.138L20.6221 17.0802V17.0197L20.6276 16.9592V16.7777L20.6221 16.7172L20.6166 16.6567L20.6083 16.599L20.6001 16.5385L20.5891 16.478L20.5781 16.4202L20.5643 16.3625L20.5478 16.3047L20.5313 16.247L20.5121 16.1892L20.4928 16.1315L20.4736 16.0765L20.4488 16.0215L20.4268 15.9665L20.4021 15.9115L20.3746 15.8565L20.3581 15.8235L20.2838 15.862L20.2096 15.8977L20.1353 15.9335L20.0611 15.9665L19.9841 15.9995L19.9071 16.0297L19.8301 16.0572L19.7531 16.0847L19.6733 16.1122L19.5963 16.137L19.5193 16.159L19.4396 16.181L19.3598 16.2002L19.2801 16.2195L19.2003 16.236L19.1206 16.2497L19.0408 16.2635L18.9583 16.2745L18.8758 16.2855L18.7933 16.2937L18.7108 16.302L18.6283 16.3075L18.5458 16.313H18.4633L18.3808 16.3157H13.3401L18.5706 17.7595L18.6063 17.7705L18.6366 17.7815L18.6668 17.7925L18.6971 17.8062L18.7273 17.8227L18.7548 17.8392L18.7823 17.8557L18.8098 17.875L18.8346 17.8942L18.8593 17.9162L18.8841 17.9382L18.9061 17.963L18.9281 17.9877L18.9501 18.0152L18.9693 18.0427L18.9886 18.0702L19.0051 18.0977L19.0188 18.128L19.0326 18.1582L19.0436 18.1885L19.0546 18.2187L19.0628 18.2517L19.0711 18.282L19.0766 18.315L19.0821 18.348V18.381L19.0876 18.414V18.447V18.48V18.513L19.0821 18.546L19.0766 18.579L19.0711 18.612L19.0628 18.645L19.0546 18.6752L19.0436 18.7082L19.0326 18.7385L19.0188 18.7687L19.0051 18.7962L18.9886 18.8265L18.9693 18.854L18.9501 18.8815L18.9281 18.9062L18.9061 18.931L18.8841 18.9557L18.8593 18.9777L18.8346 18.9997L18.8098 19.019L18.7823 19.0382L18.7548 19.0575L18.7273 19.074L18.6971 19.0877L18.6668 19.1015L18.6366 19.1152L18.6063 19.1262L18.5761 19.1372L18.5458 19.1455L18.5156 19.1537L18.4826 19.1592H18.4523L18.4193 19.1675H18.3863" fill="white"/>
<path d="M21.9092 18.3012V18.227L21.901 18.1527L21.8928 18.0757L21.8845 18.0015L21.8735 17.9272L21.8625 17.853L21.8487 17.7787L21.835 17.7045L21.8185 17.6302L21.7992 17.5587L21.78 17.4845L21.758 17.4102L21.736 17.3387L21.7112 17.2672L21.6838 17.1957L21.6563 17.127L21.626 17.0555L21.5958 16.9867L21.5655 16.918L21.5325 16.8492L21.4967 16.7832L21.461 16.7172L21.4225 16.6512L21.384 16.5852L21.3455 16.522L21.3043 16.4587L21.2602 16.3982L21.2163 16.3377L21.1695 16.2772L21.1227 16.2195L21.0732 16.1617L21.0237 16.1067L20.9742 16.0517L20.922 15.9967L20.8698 15.9417L20.8148 15.8895L20.7597 15.8372L20.7048 15.7877L20.647 15.7382L20.5893 15.6887H20.5865L20.504 15.7355L20.4325 15.7767L20.3583 15.818L20.3472 15.8235L20.3665 15.8592L20.394 15.9142L20.4188 15.9692L20.4408 16.0242L20.4655 16.0792L20.4847 16.1342L20.504 16.192L20.5232 16.2497L20.5398 16.3075L20.5563 16.3652L20.57 16.423L20.581 16.4807L20.592 16.5412L20.6003 16.6017L20.6085 16.6595L20.614 16.72V16.7805L20.6195 16.841V17.0197L20.614 17.0802L20.6085 17.138L20.6003 17.1985L20.592 17.2562L20.581 17.314L20.57 17.3745L20.5563 17.4322L20.5398 17.49L20.5232 17.5477L20.504 17.6055L20.4847 17.6632L20.4655 17.7182L20.4408 17.7732L20.4188 17.8282L20.394 17.8832L20.3665 17.9382L20.3362 17.9905L20.306 18.0427L20.2758 18.095L20.2428 18.1472L20.2097 18.1967L20.1768 18.2462L20.141 18.2957L20.1025 18.3425L20.064 18.3892L20.0227 18.4332L19.9815 18.4772L19.9403 18.5212L19.8963 18.5625L19.8523 18.6037L19.8055 18.6422L19.7588 18.678L19.712 18.7137L19.6625 18.7495L19.613 18.7825L19.5635 18.8155L19.514 18.8485L19.4617 18.8787L19.4095 18.9062L19.3573 18.9337L19.3023 18.9585L19.2472 18.9832L19.1923 19.0052L19.1372 19.0272L19.0795 19.0465L19.0217 19.0657L18.964 19.0822L18.9063 19.096L18.8485 19.1097L18.7908 19.1207L18.733 19.1317L18.6725 19.14L18.612 19.1482L18.5515 19.1537H18.491L18.4305 19.162H0V22H18.4553H18.5295L18.6038 21.9945L18.678 21.989L18.7523 21.9835L18.8265 21.9752L18.9008 21.9642L18.975 21.9532L19.0492 21.9395L19.1235 21.923L19.195 21.9065L19.2665 21.89L19.338 21.8707L19.4095 21.8487L19.481 21.8267L19.5525 21.802L19.624 21.7772L19.6928 21.7497L19.7615 21.7222L19.8303 21.692L19.899 21.659L19.965 21.626L20.0338 21.593L20.0997 21.5572L20.1658 21.5215L20.229 21.483L20.2923 21.4417L20.3555 21.4005L20.416 21.3565L20.4765 21.3125L20.537 21.2685L20.5948 21.2217L20.6525 21.1722L20.7102 21.1227L20.7653 21.0732L20.8203 21.021L20.8753 20.9687L20.9275 20.9165L20.9798 20.8615L21.0293 20.8065L21.0788 20.7487L21.1283 20.691L21.175 20.6332L21.2217 20.5727L21.2658 20.5122L21.3097 20.4517L21.351 20.3885L21.3895 20.3252L21.428 20.2592L21.4665 20.1932L21.5023 20.1272L21.538 20.0612L21.571 19.9925L21.6013 19.9237L21.6315 19.855L21.6617 19.7862L21.6893 19.7175L21.7168 19.646L21.7415 19.5745L21.7635 19.503L21.7855 19.4315L21.8048 19.36L21.824 19.2857L21.8405 19.2115L21.8543 19.1372L21.868 19.063L21.879 18.9887L21.89 18.9145L21.8982 18.8402L21.9065 18.766L21.912 18.689V18.6147L21.9203 18.5405V18.3122L21.9092 18.3012Z" fill="#3D95FD"/>
<path d="M0.00263477 3.69875V3.77575L0.0108848 3.85L0.0191348 3.927L0.0273848 4.00125L0.0383848 4.0755L0.0493848 4.14975L0.0631348 4.224L0.0768848 4.29825L0.0933848 4.3725L0.112635 4.44675L0.131885 4.51825L0.153885 4.5925L0.178635 4.664L0.203385 4.7355L0.230885 4.807L0.258385 4.87575L0.288635 4.94725L0.318885 5.016L0.349135 5.08475L0.382135 5.15075L0.417885 5.21675L0.453635 5.28275L0.489385 5.34875L0.527885 5.41475L0.566385 5.478L0.607635 5.54125L0.651635 5.6045L0.695635 5.665L0.742385 5.7255L0.789135 5.78325L0.835885 5.841L0.885385 5.896L0.934885 5.951L0.987135 6.006L1.03938 6.061L1.09163 6.11325L1.14663 6.1655L1.20163 6.215L1.25938 6.2645L1.31713 6.31125L1.39963 6.2645L1.47113 6.22325L1.54538 6.182L1.55638 6.1765L1.53713 6.14075L1.50963 6.08575L1.48488 6.03075L1.46013 5.97575L1.43813 5.92075L1.41613 5.86575L1.39688 5.81075L1.38038 5.753L1.36388 5.69525L1.35013 5.6375L1.33638 5.57975L1.32538 5.522L1.31438 5.4615L1.30613 5.401L1.29788 5.34325L1.29238 5.28275L1.28688 5.22225V5.16175V5.10125V5.04075V4.98025L1.29238 4.91975L1.29788 4.862L1.30613 4.8015L1.31438 4.74375L1.32538 4.68325L1.33638 4.6255L1.35013 4.56775L1.36388 4.51L1.38038 4.45225L1.39688 4.3945L1.41613 4.33675L1.43813 4.28175L1.46013 4.22675L1.48488 4.17175L1.50963 4.11675L1.53713 4.0645L1.56738 4.0095L1.59763 3.95725L1.62788 3.905L1.66088 3.8555L1.69388 3.806L1.72688 3.7565L1.76538 3.707L1.80113 3.66025L1.83963 3.6135L1.87813 3.5695L1.91938 3.5255L1.96063 3.48425L2.00463 3.443L2.04863 3.4045L2.09263 3.366L2.13938 3.3275L2.18888 3.29175L2.23839 3.256L2.28788 3.223L2.33738 3.19L2.38963 3.157L2.43913 3.12675L2.49139 3.09925L2.54363 3.07175L2.59863 3.047L2.65363 3.02225L2.70864 3.00025L2.76639 2.97825L2.82139 2.959L2.87914 2.93975L2.93689 2.92325L2.99464 2.9095L3.05239 2.89575L3.11014 2.88475L3.17063 2.87375L3.23113 2.8655L3.28888 2.85725L3.34939 2.85175L3.40988 2.84625H3.47038H3.53089H21.9091V0H3.38514L3.31088 0.00825L3.23664 0.01375L3.16238 0.01925L3.08813 0.0275L3.01388 0.0385L2.93963 0.0495L2.86538 0.06325L2.79113 0.077L2.71964 0.0935L2.64813 0.11L2.57663 0.12925L2.50513 0.15125L2.43364 0.17325L2.36213 0.198L2.29063 0.22275L2.21913 0.25025L2.15038 0.27775L2.08163 0.308L2.01288 0.341L1.94413 0.374L1.87813 0.40975L1.81213 0.4455L1.74613 0.48125L1.68013 0.51975L1.61688 0.561L1.55363 0.60225L1.49313 0.64625L1.43263 0.69025L1.37213 0.737L1.31438 0.78375L1.25663 0.83325L1.19888 0.88275L1.14388 0.93225L1.08888 0.9845L1.03663 1.03675L0.984385 1.09175L0.932135 1.14675L0.882635 1.20175L0.833135 1.2595L0.786385 1.31725L0.739635 1.375L0.692885 1.4355L0.648885 1.496L0.604885 1.5565L0.563635 1.61975L0.525135 1.683L0.486635 1.74625L0.450885 1.81225L0.415135 1.87825L0.379385 1.94425L0.346385 2.013L0.316135 2.08175L0.285885 2.1505L0.255635 2.21925L0.228135 2.288L0.200635 2.3595L0.175885 2.431L0.151135 2.5025L0.129135 2.574L0.109885 2.64825L0.0906348 2.7225L0.0741348 2.79675L0.0603848 2.871L0.0466348 2.94525L0.0356348 3.0195L0.0246348 3.09375L0.0163848 3.168L0.00813477 3.24225L0.00263477 3.31925V3.3935L-0.00561523 3.46775V3.69325L0.00263477 3.69875Z" fill="#0DC09D"/>
</g>
<path d="M31.7817 17.9684H26.1607V15.7492H31.7817C32.6535 15.7492 33.3217 15.5814 33.7947 15.2404C34.265 14.9022 34.5015 14.4649 34.5015 13.9287C34.5015 13.3924 34.2787 13.0019 33.836 12.7517C33.3905 12.5014 32.7332 12.2979 31.8642 12.1357L30.9567 11.9762C30.0685 11.8167 29.26 11.5829 28.5312 11.2804C27.8025 10.9779 27.225 10.5572 26.7987 10.0237C26.3725 9.48743 26.158 8.80268 26.158 7.96393C26.158 6.71543 26.62 5.74743 27.544 5.06268C28.468 4.37518 29.6945 4.03418 31.2207 4.03418H36.7097V6.28093H31.2207C30.4755 6.28093 29.8897 6.41843 29.4635 6.69618C29.0372 6.97118 28.8227 7.36168 28.8227 7.85943C28.8227 8.39568 29.0317 8.78618 29.4497 9.03643C29.8677 9.28668 30.4315 9.47368 31.141 9.59743L32.0732 9.75693C33.0137 9.91643 33.8772 10.1419 34.6582 10.4252C35.4392 10.7112 36.058 11.1209 36.5117 11.6544C36.9655 12.1907 37.191 12.9029 37.191 13.7939C37.191 15.1139 36.7015 16.1397 35.7252 16.8712C34.749 17.6027 33.4345 17.9684 31.7817 17.9684Z" fill="white"/>
<path d="M65.5709 21.9972V15.8097H65.1447C64.9494 16.1672 64.6662 16.5109 64.2922 16.8382C63.9182 17.1682 63.4424 17.4404 62.8677 17.6549C62.2902 17.8694 61.5752 17.9767 60.7227 17.9767C59.6199 17.9767 58.6079 17.7099 57.6839 17.1737C56.7599 16.6374 56.0229 15.8674 55.4729 14.8582C54.9229 13.8517 54.6479 12.6334 54.6479 11.2062V10.8047C54.6479 9.37743 54.9285 8.16193 55.4867 7.15268C56.045 6.14618 56.7874 5.37343 57.7114 4.83718C58.6354 4.30093 59.6392 4.03418 60.7227 4.03418C62.0014 4.03418 62.9832 4.26518 63.668 4.72993C64.3527 5.19468 64.8614 5.71993 65.1997 6.30843H65.6259V4.03418H68.3182V21.9917H65.5737L65.5709 21.9972ZM61.4954 15.5677C62.7027 15.5677 63.6899 15.1827 64.4517 14.4182C65.2134 13.6537 65.5984 12.5537 65.5984 11.1292V10.8872C65.5984 9.47918 65.2107 8.39018 64.4407 7.62293C63.6679 6.85568 62.6862 6.47343 61.4954 6.47343C60.3047 6.47343 59.3504 6.85843 58.5777 7.62293C57.8049 8.39018 57.4199 9.47918 57.4199 10.8872V11.1292C57.4199 12.5564 57.8049 13.6537 58.5777 14.4182C59.3504 15.1854 60.3239 15.5677 61.4954 15.5677Z" fill="white"/>
<path d="M52.3682 10.7278C52.3682 9.39129 52.1015 8.22255 51.568 7.2243C51.0345 6.22605 50.292 5.44505 49.3432 4.88405C48.3917 4.32305 47.2862 4.03979 46.0267 4.03979C44.7672 4.03979 43.593 4.32579 42.6167 4.89504C42.1272 5.18104 41.6927 5.52205 41.3077 5.91805C41.2582 5.96755 41.2115 6.01704 41.1647 6.06929C41.0245 6.2233 40.8952 6.38555 40.7687 6.55605C40.6037 6.78155 40.4497 7.02354 40.3095 7.27654C39.7512 8.29404 39.4707 9.48755 39.4707 10.8625V11.1843C39.4707 12.5593 39.7512 13.7528 40.3095 14.7703C40.8677 15.7878 41.646 16.577 42.6415 17.138C43.6342 17.699 44.8002 17.9823 46.1312 17.9823C47.3027 17.9823 48.2817 17.7953 49.0627 17.4213C49.8437 17.0473 50.4652 16.5825 50.9272 16.0298C51.0565 15.8758 51.1775 15.7245 51.2902 15.576C51.5845 15.1883 51.8292 14.8143 52.019 14.4513L49.7282 13.2743C49.445 13.882 49.038 14.4155 48.5155 14.8803C47.9902 15.345 47.2147 15.576 46.1835 15.576C45.0807 15.576 44.1622 15.2323 43.4252 14.5475C43.3785 14.5035 43.3345 14.4623 43.2932 14.4155C43.2492 14.3688 43.208 14.3248 43.1667 14.278C43.0677 14.1653 42.977 14.047 42.8945 13.9205C42.537 13.3815 42.3307 12.738 42.2785 11.9928C42.273 11.9213 42.2702 11.8498 42.2675 11.7783H52.3655V10.7333L52.3682 10.7278ZM44.1072 9.65805L42.7047 11.066H42.2427C42.2345 10.659 42.2427 10.1393 42.295 9.65805C42.3225 9.4738 42.3555 9.2978 42.4022 9.1273C42.4462 8.9568 42.4985 8.79454 42.5617 8.64054C42.768 8.12354 43.076 7.68629 43.4802 7.3288C44.1292 6.7568 44.968 6.47355 45.9992 6.47355C47.0305 6.47355 47.8637 6.75955 48.5045 7.3288C49.1452 7.90079 49.5082 8.6763 49.5962 9.6553H44.1072V9.65805Z" fill="white"/>
<path d="M83.49 10.7278C83.49 9.39129 83.2233 8.22255 82.6898 7.2243C82.1563 6.22605 81.4138 5.44505 80.465 4.88405C79.5135 4.32305 78.408 4.03979 77.1485 4.03979C75.889 4.03979 74.7148 4.32579 73.7385 4.89504C73.249 5.18104 72.8145 5.52205 72.4295 5.91805C72.3828 5.96755 72.3333 6.01704 72.2865 6.06929C72.1463 6.2233 72.0143 6.38555 71.8905 6.55605C71.7255 6.78155 71.5715 7.02354 71.4313 7.27654C70.873 8.29404 70.5925 9.48755 70.5925 10.8625V11.1843C70.5925 12.5593 70.873 13.7528 71.4313 14.7703C71.9895 15.7878 72.7678 16.577 73.7633 17.138C74.756 17.699 75.922 17.9823 77.253 17.9823C78.4245 17.9823 79.4008 17.7953 80.1845 17.4213C80.9655 17.0473 81.587 16.5825 82.049 16.0298C82.1783 15.8758 82.2993 15.7245 82.412 15.576C82.7063 15.1883 82.951 14.8143 83.1435 14.4513L80.8528 13.2743C80.5695 13.882 80.1625 14.4155 79.64 14.8803C79.1148 15.345 78.3393 15.576 77.308 15.576C76.2053 15.576 75.2868 15.2323 74.5498 14.5475C74.503 14.5035 74.459 14.4623 74.4178 14.4155C74.3738 14.3688 74.3325 14.3248 74.2913 14.278C74.1923 14.1653 74.1015 14.047 74.019 13.9205C73.6615 13.3815 73.4553 12.738 73.403 11.9928C73.3975 11.9213 73.3948 11.8498 73.392 11.7783H83.4928V10.7333L83.49 10.7278ZM75.229 9.65805L73.8265 11.066H73.3645C73.3563 10.659 73.3645 10.1393 73.4168 9.65805C73.4443 9.4738 73.4773 9.2978 73.524 9.1273C73.568 8.9568 73.6203 8.79454 73.6835 8.64054C73.8898 8.12354 74.1978 7.68629 74.602 7.3288C75.251 6.7568 76.0898 6.47355 77.121 6.47355C78.1523 6.47355 78.9855 6.75955 79.6263 7.3288C80.267 7.90079 80.63 8.6763 80.718 9.6553H75.229V9.65805Z" fill="white"/>
<path d="M85.8578 17.9769V4.03986H88.55V5.59086H88.9763C89.188 5.03811 89.5318 4.63386 90.002 4.37261C90.4723 4.11136 91.0553 3.98486 91.7483 3.98486H93.3213V6.47361H91.6438C90.7555 6.47361 90.0268 6.71836 89.4575 7.21061C88.8883 7.70286 88.605 8.45361 88.605 9.47111V17.9769H85.8605H85.8578Z" fill="white"/>
<path d="M106.208 9.03661C106.208 7.42511 105.718 6.17936 104.737 5.30211C103.755 4.42486 102.407 3.98486 100.694 3.98486C99.5693 3.98486 98.6205 4.16361 97.845 4.52386C97.0695 4.88411 96.4453 5.35711 95.9723 5.94836C95.4993 6.53961 95.1555 7.18586 94.941 7.88161L97.5095 8.71486C97.669 7.99986 97.999 7.41686 98.4995 6.96861C99 6.52036 99.7205 6.29761 100.667 6.29761C101.613 6.29761 102.344 6.53411 102.809 7.00986C103.274 7.48286 103.505 8.09886 103.505 8.84961V11.1404H103.059L101.632 9.70761H99.4895C98.043 9.70761 96.844 10.0514 95.8898 10.7416C94.9355 11.4319 94.457 12.4466 94.457 13.7914C94.457 14.6879 94.677 15.4469 95.1115 16.0739C95.5488 16.7009 96.1373 17.1766 96.877 17.4984C97.6195 17.8201 98.461 17.9824 99.4043 17.9824C100.348 17.9824 101.046 17.8531 101.599 17.5919C102.152 17.3334 102.572 17.0281 102.856 16.6789C103.142 16.3296 103.353 16.0106 103.499 15.7246H103.928V17.9824H106.202V9.03386L106.208 9.03661ZM103.505 12.1276C103.505 13.2386 103.161 14.1131 102.473 14.7484C101.789 15.3836 100.9 15.7026 99.8113 15.7026C99.0083 15.7026 98.3758 15.5239 97.911 15.1636C97.4463 14.8034 97.2153 14.3221 97.2153 13.7116C97.2153 13.1011 97.438 12.6419 97.8835 12.3284C98.3318 12.0149 98.9175 11.8581 99.649 11.8581H103.502V12.1276H103.505Z" fill="white"/>
</g>
</svg>
