<svg width="244" height="40" viewBox="0 0 244 40" fill="none" xmlns="http://www.w3.org/2000/svg">
<g clip-path="url(#clip0_3_1147)">
<path d="M0 7.33594C6.28044 7.75304 11.3128 12.7981 11.7076 19.0849H19.0419C18.6344 8.74326 10.3369 0.42984 0 0V7.33594Z" fill="#0DC09D"/>
<path d="M11.749 20.7581C11.3319 27.0385 6.28681 32.0708 0 32.4656V39.8C10.3416 39.3924 18.6551 31.0949 19.0849 20.7581H11.749Z" fill="#0DC09D"/>
<path d="M28.0513 19.0419C28.4684 12.7615 33.5134 7.72916 39.8002 7.33434V0C29.4586 0.407552 21.1452 8.70506 20.7153 19.0419H28.0513Z" fill="#0DC09D"/>
<path d="M39.8002 32.464C33.5198 32.0469 28.4875 27.0019 28.0926 20.7151H20.7583C21.1659 31.0567 29.4634 39.3701 39.8002 39.8V32.464Z" fill="#0DC09D"/>
<path d="M52.2373 32.5596V7.34387H57.1247V11.3127H57.8985C58.3506 10.3448 59.1561 9.44213 60.3183 8.60314C61.4805 7.76416 63.2062 7.34546 65.4971 7.34546C67.304 7.34546 68.9087 7.74983 70.3129 8.55538C71.717 9.36253 72.8219 10.4992 73.6274 11.967C74.433 13.4349 74.8373 15.202 74.8373 17.2668V32.5596H69.8528V17.6537C69.8528 15.5888 69.337 14.0653 68.3038 13.0798C67.2706 12.096 65.8521 11.6041 64.0452 11.6041C61.9803 11.6041 60.3263 12.2823 59.0845 13.637C57.8427 14.9918 57.2219 16.9611 57.2219 19.5418V32.5612H52.2373V32.5596Z" fill="white"/>
<path d="M171.384 32.5707V0.0461426H176.369V32.5707H171.384Z" fill="white"/>
<path d="M193.486 32.5707C191.098 32.5707 188.977 32.0788 187.121 31.0949C185.265 30.1111 183.806 28.699 182.741 26.8602C181.676 25.0215 181.145 22.8436 181.145 20.3267V19.6007C181.145 17.0837 181.676 14.9139 182.741 13.091C183.806 11.2682 185.266 9.85607 187.121 8.85629C188.976 7.85652 191.098 7.35663 193.486 7.35663C195.874 7.35663 198.002 7.85652 199.874 8.85629C201.745 9.85607 203.214 11.2682 204.278 13.091C205.343 14.9139 205.875 17.0837 205.875 19.6007V20.3267C205.875 22.8436 205.343 25.0215 204.278 26.8602C203.213 28.699 201.745 30.1111 199.874 31.0949C198.002 32.0788 195.874 32.5707 193.486 32.5707ZM193.486 28.1179C195.679 28.1179 197.463 27.4158 198.833 26.0133C200.204 24.6091 200.89 22.6669 200.89 20.1818V19.7456C200.89 17.2621 200.212 15.3166 198.857 13.9141C197.502 12.5099 195.711 11.8095 193.486 11.8095C191.26 11.8095 189.557 12.5115 188.186 13.9141C186.814 15.3182 186.129 17.2621 186.129 19.7456V20.1818C186.129 22.6669 186.814 24.6107 188.186 26.0133C189.557 27.4174 191.324 28.1179 193.486 28.1179Z" fill="white"/>
<path d="M212.609 28.3822L209.22 7.35663H214.204L217.205 29.2323H217.979L221.387 11.3223C221.825 9.02187 223.836 7.35663 226.179 7.35663C228.526 7.35663 230.538 9.02664 230.973 11.3319L234.338 29.2307H235.112L238.113 7.35504H243.098L239.708 28.3806C239.32 30.7941 237.236 32.5691 234.79 32.5691C232.394 32.5691 230.339 30.8641 229.895 28.5111L226.547 10.7428H225.773L222.425 28.5111C221.981 30.8657 219.926 32.5691 217.53 32.5691C215.085 32.5691 213.001 30.7941 212.612 28.3806L212.609 28.3822Z" fill="white"/>
<path d="M155.746 1.39616C154.886 2.27017 154.458 3.4371 154.458 4.89378V32.5707H159.462V11.5945H166.608V7.36775H163.154L160.336 10.1856H159.462V5.72003C159.462 4.74891 159.93 4.26335 160.871 4.26335H166.589V0.0843506H159.267C157.776 0.0843506 156.602 0.522151 155.746 1.39616Z" fill="white"/>
<path d="M142.755 26.83V13.5782H137.75V27.704C137.75 29.1623 138.178 30.3276 139.038 31.2032C139.896 32.0772 141.055 32.515 142.513 32.515H149.122V28.2867H144.116C143.207 28.2867 142.755 27.8011 142.755 26.8284V26.83Z" fill="white"/>
<path d="M112.733 25.7267C111.348 27.3792 109.304 28.1864 107.15 28.1864H91.9688C89.9597 28.1864 88.2833 27.5623 86.9397 26.3158C86.8569 26.2378 86.7741 26.1598 86.6961 26.077C86.6165 25.9942 86.5401 25.9114 86.4653 25.8286C86.2854 25.6217 86.1198 25.4051 85.967 25.1791C85.3127 24.1968 84.9385 23.0283 84.8446 21.6751C84.8351 21.5461 84.8303 21.4156 84.8255 21.2835H103.243V19.389C103.243 16.9596 102.758 14.8374 101.785 13.0226C100.812 11.2077 99.4592 9.79081 97.7271 8.77033C95.9918 7.74986 93.9747 7.23883 91.6775 7.23883C89.3802 7.23883 87.239 7.75623 85.4575 8.79421C84.566 9.31161 83.7716 9.9309 83.0711 10.6537C82.9836 10.7428 82.896 10.8352 82.8116 10.9291C82.5569 11.2109 82.3181 11.5054 82.0905 11.8111C81.7896 12.2218 81.5094 12.6596 81.2547 13.1213C80.2342 14.968 79.7231 17.1379 79.7231 19.6326V20.2152C79.7231 22.7099 80.2342 24.8798 81.2547 26.7265C82.2751 28.5732 83.692 30.006 85.5069 31.0265C87.3202 32.047 89.4439 32.558 91.8733 32.558H106.739C108.097 32.558 110.937 32.3128 112.622 31.3704C114.491 30.3228 115.647 29.054 117.544 26.7918L118.265 25.7602L115.529 21.8773L112.735 25.7267H112.733ZM84.8733 17.4467C84.9226 17.114 84.9847 16.7924 85.0675 16.4852C85.1471 16.1763 85.2442 15.8818 85.3588 15.6C85.7361 14.6623 86.2965 13.8679 87.0352 13.2184C88.2165 12.1804 89.7464 11.663 91.6281 11.663C93.5099 11.663 95.0302 12.1804 96.1956 13.2184C97.3625 14.2564 98.0248 15.6653 98.1888 17.4467H88.1783L85.6199 20.0051H84.7762C84.7634 19.2696 84.7762 18.3207 84.8733 17.4467Z" fill="white"/>
<path d="M142.755 7.28499V0H137.75V7.28499H133.042C131.684 7.28499 128.844 7.53016 127.16 8.47262C125.291 9.52016 123.774 10.8686 121.876 13.1308L119.781 16.0171C118.902 14.7499 118.194 13.7294 117.861 13.2598C116.153 10.8511 114.491 9.60135 112.62 8.55382C110.936 7.60976 108.255 7.36618 106.897 7.36618H105.964V11.7394H107.309C109.465 11.7394 111.348 12.5466 112.733 14.199L116.826 20.0863L116.809 20.1101L119.311 23.6619L121.432 26.7122C123.329 28.9744 124.847 30.3228 126.716 31.3704C128.4 32.3144 131.24 32.558 132.598 32.558H133.531V28.1848H132.186C130.03 28.1848 127.94 27.4158 126.603 25.7251C126.088 25.0756 124.278 22.4918 122.419 19.8188L126.408 14.1163C127.793 12.4638 130.474 11.5118 132.628 11.5118H149.682V7.2834H142.755V7.28499Z" fill="white"/>
</g>
<defs>
<clipPath id="clip0_3_1147">
<rect width="243.775" height="39.8" fill="white"/>
</clipPath>
</defs>
</svg>
