<svg width="210" height="40" viewBox="0 0 210 40" fill="none" xmlns="http://www.w3.org/2000/svg">
<g clip-path="url(#clip0_3_1454)">
<path d="M20.549 20.7835L20.541 20.5416H28.2529L28.2641 20.7294L28.28 20.9173L28.2959 21.1035L28.3151 21.2914L28.3389 21.4777L28.3644 21.6639L28.3931 21.8502L28.4249 22.0349L28.46 22.2195L28.4966 22.4042L28.5364 22.5889L28.5794 22.7704L28.624 22.9534L28.6717 23.1349L28.7243 23.3148L28.7784 23.4947L28.8342 23.6746L28.8947 23.8513L28.9568 24.0296L29.0221 24.2063L29.089 24.3815L29.159 24.5566L29.2323 24.7285L29.3087 24.9005L29.3867 25.0708L29.4679 25.2411L29.5523 25.4099L29.6367 25.5771L29.7259 25.7426L29.8167 25.9066L29.9106 26.0706L30.0078 26.2314L30.1065 26.3906L30.2068 26.5482L30.3103 26.7058L30.417 26.8618L30.5253 27.0146L30.6352 27.1659L30.7482 27.3171L30.8645 27.4652L30.9823 27.6116L31.1017 27.7565L31.2243 27.8998L31.3486 28.0415L31.4743 28.18L31.6017 28.3153L31.7339 28.4506L31.8661 28.5843L32.0014 28.7149L32.1384 28.8438L32.2769 28.9712L32.417 29.0954L32.5604 29.218L32.7053 29.3374L32.8502 29.4552L32.9983 29.5714L33.148 29.6844L33.3008 29.7975L33.4521 29.9057L33.6082 30.0108L33.7642 30.1159L33.9219 30.2177L34.0827 30.3164L34.2435 30.4136L34.4059 30.5075L34.57 30.5982L34.7356 30.689L34.9012 30.7749L35.07 30.8593L35.2403 30.9389L35.4107 31.0185L35.5827 31.0949L35.7563 31.1682L35.9299 31.2398L36.1034 31.3067L36.2802 31.3735L36.4585 31.4356L36.6353 31.4945L36.8152 31.5518L36.9936 31.6076L37.1751 31.6585L37.3566 31.7079L37.5382 31.7524L37.7229 31.797L37.9044 31.8368L38.0891 31.875L38.2738 31.9084L38.4586 31.9419L38.6449 31.9705L38.8296 31.996L39.0175 32.0199L39.2054 32.0406L39.3901 32.0581L39.578 32.0724L39.7962 32.0867V39.8L39.3853 39.7825L39.1417 39.7681L38.9012 39.7522L38.6592 39.7299L38.4172 39.7077L38.1767 39.6822L37.9363 39.6519L37.6958 39.6201L37.4554 39.5851L37.2165 39.5485L36.9776 39.5071L36.7388 39.4641L36.5015 39.4179L36.2627 39.3686L36.027 39.316L35.7913 39.2603L35.5556 39.2014L35.32 39.1409L35.0875 39.0772L34.855 39.0104L34.6209 38.9419L34.39 38.8703L34.1607 38.7938L33.9298 38.7158L33.7021 38.6362L33.4744 38.5535L33.2483 38.4659L33.0222 38.3783L32.7976 38.2844L32.5747 38.1905L32.3518 38.0934L32.1304 37.9931L31.9123 37.8912L31.6925 37.7861L31.4759 37.6779L31.261 37.568L31.046 37.455L30.8326 37.3403L30.6208 37.2209L30.4106 37.1L30.202 36.9774L29.995 36.8516L29.7896 36.7227L29.5858 36.5921L29.382 36.4584L29.1829 36.3231L28.9839 36.183L28.7864 36.0429L28.5889 35.8996L28.3963 35.7547L28.2036 35.6067L28.0141 35.457L27.8246 35.3042L27.6383 35.1498L27.4536 34.9921L27.2704 34.8329L27.0905 34.6706L26.9122 34.5082L26.7354 34.3426L26.5602 34.1739L26.3867 34.0035L26.2163 33.8316L26.0475 33.6581L25.8819 33.4813L25.7163 33.303L25.5539 33.1231L25.3946 32.9401L25.237 32.757L25.0825 32.5707L24.9296 32.3829L24.7784 32.1934L24.6287 32.0008L24.4822 31.8081L24.3389 31.6123L24.1987 31.4149L24.0586 31.2175L23.9232 31.0169L23.7879 30.8147L23.6557 30.6126L23.5267 30.4056L23.4009 30.1986L23.2767 29.9901L23.1541 29.7815L23.0363 29.5698L22.92 29.3565L22.8054 29.1447L22.6939 28.9282L22.5856 28.7117L22.479 28.4936L22.3754 28.2739L22.2767 28.0526L22.178 27.8313L22.0824 27.6085L21.9901 27.384L21.8993 27.1595L21.8133 26.9334L21.7289 26.7058L21.6477 26.4765L21.5681 26.2473L21.4933 26.018L21.42 25.7856L21.3499 25.5548L21.2831 25.3223L21.2178 25.0883L21.1557 24.8527L21.0968 24.6187L21.041 24.3831L20.9885 24.1459L20.9375 23.9102L20.8897 23.6714L20.8452 23.4326L20.8038 23.1938L20.7655 22.955L20.7289 22.7146L20.6971 22.4743L20.6668 22.2339L20.6413 21.9935L20.6159 21.7531L20.5952 21.5095L20.5776 21.2691L20.5617 21.0271L20.549 20.7835Z" fill="#F18046"/>
<path d="M20.5378 0.00317383L20.9503 0.0206858L21.1907 0.0350138L21.4344 0.0525258L21.6748 0.0716298L21.9169 0.0939178L22.1573 0.120982L22.3993 0.15123L22.6382 0.18307L22.8787 0.218094L23.1191 0.25471L23.358 0.296102L23.5968 0.339086L23.8341 0.385254L24.0714 0.436198L24.3086 0.487142L24.5443 0.542862L24.78 0.600174L25.014 0.66067L25.2481 0.725942L25.4822 0.791214L25.7131 0.861262L25.9456 0.932902L26.1765 1.00773L26.4058 1.08573L26.6351 1.16533L26.8628 1.24971L27.0889 1.33727L27.315 1.42483L27.538 1.51717L27.7625 1.61269L27.9838 1.70821L28.2052 1.8085L28.4249 1.91039L28.6431 2.01546L28.8613 2.12372L29.0778 2.23357L29.2912 2.34819L29.5046 2.46281L29.7148 2.58062L29.9266 2.70161L30.1352 2.8242L30.3422 2.95156L30.5476 3.07892L30.753 3.21105L30.9537 3.34319L31.1559 3.4801L31.3533 3.61701L31.5524 3.7587L31.7483 3.90039L31.9409 4.04685L32.1336 4.19491L32.3247 4.34615L32.5126 4.49739L32.7005 4.65181L32.8836 4.80942L33.0668 4.96703L33.2483 5.12941L33.4282 5.29339L33.605 5.45896L33.7785 5.62612L33.9521 5.79646L34.1225 5.9684L34.2913 6.14193L34.4585 6.31864L34.6209 6.49853L34.7849 6.67843L34.9442 6.85992L35.1018 7.043L35.2579 7.22926L35.4107 7.41712L35.562 7.60657L35.7101 7.7992L35.855 7.99183L35.9999 8.18765L36.1417 8.38346L36.2802 8.58246L36.4171 8.78305L36.5509 8.98524L36.6831 9.18901L36.812 9.39279L36.9394 9.59975L37.0636 9.8083L37.1847 10.0184L37.3041 10.2302L37.4187 10.4419L37.535 10.6568L37.6449 10.8718L37.7532 11.0883L37.8598 11.3064L37.9633 11.5245L38.0637 11.7458L38.1608 11.9671L38.2563 12.1899L38.3487 12.4144L38.4395 12.6389L38.5271 12.8665L38.6114 13.0942L38.6927 13.3218L38.7707 13.5495L38.8471 13.7803L38.9204 14.0112L38.9904 14.2436L39.0589 14.476L39.1226 14.7101L39.1831 14.9441L39.2436 15.1797L39.2994 15.4153L39.3519 15.6509L39.4029 15.8882L39.4506 16.127L39.4952 16.3642L39.535 16.603L39.5748 16.8418L39.6099 17.0822L39.6433 17.3225L39.6736 17.5629L39.7006 17.8033L39.7245 18.0453L39.7452 18.2857L39.7627 18.5293L39.7787 18.7697L39.7898 19.0117L39.7994 19.2536H32.0842L32.0731 19.0674L32.0588 18.8795L32.0413 18.6933L32.0221 18.5054L31.9983 18.3191L31.9728 18.1329L31.9441 17.9482L31.9139 17.7635L31.8788 17.5773L31.8406 17.3942L31.8008 17.2095L31.7578 17.028L31.7132 16.8449L31.6639 16.6635L31.6129 16.482L31.5604 16.3037L31.503 16.1238L31.4425 15.9455L31.3804 15.7688L31.3167 15.592L31.2482 15.4169L31.1766 15.2418L31.1049 15.0699L31.0285 14.8963L30.9505 14.726L30.8708 14.5572L30.7865 14.3885L30.7005 14.2213L30.6113 14.0558L30.5205 13.8918L30.4266 13.7294L30.331 13.567L30.2307 13.4078L30.1304 13.2486L30.0269 13.0926L29.9202 12.9382L29.8119 12.7838L29.7004 12.6325L29.589 12.4829L29.4727 12.3332L29.3549 12.1883L29.2355 12.0435L29.1129 11.9002L28.9886 11.7585L28.8628 11.62L28.7339 11.4831L28.6033 11.3478L28.4695 11.214L28.3358 11.0851L28.1988 10.9561L28.0603 10.8288L27.9202 10.703L27.7768 10.582L27.6319 10.461L27.487 10.3432L27.3373 10.227L27.1877 10.114L27.0364 10.0025L26.8835 9.89427L26.729 9.78761L26.5714 9.68413L26.4138 9.58224L26.2529 9.48353L26.0921 9.38642L25.9297 9.29249L25.7657 9.20175L25.6 9.1126L25.4328 9.02504L25.2656 8.94225L25.0953 8.85947L24.9249 8.78146L24.7529 8.70505L24.5809 8.63181L24.4058 8.56017L24.2306 8.49331L24.0538 8.42804L23.8771 8.36436L23.7003 8.30545L23.5204 8.24814L23.3404 8.19242L23.1605 8.14148L22.979 8.09213L22.7958 8.04755L22.6127 8.00457L22.4296 7.96317L22.2449 7.92656L22.0602 7.89153L21.8754 7.85969L21.6891 7.82945L21.5028 7.80397L21.3165 7.78009L21.1302 7.7594L20.9423 7.74189L20.7544 7.72756L20.5378 7.71482V0.00317383Z" fill="#F18046"/>
<path d="M19.2552 32.0867V39.8L18.8443 39.7825L18.6007 39.7681L18.3602 39.7522L18.1182 39.7315L17.8761 39.7077L17.6357 39.6822L17.3952 39.6519L17.1548 39.6217L16.9143 39.5851L16.6755 39.5485L16.4366 39.5087L16.1978 39.4641L15.9589 39.4179L15.7216 39.3686L15.486 39.316L15.2503 39.2603L15.0146 39.2014L14.779 39.1409L14.5465 39.0772L14.314 39.0104L14.0799 38.9419L13.849 38.8703L13.6197 38.7938L13.3888 38.7158L13.1611 38.6362L12.9334 38.5535L12.7073 38.4659L12.4811 38.3783L12.2566 38.2844L12.0337 38.1905L11.8107 38.0934L11.5894 37.9947L11.3712 37.8912L11.1515 37.7877L10.9349 37.6779L10.72 37.568L10.505 37.455L10.2916 37.3403L10.0798 37.2209L9.86962 37.1L9.66102 36.9774L9.45401 36.8516L9.24859 36.7227L9.04476 36.5921L8.84094 36.4584L8.64189 36.3231L8.44284 36.1846L8.24379 36.0445L8.04793 35.8996L7.85525 35.7547L7.66257 35.6067L7.47308 35.457L7.28358 35.3042L7.09727 35.1498L6.91256 34.9921L6.72943 34.8329L6.54949 34.6706L6.37114 34.5082L6.19439 34.3426L6.01763 34.1739L5.84566 34.0035L5.67527 33.8316L5.50648 33.6581L5.34087 33.4813L5.17526 33.303L5.01443 33.1231L4.8536 32.9401L4.69595 32.757L4.54149 32.5707L4.38703 32.3829L4.23734 32.1934L4.08766 32.0024L3.94275 31.8081L3.79785 31.6123L3.65772 31.4165L3.51759 31.2175L3.38223 31.0169L3.24688 30.8147L3.11471 30.6126L2.98573 30.4056L2.85993 30.1986L2.73572 29.9901L2.61311 29.7815L2.49527 29.5714L2.37903 29.3581L2.26438 29.1447L2.15291 28.9282L2.04463 28.7117L1.93953 28.4936L1.83443 28.2739L1.7357 28.0526L1.63697 27.8313L1.54143 27.6085L1.44907 27.384L1.3599 27.1595L1.27232 26.9334L1.18792 26.7058L1.10671 26.4765L1.02709 26.2489L0.952248 26.018L0.878998 25.7872L0.808933 25.5548L0.742053 25.3223L0.676765 25.0883L0.614662 24.8527L0.555743 24.6187L0.50001 24.3831L0.447461 24.1459L0.396505 23.9102L0.348733 23.6714L0.304146 23.4326L0.262744 23.1954L0.224527 22.955L0.187902 22.7146L0.156054 22.4743L0.125799 22.2339L0.10032 21.9935L0.0748422 21.7531L0.0541412 21.5111L0.0366249 21.2691L0.020701 21.0271L0.00796194 20.7835L0 20.5416H7.71194L7.72308 20.7294L7.73741 20.9173L7.75493 21.1051L7.77404 21.2914L7.79792 21.4777L7.8234 21.6639L7.85207 21.8502L7.88391 22.0349L7.91895 22.2211L7.95557 22.4042L7.99538 22.5889L8.03837 22.7704L8.08455 22.9534L8.13073 23.1349L8.18328 23.3148L8.23742 23.4947L8.29316 23.6746L8.35367 23.8529L8.41577 24.0296L8.48106 24.2063L8.54794 24.3815L8.618 24.5566L8.69125 24.7285L8.76769 24.9005L8.84572 25.0708L8.92693 25.2427L9.01132 25.4099L9.09572 25.5771L9.18489 25.7426L9.27566 25.9066L9.36961 26.0706L9.46675 26.2314L9.56547 26.3906L9.6658 26.5482L9.7693 26.7058L9.87599 26.8618L9.98427 27.0162L10.0941 27.1659L10.2072 27.3171L10.3235 27.4652L10.4413 27.6116L10.5607 27.7565L10.6833 27.8998L10.8075 28.0415L10.9333 28.18L11.0623 28.3169L11.1929 28.4506L11.3251 28.5843L11.4604 28.7165L11.5974 28.8454L11.7343 28.9712L11.876 29.0954L12.0193 29.218L12.1643 29.3374L12.3092 29.4552L12.4573 29.5714L12.6069 29.6844L12.7598 29.7975L12.9111 29.9057L13.0671 30.0108L13.2232 30.1159L13.3808 30.2177L13.5417 30.318L13.7025 30.4136L13.8649 30.5075L14.0289 30.5982L14.1945 30.689L14.3602 30.7749L14.5289 30.8593L14.6993 30.9405L14.8697 31.0185L15.0417 31.0949L15.2153 31.1682L15.3888 31.2398L15.5624 31.3083L15.7392 31.3735L15.9175 31.4356L16.0943 31.4945L16.2742 31.5518L16.4526 31.6076L16.6341 31.6585L16.8156 31.7079L16.9971 31.7524L17.1819 31.797L17.3634 31.8368L17.5481 31.875L17.7328 31.9084L17.9175 31.9419L18.1039 31.9705L18.2902 31.996L18.4765 32.0199L18.6628 32.0406L18.8491 32.0581L19.037 32.0724L19.2552 32.0867Z" fill="#F18046"/>
<path d="M19.2552 0V7.71324L19.0673 7.72597L18.8809 7.73871L18.693 7.75782L18.5067 7.77692L18.3204 7.79921L18.1341 7.82468L17.9494 7.85334L17.7631 7.88517L17.5784 7.91861L17.3937 7.95682L17.2105 7.99662L17.0274 8.0396L16.8459 8.08417L16.6643 8.13353L16.4828 8.18447L16.3029 8.2386L16.1245 8.29591L15.9446 8.35482L15.7678 8.4169L15.5911 8.48217L15.4159 8.55063L15.2423 8.62068L15.0704 8.69232L14.8968 8.76874L14.7264 8.84674L14.556 8.92794L14.3888 9.01072L14.2216 9.09828L14.056 9.18743L13.892 9.27658L13.728 9.37051L13.5671 9.46762L13.4079 9.56633L13.2487 9.66821L13.0926 9.7717L12.9366 9.87677L12.7837 9.98502L12.6308 10.0965L12.4811 10.2095L12.333 10.3241L12.1865 10.4435L12.0416 10.5629L11.8999 10.6839L11.7582 10.8081L11.6197 10.9354L11.4811 11.0644L11.3458 11.1949L11.2136 11.3271L11.083 11.4624L10.954 11.5977L10.8282 11.7378L10.7024 11.8779L10.5814 12.0196L10.4604 12.1645L10.3426 12.3109L10.2263 12.459L10.1133 12.6086L10.0018 12.7599L9.89191 12.9143L9.78682 13.0687L9.68331 13.2263L9.5814 13.3824L9.48267 13.5431L9.38553 13.7039L9.29158 13.8663L9.19923 14.0303L9.11005 14.1959L9.02406 14.363L8.93967 14.5318L8.85845 14.7005L8.77884 14.8709L8.70399 15.0428L8.63074 15.2163L8.55909 15.3899L8.49221 15.565L8.42692 15.7417L8.36322 15.9184L8.30271 16.0967L8.24538 16.275L8.19124 16.4565L8.14029 16.6364L8.09092 16.8179L8.04474 16.9994L8.00175 17.1825L7.96035 17.3671L7.92372 17.5502L7.88869 17.7365L7.85684 17.9211L7.82818 18.1058L7.80111 18.2921L7.77882 18.4783L7.75811 18.6646L7.7406 18.8525L7.72627 19.0403L7.71194 19.2584H0L0.0175163 18.8445L0.0318478 18.6041L0.0477716 18.3621L0.0684727 18.1201L0.0907661 17.8797L0.117837 17.6378L0.148092 17.3974L0.178347 17.157L0.21338 16.9166L0.251597 16.6778L0.291407 16.439L0.335994 16.2002L0.382173 15.963L0.431537 15.7258L0.484086 15.4886L0.53982 15.2529L0.597146 15.0157L0.657656 14.7817L0.721352 14.5477L0.788232 14.3153L0.856705 14.0828L0.929955 13.852L1.0048 13.6212L1.08282 13.3919L1.16244 13.1627L1.24684 12.935L1.33283 12.7073L1.422 12.4829L1.51436 12.2584L1.60831 12.0339L1.70545 11.8126L1.80418 11.5929L1.90768 11.3717L2.01278 11.1536L2.11947 10.9354L2.23094 10.7205L2.344 10.5056L2.46024 10.2923L2.57808 10.0821L2.6991 9.87199L2.82171 9.66344L2.94751 9.45489L3.07649 9.24952L3.20707 9.04574L3.34083 8.84356L3.47618 8.64297L3.61472 8.44397L3.75485 8.24497L3.89817 8.05074L4.04467 7.85652L4.19117 7.66548L4.34244 7.47285L4.49531 7.28658L4.64977 7.09873L4.80583 6.91406L4.96507 6.73098L5.12749 6.54949L5.28991 6.37118L5.45711 6.19447L5.62431 6.02094L5.7947 5.84742L5.96668 5.67707L6.14025 5.50832L6.317 5.34116L6.49535 5.17718L6.67688 5.0148L6.85682 4.85401L7.04154 4.69799L7.22785 4.54198L7.41575 4.38755L7.60524 4.2379L7.79792 4.08985L7.9906 3.94338L8.18647 3.79851L8.38233 3.65682L8.58138 3.51832L8.78202 3.38141L8.98425 3.24768L9.18649 3.11714L9.3919 2.98818L9.59891 2.86082L9.80752 2.73665L10.0161 2.61566L10.2279 2.49626L10.4413 2.38004L10.6547 2.26542L10.8696 2.15398L11.0878 2.04572L11.306 1.94065L11.5241 1.83717L11.7455 1.73528L11.9668 1.63817L12.1897 1.54265L12.4127 1.45031L12.6388 1.36116L12.8649 1.2736L13.0926 1.18922L13.3203 1.10644L13.5496 1.03002L13.7805 0.952016L14.0114 0.878784L14.2439 0.810328L14.4764 0.741872L14.7105 0.6766L14.9446 0.616104L15.1786 0.5572L15.4159 0.499888L15.6516 0.447352L15.8888 0.396408L16.1261 0.35024L16.365 0.305664L16.6038 0.264272L16.8427 0.226064L17.0831 0.189448L17.3236 0.157608L17.564 0.12736L17.8045 0.100296L18.0465 0.074824L18.287 0.05572L18.529 0.036616L18.7711 0.022288L19.0131 0.009552L19.2552 0Z" fill="#F18046"/>
<path d="M174.978 39.8V28.5876H174.204C173.849 29.2339 173.333 29.8548 172.655 30.4502C171.977 31.0472 171.114 31.5391 170.066 31.926C169.017 32.3128 167.72 32.5071 166.171 32.5071C164.169 32.5071 162.331 32.0231 160.653 31.0552C158.975 30.0872 157.636 28.6926 156.636 26.8682C155.635 25.0454 155.136 22.8436 155.136 20.2614V19.5355C155.136 16.9548 155.644 14.7531 156.662 12.9287C157.677 11.1058 159.024 9.70963 160.702 8.7417C162.38 7.77376 164.203 7.28979 166.171 7.28979C168.493 7.28979 170.276 7.71008 171.518 8.54747C172.76 9.38646 173.688 10.3385 174.301 11.4035H175.075V7.28979H179.962V39.7968H174.978V39.8ZM167.573 28.1514C169.767 28.1514 171.558 27.4572 172.945 26.0706C174.331 24.684 175.025 22.6988 175.025 20.1181V19.6819C175.025 17.1331 174.323 15.1654 172.921 13.7772C171.517 12.3906 169.734 11.6965 167.573 11.6965C165.413 11.6965 163.678 12.3906 162.273 13.7772C160.869 15.1654 160.169 17.1331 160.169 19.6819V20.1181C160.169 22.7004 160.871 24.684 162.273 26.0706C163.678 27.4588 165.443 28.1514 167.573 28.1514Z" fill="white"/>
<path d="M196.466 32.5071C194.175 32.5071 192.103 32.0231 190.248 31.0552C188.392 30.0872 186.924 28.6831 185.845 26.8443C184.764 25.0056 184.224 22.7959 184.224 20.2136V19.5848C184.224 17.0042 184.764 14.8024 185.845 12.978C186.925 11.1552 188.393 9.75261 190.248 8.76717C192.103 7.78331 194.175 7.29138 196.466 7.29138C198.757 7.29138 200.709 7.71167 202.322 8.54906C203.934 9.38805 205.233 10.5009 206.217 11.8891C207.201 13.2773 207.838 14.8088 208.129 16.4868L203.29 17.5025C203.127 16.4374 202.79 15.4695 202.274 14.5987C201.758 13.7278 201.032 13.0337 200.096 12.5179C199.16 12.0021 197.982 11.7442 196.563 11.7442C195.145 11.7442 193.926 12.0594 192.813 12.6883C191.7 13.3171 190.82 14.2214 190.175 15.3978C189.528 16.5759 189.207 18.0039 189.207 19.6803V20.1165C189.207 21.7945 189.528 23.2305 190.175 24.4245C190.82 25.6185 191.7 26.5227 192.813 27.1341C193.926 27.747 195.175 28.0542 196.563 28.0542C198.66 28.0542 200.257 27.5146 201.355 26.4336C202.452 25.3526 203.146 23.9739 203.436 22.296L208.276 23.4088C207.889 25.0549 207.203 26.5721 206.219 27.9587C205.235 29.3469 203.936 30.4518 202.323 31.2733C200.709 32.0963 198.757 32.5071 196.468 32.5071H196.466Z" fill="white"/>
<path d="M52.2407 32.5071V7.29297H57.1282V10.4865H57.9019C58.354 9.64754 59.08 8.90566 60.0797 8.2609C61.0795 7.61614 62.4343 7.29297 64.1457 7.29297C65.8571 7.29297 67.3472 7.65594 68.4282 8.3819C69.5092 9.10785 70.3227 10.036 70.8719 11.1647H71.6456C72.1933 10.0678 72.9925 9.14924 74.0416 8.40578C75.0891 7.6639 76.5824 7.29297 78.5183 7.29297C80.0673 7.29297 81.438 7.60818 82.632 8.23702C83.826 8.86586 84.778 9.80196 85.4881 11.0437C86.1981 12.2855 86.5531 13.8265 86.5531 15.6653V32.5071H81.5686V16.0522C81.5686 14.6002 81.1737 13.4795 80.3825 12.6883C79.5913 11.8986 78.4705 11.5022 77.0186 11.5022C75.4696 11.5022 74.2278 12.0021 73.2917 13.0019C72.3557 14.0017 71.8876 15.4376 71.8876 17.3098V32.5071H66.9031V16.0522C66.9031 14.6002 66.5082 13.4795 65.717 12.6883C64.9258 11.8986 63.805 11.5022 62.3531 11.5022C60.8041 11.5022 59.5623 12.0021 58.6262 13.0019C57.6901 14.0017 57.2221 15.4376 57.2221 17.3098V32.5071H52.2375H52.2407Z" fill="white"/>
<path d="M100.719 32.4529C98.9118 32.4529 97.2991 32.0486 95.879 31.243C94.459 30.4375 93.3462 29.2912 92.539 27.8075C91.7319 26.3237 91.3291 24.5487 91.3291 22.4838V7.29297H96.3137V22.1447C96.3137 24.2096 96.8295 25.7347 97.8627 26.7186C98.8943 27.7024 100.33 28.1943 102.171 28.1943C104.204 28.1943 105.84 27.5098 107.084 26.1375C108.325 24.7668 108.946 22.7911 108.946 20.2089V7.29297H113.931V32.5071H109.043V28.4363H108.27C107.817 29.4043 107.012 30.3165 105.85 31.1714C104.688 32.0263 102.978 32.4545 100.72 32.4545L100.719 32.4529Z" fill="white"/>
<path d="M118.707 32.507V0H123.691V32.507H118.707Z" fill="white"/>
<path d="M145.374 32.5071V7.29297H150.359V32.5071H145.374Z" fill="white"/>
<path d="M140.598 11.378V7.29295H137.499L134.775 10.0169H133.471V0H128.467V27.6976C128.467 29.1543 128.896 30.3212 129.755 31.1952C130.613 32.0692 131.785 32.507 133.277 32.507H140.597V28.3296H134.878C133.939 28.3296 133.469 27.8441 133.469 26.873V11.3796H140.595L140.598 11.378Z" fill="white"/>
</g>
<defs>
<clipPath id="clip0_3_1454">
<rect width="209.779" height="39.8" fill="white"/>
</clipPath>
</defs>
</svg>
