<svg width="184" height="40" viewBox="0 0 184 40" fill="none" xmlns="http://www.w3.org/2000/svg">
<g clip-path="url(#clip0_3_1547)">
<path d="M19.0419 32.464C12.7615 32.0469 7.72916 27.0019 7.33434 20.7151H0C0.407552 31.0567 8.70506 39.3701 19.0419 39.8V32.464Z" fill="#FA6863"/>
<path d="M7.33594 19.0419C7.75304 12.7615 12.7981 7.72916 19.0849 7.33434V0C8.74326 0.407552 0.42984 8.70506 0 19.0419H7.33594Z" fill="#FA6863"/>
<path d="M32.4638 20.7581C32.0467 27.0385 27.0017 32.0708 20.7148 32.4656V39.8C31.0565 39.3924 39.3699 31.0949 39.7997 20.7581H32.4638Z" fill="#FA6863"/>
<path d="M20.7578 7.33594C27.0383 7.75304 32.0706 12.7981 32.4654 19.0849H39.7997C39.3922 8.74326 31.0947 0.42984 20.7578 0V7.33594Z" fill="#FA6863"/>
</g>
<path d="M78.5517 32.4864C76.7448 32.4864 75.1321 32.082 73.712 31.2765C72.292 30.4709 71.1792 29.3247 70.372 27.8409C69.5649 26.3572 69.1621 24.5821 69.1621 22.5173V7.27069H74.1467V22.1766C74.1467 24.2414 74.6625 25.7665 75.6957 26.7504C76.7273 27.7343 78.1633 28.2262 80.0036 28.2262C82.0366 28.2262 83.6732 27.5416 84.9165 26.1693C86.1583 24.7986 86.7792 22.581 86.7792 19.9987V7.27069H91.7637V32.4848H86.8763V28.4682H86.1026C85.6505 29.4361 84.8449 30.3483 83.6827 31.2032C82.5206 32.0581 80.8108 32.4864 78.5533 32.4864H78.5517Z" fill="white"/>
<path d="M121.353 32.4864V7.27069H126.337V32.4848H121.353V32.4864Z" fill="white"/>
<path d="M143.454 32.4864C141.066 32.4864 138.946 31.9944 137.09 31.0106C135.233 30.0267 133.775 28.6146 132.71 26.7759C131.645 24.9371 131.113 22.7593 131.113 20.2423V19.5163C131.113 16.9994 131.645 14.8295 132.71 13.0067C133.775 11.1838 135.235 9.77172 137.09 8.77194C138.944 7.77217 141.066 7.27228 143.454 7.27228C145.842 7.27228 147.971 7.77217 149.843 8.77194C151.714 9.77172 153.183 11.1838 154.247 13.0067C155.312 14.8295 155.843 16.9994 155.843 19.5163V20.2423C155.843 22.7593 155.312 24.9371 154.247 26.7759C153.182 28.6146 151.714 30.0267 149.843 31.0106C147.971 31.9944 145.842 32.4864 143.454 32.4864ZM143.454 28.0336C145.648 28.0336 147.431 27.3315 148.802 25.9289C150.173 24.5248 150.859 22.5825 150.859 20.0974V19.6612C150.859 17.1777 150.181 15.2323 148.826 13.8297C147.471 12.4256 145.68 11.7251 143.454 11.7251C141.229 11.7251 139.525 12.4272 138.155 13.8297C136.782 15.2339 136.098 17.1777 136.098 19.6612V20.0974C136.098 22.5825 136.782 24.5264 138.155 25.9289C139.525 27.3331 141.293 28.0336 143.454 28.0336Z" fill="white"/>
<path d="M160.621 32.4864V7.27069H165.509V11.2395H166.282C166.734 10.2716 167.54 9.36895 168.702 8.52996C169.864 7.69098 171.59 7.27228 173.881 7.27228C175.688 7.27228 177.293 7.67665 178.697 8.4822C180.101 9.28935 181.204 10.426 182.011 11.8939C182.817 13.3617 183.221 15.1288 183.221 17.1936V32.4864H178.237V17.5805C178.237 15.5157 177.721 13.9921 176.688 13.0067C175.654 12.0228 174.236 11.5309 172.429 11.5309C170.364 11.5309 168.71 12.2091 167.468 13.5639C166.227 14.9187 165.606 17.1777 165.606 19.7583V32.4864H160.621Z" fill="white"/>
<path d="M106.752 32.4864H96.5406V28.4698H106.752C108.333 28.4698 109.55 28.1641 110.405 27.5496C111.26 26.9367 111.689 26.1454 111.689 25.1775C111.689 24.2096 111.284 23.4995 110.479 23.0474C109.671 22.5969 108.477 22.2243 106.897 21.9346L105.25 21.6449C103.636 21.3551 102.168 20.9348 100.847 20.3872C99.5241 19.8395 98.4749 19.0801 97.7012 18.1122C96.9275 17.1443 96.5391 15.9025 96.5391 14.3853C96.5391 12.1279 97.378 10.3767 99.056 9.13492C100.734 7.89316 102.96 7.27228 105.734 7.27228H116.189V11.3382H105.734C104.38 11.3382 103.315 11.5882 102.541 12.0881C101.767 12.588 101.379 13.29 101.379 14.1927C101.379 15.1606 101.758 15.8707 102.515 16.3228C103.273 16.7749 104.298 17.114 105.588 17.3385L107.282 17.6282C108.992 17.918 110.557 18.3223 111.977 18.8382C113.397 19.354 114.518 20.0958 115.341 21.0638C116.164 22.0317 116.574 23.3228 116.574 24.9355C116.574 27.3235 115.686 29.1782 113.913 30.5012C112.137 31.8241 109.751 32.4848 106.75 32.4848L106.752 32.4864Z" fill="white"/>
<path d="M53.5252 1.31181C52.6656 2.18582 52.2373 3.35275 52.2373 4.80943V32.4864H57.241V11.5086H64.3874V7.28181H60.9328L58.115 10.0996H57.241V5.63409C57.241 4.66297 57.709 4.17741 58.6499 4.17741H64.3683V0H57.0467C55.555 0 54.3817 0.4378 53.5252 1.31181Z" fill="white"/>
<defs>
<clipPath id="clip0_3_1547">
<rect width="39.8" height="39.8" fill="white"/>
</clipPath>
</defs>
</svg>
