<svg width="24" height="24" viewBox="0 0 24 24" fill="none" xmlns="http://www.w3.org/2000/svg">
<path d="M4.42368 11.4826C4.6752 7.69536 7.71744 4.6608 11.5085 4.42272V0C5.27232 0.24576 0.2592 5.24928 0 11.4826H4.42368Z" fill="#F18046"/>
<path d="M11.4826 19.5764C7.69536 19.3249 4.6608 16.2826 4.42272 12.4916H0C0.24576 18.7277 5.24928 23.7409 11.4826 24.0001V19.5764Z" fill="#F18046"/>
<path d="M12.5175 4.42368C16.3047 4.6752 19.3392 7.71744 19.5773 11.5085H24C23.7543 5.27232 18.7507 0.2592 12.5175 0V4.42368Z" fill="#F18046"/>
<path d="M24 19.5764C20.2128 19.3249 17.1783 16.2826 16.9402 12.4916H12.5175C12.7632 18.7277 17.7667 23.7409 24 24.0001V19.5764Z" fill="#F18046"/>
</svg>
