<svg width="24" height="24" viewBox="0 0 24 24" fill="none" xmlns="http://www.w3.org/2000/svg">
<path d="M0 4.42368C3.7872 4.6752 6.82176 7.71744 7.05984 11.5085H11.4826C11.2368 5.27232 6.23328 0.2592 0 0V4.42368Z" fill="#0DC09D"/>
<path d="M7.0848 12.5175C6.83328 16.3047 3.79104 19.3392 0 19.5773V24C6.23616 23.7543 11.2493 18.7507 11.5085 12.5175H7.0848Z" fill="#0DC09D"/>
<path d="M16.9153 11.4826C17.1668 7.69536 20.209 4.6608 24.0001 4.42272V0C17.7639 0.24576 12.7508 5.24928 12.4916 11.4826H16.9153Z" fill="#0DC09D"/>
<path d="M24 19.5764C20.2128 19.3249 17.1783 16.2826 16.9402 12.4916H12.5175C12.7632 18.7277 17.7667 23.7409 24 24.0001V19.5764Z" fill="#0DC09D"/>
</svg>
