<svg width="24" height="24" viewBox="0 0 24 24" fill="none" xmlns="http://www.w3.org/2000/svg">
<g clip-path="url(#clip0_15_583)">
<path d="M4.45901 11.2482C4.7054 7.53831 7.68555 4.56568 11.3992 4.33246V0C5.29033 0.240744 0.379521 5.14215 0.12561 11.2482H4.45901Z" fill="#3D95FD"/>
<path d="M4.45901 23.5104C4.7054 19.8005 7.68555 16.8279 11.3992 16.5947V12.2622C5.29033 12.503 0.379521 17.4044 0.12561 23.5104H4.45901Z" fill="#3D95FD"/>
<path d="M19.3024 0.00012207C19.056 3.71003 16.0759 6.68266 12.3622 6.91588V11.2483C18.4711 11.0076 23.3819 6.10619 23.6358 0.00012207L19.3024 0.00012207Z" fill="#3D95FD"/>
<path d="M19.3024 12.2622C19.056 15.9721 16.0759 18.9447 12.3622 19.178V23.5104C18.4711 23.2697 23.3819 18.3683 23.6358 12.2622H19.3024Z" fill="#3D95FD"/>
</g>
<defs>
<clipPath id="clip0_15_583">
<rect width="24" height="23.5103" fill="white"/>
</clipPath>
</defs>
</svg>
