<svg width="128" height="24" viewBox="0 0 128 24" fill="none" xmlns="http://www.w3.org/2000/svg">
<g>
<path d="M4.47614 11.4826C4.73064 7.69536 7.80895 4.6608 11.6449 4.42272V0C5.33484 0.24576 0.262274 5.24928 0 11.4826H4.47614Z" fill="#F18046"/>
<path d="M11.6187 19.5763C7.78661 19.3247 4.71607 16.2825 4.47516 12.4915H0C0.248674 18.7276 5.31152 23.7407 11.6187 23.9999V19.5763Z" fill="#F18046"/>
<path d="M12.6659 4.42368C16.498 4.6752 19.5685 7.71744 19.8094 11.5085H24.2846C24.0359 5.27232 18.9731 0.2592 12.6659 0V4.42368Z" fill="#F18046"/>
<path d="M24.2846 19.5763C20.4525 19.3247 17.3819 16.2825 17.141 12.4915H12.6659C12.9145 18.7276 17.9774 23.7407 24.2846 23.9999V19.5763Z" fill="#F18046"/>
<path d="M106.765 23.9999V17.2386H106.293C106.077 17.6284 105.762 18.0028 105.348 18.3618C104.934 18.7218 104.408 19.0185 103.769 19.2518C103.128 19.485 102.337 19.6021 101.392 19.6021C100.171 19.6021 99.0486 19.3103 98.0247 18.7266C97.0009 18.143 96.184 17.302 95.5739 16.2018C94.9629 15.1026 94.6589 13.775 94.6589 12.2178V11.7801C94.6589 10.2239 94.9687 8.89623 95.5895 7.79607C96.2092 6.69687 97.031 5.85495 98.0548 5.27127C99.0787 4.68759 100.191 4.39575 101.392 4.39575C102.809 4.39575 103.897 4.64919 104.654 5.15415C105.412 5.66007 105.978 6.23415 106.352 6.87639H106.824V4.39575H109.807V23.998H106.765V23.9999ZM102.247 16.9756C103.586 16.9756 104.679 16.557 105.525 15.7209C106.371 14.8847 106.794 13.6876 106.794 12.1314V11.8684C106.794 10.3314 106.366 9.14487 105.51 8.30775C104.653 7.47159 103.565 7.05303 102.247 7.05303C100.929 7.05303 99.8703 7.47159 99.0136 8.30775C98.1568 9.14487 97.7294 10.3314 97.7294 11.8684V12.1314C97.7294 13.6886 98.1578 14.8847 99.0136 15.7209C99.8703 16.558 100.948 16.9756 102.247 16.9756Z" fill="#160F26"/>
<path d="M119.877 19.6022C118.479 19.6022 117.214 19.3103 116.083 18.7266C114.95 18.143 114.054 17.2962 113.396 16.1874C112.736 15.0786 112.407 13.7462 112.407 12.189V11.8098C112.407 10.2537 112.736 8.92601 113.396 7.82585C114.055 6.72665 114.951 5.88089 116.083 5.28665C117.214 4.69337 118.479 4.39673 119.877 4.39673C121.275 4.39673 122.466 4.65017 123.45 5.15513C124.434 5.66105 125.226 6.33209 125.827 7.16921C126.427 8.00633 126.816 8.92985 126.993 9.94169L124.04 10.5542C123.941 9.91193 123.735 9.32825 123.421 8.80313C123.106 8.27801 122.663 7.85945 122.092 7.54841C121.521 7.23737 120.802 7.08185 119.936 7.08185C119.071 7.08185 118.327 7.27193 117.648 7.65113C116.969 8.03033 116.431 8.57561 116.038 9.28505C115.644 9.99545 115.447 10.8566 115.447 11.8674V12.1305C115.447 13.1423 115.644 14.0082 116.038 14.7282C116.431 15.4482 116.969 15.9935 117.648 16.3622C118.327 16.7318 119.089 16.917 119.936 16.917C121.216 16.917 122.19 16.5916 122.86 15.9398C123.529 15.2879 123.953 14.4566 124.13 13.4447L127.083 14.1158C126.847 15.1084 126.428 16.0233 125.828 16.8594C125.227 17.6966 124.435 18.3628 123.451 18.8582C122.466 19.3545 121.275 19.6022 119.878 19.6022H119.877Z" fill="#160F26"/>
<path d="M31.8755 19.6022V4.39771H34.8576V6.32347H35.3297C35.6056 5.81755 36.0485 5.37018 36.6586 4.98138C37.2686 4.59258 38.0952 4.39771 39.1395 4.39771C40.1837 4.39771 41.0929 4.61659 41.7525 5.05435C42.4121 5.49211 42.9084 6.05178 43.2436 6.73242H43.7157C44.0498 6.07098 44.5374 5.51706 45.1776 5.06874C45.8168 4.62138 46.7279 4.39771 47.9091 4.39771C48.8543 4.39771 49.6906 4.58779 50.4192 4.96699C51.1477 5.34619 51.7286 5.91067 52.1618 6.65947C52.5951 7.40827 52.8117 8.33754 52.8117 9.44634V19.6022H49.7703V9.67962C49.7703 8.8041 49.5294 8.12826 49.0466 7.65114C48.5638 7.17498 47.88 6.93594 46.9941 6.93594C46.0489 6.93594 45.2912 7.23738 44.7201 7.84026C44.1489 8.44314 43.8633 9.30906 43.8633 10.438V19.6022H40.8219V9.67962C40.8219 8.8041 40.581 8.12826 40.0982 7.65114C39.6154 7.17498 38.9316 6.93594 38.0457 6.93594C37.1005 6.93594 36.3429 7.23738 35.7717 7.84026C35.2005 8.44314 34.9149 9.30906 34.9149 10.438V19.6022H31.8735H31.8755Z" fill="#160F26"/>
<path d="M61.4551 19.5695C60.3525 19.5695 59.3685 19.3257 58.5021 18.8399C57.6356 18.3542 56.9566 17.663 56.4641 16.7683C55.9716 15.8735 55.7258 14.8031 55.7258 13.558V4.39771H58.7672V13.3535C58.7672 14.5987 59.082 15.5183 59.7124 16.1116C60.3419 16.7049 61.218 17.0015 62.341 17.0015C63.5814 17.0015 64.58 16.5887 65.3387 15.7612C66.0963 14.9347 66.4752 13.7433 66.4752 12.1862V4.39771H69.5166V19.6022H66.5344V17.1475H66.0623C65.7865 17.7311 65.2949 18.2812 64.5858 18.7967C63.8767 19.3123 62.8335 19.5705 61.456 19.5705L61.4551 19.5695Z" fill="#160F26"/>
<path d="M72.4307 19.6022V0H75.4721V19.6022H72.4307Z" fill="#160F26"/>
<path d="M88.7024 19.6022V4.39771H91.7438V19.6022H88.7024Z" fill="#160F26"/>
<path d="M85.7882 6.86112V4.39776H83.8969L82.2349 6.04032H81.4393V0H78.3863V16.7021C78.3863 17.5805 78.6476 18.2842 79.1721 18.8112C79.6957 19.3382 80.4106 19.6022 81.3208 19.6022H85.7872V17.0832H82.298C81.7249 17.0832 81.4384 16.7904 81.4384 16.2048V6.86208H85.7863L85.7882 6.86112Z" fill="#160F26"/>
</g>
</svg>
