<svg width="98" height="16" viewBox="0 0 98 16" fill="none" xmlns="http://www.w3.org/2000/svg">
<g clip-path="url(#clip0_504_1185)">
<path d="M7.68968 13.0509C5.15345 12.8832 3.12126 10.855 2.96182 8.32767H0C0.164581 12.4851 3.51536 15.8272 7.68968 16V13.0509Z" fill="#FA6863"/>
<path d="M2.96246 7.65504C3.1309 5.13024 5.16824 3.1072 7.70704 2.94848V0C3.53078 0.16384 0.173582 3.49952 0 7.65504H2.96246Z" fill="#FA6863"/>
<path d="M13.1099 8.34497C12.9415 10.8698 10.9042 12.8928 8.36536 13.0515V16C12.5416 15.8362 15.8988 12.5005 16.0724 8.34497H13.1099Z" fill="#FA6863"/>
<path d="M8.38272 2.94912C10.9189 3.1168 12.9511 5.14496 13.1106 7.67232H16.0724C15.9078 3.51488 12.557 0.1728 8.38272 0V2.94912Z" fill="#FA6863"/>
</g>
<path d="M31.7215 13.0598C30.9918 13.0598 30.3405 12.8973 29.7671 12.5734C29.1936 12.2496 28.7442 11.7888 28.4183 11.1923C28.0923 10.5958 27.9297 9.88224 27.9297 9.05216V2.92288H29.9426V8.9152C29.9426 9.74528 30.1509 10.3584 30.5681 10.7539C30.9847 11.1494 31.5646 11.3472 32.3078 11.3472C33.1288 11.3472 33.7897 11.072 34.2918 10.5203C34.7932 9.96928 35.0439 9.07776 35.0439 8.03968V2.92288H37.0569V13.0592H35.0832V11.4445H34.7707C34.5881 11.8336 34.2628 12.2003 33.7935 12.544C33.3242 12.8877 32.6337 13.0598 31.7221 13.0598H31.7215Z" fill="#160F26"/>
<path d="M49.0057 13.0598V2.92288H51.0186V13.0592H49.0057V13.0598Z" fill="#160F26"/>
<path d="M57.9311 13.0598C56.9667 13.0598 56.1104 12.8621 55.3608 12.4666C54.6111 12.071 54.0222 11.5034 53.5921 10.7642C53.1621 10.025 52.9473 9.14944 52.9473 8.1376V7.84576C52.9473 6.83392 53.1621 5.9616 53.5921 5.2288C54.0222 4.496 54.6118 3.92832 55.3608 3.5264C56.1097 3.12448 56.9667 2.92352 57.9311 2.92352C58.8954 2.92352 59.755 3.12448 60.511 3.5264C61.2664 3.92832 61.8598 4.496 62.2892 5.2288C62.7193 5.9616 62.9341 6.83392 62.9341 7.84576V8.1376C62.9341 9.14944 62.7193 10.025 62.2892 10.7642C61.8592 11.5034 61.2664 12.071 60.511 12.4666C59.755 12.8621 58.8954 13.0598 57.9311 13.0598ZM57.9311 11.2698C58.817 11.2698 59.537 10.9875 60.0905 10.4237C60.6441 9.8592 60.9212 9.0784 60.9212 8.07936V7.904C60.9212 6.9056 60.6473 6.12352 60.1002 5.55968C59.5531 4.9952 58.8298 4.7136 57.9311 4.7136C57.0323 4.7136 56.3444 4.99584 55.7909 5.55968C55.2367 6.12416 54.9602 6.9056 54.9602 7.904V8.07936C54.9602 9.0784 55.2367 9.85984 55.7909 10.4237C56.3444 10.9882 57.058 11.2698 57.9311 11.2698Z" fill="#160F26"/>
<path d="M64.8634 13.0598V2.92288H66.8371V4.5184H67.1495C67.3321 4.12928 67.6574 3.7664 68.1267 3.42912C68.5961 3.09184 69.293 2.92352 70.2181 2.92352C70.9478 2.92352 71.5958 3.08608 72.1628 3.40992C72.7299 3.7344 73.1754 4.19136 73.5014 4.78144C73.8267 5.37152 73.99 6.08192 73.99 6.912V13.0598H71.977V7.06752C71.977 6.23744 71.7687 5.62496 71.3515 5.2288C70.9343 4.83328 70.3614 4.63552 69.6318 4.63552C68.7979 4.63552 68.13 4.90816 67.6285 5.4528C67.127 5.99744 66.8763 6.9056 66.8763 7.94304V13.0598H64.8634Z" fill="#160F26"/>
<path d="M43.1097 13.0598H38.9862V11.4451H43.1097C43.7481 11.4451 44.2399 11.3222 44.5852 11.0752C44.9304 10.8288 45.1033 10.5107 45.1033 10.1216C45.1033 9.73248 44.94 9.44704 44.6147 9.26528C44.2888 9.08416 43.8066 8.9344 43.1682 8.81792L42.5035 8.70144C41.8516 8.58496 41.2588 8.416 40.7252 8.19584C40.191 7.97568 39.7673 7.6704 39.4548 7.28128C39.1424 6.89216 38.9855 6.39296 38.9855 5.78304C38.9855 4.87552 39.3243 4.17152 40.002 3.67232C40.6796 3.17312 41.5783 2.92352 42.6989 2.92352H46.9208V4.55808H42.6989C42.1518 4.55808 41.7217 4.65856 41.4092 4.85952C41.0968 5.06048 40.9399 5.34272 40.9399 5.7056C40.9399 6.09472 41.0929 6.38016 41.399 6.56192C41.705 6.74368 42.119 6.88 42.6398 6.97024L43.3238 7.08672C44.0143 7.2032 44.6462 7.36576 45.2197 7.57312C45.7932 7.78048 46.2458 8.07872 46.5781 8.46784C46.9105 8.85696 47.0764 9.376 47.0764 10.0243C47.0764 10.9843 46.7176 11.7299 46.0015 12.2618C45.2846 12.7936 44.3209 13.0592 43.1091 13.0592L43.1097 13.0598Z" fill="#160F26"/>
<path d="M21.6151 0.52736C21.268 0.87872 21.095 1.34784 21.095 1.93344V13.0598H23.1157V4.62656H26.0016V2.92736H24.6065L23.4686 4.06016H23.1157V2.26496C23.1157 1.87456 23.3047 1.67936 23.6846 1.67936H25.9939V0H23.0372C22.4348 0 21.961 0.176 21.6151 0.52736Z" fill="#160F26"/>
<defs>
<clipPath id="clip0_504_1185">
<rect width="16.0724" height="16" fill="white"/>
</clipPath>
</defs>
</svg>
