<svg width="17" height="17" viewBox="0 0 17 17" fill="none" xmlns="http://www.w3.org/2000/svg">
	<path fill-rule="evenodd" clip-rule="evenodd" d="M4 0H13C15.2091 0 17 1.79086 17 4V13C17 15.2091 15.2091 17 13 17H4C1.79086 17 0 15.2091 0 13V4C0 1.79086 1.79086 0 4 0ZM4 2C2.89543 2 2 2.89543 2 4V13C2 14.1046 2.89543 15 4 15H13C14.1046 15 15 14.1046 15 13V4C15 2.89543 14.1046 2 13 2H4Z" fill="#3D95FD" />
	<rect x="5" y="9" width="3" height="3" fill="#104F99" />
	<rect x="5" y="5" width="3" height="3" fill="#2268BB" />
	<rect x="9" y="5" width="3" height="3" fill="#2268BB" />
	<rect x="9" y="9" width="3" height="3" fill="#3D8DEA" />
</svg>
