<svg width="16" height="16" viewBox="0 0 16 16" fill="none" xmlns="http://www.w3.org/2000/svg">
<g>
<path d="M7.65504 13.0508C5.13024 12.8832 3.1072 10.855 2.94848 8.32764H0C0.16384 12.4851 3.49952 15.8272 7.65504 16V13.0508Z" fill="#FA6863"/>
<path d="M2.94912 7.65504C3.1168 5.13024 5.14496 3.1072 7.67232 2.94848V0C3.51488 0.16384 0.1728 3.49952 0 7.65504H2.94912Z" fill="#FA6863"/>
<path d="M13.0508 8.34497C12.8832 10.8698 10.855 12.8928 8.32764 13.0515V16C12.4851 15.8362 15.8272 12.5005 16 8.34497H13.0508Z" fill="#FA6863"/>
<path d="M8.34497 2.94912C10.8698 3.1168 12.8928 5.14496 13.0515 7.67232H16C15.8362 3.51488 12.5005 0.1728 8.34497 0V2.94912Z" fill="#FA6863"/>
</g>
</svg>
