<svg width="16" height="16" viewBox="0 0 16 16" fill="none" xmlns="http://www.w3.org/2000/svg">
<g>
<path d="M2.94912 7.65504C3.1168 5.13024 5.14496 3.1072 7.67232 2.94848V0C3.51488 0.16384 0.1728 3.49952 0 7.65504H2.94912Z" fill="#F18046"/>
<path d="M7.65504 13.0508C5.13024 12.8832 3.1072 10.855 2.94848 8.32764H0C0.16384 12.4851 3.49952 15.8272 7.65504 16V13.0508Z" fill="#F18046"/>
<path d="M8.34497 2.94912C10.8698 3.1168 12.8928 5.14496 13.0515 7.67232H16C15.8362 3.51488 12.5005 0.1728 8.34497 0V2.94912Z" fill="#F18046"/>
<path d="M16 13.0508C13.4752 12.8832 11.4522 10.855 11.2935 8.32764H8.34497C8.50881 12.4851 11.8445 15.8272 16 16V13.0508Z" fill="#F18046"/>
</g>
</svg>
