<svg width="16" height="16" viewBox="0 0 16 16" fill="none" xmlns="http://www.w3.org/2000/svg">
<path d="M0 2.94912C2.5248 3.1168 4.54784 5.14496 4.70656 7.67232H7.65504C7.4912 3.51488 4.15552 0.1728 0 0V2.94912Z" fill="#0DC09D"/>
<path d="M4.7232 8.34497C4.55552 10.8698 2.52736 12.8928 0 13.0515V16C4.15744 15.8362 7.49952 12.5005 7.67232 8.34497H4.7232Z" fill="#0DC09D"/>
<path d="M11.2768 7.65504C11.4444 5.13024 13.4726 3.1072 16 2.94848V0C11.8425 0.16384 8.50044 3.49952 8.32764 7.65504H11.2768Z" fill="#0DC09D"/>
<path d="M16 13.0508C13.4752 12.8832 11.4522 10.855 11.2935 8.32764H8.34497C8.50881 12.4851 11.8445 15.8272 16 16V13.0508Z" fill="#0DC09D"/>
</svg>
