<svg width="23" height="24" viewBox="0 0 23 24" fill="none" xmlns="http://www.w3.org/2000/svg">
<g>
<path d="M19.117 12.4252L19.1485 12.4387L19.1801 12.4521L19.2098 12.4675L19.2395 12.4848L19.2684 12.502L19.2972 12.5212L19.3242 12.5433L19.3504 12.5644L19.3747 12.5884L19.3999 12.6124L19.4234 12.6393L19.445 12.6652L19.4666 12.694L19.4855 12.7228L19.5045 12.7535L19.5207 12.7833L19.536 12.8159L19.5504 12.8476L19.563 12.8802L19.5756 12.9138L19.5846 12.9484L19.5937 12.982L19.6 13.0185L19.6063 13.053L19.6099 13.0895L19.6117 13.1241L19.6126 13.1596L19.6117 13.1961L19.6099 13.2316L19.6063 13.2671L19.6 13.3026L19.5937 13.3372L19.5846 13.3727L19.5756 13.4063L19.563 13.4408L19.5504 13.4735L19.536 13.5052L19.5207 13.5368L19.5045 13.5675L19.4855 13.5983L19.4666 13.6271L19.445 13.6539L19.4234 13.6818L19.3999 13.7067L19.3747 13.7327L19.3504 13.7567L19.3242 13.7778L19.2972 13.7979L19.2684 13.819L19.2395 13.8363L19.2098 13.8536L19.1801 13.868L19.1485 13.8824L19.117 13.8939L19.0855 13.9054L19.053 13.9131L19.0206 13.9218L18.9863 13.9266L18.9539 13.9304L18.9197 13.9342H18.9143L18.9485 13.9333L19.0098 13.9304L19.071 13.9266L19.1323 13.9208L19.1927 13.9122L19.254 13.9026L19.3143 13.892L19.3747 13.8786L19.4342 13.8642L19.4945 13.8478L19.554 13.8296L19.6126 13.8094L19.6703 13.7883L19.7279 13.7653L19.7847 13.7403L19.8415 13.7144L19.8973 13.6866L19.9523 13.6568L20.0063 13.6261L20.0595 13.5935L20.1118 13.5589L20.164 13.5243L20.2145 13.4879L20.265 13.4485L20.3136 13.4082L20.3614 13.3679L20.4082 13.3247L20.4542 13.2805L20.4983 13.2364L20.5425 13.1893L20.5848 13.1423L20.6254 13.0933L20.665 13.0434L20.7038 12.9926L20.7416 12.9398L20.7777 12.887L20.8119 12.8332L20.8461 12.7775L20.8777 12.7219L20.9083 12.6643L20.938 12.6067L20.9651 12.5491L20.9912 12.4896L21.0155 12.4291L21.039 12.3686L21.0606 12.3072L21.0813 12.2448L21.0993 12.1824L21.1165 12.119L21.1318 12.0557L21.1453 11.9923L21.1579 11.927L21.1687 11.8627L21.1777 11.7984L21.184 11.7331L21.1903 11.6679L21.1949 11.6016L21.1967 11.5363L21.1976 11.4711L21.1967 11.4058L21.1949 11.3396L21.1903 11.2743L21.184 11.209L21.1777 11.1447L21.1687 11.0794L21.1579 11.0141L21.1453 10.9508L21.1318 10.8865L21.1201 10.8375H18.9296L18.8863 10.8385H13.7052L19.0792 12.4137L19.117 12.4252Z" fill="#160F26"/>
<path d="M22.5149 12.9964L22.5104 12.9138L22.505 12.8322L22.4978 12.7497L22.4888 12.6681L22.4789 12.5875L22.4663 12.5059L22.4518 12.4252L22.4374 12.3446L22.4203 12.2649L22.4014 12.1853L22.3816 12.1056L22.359 12.0269L22.3356 11.9491L22.3113 11.8704L22.2842 11.7936L22.2563 11.7178L22.2266 11.641L22.1959 11.5661L22.1635 11.4912L22.1302 11.4173L22.0941 11.3453L22.0572 11.2724L22.0184 11.2013L21.9788 11.1303L21.9382 11.0612L21.895 10.9921L21.8517 10.9249L21.8067 10.8586L21.7914 10.8375H21.1201L21.1318 10.8865L21.1453 10.9508L21.1579 11.0141L21.1687 11.0794L21.1777 11.1447L21.184 11.209L21.1903 11.2743L21.1949 11.3396L21.1967 11.4058L21.1976 11.4711L21.1967 11.5363L21.1949 11.6016L21.1903 11.6679L21.184 11.7331L21.1777 11.7984L21.1687 11.8627L21.1579 11.927L21.1453 11.9923L21.1318 12.0557L21.1165 12.119L21.0993 12.1824L21.0813 12.2448L21.0606 12.3072L21.039 12.3686L21.0155 12.4291L20.9912 12.4896L20.9651 12.5491L20.938 12.6067L20.9083 12.6643L20.8777 12.7219L20.8461 12.7775L20.8119 12.8332L20.7777 12.887L20.7416 12.9398L20.7038 12.9926L20.665 13.0434L20.6254 13.0933L20.5848 13.1423L20.5425 13.1893L20.4983 13.2364L20.4542 13.2805L20.4082 13.3247L20.3614 13.3679L20.3136 13.4082L20.265 13.4485L20.2145 13.4879L20.164 13.5243L20.1118 13.5589L20.0595 13.5935L20.0063 13.6261L19.9523 13.6568L19.8973 13.6866L19.8415 13.7144L19.7847 13.7403L19.7279 13.7653L19.6703 13.7883L19.6126 13.8094L19.554 13.8296L19.4945 13.8478L19.4342 13.8642L19.3747 13.8786L19.3143 13.892L19.254 13.9026L19.1927 13.9122L19.1323 13.9208L19.071 13.9266L19.0098 13.9304L18.9485 13.9333L18.8863 13.9342H0V17.0309H18.8863L18.9638 17.03L19.0404 17.0281L19.1179 17.0233L19.1945 17.0166L19.2711 17.0089L19.3477 17.0002L19.4243 16.9878L19.5 16.9753L19.5756 16.9609L19.6513 16.9436L19.727 16.9254L19.8009 16.9062L19.8757 16.8841L19.9505 16.861L20.0235 16.837L20.0965 16.8092L20.1685 16.7814L20.2406 16.7516L20.3118 16.7209L20.3821 16.6883L20.4524 16.6527L20.5218 16.6163L20.5902 16.5788L20.6578 16.5395L20.7245 16.4992L20.7912 16.456L20.8552 16.4128L20.92 16.3676L20.984 16.3206L21.0462 16.2726L21.1075 16.2227L21.1678 16.1718L21.2282 16.119L21.2868 16.0653L21.3435 16.0115L21.3994 15.9549L21.4544 15.8973L21.5084 15.8387L21.5607 15.7782L21.6129 15.7178L21.6634 15.6554L21.7121 15.592L21.7598 15.5277L21.8067 15.4615L21.8517 15.3952L21.895 15.328L21.9382 15.2589L21.9788 15.1898L22.0184 15.1188L22.0572 15.0477L22.0941 14.9758L22.1302 14.9028L22.1635 14.8289L22.1959 14.755L22.2266 14.6791L22.2563 14.6033L22.2842 14.5275L22.3113 14.4497L22.3356 14.372L22.359 14.2942L22.3816 14.2145L22.4014 14.1358L22.4203 14.0561L22.4374 13.9755L22.4518 13.8958L22.4663 13.8152L22.4789 13.7336L22.4888 13.652L22.4978 13.5704L22.505 13.4888L22.5104 13.4063L22.5149 13.3247L22.5176 13.2431L22.5185 13.1605L22.5176 13.078L22.5149 12.9964Z" fill="#FA6863"/>
<path d="M3.40148 11.5719L3.36995 11.5594L3.33841 11.546L3.30867 11.5306L3.27804 11.5133L3.2501 11.4951L3.22127 11.4759L3.19424 11.4548L3.16811 11.4327L3.14288 11.4087L3.11855 11.3847L3.09512 11.3588L3.07349 11.3319L3.05187 11.3031L3.03295 11.2743L3.01402 11.2445L2.9978 11.2148L2.98249 11.1822L2.96717 11.1495L2.95545 11.1178L2.94284 11.0842L2.93383 11.0487L2.92482 11.0151L2.91761 10.9796L2.9122 10.9451L2.9086 10.9086L2.9068 10.874L2.9059 10.8375L2.9068 10.802L2.9086 10.7655L2.9122 10.731L2.91761 10.6955L2.92482 10.66L2.93383 10.6254L2.94284 10.5918L2.95545 10.5572L2.96717 10.5246L2.98249 10.492L2.9978 10.4613L3.01402 10.4296L3.03295 10.3998L3.05187 10.371L3.07349 10.3432L3.09512 10.3163L3.11855 10.2904L3.14288 10.2654L3.16811 10.2414L3.19424 10.2203L3.22127 10.1992L3.2501 10.179L3.27804 10.1608L3.30867 10.1445L3.33841 10.1301L3.36995 10.1157L3.40148 10.1032L3.43302 10.0926L3.46546 10.084L3.4979 10.0763L3.53214 10.0715L3.56458 10.0677L3.59791 10.0638H3.60422H3.56998L3.50871 10.0667L3.44744 10.0715L3.38616 10.0773L3.32579 10.085L3.26452 10.0946L3.20325 10.1061L3.14378 10.1186L3.08341 10.1339L3.02394 10.1502L2.96447 10.1685L2.9059 10.1886L2.84823 10.2098L2.78966 10.2318L2.73379 10.2568L2.67703 10.2837L2.62116 10.3115L2.56619 10.3413L2.51123 10.372L2.45897 10.4037L2.40671 10.4382L2.35444 10.4737L2.30308 10.5102L2.25353 10.5496L2.20397 10.5889L2.15711 10.6302L2.11026 10.6724L2.0643 10.7166L2.02015 10.7617L1.976 10.8078L1.93365 10.8558L1.8931 10.9038L1.85255 10.9537L1.81471 11.0055L1.77596 11.0574L1.74082 11.1102L1.70568 11.1649L1.67234 11.2196L1.6408 11.2762L1.61016 11.3329L1.58043 11.3914L1.5534 11.449L1.52727 11.5085L1.50294 11.569L1.47951 11.6295L1.45788 11.6909L1.43716 11.7533L1.41914 11.8157L1.40202 11.8791L1.3867 11.9415L1.37318 12.0058L1.36057 12.0701L1.34976 12.1354L1.34075 12.1997L1.33444 12.2649L1.32813 12.3293L1.32363 12.3955L1.32182 12.4608L1.32092 12.526L1.32182 12.5923L1.32363 12.6576L1.32813 12.7228L1.33444 12.7881L1.34075 12.8534L1.34976 12.9187L1.36057 12.983L1.37318 13.0473L1.3867 13.1106L1.39841 13.1606H3.5889L3.63215 13.1596H8.81328L3.43933 11.5844L3.40148 11.5719Z" fill="#160F26"/>
<path d="M0.00360426 11.0017L0.00720852 11.0843L0.013516 11.1659L0.0207245 11.2475L0.0297351 11.3291L0.0396469 11.4106L0.0522618 11.4913L0.0657778 11.5729L0.0810959 11.6535L0.0982161 11.7332L0.117138 11.8129L0.136962 11.8925L0.159489 11.9712L0.182916 12.049L0.207245 12.1268L0.234277 12.2045L0.26221 12.2803L0.291945 12.3571L0.322581 12.432L0.35502 12.5069L0.388359 12.5798L0.424402 12.6528L0.461345 12.7257L0.500091 12.7968L0.539738 12.8669L0.580286 12.936L0.622636 13.0051L0.666788 13.0732L0.711841 13.1395L0.72716 13.1606H1.39845L1.38674 13.1107L1.37322 13.0473L1.36061 12.983L1.3498 12.9187L1.34078 12.8534L1.33448 12.7881L1.32817 12.7229L1.32366 12.6576L1.32186 12.5923L1.32096 12.5261L1.32186 12.4608L1.32366 12.3955L1.32817 12.3293L1.33448 12.265L1.34078 12.1997L1.3498 12.1354L1.36061 12.0701L1.37322 12.0058L1.38674 11.9415L1.40206 11.8791L1.41918 11.8157L1.4372 11.7533L1.45792 11.6909L1.47955 11.6295L1.50298 11.569L1.52731 11.5086L1.55344 11.449L1.58047 11.3914L1.6102 11.3329L1.64084 11.2763L1.67238 11.2196L1.70572 11.1649L1.74086 11.1102L1.776 11.0574L1.81475 11.0056L1.85259 10.9537L1.89314 10.9038L1.93369 10.8558L1.97604 10.8078L2.02019 10.7617L2.06434 10.7166L2.11029 10.6725L2.15715 10.6302L2.20401 10.589L2.25356 10.5496L2.30312 10.5102L2.35448 10.4738L2.40674 10.4382L2.45901 10.4037L2.51127 10.372L2.56623 10.3413L2.6212 10.3115L2.67706 10.2837L2.73383 10.2568L2.7897 10.2319L2.84827 10.2098L2.90594 10.1887L2.9645 10.1685L3.02397 10.1503L3.08344 10.1339L3.14382 10.1186L3.20329 10.1061L3.26456 10.0946L3.32583 10.085L3.3862 10.0773L3.44747 10.0716L3.50875 10.0668L3.57002 10.0639L3.63219 10.0629H22.5185V6.96716H3.63219L3.5547 6.96812L3.47811 6.97004L3.40062 6.97484L3.32403 6.9806L3.24654 6.98828L3.17085 6.99788L3.09426 7.0094L3.01857 7.02188L2.94288 7.03724L2.86629 7.05356L2.7915 7.07179L2.71671 7.09195L2.64282 7.11307L2.56804 7.13707L2.49505 7.16107L2.42206 7.18794L2.34998 7.21578L2.27789 7.2465L2.20671 7.27722L2.13643 7.30986L2.06614 7.34537L1.99676 7.38185L1.92828 7.41833L1.8607 7.45864L1.79402 7.49896L1.72734 7.5412L1.66247 7.58535L1.59759 7.63047L1.53451 7.67751L1.47234 7.7255L1.41017 7.77446L1.3507 7.82533L1.29033 7.87813L1.23176 7.93189L1.17499 7.9866L1.11912 8.04324L1.06416 8.09987L1.01009 8.15939L0.956931 8.21986L0.90557 8.28034L0.855111 8.34273L0.806453 8.40609L0.758697 8.4704L0.711841 8.53568L0.666788 8.60287L0.622636 8.67007L0.580286 8.73822L0.539738 8.8083L0.500091 8.87933L0.461345 8.95036L0.424402 9.0214L0.388359 9.09435L0.35502 9.16923L0.322581 9.24314L0.291945 9.31897L0.26221 9.39385L0.234277 9.47064L0.207245 9.54744L0.182916 9.62519L0.159489 9.7039L0.136962 9.78262L0.117138 9.86229L0.0982161 9.94196L0.0810959 10.0226L0.0657778 10.1023L0.0522618 10.1829L0.0396469 10.2645L0.0297351 10.3461L0.0207245 10.4277L0.013516 10.5093L0.00720852 10.5909L0.00360426 10.6725L0 10.755V10.8376V10.9201L0.00360426 11.0017Z" fill="#F18046"/>
<path d="M3.40148 4.60568L3.36995 4.59224L3.33841 4.57784L3.30777 4.56344L3.27894 4.54616L3.2492 4.52889L3.22127 4.50969L3.19424 4.48761L3.16721 4.46649L3.14198 4.44249L3.11765 4.41849L3.09512 4.39162L3.07349 4.3657L3.05187 4.3369L3.03205 4.3081L3.01402 4.27739L2.9969 4.24667L2.98159 4.21499L2.96627 4.18331L2.95455 4.15068L2.94284 4.11612L2.93293 4.08252L2.92482 4.04892L2.91761 4.01245L2.9122 3.97789L2.9077 3.94141L2.9068 3.90589L2.9059 3.86942L2.9068 3.8339L2.9077 3.79934L2.9122 3.76383L2.91761 3.72831L2.92482 3.69375L2.93293 3.65823L2.94284 3.62368L2.95455 3.59008L2.96627 3.55744L2.98159 3.52577L2.9969 3.49313L3.01402 3.46337L3.03205 3.43265L3.05187 3.40386L3.07349 3.37698L3.09512 3.34914L3.11765 3.32226L3.14198 3.29826L3.16721 3.27427L3.19424 3.25315L3.22127 3.23299L3.2492 3.21187L3.27894 3.19459L3.30777 3.17731L3.33841 3.16195L3.36995 3.14852L3.40148 3.137L3.43302 3.12548L3.46546 3.11588L3.4988 3.10916L3.53124 3.1034L3.56458 3.09956L3.59882 3.09668H3.60963H3.56998L3.50871 3.09956L3.44744 3.10436L3.38616 3.11012L3.32579 3.11876L3.26452 3.12836L3.20325 3.13892L3.14378 3.15236L3.08341 3.16675L3.02394 3.18307L2.96447 3.20131L2.9059 3.22147L2.84823 3.24259L2.78966 3.26563L2.73379 3.28962L2.67703 3.3165L2.62116 3.34434L2.56619 3.3741L2.51123 3.40482L2.45897 3.43649L2.40581 3.47105L2.35444 3.50657L2.30308 3.54304L2.25353 3.5824L2.20397 3.62176L2.15621 3.66303L2.11026 3.70623L2.0643 3.74943L2.01925 3.79454L1.976 3.84062L1.93365 3.88862L1.8931 3.93757L1.85255 3.98749L1.81471 4.03836L1.77596 4.09116L1.74082 4.14396L1.70568 4.19771L1.67234 4.25243L1.6408 4.30906L1.61016 4.3657L1.58043 4.42425L1.5534 4.48185L1.52727 4.54136L1.50294 4.60184L1.47951 4.66231L1.45788 4.72375L1.43716 4.78614L1.41914 4.84854L1.40202 4.91189L1.3867 4.97525L1.37228 5.0386L1.36057 5.10292L1.34976 5.16819L1.34075 5.23251L1.33354 5.29778L1.32813 5.3621L1.32363 5.42833L1.32182 5.49457L1.32092 5.55984L1.32182 5.62512L1.32363 5.69135L1.32813 5.75663L1.33354 5.8219L1.34075 5.88622L1.34976 5.95149L1.36057 6.01677L1.37228 6.08012L1.3867 6.14444L1.40202 6.20779L1.41914 6.27019L1.43716 6.33354L1.45788 6.39498L1.47951 6.45641L1.50294 6.51689L1.52727 6.57736L1.5534 6.63688L1.58043 6.69543L1.59845 6.72903L1.60025 6.72807L1.67594 6.68679L1.75163 6.64744L1.82822 6.60904L1.90571 6.57352L1.98321 6.53704L2.0625 6.50441L2.14089 6.47369L2.22109 6.44201L2.30128 6.41513L2.38238 6.38826L2.46347 6.3633L2.54457 6.3393L2.62657 6.31722L2.70946 6.29802L2.79236 6.28075L2.87436 6.26347L2.95816 6.24907L3.04196 6.23563L3.12576 6.22411L3.21046 6.21451L3.29426 6.20683L3.37896 6.20011L3.46185 6.19627L3.54836 6.19435L3.63215 6.19243H8.81328L3.43843 4.6172L3.40148 4.60568Z" fill="#160F26"/>
<path d="M18.8863 20.9033H18.9485L19.0098 20.8995L19.071 20.8956L19.1323 20.8899L19.1936 20.8812L19.2549 20.8716L19.3152 20.8611L19.3756 20.8476L19.4351 20.8332L19.4954 20.8169L19.554 20.7987L19.6126 20.7785L19.6712 20.7574L19.7288 20.7344L19.7847 20.7094L19.8415 20.6835L19.8973 20.6557L19.9523 20.6259L20.0072 20.5952L20.0604 20.5625L20.1127 20.528L20.164 20.4925L20.2154 20.456L20.2659 20.4176L20.3145 20.3773L20.3623 20.337L20.4091 20.2938L20.4542 20.2496L20.4992 20.2054L20.5425 20.1584L20.5848 20.1114L20.6263 20.0624L20.6659 20.0125L20.7047 19.9616L20.7425 19.9088L20.7777 19.856L20.8128 19.8023L20.8461 19.7466L20.8777 19.6909L20.9083 19.6333L20.938 19.5757L20.966 19.5172L20.9921 19.4586L21.0155 19.3982L21.0399 19.3367L21.0606 19.2762L21.0813 19.2138L21.1002 19.1515L21.1165 19.0881L21.1327 19.0247L21.1462 18.9614L21.1579 18.8961L21.1687 18.8318L21.1777 18.7675L21.1849 18.7012L21.1912 18.6369L21.1949 18.5707L21.1976 18.5054V18.4402V18.3749L21.1949 18.3086L21.1912 18.2434L21.1849 18.1781L21.1777 18.1138L21.1687 18.0485L21.1579 17.9832L21.1462 17.9199L21.1327 17.8556L21.1165 17.7922L21.1002 17.7298L21.0813 17.6665L21.0606 17.6041L21.0399 17.5436L21.0155 17.4831L20.9921 17.4226L20.966 17.3631L20.938 17.3046L20.92 17.269L20.9182 17.27L20.8425 17.3113L20.7668 17.3506L20.6903 17.389L20.6128 17.4255L20.5344 17.4601L20.456 17.4937L20.3776 17.5244L20.2974 17.5551L20.2163 17.5839L20.1361 17.6098L20.0559 17.6348L19.973 17.6588L19.8919 17.6799L19.809 17.7L19.7261 17.7183L19.6432 17.7346L19.5603 17.749L19.4765 17.7624L19.3927 17.774L19.3089 17.7836L19.2242 17.7912L19.1395 17.797L19.0548 17.8018L18.971 17.8047L18.8863 17.8056H13.7052L19.0792 19.3809L19.117 19.3934L19.1485 19.4058L19.1801 19.4193L19.2098 19.4346L19.2395 19.4519L19.2684 19.4701L19.2972 19.4893L19.3242 19.5105L19.3504 19.5325L19.3747 19.5565L19.3999 19.5805L19.4234 19.6065L19.445 19.6333L19.4666 19.6621L19.4855 19.6909L19.5045 19.7207L19.5207 19.7504L19.536 19.7831L19.5504 19.8157L19.563 19.8474L19.5756 19.881L19.5846 19.9165L19.5937 19.9501L19.6 19.9856L19.6063 20.0202L19.6099 20.0567L19.6117 20.0912L19.6126 20.1277L19.6117 20.1632L19.6099 20.1997L19.6063 20.2342L19.6 20.2698L19.5937 20.3053L19.5846 20.3398L19.5756 20.3734L19.563 20.408L19.5504 20.4406L19.536 20.4733L19.5207 20.504L19.5045 20.5357L19.4855 20.5654L19.4666 20.5942L19.445 20.6221L19.4234 20.6489L19.3999 20.6749L19.3747 20.6998L19.3504 20.7238L19.3242 20.7449L19.2972 20.766L19.2684 20.7862L19.2395 20.8044L19.2098 20.8208L19.1801 20.8352L19.1485 20.8496L19.117 20.862L19.0855 20.8726L19.053 20.8812L19.0206 20.8889L18.9863 20.8937L18.9539 20.8976L18.9197 20.9014L18.8863 20.9024" fill="#160F26"/>
<path d="M22.5149 19.9645L22.5113 19.8829L22.5059 19.8013L22.4978 19.7188L22.4897 19.6372L22.4789 19.5565L22.4663 19.475L22.4527 19.3943L22.4374 19.3137L22.4203 19.2331L22.4014 19.1543L22.3816 19.0747L22.3599 18.995L22.3365 18.9182L22.3113 18.8395L22.2842 18.7627L22.2572 18.6869L22.2275 18.6101L22.1959 18.5352L22.1644 18.4603L22.1302 18.3864L22.0941 18.3144L22.0581 18.2415L22.0193 18.1704L21.9788 18.0994L21.9382 18.0303L21.8959 17.9612L21.8517 17.894L21.8067 17.8277L21.7598 17.7615L21.713 17.6981L21.6634 17.6338L21.6129 17.5724L21.5616 17.511L21.5084 17.4514L21.4553 17.3919L21.3994 17.3353L21.3435 17.2786L21.2868 17.2239L21.2282 17.1702L21.1687 17.1174L21.1651 17.1145L21.0804 17.1692L21.0056 17.2143L20.9281 17.2595L20.9182 17.2652L20.938 17.3046L20.966 17.3631L20.9921 17.4226L21.0155 17.4831L21.0399 17.5436L21.0606 17.6041L21.0813 17.6665L21.1002 17.7298L21.1165 17.7922L21.1327 17.8556L21.1462 17.9199L21.1579 17.9832L21.1687 18.0485L21.1777 18.1138L21.1849 18.1781L21.1912 18.2434L21.1949 18.3086L21.1976 18.3749V18.4402V18.5054L21.1949 18.5707L21.1912 18.6369L21.1849 18.7013L21.1777 18.7675L21.1687 18.8318L21.1579 18.8961L21.1462 18.9614L21.1327 19.0248L21.1165 19.0881L21.1002 19.1515L21.0813 19.2139L21.0606 19.2762L21.0399 19.3367L21.0155 19.3982L20.9921 19.4586L20.966 19.5172L20.938 19.5757L20.9083 19.6333L20.8777 19.6909L20.8461 19.7466L20.8128 19.8023L20.7777 19.856L20.7425 19.9088L20.7047 19.9616L20.6659 20.0125L20.6263 20.0624L20.5848 20.1114L20.5425 20.1584L20.4992 20.2055L20.4542 20.2496L20.4091 20.2938L20.3623 20.337L20.3145 20.3773L20.2659 20.4176L20.2154 20.456L20.164 20.4925L20.1127 20.528L20.0604 20.5625L20.0072 20.5952L19.9523 20.6259L19.8973 20.6557L19.8415 20.6835L19.7847 20.7094L19.7288 20.7344L19.6712 20.7574L19.6126 20.7785L19.554 20.7987L19.4954 20.8169L19.4351 20.8332L19.3756 20.8476L19.3152 20.8611L19.2549 20.8716L19.1936 20.8812L19.1323 20.8899L19.071 20.8956L19.0098 20.8995L18.9485 20.9033H18.8863H0V24H18.8863L18.9638 23.9991L19.0404 23.9972L19.1179 23.9924L19.1945 23.9856L19.272 23.9789L19.3486 23.9693L19.4252 23.9568L19.5009 23.9444L19.5765 23.93L19.6522 23.9127L19.727 23.8944L19.8018 23.8752L19.8757 23.8541L19.9505 23.8301L20.0235 23.8061L20.0965 23.7783L20.1694 23.7505L20.2415 23.7207L20.3127 23.69L20.383 23.6573L20.4533 23.6218L20.5218 23.5853L20.5911 23.5479L20.6578 23.5086L20.7254 23.4682L20.7912 23.426L20.8561 23.3809L20.9209 23.3367L20.984 23.2897L21.0462 23.2407L21.1084 23.1918L21.1687 23.1409L21.2282 23.0881L21.2868 23.0343L21.3435 22.9806L21.3994 22.924L21.4553 22.8664L21.5084 22.8078L21.5616 22.7473L21.6129 22.6869L21.6634 22.6245L21.713 22.5611L21.7598 22.4968L21.8067 22.4315L21.8517 22.3643L21.8959 22.2971L21.9382 22.228L21.9788 22.1589L22.0193 22.0879L22.0581 22.0168L22.0941 21.9448L22.1302 21.8719L22.1644 21.798L22.1959 21.7241L22.2275 21.6482L22.2572 21.5724L22.2842 21.4966L22.3113 21.4188L22.3365 21.341L22.3599 21.2623L22.3816 21.1836L22.4014 21.1049L22.4203 21.0243L22.4374 20.9446L22.4527 20.8649L22.4663 20.7833L22.4789 20.7027L22.4897 20.6211L22.4978 20.5395L22.5059 20.4579L22.5113 20.3754L22.5149 20.2938L22.5185 20.2122V20.1296V20.0471L22.5149 19.9645Z" fill="#3D95FD"/>
<path d="M0.00360426 4.03456L0.00720852 4.11711L0.0126149 4.1987L0.0207245 4.28126L0.0297351 4.36285L0.0396469 4.44348L0.0522618 4.52508L0.0657778 4.60571L0.0810959 4.68635L0.0982161 4.76602L0.117138 4.84569L0.136962 4.92441L0.158587 5.00408L0.182916 5.08183L0.207245 5.15959L0.234277 5.23734L0.261309 5.31317L0.291044 5.38997L0.322581 5.46484L0.35502 5.53972L0.388359 5.61267L0.424402 5.68563L0.461345 5.75858L0.49919 5.82961L0.539738 5.90065L0.580286 5.9688L0.622636 6.03792L0.666788 6.10607L0.711841 6.17231L0.758697 6.23854L0.806453 6.3019L0.855111 6.36621L0.90557 6.42765L0.956931 6.48908L1.01009 6.5486L1.06416 6.60715L1.11912 6.66475L1.17499 6.72138L1.23176 6.7761L1.29033 6.82985L1.3507 6.88169L1.3534 6.88457L1.4381 6.83081L1.51289 6.7857L1.59038 6.73962L1.60119 6.73482L1.58047 6.69546L1.55344 6.63691L1.52731 6.57739L1.50298 6.51692L1.47955 6.45644L1.45792 6.39501L1.4372 6.33357L1.41918 6.27022L1.40206 6.20782L1.38674 6.14447L1.37232 6.08015L1.36061 6.0168L1.3498 5.95152L1.34078 5.88625L1.33358 5.82193L1.32817 5.75666L1.32366 5.69138L1.32186 5.62515L1.32096 5.55988L1.32186 5.4946L1.32366 5.42837L1.32817 5.36213L1.33358 5.29782L1.34078 5.23254L1.3498 5.16823L1.36061 5.10295L1.37232 5.03864L1.38674 4.97528L1.40206 4.91193L1.41918 4.84857L1.4372 4.78618L1.45792 4.72378L1.47955 4.66235L1.50298 4.60187L1.52731 4.5414L1.55344 4.48188L1.58047 4.42429L1.6102 4.36573L1.64084 4.3091L1.67238 4.25246L1.70572 4.19774L1.74086 4.14399L1.776 4.09119L1.81475 4.0384L1.85259 3.98752L1.89314 3.9376L1.93369 3.88865L1.97604 3.84065L2.01929 3.79458L2.06434 3.74946L2.11029 3.70626L2.15625 3.66307L2.20401 3.62179L2.25356 3.58243L2.30312 3.54308L2.35448 3.5066L2.40584 3.47108L2.45901 3.43652L2.51127 3.40485L2.56623 3.37413L2.6212 3.34437L2.67706 3.31653L2.73383 3.28966L2.7897 3.26566L2.84827 3.24262L2.90594 3.2215L2.9645 3.20134L3.02397 3.18311L3.08344 3.16679L3.14382 3.15239L3.20329 3.13895L3.26456 3.12839L3.32583 3.11879L3.3862 3.11015L3.44747 3.10439L3.50875 3.09959L3.57002 3.09671H3.63219H22.5185V0H3.63219H3.5547L3.47811 0.00287977L3.40062 0.00767939L3.32403 0.0143988L3.24654 0.0211183L3.16995 0.0307175L3.09426 0.0431965L3.01767 0.0547156L2.94198 0.0700744L2.86629 0.0863931L2.7915 0.105592L2.71671 0.12479L2.64282 0.145908L2.56804 0.169906L2.49505 0.193904L2.42206 0.220782L2.34998 0.24862L2.27699 0.279338L2.20671 0.310055L2.13643 0.342693L2.06614 0.37821L1.99676 0.413727L1.92828 0.452124L1.8607 0.491481L1.79402 0.531797L1.72734 0.574034L1.66247 0.618191L1.59759 0.663307L1.53451 0.710343L1.47234 0.758339L1.41017 0.808255L1.3507 0.859131L1.29033 0.911927L1.23176 0.964723L1.17499 1.01944L1.11912 1.07607L1.06416 1.13367L1.01009 1.19222L0.956931 1.25174L0.90557 1.31317L0.855111 1.37557L0.806453 1.43892L0.758697 1.50324L0.711841 1.56851L0.666788 1.63571L0.622636 1.7029L0.580286 1.77106L0.539738 1.84113L0.49919 1.91121L0.461345 1.9832L0.424402 2.0552L0.388359 2.12719L0.35502 2.20206L0.322581 2.27598L0.291044 2.35181L0.261309 2.42765L0.234277 2.50348L0.207245 2.58027L0.182916 2.65899L0.158587 2.73674L0.136962 2.81545L0.117138 2.89513L0.0982161 2.9748L0.0810959 3.05544L0.0657778 3.13511L0.0522618 3.21574L0.0396469 3.29734L0.0297351 3.37893L0.0207245 3.46052L0.0126149 3.54212L0.00720852 3.62467L0.00360426 3.70626L0 3.78786V3.87041V3.95296L0.00360426 4.03456Z" fill="#0DC09D"/>
</g>
</svg>
