<svg width="16" height="16" viewBox="0 0 16 16" fill="none" xmlns="http://www.w3.org/2000/svg">
<g>
<path d="M2.97267 7.65499C3.13693 5.13021 5.1237 3.10718 7.59948 2.94846V0C3.52689 0.163839 0.253014 3.4995 0.0837402 7.65499H2.97267Z" fill="#3D95FD"/>
<path d="M2.97267 16.0001C3.13693 13.4753 5.1237 11.4523 7.59948 11.2936V8.34509C3.52689 8.50893 0.253014 11.8446 0.0837402 16.0001H2.97267Z" fill="#3D95FD"/>
<path d="M12.8683 0.00012207C12.704 2.52491 10.7172 4.54794 8.24146 4.70665V7.65512C12.314 7.49128 15.5879 4.15562 15.7572 0.00012207L12.8683 0.00012207Z" fill="#3D95FD"/>
<path d="M12.8683 8.34509C12.704 10.8699 10.7172 12.8929 8.24146 13.0516V16.0001C12.314 15.8362 15.5879 12.5006 15.7572 8.34509H12.8683Z" fill="#3D95FD"/>
</g>
</svg>
