<svg width="96" height="15" viewBox="0 0 96 15" fill="none" xmlns="http://www.w3.org/2000/svg">
<g clip-path="url(#clip0_504_1091)">
<path d="M2.94912 7.65504C3.1168 5.13024 5.14496 3.1072 7.67232 2.94848V0C3.51488 0.16384 0.1728 3.49952 0 7.65504H2.94912Z" fill="#F18046"/>
<path d="M7.65504 13.0509C5.13024 12.8832 3.1072 10.855 2.94848 8.32767H0C0.16384 12.4851 3.49952 15.8272 7.65504 16V13.0509Z" fill="#F18046"/>
<path d="M8.34496 2.94912C10.8698 3.1168 12.8928 5.14496 13.0515 7.67232H16C15.8362 3.51488 12.5005 0.1728 8.34496 0V2.94912Z" fill="#F18046"/>
<path d="M16 13.0509C13.4752 12.8832 11.4522 10.855 11.2934 8.32767H8.34496C8.5088 12.4851 11.8445 15.8272 16 16V13.0509Z" fill="#F18046"/>
<path d="M70.3427 16V11.4925H70.0317C69.889 11.7523 69.6816 12.0019 69.409 12.2413C69.1363 12.4813 68.7894 12.6791 68.3683 12.8346C67.9466 12.9901 67.425 13.0682 66.8022 13.0682C65.9978 13.0682 65.2586 12.8736 64.584 12.4845C63.9094 12.0954 63.3712 11.5347 62.9693 10.8013C62.5667 10.0685 62.3664 9.18337 62.3664 8.14529V7.85345C62.3664 6.81601 62.5706 5.93089 62.9795 5.19745C63.3878 4.46465 63.9293 3.90337 64.6038 3.51425C65.2784 3.12513 66.0112 2.93057 66.8022 2.93057C67.736 2.93057 68.4528 3.09953 68.952 3.43617C69.4512 3.77345 69.8243 4.15617 70.0707 4.58433H70.3818V2.93057H72.3466V15.9987H70.3427V16ZM67.3661 11.3171C68.248 11.3171 68.968 11.0381 69.5254 10.4807C70.0829 9.92321 70.3619 9.12513 70.3619 8.08769V7.91233C70.3619 6.88769 70.0797 6.09665 69.5158 5.53857C68.9514 4.98113 68.2346 4.70209 67.3661 4.70209C66.4976 4.70209 65.8 4.98113 65.2355 5.53857C64.671 6.09665 64.3894 6.88769 64.3894 7.91233V8.08769C64.3894 9.12577 64.6717 9.92321 65.2355 10.4807C65.8 11.0387 66.5098 11.3171 67.3661 11.3171Z" fill="#160F26"/>
<path d="M78.9814 13.0682C78.0605 13.0682 77.2272 12.8736 76.4816 12.4845C75.7354 12.0954 75.1453 11.5309 74.7114 10.7917C74.2768 10.0525 74.0598 9.16417 74.0598 8.12609V7.87329C74.0598 6.83585 74.2768 5.95073 74.7114 5.21729C75.1459 4.48449 75.736 3.92065 76.4816 3.52449C77.2272 3.12897 78.0605 2.93121 78.9814 2.93121C79.9024 2.93121 80.687 3.10017 81.3354 3.43681C81.9837 3.77409 82.5059 4.22145 82.9014 4.77953C83.297 5.33761 83.553 5.95329 83.6701 6.62785L81.7245 7.03617C81.6592 6.60801 81.5235 6.21889 81.3162 5.86881C81.1088 5.51873 80.817 5.23969 80.4406 5.03233C80.0643 4.82497 79.5907 4.72129 79.0205 4.72129C78.4502 4.72129 77.96 4.84801 77.5126 5.10081C77.0653 5.35361 76.7114 5.71713 76.4522 6.19009C76.1923 6.66369 76.063 7.23777 76.063 7.91169V8.08705C76.063 8.76161 76.1923 9.33889 76.4522 9.81889C76.7114 10.2989 77.0653 10.6624 77.5126 10.9082C77.96 11.1546 78.4624 11.2781 79.0205 11.2781C79.8634 11.2781 80.5053 11.0611 80.9469 10.6266C81.3878 10.192 81.6669 9.63777 81.7834 8.96321L83.729 9.41057C83.5734 10.0723 83.2976 10.6823 82.9021 11.2397C82.5066 11.7978 81.9843 12.2419 81.336 12.5722C80.687 12.9031 79.9024 13.0682 78.9821 13.0682H78.9814Z" fill="#160F26"/>
<path d="M21.0013 13.0682V2.93185H22.9661V4.21569H23.2771C23.4589 3.87841 23.7507 3.58017 24.1526 3.32097C24.5546 3.06177 25.0992 2.93185 25.7872 2.93185C26.4752 2.93185 27.0742 3.07777 27.5088 3.36961C27.9434 3.66145 28.2704 4.03457 28.4912 4.48833H28.8022C29.0224 4.04737 29.3437 3.67809 29.7654 3.37921C30.1866 3.08097 30.7869 2.93185 31.5651 2.93185C32.1878 2.93185 32.7389 3.05857 33.2189 3.31137C33.6989 3.56417 34.0816 3.94049 34.367 4.43969C34.6525 4.93889 34.7952 5.55841 34.7952 6.29761V13.0682H32.7914V6.45313C32.7914 5.86945 32.6326 5.41889 32.3146 5.10081C31.9965 4.78337 31.5459 4.62401 30.9622 4.62401C30.3395 4.62401 29.8403 4.82497 29.464 5.22689C29.0877 5.62881 28.8995 6.20609 28.8995 6.95873V13.0682H26.8957V6.45313C26.8957 5.86945 26.737 5.41889 26.4189 5.10081C26.1008 4.78337 25.6502 4.62401 25.0666 4.62401C24.4438 4.62401 23.9446 4.82497 23.5683 5.22689C23.192 5.62881 23.0038 6.20609 23.0038 6.95873V13.0682H21H21.0013Z" fill="#160F26"/>
<path d="M40.4899 13.0464C39.7635 13.0464 39.1152 12.8839 38.5443 12.56C37.9734 12.2362 37.5261 11.7754 37.2016 11.1789C36.8771 10.5824 36.7152 9.86881 36.7152 9.03873V2.93185H38.719V8.90241C38.719 9.73249 38.9264 10.3456 39.3418 10.7411C39.7565 11.1367 40.3338 11.3344 41.0736 11.3344C41.8909 11.3344 42.5488 11.0592 43.0486 10.5075C43.5478 9.95649 43.7974 9.16225 43.7974 8.12417V2.93185H45.8013V13.0682H43.8365V11.4317H43.5254C43.3437 11.8208 43.0198 12.1875 42.5526 12.5312C42.0854 12.8749 41.3981 13.0471 40.4906 13.0471L40.4899 13.0464Z" fill="#160F26"/>
<path d="M47.7213 13.0682V0H49.7251V13.0682H47.7213Z" fill="#160F26"/>
<path d="M58.4419 13.0682V2.93185H60.4458V13.0682H58.4419Z" fill="#160F26"/>
<path d="M56.5219 4.57408V2.93184H55.2758L54.1808 4.02688H53.6566V0H51.6451V11.1347C51.6451 11.7203 51.8173 12.1894 52.1629 12.5408C52.5078 12.8922 52.9789 13.0682 53.5786 13.0682H56.5213V11.3888H54.2224C53.8448 11.3888 53.656 11.1936 53.656 10.8032V4.57472H56.5206L56.5219 4.57408Z" fill="#160F26"/>
</g>
<defs>
<clipPath id="clip0_504_1091">
<rect width="96" height="15" fill="white"/>
</clipPath>
</defs>
</svg>
