<svg width="201" height="17" viewBox="0 0 201 17" fill="none" xmlns="http://www.w3.org/2000/svg">
<g clip-path="url(#clip0_618_3741)">
<path d="M13.583 8.28357L13.6054 8.29253L13.6278 8.30149L13.649 8.31173L13.6701 8.32325L13.6906 8.33477L13.7111 8.34757L13.7303 8.36229L13.7488 8.37637L13.7661 8.39236L13.784 8.40836L13.8007 8.42628L13.8161 8.44356L13.8314 8.46276L13.8449 8.48196L13.8583 8.50244L13.8698 8.52227L13.8807 8.54403L13.891 8.56515L13.8999 8.58691L13.9089 8.60931L13.9153 8.63235L13.9217 8.65474L13.9262 8.67906L13.9307 8.7021L13.9332 8.72642L13.9345 8.74946L13.9351 8.77313L13.9345 8.79745L13.9332 8.82113L13.9307 8.84481L13.9262 8.86849L13.9217 8.89152L13.9153 8.9152L13.9089 8.9376L13.8999 8.96064L13.891 8.9824L13.8807 9.00352L13.8698 9.02463L13.8583 9.04511L13.8449 9.06559L13.8314 9.08479L13.8161 9.10271L13.8007 9.12127L13.784 9.1379L13.7661 9.15518L13.7488 9.17118L13.7303 9.18526L13.7111 9.1987L13.6906 9.21278L13.6701 9.2243L13.649 9.23582L13.6278 9.24542L13.6054 9.25502L13.583 9.2627L13.5606 9.27037L13.5376 9.27549L13.5145 9.28125L13.4902 9.28445L13.4671 9.28701L13.4428 9.28957H13.439L13.4633 9.28893L13.5068 9.28701L13.5504 9.28445L13.5939 9.28061L13.6368 9.27485L13.6803 9.26845L13.7232 9.26142L13.7661 9.25246L13.8084 9.24286L13.8513 9.23198L13.8935 9.21982L13.9351 9.20638L13.9761 9.1923L14.0171 9.17694L14.0574 9.1603L14.0978 9.14302L14.1375 9.12447L14.1765 9.10463L14.2149 9.08415L14.2527 9.06239L14.2898 9.03935L14.327 9.01631L14.3628 8.992L14.3987 8.96576L14.4332 8.93888L14.4672 8.912L14.5005 8.88321L14.5331 8.85377L14.5645 8.82433L14.5959 8.79297L14.626 8.76162L14.6548 8.72898L14.6829 8.6957L14.7105 8.66178L14.7374 8.62659L14.763 8.59139L14.7873 8.55555L14.8116 8.51843L14.834 8.48132L14.8558 8.44292L14.8769 8.40452L14.8961 8.36613L14.9147 8.32645L14.932 8.28613L14.9486 8.24582L14.964 8.20486L14.9787 8.16326L14.9915 8.12167L15.0037 8.07943L15.0146 8.03719L15.0242 7.99496L15.0331 7.95144L15.0408 7.90856L15.0472 7.86569L15.0517 7.82217L15.0562 7.77865L15.0594 7.7345L15.0607 7.69098L15.0613 7.64746L15.0607 7.60395L15.0594 7.55979L15.0562 7.51627L15.0517 7.47276L15.0472 7.42988L15.0408 7.38636L15.0331 7.34285L15.0242 7.30061L15.0146 7.25774L15.0062 7.2251H13.4498L13.4191 7.22574H9.73779L13.5561 8.27589L13.583 8.28357Z" fill="#160F26"/>
<path d="M15.9974 8.66434L15.9942 8.60931L15.9904 8.55491L15.9853 8.49988L15.9789 8.44548L15.9718 8.39172L15.9629 8.33733L15.9526 8.28357L15.9424 8.22982L15.9302 8.1767L15.9168 8.12359L15.9027 8.07047L15.8867 8.01799L15.87 7.96616L15.8527 7.91368L15.8335 7.86249L15.8137 7.81193L15.7926 7.76073L15.7708 7.71082L15.7477 7.6609L15.7241 7.61163L15.6985 7.56363L15.6722 7.51499L15.6447 7.46764L15.6165 7.42028L15.5877 7.37421L15.557 7.32813L15.5262 7.28333L15.4942 7.23918L15.4833 7.2251H15.0064L15.0147 7.25774L15.0243 7.30061L15.0333 7.34285L15.0409 7.38636L15.0473 7.42988L15.0518 7.47276L15.0563 7.51627L15.0595 7.55979L15.0608 7.60395L15.0614 7.64746L15.0608 7.69098L15.0595 7.7345L15.0563 7.77865L15.0518 7.82217L15.0473 7.86569L15.0409 7.90856L15.0333 7.95144L15.0243 7.99496L15.0147 8.03719L15.0038 8.07943L14.9916 8.12167L14.9788 8.16326L14.9641 8.20486L14.9487 8.24582L14.9321 8.28613L14.9148 8.32645L14.8962 8.36613L14.877 8.40452L14.8559 8.44292L14.8341 8.48132L14.8117 8.51843L14.7874 8.55555L14.7631 8.59139L14.7375 8.62659L14.7106 8.66178L14.683 8.6957L14.6549 8.72898L14.6261 8.76161L14.596 8.79297L14.5646 8.82433L14.5332 8.85377L14.5006 8.8832L14.4673 8.912L14.4334 8.93888L14.3988 8.96576L14.3629 8.992L14.3271 9.01631L14.2899 9.03935L14.2528 9.06239L14.215 9.08415L14.1766 9.10463L14.1376 9.12447L14.0979 9.14302L14.0575 9.1603L14.0172 9.17694L13.9762 9.1923L13.9353 9.20638L13.8936 9.21982L13.8514 9.23198L13.8085 9.24286L13.7662 9.25246L13.7233 9.26141L13.6804 9.26845L13.6369 9.27485L13.594 9.28061L13.5505 9.28445L13.5069 9.28701L13.4634 9.28893L13.4192 9.28957H0V11.354H13.4192L13.4743 11.3534L13.5287 11.3521L13.5838 11.3489L13.6382 11.3444L13.6926 11.3393L13.747 11.3336L13.8014 11.3252L13.8552 11.3169L13.909 11.3073L13.9628 11.2958L14.0166 11.2837L14.0691 11.2709L14.1222 11.2561L14.1753 11.2408L14.2272 11.2248L14.2791 11.2062L14.3303 11.1877L14.3815 11.1678L14.4321 11.1473L14.482 11.1256L14.532 11.1019L14.5812 11.0776L14.6299 11.0526L14.6779 11.0264L14.7253 10.9995L14.7727 10.9707L14.8181 10.9419L14.8642 10.9118L14.9097 10.8805L14.9539 10.8485L14.9974 10.8152L15.0403 10.7813L15.0832 10.7461L15.1248 10.7103L15.1651 10.6744L15.2048 10.6367L15.2439 10.5983L15.2823 10.5592L15.3194 10.5189L15.3566 10.4786L15.3924 10.437L15.427 10.3948L15.4609 10.3519L15.4942 10.3077L15.5262 10.2636L15.557 10.2188L15.5877 10.1727L15.6165 10.1266L15.6447 10.0793L15.6722 10.0319L15.6985 9.98392L15.7241 9.93528L15.7477 9.886L15.7708 9.83673L15.7926 9.78617L15.8137 9.73562L15.8335 9.68506L15.8527 9.63322L15.87 9.58139L15.8867 9.52955L15.9027 9.47644L15.9168 9.42396L15.9302 9.37085L15.9424 9.31709L15.9526 9.26397L15.9629 9.21022L15.9718 9.15582L15.9789 9.10143L15.9853 9.04703L15.9904 8.99264L15.9942 8.9376L15.9974 8.8832L15.9994 8.82881L16 8.77377L15.9994 8.71874L15.9974 8.66434Z" fill="#FA6863"/>
<path d="M2.41677 7.71459L2.39436 7.70627L2.37195 7.69731L2.35083 7.68707L2.32906 7.67555L2.30921 7.66339L2.28872 7.65059L2.26952 7.63651L2.25095 7.6218L2.23302 7.6058L2.21574 7.5898L2.19909 7.57252L2.18372 7.5546L2.16836 7.5354L2.15491 7.5162L2.14147 7.49637L2.12995 7.47653L2.11906 7.45477L2.10818 7.43301L2.09985 7.41189L2.09089 7.38949L2.08449 7.36582L2.07809 7.34342L2.07297 7.31974L2.06912 7.2967L2.06656 7.27238L2.06528 7.24935L2.06464 7.22503L2.06528 7.20135L2.06656 7.17703L2.06912 7.15399L2.07297 7.13031L2.07809 7.10664L2.08449 7.0836L2.09089 7.0612L2.09985 7.03816L2.10818 7.0164L2.11906 6.99465L2.12995 6.97417L2.14147 6.95305L2.15491 6.93321L2.16836 6.91401L2.18372 6.89545L2.19909 6.87754L2.21574 6.86026L2.23302 6.84362L2.25095 6.82762L2.26952 6.81354L2.28872 6.79946L2.30921 6.78602L2.32906 6.77386L2.35083 6.76298L2.37195 6.75339L2.39436 6.74379L2.41677 6.73547L2.43918 6.72843L2.46223 6.72267L2.48527 6.71755L2.5096 6.71435L2.53265 6.71179L2.55634 6.70923H2.56082H2.53649L2.49296 6.71115L2.44942 6.71435L2.40588 6.71819L2.36299 6.72331L2.31945 6.72971L2.27592 6.73739L2.23366 6.74571L2.19077 6.75594L2.14851 6.76682L2.10626 6.77898L2.06464 6.79242L2.02367 6.8065L1.98205 6.82122L1.94236 6.83786L1.90202 6.85578L1.86233 6.87434L1.82328 6.89417L1.78422 6.91465L1.74709 6.93577L1.70995 6.95881L1.67282 6.98249L1.63633 7.0068L1.60112 7.03304L1.5659 7.05928L1.53261 7.0868L1.49932 7.11496L1.46667 7.14439L1.4353 7.17447L1.40392 7.20519L1.37383 7.23719L1.34502 7.26918L1.31621 7.30246L1.28932 7.33702L1.26179 7.37158L1.23682 7.40677L1.21185 7.44325L1.18817 7.47973L1.16576 7.51748L1.14399 7.55524L1.12286 7.59428L1.10366 7.63267L1.08509 7.67235L1.0678 7.71267L1.05116 7.75299L1.03579 7.79394L1.02107 7.83554L1.00826 7.87713L0.996097 7.91937L0.985213 7.96097L0.97561 8.00384L0.966647 8.04672L0.958964 8.09024L0.952562 8.13311L0.94808 8.17663L0.943598 8.21951L0.940397 8.26366L0.939117 8.30718L0.938477 8.3507L0.939117 8.39485L0.940397 8.43837L0.943598 8.48189L0.94808 8.5254L0.952562 8.56892L0.958964 8.61244L0.966647 8.65531L0.97561 8.69819L0.985213 8.74043L0.993536 8.7737H2.54994L2.58067 8.77306H6.26199L2.44366 7.72291L2.41677 7.71459Z" fill="#160F26"/>
<path d="M0.00256092 7.33448L0.00512184 7.38952L0.00960346 7.44391L0.0147253 7.49831L0.0211276 7.5527L0.0281701 7.6071L0.0371334 7.66085L0.0467368 7.71525L0.0576207 7.76901L0.0697851 7.82212L0.08323 7.87524L0.097315 7.92835L0.113321 7.98083L0.129967 8.03266L0.147253 8.0845L0.16646 8.13634L0.186307 8.18689L0.207435 8.23809L0.229203 8.288L0.252251 8.33792L0.275939 8.38656L0.301549 8.43519L0.327798 8.48383L0.355328 8.53118L0.383498 8.5779L0.412308 8.62398L0.442399 8.67005L0.473771 8.71549L0.505782 8.75965L0.516666 8.77373H0.993638L0.985315 8.74045L0.975711 8.69821L0.966748 8.65533L0.959065 8.61246L0.952663 8.56894L0.948181 8.52542L0.9437 8.48191L0.940499 8.43839L0.939218 8.39487L0.938578 8.35072L0.939218 8.3072L0.940499 8.26369L0.9437 8.21953L0.948181 8.17665L0.952663 8.13314L0.959065 8.09026L0.966748 8.04674L0.975711 8.00387L0.985315 7.96099L0.996199 7.91939L1.00836 7.87716L1.02117 7.83556L1.03589 7.79396L1.05126 7.75301L1.0679 7.71269L1.08519 7.67237L1.10376 7.6327L1.12296 7.5943L1.14409 7.55526L1.16586 7.51751L1.18827 7.47975L1.21196 7.44327L1.23693 7.40679L1.26189 7.3716L1.28942 7.33704L1.31631 7.30248L1.34512 7.2692L1.37393 7.23721L1.40403 7.20521L1.4354 7.17449L1.46677 7.14442L1.49942 7.11498L1.53271 7.08682L1.566 7.0593L1.60122 7.03306L1.63643 7.00683L1.67292 6.98251L1.71006 6.95883L1.74719 6.93579L1.78432 6.91467L1.82338 6.8942L1.86243 6.87436L1.90212 6.8558L1.94246 6.83788L1.98215 6.82124L2.02377 6.80652L2.06474 6.79244L2.10636 6.779L2.14861 6.76685L2.19087 6.75597L2.23376 6.74573L2.27602 6.73741L2.31956 6.72973L2.36309 6.72333L2.40599 6.71821L2.44952 6.71437L2.49306 6.71117L2.53659 6.70925L2.58077 6.70861H16V4.64478H2.58077L2.52571 4.64541L2.47129 4.6467L2.41623 4.6499L2.36181 4.65373L2.30675 4.65885L2.25297 4.66525L2.19855 4.67293L2.14477 4.68125L2.09099 4.69149L2.03657 4.70237L1.98343 4.71453L1.93029 4.72797L1.8778 4.74205L1.82466 4.75805L1.7728 4.77404L1.72094 4.79196L1.66972 4.81052L1.6185 4.831L1.56792 4.85148L1.51799 4.87324L1.46805 4.89691L1.41875 4.92123L1.37009 4.94555L1.32208 4.97243L1.2747 4.99931L1.22732 5.02746L1.18123 5.0569L1.13513 5.08698L1.09031 5.11834L1.04614 5.15034L1.00196 5.18297L0.959705 5.21689L0.91681 5.25209L0.875195 5.28792L0.834861 5.3244L0.795166 5.36216L0.756112 5.39991L0.717698 5.43959L0.679925 5.47991L0.643432 5.52023L0.607579 5.56182L0.573006 5.60406L0.539074 5.64693L0.505782 5.69045L0.473771 5.73525L0.442399 5.78004L0.412308 5.82548L0.383498 5.8722L0.355328 5.91955L0.327798 5.96691L0.301549 6.01427L0.275939 6.0629L0.252251 6.11282L0.229203 6.16209L0.207435 6.21265L0.186307 6.26257L0.16646 6.31376L0.147253 6.36496L0.129967 6.41679L0.113321 6.46927L0.097315 6.52175L0.08323 6.57486L0.0697851 6.62798L0.0576207 6.68173L0.0467368 6.73485L0.0371334 6.7886L0.0281701 6.843L0.0211276 6.89739L0.0147253 6.95179L0.00960346 7.00619L0.00512184 7.06058L0.00256092 7.11498L0 7.17001V7.22505V7.28008L0.00256092 7.33448Z" fill="#F18046"/>
<path d="M2.41677 3.07045L2.39436 3.06149L2.37195 3.05189L2.35018 3.04229L2.3297 3.03078L2.30857 3.01926L2.28872 3.00646L2.26952 2.99174L2.25031 2.97766L2.23238 2.96166L2.2151 2.94566L2.19909 2.92774L2.18372 2.91047L2.16836 2.89127L2.15427 2.87207L2.14147 2.85159L2.12931 2.83111L2.11842 2.80999L2.10754 2.78888L2.09921 2.76712L2.09089 2.74408L2.08385 2.72168L2.07809 2.69928L2.07297 2.67496L2.06912 2.65193L2.06592 2.62761L2.06528 2.60393L2.06464 2.57961L2.06528 2.55593L2.06592 2.5329L2.06912 2.50922L2.07297 2.48554L2.07809 2.4625L2.08385 2.43882L2.09089 2.41579L2.09921 2.39339L2.10754 2.37163L2.11842 2.35051L2.12931 2.32875L2.14147 2.30891L2.15427 2.28844L2.16836 2.26924L2.18372 2.25132L2.19909 2.23276L2.2151 2.21484L2.23238 2.19884L2.25031 2.18284L2.26952 2.16876L2.28872 2.15533L2.30857 2.14125L2.3297 2.12973L2.35018 2.11821L2.37195 2.10797L2.39436 2.09901L2.41677 2.09133L2.43918 2.08365L2.46223 2.07725L2.48591 2.07277L2.50896 2.06893L2.53265 2.06637L2.55698 2.06445H2.56466H2.53649L2.49296 2.06637L2.44942 2.06957L2.40588 2.07341L2.36299 2.07917L2.31945 2.08557L2.27592 2.09261L2.23366 2.10157L2.19077 2.11117L2.14851 2.12205L2.10626 2.13421L2.06464 2.14765L2.02367 2.16173L1.98205 2.17708L1.94236 2.19308L1.90202 2.211L1.86233 2.22956L1.82328 2.2494L1.78422 2.26988L1.74709 2.291L1.70931 2.31403L1.67282 2.33771L1.63633 2.36203L1.60112 2.38827L1.5659 2.41451L1.53197 2.44202L1.49932 2.47082L1.46667 2.49962L1.43466 2.5297L1.40392 2.56041L1.37383 2.59241L1.34502 2.62505L1.31621 2.65833L1.28932 2.69224L1.26179 2.72744L1.23682 2.76264L1.21185 2.79847L1.18817 2.83495L1.16576 2.87271L1.14399 2.91047L1.12286 2.9495L1.10366 2.9879L1.08509 3.02758L1.0678 3.06789L1.05116 3.10821L1.03579 3.14917L1.02107 3.19076L1.00826 3.23236L0.996097 3.2746L0.985213 3.31683L0.97497 3.35907L0.966647 3.40195L0.958964 3.44546L0.952562 3.48834L0.94744 3.53186L0.943598 3.57473L0.940397 3.61889L0.939117 3.66305L0.938477 3.70656L0.939117 3.75008L0.940397 3.79423L0.943598 3.83775L0.94744 3.88127L0.952562 3.92414L0.958964 3.96766L0.966647 4.01118L0.97497 4.05341L0.985213 4.09629L0.996097 4.13853L1.00826 4.18012L1.02107 4.22236L1.03579 4.26332L1.05116 4.30427L1.0678 4.34459L1.08509 4.38491L1.10366 4.42458L1.12286 4.46362L1.13567 4.48602L1.13695 4.48538L1.19073 4.45786L1.24451 4.43162L1.29893 4.40603L1.35399 4.38235L1.40905 4.35803L1.46539 4.33627L1.52109 4.31579L1.57807 4.29467L1.63505 4.27676L1.69267 4.25884L1.75029 4.2422L1.80791 4.2262L1.86617 4.21148L1.92507 4.19868L1.98397 4.18716L2.04223 4.17564L2.10178 4.16604L2.16132 4.15709L2.22086 4.14941L2.28104 4.14301L2.34058 4.13789L2.40076 4.13341L2.45966 4.13085L2.52113 4.12957L2.58067 4.12829H6.26199L2.44302 3.07813L2.41677 3.07045Z" fill="#160F26"/>
<path d="M13.4191 13.9355H13.4633L13.5068 13.933L13.5504 13.9304L13.5939 13.9266L13.6374 13.9208L13.681 13.9144L13.7239 13.9074L13.7668 13.8984L13.809 13.8888L13.8519 13.8779L13.8935 13.8658L13.9351 13.8523L13.9768 13.8383L14.0177 13.8229L14.0574 13.8063L14.0978 13.789L14.1375 13.7704L14.1765 13.7506L14.2156 13.7301L14.2533 13.7084L14.2905 13.6853L14.327 13.6616L14.3635 13.6373L14.3993 13.6117L14.4339 13.5848L14.4678 13.558L14.5011 13.5292L14.5331 13.4997L14.5651 13.4703L14.5959 13.4389L14.626 13.4076L14.6554 13.3749L14.6836 13.3417L14.7111 13.3078L14.738 13.2726L14.763 13.2374L14.7879 13.2015L14.8116 13.1644L14.834 13.1273L14.8558 13.0889L14.8769 13.0505L14.8968 13.0115L14.9153 12.9724L14.932 12.9321L14.9493 12.8911L14.964 12.8508L14.9787 12.8092L14.9922 12.7676L15.0037 12.7254L15.0152 12.6832L15.0248 12.6409L15.0331 12.5974L15.0408 12.5545L15.0472 12.5117L15.0523 12.4675L15.0568 12.4246L15.0594 12.3805L15.0613 12.3369V12.2934V12.2499L15.0594 12.2058L15.0568 12.1622L15.0523 12.1187L15.0472 12.0759L15.0408 12.0323L15.0331 11.9888L15.0248 11.9466L15.0152 11.9037L15.0037 11.8615L14.9922 11.8199L14.9787 11.7776L14.964 11.736L14.9493 11.6957L14.932 11.6554L14.9153 11.6151L14.8968 11.5754L14.8769 11.5364L14.8641 11.5127L14.8628 11.5133L14.8091 11.5409L14.7553 11.5671L14.7009 11.5927L14.6458 11.617L14.5901 11.64L14.5344 11.6624L14.4787 11.6829L14.4217 11.7034L14.3641 11.7226L14.3071 11.7399L14.2501 11.7565L14.1912 11.7725L14.1336 11.7866L14.0747 11.8L14.0158 11.8122L13.9569 11.8231L13.898 11.8327L13.8385 11.8416L13.7789 11.8493L13.7194 11.8557L13.6592 11.8608L13.599 11.8647L13.5388 11.8679L13.4793 11.8698L13.4191 11.8704H9.73779L13.5561 12.9206L13.583 12.9289L13.6054 12.9372L13.6278 12.9462L13.649 12.9564L13.6701 12.9679L13.6906 12.9801L13.7111 12.9929L13.7303 13.007L13.7488 13.0217L13.7661 13.0377L13.784 13.0537L13.8007 13.071L13.8161 13.0889L13.8314 13.1081L13.8449 13.1273L13.8583 13.1471L13.8698 13.167L13.8807 13.1887L13.891 13.2105L13.8999 13.2316L13.9089 13.254L13.9153 13.2777L13.9217 13.3001L13.9262 13.3238L13.9307 13.3468L13.9332 13.3711L13.9345 13.3941L13.9351 13.4185L13.9345 13.4421L13.9332 13.4665L13.9307 13.4895L13.9262 13.5132L13.9217 13.5369L13.9153 13.5599L13.9089 13.5823L13.8999 13.6053L13.891 13.6271L13.8807 13.6488L13.8698 13.6693L13.8583 13.6904L13.8449 13.7103L13.8314 13.7295L13.8161 13.748L13.8007 13.766L13.784 13.7832L13.7661 13.7999L13.7488 13.8159L13.7303 13.8299L13.7111 13.844L13.6906 13.8575L13.6701 13.8696L13.649 13.8805L13.6278 13.8901L13.6054 13.8997L13.583 13.908L13.5606 13.9151L13.5376 13.9208L13.5145 13.9259L13.4902 13.9291L13.4671 13.9317L13.4428 13.9343L13.4191 13.9349" fill="#160F26"/>
<path d="M15.9974 13.3097L15.9949 13.2553L15.991 13.2009L15.9853 13.1458L15.9795 13.0915L15.9718 13.0377L15.9629 12.9833L15.9533 12.9295L15.9424 12.8758L15.9302 12.822L15.9168 12.7696L15.9027 12.7164L15.8873 12.6633L15.8707 12.6121L15.8527 12.5597L15.8335 12.5085L15.8143 12.4579L15.7932 12.4067L15.7708 12.3568L15.7484 12.3069L15.7241 12.2576L15.6985 12.2096L15.6728 12.161L15.6453 12.1136L15.6165 12.0663L15.5877 12.0202L15.5576 11.9741L15.5262 11.9293L15.4942 11.8852L15.4609 11.841L15.4276 11.7988L15.3924 11.7559L15.3566 11.7149L15.3201 11.674L15.2823 11.6343L15.2445 11.5946L15.2048 11.5569L15.1651 11.5191L15.1248 11.4826L15.0832 11.4468L15.0409 11.4116L15.0384 11.4097L14.9782 11.4461L14.9251 11.4762L14.87 11.5063L14.863 11.5101L14.877 11.5364L14.8969 11.5754L14.9154 11.6151L14.9321 11.6554L14.9494 11.6957L14.9641 11.736L14.9788 11.7776L14.9923 11.8199L15.0038 11.8615L15.0153 11.9037L15.0249 11.9466L15.0333 11.9888L15.0409 12.0323L15.0473 12.0759L15.0525 12.1187L15.0569 12.1622L15.0595 12.2058L15.0614 12.2499V12.2934V12.337L15.0595 12.3805L15.0569 12.4246L15.0525 12.4675L15.0473 12.5117L15.0409 12.5545L15.0333 12.5974L15.0249 12.6409L15.0153 12.6832L15.0038 12.7254L14.9923 12.7676L14.9788 12.8092L14.9641 12.8508L14.9494 12.8912L14.9321 12.9321L14.9154 12.9724L14.8969 13.0115L14.877 13.0505L14.8559 13.0889L14.8341 13.1273L14.8117 13.1644L14.788 13.2015L14.7631 13.2374L14.7381 13.2726L14.7112 13.3078L14.6837 13.3417L14.6555 13.375L14.6261 13.4076L14.596 13.4389L14.5652 13.4703L14.5332 13.4997L14.5012 13.5292L14.4679 13.558L14.434 13.5849L14.3994 13.6117L14.3636 13.6373L14.3271 13.6616L14.2906 13.6853L14.2535 13.7084L14.2157 13.7301L14.1766 13.7506L14.1376 13.7704L14.0979 13.789L14.0575 13.8063L14.0178 13.8229L13.9769 13.8383L13.9353 13.8524L13.8936 13.8658L13.852 13.878L13.8091 13.8888L13.7669 13.8984L13.724 13.9074L13.6811 13.9144L13.6375 13.9208L13.594 13.9266L13.5505 13.9304L13.5069 13.933L13.4634 13.9355H13.4192H0V16H13.4192L13.4743 15.9994L13.5287 15.9981L13.5838 15.9949L13.6382 15.9904L13.6932 15.9859L13.7477 15.9795L13.8021 15.9712L13.8559 15.9629L13.9096 15.9533L13.9634 15.9418L14.0166 15.9296L14.0697 15.9168L14.1222 15.9027L14.1753 15.8868L14.2272 15.8708L14.2791 15.8522L14.3309 15.8336L14.3821 15.8138L14.4327 15.7933L14.4827 15.7716L14.5326 15.7479L14.5812 15.7236L14.6305 15.6986L14.6779 15.6724L14.7259 15.6455L14.7727 15.6173L14.8188 15.5873L14.8649 15.5578L14.9097 15.5265L14.9539 15.4938L14.998 15.4612L15.0409 15.4273L15.0832 15.3921L15.1248 15.3562L15.1651 15.3204L15.2048 15.2826L15.2445 15.2442L15.2823 15.2052L15.3201 15.1649L15.3566 15.1246L15.3924 15.083L15.4276 15.0407L15.4609 14.9979L15.4942 14.9543L15.5262 14.9095L15.5576 14.8648L15.5877 14.8187L15.6165 14.7726L15.6453 14.7252L15.6728 14.6779L15.6985 14.6299L15.7241 14.5813L15.7484 14.532L15.7708 14.4827L15.7932 14.4321L15.8143 14.3816L15.8335 14.331L15.8527 14.2792L15.8707 14.2274L15.8873 14.1749L15.9027 14.1224L15.9168 14.0699L15.9302 14.0162L15.9424 13.9631L15.9533 13.9099L15.9629 13.8556L15.9718 13.8018L15.9795 13.7474L15.9853 13.693L15.991 13.6386L15.9949 13.5836L15.9974 13.5292L16 13.4748V13.4197V13.3647L15.9974 13.3097Z" fill="#3D95FD"/>
<path d="M0.00256092 2.6897L0.00512184 2.74474L0.00896323 2.79914L0.0147253 2.85417L0.0211276 2.90857L0.0281701 2.96232L0.0371334 3.01672L0.0467368 3.07047L0.0576207 3.12423L0.0697851 3.17735L0.08323 3.23046L0.097315 3.28294L0.112681 3.33605L0.129967 3.38789L0.147253 3.43972L0.16646 3.49156L0.185667 3.54212L0.206794 3.59331L0.229203 3.64323L0.252251 3.69314L0.275939 3.74178L0.301549 3.79042L0.327798 3.83905L0.354688 3.88641L0.383498 3.93377L0.412308 3.9792L0.442399 4.02528L0.473771 4.07071L0.505782 4.11487L0.539074 4.15903L0.573006 4.20126L0.607579 4.24414L0.643432 4.2851L0.679925 4.32605L0.717698 4.36573L0.756112 4.40477L0.795166 4.44316L0.834861 4.48092L0.875195 4.5174L0.91681 4.55324L0.959705 4.58779L0.961626 4.58971L1.02181 4.55388L1.07495 4.5238L1.13001 4.49308L1.13769 4.48988L1.12296 4.46364L1.10376 4.42461L1.08519 4.38493L1.0679 4.34461L1.05126 4.3043L1.03589 4.26334L1.02117 4.22238L1.00836 4.18015L0.996199 4.13855L0.985315 4.09631L0.975071 4.05344L0.966748 4.0112L0.959065 3.96768L0.952663 3.92417L0.947541 3.88129L0.9437 3.83777L0.940499 3.79426L0.939218 3.7501L0.938578 3.70658L0.939218 3.66307L0.940499 3.61891L0.9437 3.57475L0.947541 3.53188L0.952663 3.48836L0.959065 3.44548L0.966748 3.40197L0.975071 3.35909L0.985315 3.31685L0.996199 3.27462L1.00836 3.23238L1.02117 3.19078L1.03589 3.14919L1.05126 3.10823L1.0679 3.06791L1.08519 3.0276L1.10376 2.98792L1.12296 2.94952L1.14409 2.91049L1.16586 2.87273L1.18827 2.83497L1.21196 2.7985L1.23693 2.76266L1.26189 2.72746L1.28942 2.69226L1.31631 2.65835L1.34512 2.62507L1.37393 2.59243L1.40403 2.56043L1.43476 2.52972L1.46677 2.49964L1.49942 2.47084L1.53207 2.44204L1.566 2.41453L1.60122 2.38829L1.63643 2.36205L1.67292 2.33773L1.70942 2.31405L1.74719 2.29102L1.78432 2.2699L1.82338 2.24942L1.86243 2.22958L1.90212 2.21102L1.94246 2.1931L1.98215 2.17711L2.02377 2.16175L2.06474 2.14767L2.10636 2.13423L2.14861 2.12207L2.19087 2.11119L2.23376 2.10159L2.27602 2.09263L2.31956 2.08559L2.36309 2.07919L2.40599 2.07343L2.44952 2.06959L2.49306 2.06639L2.53659 2.06447H2.58077H16V0H2.58077H2.52571L2.47129 0.00191985L2.41623 0.00511959L2.36181 0.00959923L2.30675 0.0140789L2.25233 0.0204784L2.19855 0.0287977L2.14413 0.0364771L2.09035 0.0467163L2.03657 0.0575954L1.98343 0.0703944L1.93029 0.0831933L1.8778 0.0972722L1.82466 0.113271L1.7728 0.12927L1.72094 0.147188L1.66972 0.165747L1.61786 0.186225L1.56792 0.206703L1.51799 0.228462L1.46805 0.25214L1.41875 0.275818L1.37009 0.301416L1.32208 0.327654L1.2747 0.354532L1.22732 0.382689L1.18123 0.412127L1.13513 0.442205L1.09031 0.473562L1.04614 0.50556L1.00196 0.538837L0.959705 0.572754L0.91681 0.607951L0.875195 0.643149L0.834861 0.679626L0.795166 0.717383L0.756112 0.75578L0.717698 0.794816L0.679925 0.834493L0.643432 0.87545L0.607579 0.917047L0.573006 0.959283L0.539074 1.00216L0.505782 1.04568L0.473771 1.09047L0.442399 1.13527L0.412308 1.18071L0.383498 1.22742L0.354688 1.27414L0.327798 1.32213L0.301549 1.37013L0.275939 1.41813L0.252251 1.46804L0.229203 1.51732L0.206794 1.56787L0.185667 1.61843L0.16646 1.66899L0.147253 1.72018L0.129967 1.77266L0.112681 1.82449L0.097315 1.87697L0.08323 1.93009L0.0697851 1.9832L0.0576207 2.03696L0.0467368 2.09007L0.0371334 2.14383L0.0281701 2.19822L0.0211276 2.25262L0.0147253 2.30702L0.00896323 2.36141L0.00512184 2.41645L0.00256092 2.47084L0 2.52524V2.58027V2.63531L0.00256092 2.6897Z" fill="#0DC09D"/>
</g>
<path d="M29.238 13.734C25.98 13.716 24.738 12.204 24.468 10.206L26.43 9.792C26.7 11.322 27.672 12.06 29.31 12.06C30.804 12.06 31.488 11.52 31.488 10.638C31.488 9.72 30.894 9.252 28.77 8.892C25.818 8.406 24.882 7.272 24.882 5.58C24.882 3.654 26.25 2.466 29.022 2.466C31.794 2.466 32.928 3.762 33.288 5.652L31.254 6.048C30.966 4.77 30.426 4.104 28.914 4.104C27.546 4.104 26.898 4.608 26.898 5.472C26.898 6.246 27.312 6.786 29.58 7.2C32.802 7.794 33.54 8.964 33.54 10.512C33.54 12.492 32.28 13.734 29.238 13.734ZM39.2906 13.716C36.6986 13.716 35.0246 12.204 35.0246 9.378C35.0246 6.516 36.6446 4.824 39.2906 4.824C41.8466 4.824 43.0886 6.372 43.0886 8.694C43.0886 9.018 43.0886 9.396 43.0526 9.828H36.9686C37.1126 11.376 37.8866 12.132 39.3086 12.132C40.6586 12.132 41.1266 11.484 41.3606 10.674L43.0166 11.142C42.6026 12.672 41.5586 13.716 39.2906 13.716ZM36.9686 8.532H41.3066C41.2346 7.074 40.5866 6.318 39.2366 6.318C37.9226 6.318 37.1486 7.002 36.9686 8.532ZM44.5252 9.324C44.5252 6.408 45.6412 4.824 47.6752 4.824C49.1872 4.824 50.1052 5.778 50.5552 7.236H50.6812V5.04H52.6072V16.362H50.6812V11.268H50.5552C50.1412 12.726 49.1332 13.734 47.5852 13.734C45.6952 13.734 44.5252 12.186 44.5252 9.324ZM50.6812 9C50.6812 7.506 49.8352 6.57 48.5212 6.57C47.0992 6.57 46.4332 7.452 46.4332 9.306C46.4332 11.124 47.0992 12.024 48.5212 12.024C49.8172 12.024 50.6812 11.052 50.6812 9.648V9ZM58.7664 13.716C56.1744 13.716 54.5004 12.204 54.5004 9.378C54.5004 6.516 56.1204 4.824 58.7664 4.824C61.3224 4.824 62.5644 6.372 62.5644 8.694C62.5644 9.018 62.5644 9.396 62.5284 9.828H56.4444C56.5884 11.376 57.3624 12.132 58.7844 12.132C60.1344 12.132 60.6024 11.484 60.8364 10.674L62.4924 11.142C62.0784 12.672 61.0344 13.716 58.7664 13.716ZM56.4444 8.532H60.7824C60.7104 7.074 60.0624 6.318 58.7124 6.318C57.3984 6.318 56.6244 7.002 56.4444 8.532ZM66.3231 7.578L66.4851 7.596C66.9531 5.544 67.7631 4.95 68.9871 4.95H69.2931V7.128H68.8251C67.0431 7.128 66.4131 7.758 66.4131 9.486V13.5H64.4871V5.04H66.3231V7.578ZM72.9815 13.68C71.4695 13.68 70.4075 12.96 70.4075 11.304C70.4075 9.792 71.3255 8.694 73.4675 8.694H75.9875V8.118C75.9875 7.02 75.5375 6.39 74.3495 6.39C73.3595 6.39 72.7835 6.894 72.5675 7.884L70.7315 7.47C71.0555 5.868 72.2615 4.842 74.4215 4.842C76.8695 4.842 77.9135 5.994 77.9135 8.1V13.5H76.0775V11.484H75.8975C75.4655 12.852 74.4575 13.68 72.9815 13.68ZM75.9875 9.972H73.7915C72.8195 9.972 72.2615 10.332 72.2615 11.034C72.2615 11.646 72.6395 12.168 73.7375 12.168C75.0875 12.168 75.9875 11.376 75.9875 10.314V9.972ZM86.1305 9.936V13.5H84.0785V2.7H88.4165C91.0985 2.7 92.4125 3.924 92.4125 6.336C92.4125 8.388 91.0265 9.936 88.4885 9.936H86.1305ZM86.1305 4.446V8.244H88.2545C89.7665 8.244 90.3965 7.632 90.3965 6.354C90.3965 5.04 89.8385 4.446 88.2365 4.446H86.1305ZM96.0676 1.944V13.5H94.1236V1.944H96.0676ZM100.56 13.68C99.0482 13.68 97.9862 12.96 97.9862 11.304C97.9862 9.792 98.9042 8.694 101.046 8.694H103.566V8.118C103.566 7.02 103.116 6.39 101.928 6.39C100.938 6.39 100.362 6.894 100.146 7.884L98.3102 7.47C98.6342 5.868 99.8402 4.842 102 4.842C104.448 4.842 105.492 5.994 105.492 8.1V13.5H103.656V11.484H103.476C103.044 12.852 102.036 13.68 100.56 13.68ZM103.566 9.972H101.37C100.398 9.972 99.8402 10.332 99.8402 11.034C99.8402 11.646 100.218 12.168 101.316 12.168C102.666 12.168 103.566 11.376 103.566 10.314V9.972ZM107.025 5.04H108.213V2.754H110.157V5.04H112.641V6.606H110.157V10.656C110.157 11.484 110.463 11.916 111.309 11.916C111.741 11.916 112.119 11.826 112.533 11.7L112.767 13.428C112.137 13.626 111.705 13.734 110.859 13.734C109.005 13.734 108.213 12.51 108.213 10.926V6.606H107.025V5.04ZM117.149 4.608V5.04H119.471V6.606H117.149V13.5H115.205V6.606H113.801V5.04H115.205V4.572C115.205 2.862 116.141 1.692 118.103 1.692C118.769 1.692 119.201 1.764 119.543 1.836L119.471 3.222C119.093 3.168 118.787 3.132 118.445 3.132C117.563 3.132 117.149 3.618 117.149 4.608ZM124.621 13.734C121.903 13.734 120.319 12.024 120.319 9.252C120.319 6.462 121.993 4.824 124.621 4.824C127.213 4.824 128.887 6.462 128.887 9.252C128.887 12.024 127.303 13.734 124.621 13.734ZM124.603 6.462C123.037 6.462 122.263 7.488 122.263 9.234C122.263 10.98 122.983 12.06 124.603 12.06C126.205 12.06 126.961 10.98 126.961 9.234C126.961 7.488 126.169 6.462 124.603 6.462ZM132.616 7.578L132.778 7.596C133.246 5.544 134.056 4.95 135.28 4.95H135.586V7.128H135.118C133.336 7.128 132.706 7.758 132.706 9.486V13.5H130.78V5.04H132.616V7.578ZM139.147 7.272H139.309C139.795 5.688 140.839 4.824 142.279 4.824C143.863 4.824 144.655 5.796 144.781 7.362H144.979C145.393 5.742 146.383 4.824 147.949 4.824C149.731 4.824 150.595 6.012 150.595 7.848V13.5H148.651V8.352C148.651 7.326 148.183 6.57 147.049 6.57C145.717 6.57 144.889 7.434 144.889 8.712V13.5H142.963V8.352C142.963 7.326 142.477 6.57 141.343 6.57C140.047 6.57 139.183 7.434 139.183 8.712V13.5H137.257V5.04H139.147V7.272Z" fill="white"/>
<defs>
<clipPath id="clip0_618_3741">
<rect width="16" height="16" fill="white"/>
</clipPath>
</defs>
</svg>
