<svg width="98" height="16" viewBox="0 0 98 16" fill="none" xmlns="http://www.w3.org/2000/svg">
<g clip-path="url(#clip0_504_1142)">
<g clip-path="url(#clip1_504_1142)">
<path d="M3.06556 7.65499C3.23495 5.13021 5.28381 3.10718 7.83696 2.94846V0C3.6371 0.163839 0.260913 3.4995 0.0863495 7.65499H3.06556Z" fill="#3D95FD"/>
<path d="M3.06555 16.0001C3.23494 13.4753 5.28379 11.4522 7.83694 11.2935V8.34506C3.63708 8.5089 0.260898 11.8446 0.0863342 16.0001H3.06555Z" fill="#3D95FD"/>
<path d="M13.2704 9.15527e-05C13.101 2.52488 11.0521 4.5479 8.49898 4.70662V7.65509C12.6988 7.49125 16.075 4.15559 16.2496 9.15527e-05L13.2704 9.15527e-05Z" fill="#3D95FD"/>
<path d="M13.2704 8.34506C13.101 10.8698 11.0521 12.8929 8.49898 13.0516V16.0001C12.6988 15.8362 16.075 12.5006 16.2496 8.34506H13.2704Z" fill="#3D95FD"/>
</g>
<path d="M22.5908 11.3844L21.2143 2.93198H23.2386L24.4573 11.7262H24.7715L26.1551 4.52621C26.3329 3.60141 27.1495 2.93198 28.1012 2.93198C29.0541 2.93198 29.8714 3.60333 30.0479 4.53005L31.4146 11.7255H31.7288L32.9475 2.93134H34.9718L33.5954 11.3838C33.4376 12.354 32.5913 13.0676 31.5982 13.0676C30.6252 13.0676 29.7905 12.3822 29.6102 11.4362L28.2505 4.29325H27.9363L26.576 11.4362C26.3956 12.3828 25.5609 13.0676 24.5879 13.0676C23.5948 13.0676 22.7485 12.354 22.5908 11.3838V11.3844Z" fill="#160F26"/>
<path d="M48.7197 11.5483L45.9461 2.93204H48.0887L50.6631 11.5899H50.9774L53.5518 2.93204H55.6945L52.9208 11.5483C52.6292 12.4539 51.7797 13.0683 50.8196 13.0683C49.8595 13.0683 49.01 12.4533 48.7184 11.5483H48.7197Z" fill="#160F26"/>
<path d="M65.9652 7.79601C65.9652 6.82321 65.7687 5.97394 65.3756 5.24754C64.9825 4.52115 64.4349 3.95347 63.7347 3.54515C63.0332 3.13684 62.2173 2.93204 61.2876 2.93204C60.3579 2.93204 59.4922 3.1394 58.7719 3.55475C58.4112 3.76211 58.0898 4.00979 57.8067 4.29907C57.7711 4.33491 57.7362 4.37203 57.7013 4.40915C57.5978 4.52179 57.5015 4.63955 57.4097 4.76243C57.2881 4.92691 57.175 5.10162 57.0716 5.28658C56.6591 6.02578 56.4522 6.89489 56.4522 7.89393V8.12753C56.4522 9.12656 56.6584 9.99504 57.0716 10.7349C57.484 11.4741 58.0575 12.0481 58.7913 12.4565C59.5245 12.8648 60.3831 13.0696 61.3658 13.0696C62.2309 13.0696 62.9511 12.9333 63.5278 12.6613C64.1045 12.3886 64.5629 12.0513 64.9036 11.6494C64.998 11.5374 65.0872 11.4273 65.1706 11.3185C65.3879 11.0363 65.5676 10.7643 65.7092 10.5013L64.0192 9.64496C63.8097 10.0866 63.511 10.4757 63.125 10.8123C62.7377 11.1496 62.1649 11.3179 61.4053 11.3179C60.5926 11.3179 59.9143 11.0677 59.3713 10.5691C59.3376 10.5378 59.3047 10.507 59.273 10.4738C59.2407 10.4405 59.2103 10.4078 59.1799 10.3746C59.1075 10.292 59.0402 10.2056 58.9782 10.1147C58.7137 9.72176 58.5625 9.25392 58.5243 8.71184C58.5204 8.66 58.5185 8.60752 58.5166 8.55504H65.9659V7.79601H65.9652ZM59.8723 7.01777L58.8372 8.04241H58.4965C58.4913 7.74737 58.4965 7.36849 58.5359 7.01777C58.5553 6.88465 58.5812 6.75601 58.6148 6.6325C58.6471 6.50898 58.6866 6.39122 58.7325 6.27858C58.8851 5.9029 59.112 5.58482 59.4107 5.32498C59.8885 4.90963 60.5072 4.70227 61.2682 4.70227C62.0292 4.70227 62.644 4.90963 63.116 5.32498C63.5879 5.74034 63.8562 6.30482 63.9215 7.01777H59.873H59.8723Z" fill="#160F26"/>
<path d="M44.7693 6.56136C44.7693 5.38889 44.4079 4.4833 43.6838 3.84522C42.9603 3.20715 41.9666 2.88779 40.7027 2.88779C39.8738 2.88779 39.173 3.01771 38.6001 3.27882C38.028 3.53994 37.567 3.8849 37.2185 4.31434C36.87 4.74442 36.6166 5.21353 36.4582 5.72105L38.3532 6.32713C38.4715 5.80617 38.7152 5.38249 39.0838 5.05673C39.4529 4.73162 39.985 4.56842 40.6826 4.56842C41.3802 4.56842 41.9201 4.74122 42.2621 5.08617C42.6048 5.43113 42.7754 5.87785 42.7754 6.42505V8.0916H42.447L41.3938 7.05032H39.8143C38.7482 7.05032 37.8631 7.3012 37.159 7.80296C36.455 8.30407 36.1026 9.04391 36.1026 10.0212C36.1026 10.6727 36.2642 11.2257 36.5862 11.682C36.9088 12.1383 37.3433 12.4832 37.889 12.7175C38.4359 12.9517 39.0579 13.0695 39.7542 13.0695C40.4505 13.0695 40.9652 12.9748 41.3731 12.786C41.7811 12.5972 42.0908 12.3757 42.3009 12.1217C42.5123 11.8676 42.6688 11.6359 42.7748 11.4279H43.0909V13.0695H44.7687V6.562L44.7693 6.56136ZM42.7754 8.80839C42.7754 9.61671 42.522 10.2516 42.0151 10.7137C41.5089 11.1757 40.8546 11.4074 40.051 11.4074C39.4587 11.4074 38.9919 11.2775 38.6493 11.0164C38.3066 10.7553 38.1359 10.4039 38.1359 9.96102C38.1359 9.51815 38.3008 9.18215 38.6292 8.95495C38.959 8.72711 39.3921 8.61319 39.932 8.61319H42.7748V8.80839H42.7754Z" fill="#160F26"/>
</g>
<defs>
<clipPath id="clip0_504_1142">
<rect width="66" height="16" fill="white"/>
</clipPath>
<clipPath id="clip1_504_1142">
<rect width="16.5" height="16" fill="white"/>
</clipPath>
</defs>
</svg>
