<svg width="11" height="18" viewBox="0 0 11 18" fill="none" xmlns="http://www.w3.org/2000/svg">
<path d="M7.96704 14.7857C8.1516 14.7143 8.27666 14.5407 8.28599 14.343C8.29521 14.1475 8.18955 13.9648 8.016 13.8752L8.01483 13.8746L8.00578 13.8698C7.99681 13.8651 7.97856 13.8558 7.95358 13.8459C7.80758 13.7217 7.72811 13.583 7.70148 13.4194L7.7015 13.4194L7.7007 13.4148C7.6775 13.2803 7.66114 13.1709 7.64393 13.056C7.62832 12.9516 7.61202 12.8427 7.5893 12.7062C7.56292 12.5316 7.53551 12.3649 7.50858 12.201C7.46604 11.9422 7.42472 11.6908 7.39059 11.4278C7.35985 11.1817 7.33746 10.933 7.33005 10.6958L7.33006 10.6958L7.32992 10.6922C7.32288 10.5089 7.32972 10.3132 7.34467 10.1178C7.36719 9.86387 7.40358 9.62301 7.46535 9.39652L7.46541 9.39654L7.4673 9.38915C7.53814 9.11289 7.63802 8.8471 7.76224 8.58338C7.78132 8.54517 7.79816 8.51084 7.81351 8.47954C7.86634 8.37183 7.9015 8.30013 7.94946 8.23037L7.9496 8.23047L7.95666 8.2196C8.01844 8.12456 8.10618 8.03746 8.22779 7.94785L8.22779 7.94785L8.22954 7.94655C8.48387 7.75743 8.73096 7.65689 9.0019 7.65147C9.27409 7.64603 9.4919 7.42382 9.4919 7.15157C9.4919 7.06189 9.46808 6.97455 9.42372 6.89806C9.38196 6.82607 9.33092 6.7788 9.29413 6.7505C9.25788 6.72261 9.22533 6.70541 9.2074 6.69657C9.20689 6.69632 9.20639 6.69608 9.20589 6.69583C9.19042 6.68746 9.1745 6.67989 9.15817 6.67316C9.00724 6.61102 8.84232 6.55184 8.66041 6.51125C8.2828 6.42438 7.89774 6.41353 7.5105 6.49277C7.02636 6.58981 6.6044 6.80035 6.23151 7.04894L6.2315 7.04891L6.22688 7.05207C6.03639 7.18216 5.85445 7.32366 5.68096 7.47366C5.59549 7.32601 5.50145 7.17872 5.39531 7.03534C5.21907 6.78584 4.99745 6.5391 4.6913 6.34907C4.35493 6.14029 3.96943 6.06075 3.5625 6.1594L3.5625 6.1594L3.56182 6.15956C3.11284 6.26907 2.77335 6.52749 2.50816 6.75846C2.35092 6.89541 2.29518 7.11556 2.3683 7.31083C2.44141 7.5061 2.62803 7.6355 2.83655 7.6355C2.83665 7.6355 2.83682 7.6355 2.83703 7.6355C2.83999 7.63551 2.85283 7.63554 2.86656 7.63501C2.88357 7.63435 2.9088 7.6327 2.93883 7.62769C2.98148 7.62059 3.01888 7.60925 3.05089 7.59671C3.12639 7.57396 3.18818 7.57309 3.25765 7.58941C3.4828 7.64501 3.63348 7.77722 3.7387 8.00785C3.97715 8.54314 4.10878 9.11023 4.14553 9.70559L4.14548 9.7056L4.14606 9.71314C4.16119 9.90983 4.16744 10.099 4.15398 10.2807L4.1538 10.2832C4.13761 10.518 4.12259 10.7331 4.09342 10.9455C4.04761 11.2503 3.98615 11.5582 3.9157 11.8713L3.91542 11.8726C3.8371 12.225 3.73682 12.5769 3.63321 12.9405C3.6145 13.0061 3.59568 13.0721 3.57687 13.1386L3.57675 13.1391C3.50667 13.3875 3.39535 13.6012 3.23128 13.7897C3.20255 13.8226 3.17593 13.8533 3.15013 13.8831L3.14977 13.8835C3.12357 13.9137 3.0982 13.943 3.07097 13.9741C2.94178 14.1217 2.91088 14.3313 2.99194 14.51C3.07301 14.6886 3.25107 14.8034 3.44726 14.8034C3.44855 14.8034 3.44997 14.8034 3.45149 14.8034C3.47994 14.8034 3.54809 14.8036 3.6335 14.7806C3.76697 14.7518 3.89601 14.7175 4.01489 14.6859C4.04 14.6793 4.06465 14.6727 4.08879 14.6664L4.08882 14.6665L4.09891 14.6636C4.27964 14.6119 4.45982 14.552 4.63942 14.4837C4.73975 14.4485 4.83985 14.4105 4.93972 14.3696C5.1861 14.5441 5.45569 14.6965 5.74868 14.8094C6.15505 14.9697 6.58532 15.05 7.04948 15.0105L7.05103 15.0103C7.3845 14.9809 7.68886 14.8934 7.96704 14.7857ZM8.01813 13.8763L8.01793 13.8762L8.01813 13.8763Z" fill="black" fill-opacity="0.05" stroke="#160F26" stroke-linejoin="round"/>
<path d="M10.3339 7.71429C10.3339 7.80269 10.3339 7.89912 10.3339 7.98751C10.3259 7.98751 10.3259 7.98751 10.3179 7.99554C10.2696 7.95537 10.2214 7.92322 10.1812 7.88305C9.87589 7.6259 9.54643 7.39287 9.18482 7.21608C9.12054 7.18394 9.06428 7.1518 8.99196 7.13572C8.98393 7.12769 8.97589 7.11965 8.96786 7.11965C8.83125 7.0634 8.69464 7.01519 8.55 6.98305C8.23661 6.91072 7.92321 6.90269 7.60982 6.96697C7.20803 7.04733 6.84643 7.22412 6.50893 7.44912C6.17143 7.67412 5.87411 7.93929 5.59286 8.22858C5.54464 8.27679 5.54464 8.27679 5.5125 8.21251C5.35982 7.89912 5.19911 7.59376 4.99018 7.31251C4.82947 7.09555 4.65268 6.90269 4.42768 6.75805C4.19464 6.6134 3.94554 6.56519 3.68036 6.62947C3.3509 6.70983 3.08572 6.90269 2.83661 7.11965C2.68393 7.24019 2.54732 7.36876 2.41071 7.49733C2.28214 7.60983 2.16161 7.73037 2.025 7.84287C2.00089 7.86697 1.98482 7.85894 1.96875 7.84287C1.84018 7.70626 1.70357 7.58572 1.54286 7.49733C1.30982 7.36876 1.06072 7.35269 0.81161 7.44108C0.602681 7.5134 0.409825 7.6259 0.225004 7.7384C0.152682 7.78662 0.0803571 7.83483 0 7.87501C0 7.86697 0 7.85894 0 7.85894C0.00803571 7.84287 0.00803865 7.8268 0.00803865 7.81876C0.0160744 7.48126 0.0482182 7.14376 0.104468 6.80626C0.17679 6.34822 0.289287 5.89822 0.498215 5.47233C0.650894 5.15894 0.851787 4.87769 1.11697 4.63662C1.4625 4.32323 1.86429 4.13037 2.30625 4.0018C2.78036 3.86519 3.27054 3.80894 3.76875 3.78483C3.96161 3.7768 4.1625 3.76876 4.35536 3.76073C4.45179 3.8009 4.54821 3.82501 4.65268 3.85715C4.79732 3.89733 4.94196 3.94555 5.07857 3.98573C5.15089 4.00983 5.22321 4.04198 5.29554 4.06608C5.57679 4.17055 5.85 4.29912 6.09107 4.48394C6.15536 4.53215 6.21161 4.58037 6.27589 4.63662C6.25982 4.5884 6.24375 4.54823 6.22768 4.50805C6.12321 4.2268 5.9625 3.99376 5.70536 3.84108C5.60089 3.7768 5.48036 3.72055 5.37589 3.6643C5.38393 3.6643 5.4 3.6643 5.40804 3.65626C5.75357 3.60001 6.09911 3.56787 6.44464 3.5518C6.74196 3.54376 7.04732 3.54376 7.34464 3.5759C7.69018 3.61608 8.03571 3.68037 8.36518 3.8009C8.85536 3.97769 9.27321 4.26698 9.59464 4.6768C9.87589 5.0384 10.0527 5.44822 10.1732 5.88215C10.2857 6.31608 10.3339 6.76608 10.35 7.20805C10.3339 7.3768 10.3339 7.54554 10.3339 7.71429Z" fill="#160F26"/>
<path d="M10.3345 7.20761H10.3425C10.3425 7.37636 10.3425 7.54511 10.3425 7.71386H10.3345C10.3345 7.54511 10.3345 7.37636 10.3345 7.20761Z" fill="#160F26"/>
<path d="M7.56724 0V0.00803559C7.45474 0.00803559 7.34224 0.00803559 7.22974 0.00803559C7.22974 0.00803559 7.22974 0.00803571 7.22974 0C7.34224 0 7.45474 0 7.56724 0Z" fill="#A0918F"/>
<path d="M7.78097 14.3194C7.97383 14.239 8.15865 14.1506 8.33544 14.0462C8.54437 13.9176 8.74526 13.781 8.94615 13.6364C9.1149 13.5078 9.27561 13.3792 9.42829 13.2506C9.51669 13.1703 9.61312 13.098 9.70151 13.0176C9.71758 13.0015 9.71758 13.0096 9.72561 13.0256C9.75776 13.1542 9.78187 13.2748 9.80597 13.4033C9.83811 13.5721 9.87026 13.7489 9.88633 13.9256C9.91044 14.1265 9.91847 14.3274 9.9024 14.5364C9.88633 14.7855 9.83811 15.0346 9.75776 15.2756C9.7015 15.4203 9.63722 15.5569 9.55686 15.6855C9.4524 15.8542 9.32383 15.9989 9.17919 16.1355C9.0024 16.2962 8.80954 16.4328 8.60062 16.5453C8.31937 16.706 8.01401 16.8185 7.70865 16.9149C7.41133 17.0033 7.11401 17.0676 6.80865 17.1239C6.7283 17.1399 6.6399 17.156 6.55954 17.148C6.38276 17.1399 6.21401 17.0998 6.04526 17.0355C5.79615 16.939 5.57115 16.7864 5.33008 16.6739C5.19347 16.6096 5.05687 16.5694 4.91222 16.5533C4.71937 16.5373 4.55865 16.6096 4.42205 16.7381C4.31758 16.8346 4.22115 16.939 4.12472 17.0355C3.95597 17.2042 3.75508 17.3167 3.52205 17.3489C3.36937 17.373 3.20865 17.3649 3.05597 17.3408C2.83901 17.3087 2.62205 17.2605 2.41312 17.1962C2.10776 17.0998 1.82651 16.9551 1.56937 16.7623C1.3283 16.5774 1.13544 16.3524 0.974724 16.0873C0.822045 15.8221 0.717581 15.5408 0.653295 15.2435C0.621153 15.1149 0.60508 14.9783 0.597044 14.8498C0.580973 14.6649 0.564903 14.4801 0.572938 14.2873C0.580974 14.0221 0.597044 13.7649 0.637223 13.4917C0.669366 13.5158 0.693476 13.548 0.725619 13.5721C0.894369 13.7248 1.07919 13.8614 1.28008 13.9819C1.50508 14.1105 1.73812 14.2149 1.99526 14.2792C2.16401 14.3274 2.3408 14.3515 2.51758 14.3676C2.66222 14.3756 2.80687 14.3837 2.95151 14.3756C3.12026 14.3676 3.28901 14.3515 3.45776 14.3114C3.48187 14.3114 3.49794 14.3114 3.52205 14.3033C3.67472 14.2712 3.8274 14.239 3.97204 14.1908C4.14079 14.1426 4.31758 14.0864 4.4783 14.0221C4.63901 13.9578 4.79973 13.8935 4.96044 13.8292C5.00865 13.8051 5.03276 13.8212 5.07294 13.8453C5.33812 14.0542 5.6274 14.231 5.94079 14.3515C6.28633 14.4881 6.64794 14.5524 7.01758 14.5203C7.27472 14.4801 7.53186 14.4158 7.78097 14.3194Z" fill="#160F26"/>
<path d="M7.22465 0.00810242C7.33715 0.00810242 7.44965 0.00810242 7.56215 0.00810242C7.83536 0.0241738 8.10858 0.0643525 8.37375 0.152745C8.57465 0.225067 8.62286 0.353638 8.50233 0.530424C8.41394 0.658995 8.2934 0.747388 8.17286 0.827745C8.01215 0.940245 7.83536 1.02864 7.65054 1.09292C7.45768 1.16524 7.27286 1.09292 7.16036 0.900066C7.12019 0.843817 7.09608 0.779531 7.08001 0.707209C7.07197 0.683102 7.06393 0.675066 7.04786 0.675066C6.62197 0.602745 6.24429 0.699174 5.9309 1.00453C5.67376 1.25364 5.52108 1.55899 5.41661 1.89649C5.32019 2.20185 5.27197 2.50721 5.2559 2.8206C5.23983 3.10185 5.26393 3.3831 5.30411 3.65631C5.31215 3.70453 5.32822 3.75274 5.32822 3.80096C5.33626 3.85721 5.32018 3.91346 5.26393 3.9456C5.20768 3.98578 5.15144 3.97774 5.08715 3.97774C4.94251 3.93756 4.79786 3.88935 4.66125 3.84917C4.66125 3.81703 4.66125 3.78489 4.66125 3.74471C4.66125 3.60007 4.66126 3.44739 4.66929 3.30274C4.70144 2.71614 4.78983 2.13757 5.01483 1.59114C5.18358 1.18132 5.42465 0.827745 5.76215 0.546495C6.0434 0.313459 6.36483 0.160781 6.7184 0.0804239C6.87911 0.0402454 7.04786 0.0161381 7.22465 0.00810242Z" fill="#160F26"/>
<path d="M5.06775 3.98544C5.13203 3.98544 5.18829 3.99348 5.24454 3.9533C5.29275 3.91312 5.31686 3.8649 5.30882 3.80865C5.30078 3.76044 5.29275 3.71223 5.28471 3.66401C5.30882 3.66401 5.34096 3.65598 5.36507 3.65598C5.47757 3.72026 5.59007 3.76848 5.69453 3.83276C5.95168 3.99348 6.11239 4.22651 6.21685 4.49972C6.23293 4.5399 6.249 4.58812 6.26507 4.6283C6.20078 4.58008 6.14453 4.52383 6.08025 4.47562C5.83918 4.2908 5.574 4.16223 5.28471 4.05776C5.21239 4.04169 5.14007 4.00955 5.06775 3.98544Z" fill="#160F26"/>
<path d="M4.63863 3.75272C4.63863 3.78486 4.63863 3.817 4.63863 3.85718C4.5422 3.82504 4.43774 3.80093 4.34131 3.76075C4.44577 3.76075 4.5422 3.75272 4.63863 3.75272Z" fill="#396E35"/>
</svg>
