<svg width="14" height="15" viewBox="0 0 14 15" fill="none" xmlns="http://www.w3.org/2000/svg">
	<g clip-path="url(#clip0_1322_33287)">
		<path d="M0.579327 12.3098C0.628545 12.2359 0.67503 12.1621 0.71878 12.0883C0.992217 11.6344 1.25198 11.0383 1.30394 10.3684C0.483623 9.43594 -0.000360993 8.2957 -0.000360993 7.0625C-0.000360993 3.9207 3.13323 1.375 6.99964 1.375C10.866 1.375 13.9996 3.9207 13.9996 7.0625C13.9996 10.2043 10.866 12.75 6.99964 12.75C5.98519 12.75 5.02269 12.575 4.15315 12.2605C3.82776 12.4984 3.2973 12.8238 2.66839 13.0973C2.2555 13.2777 1.78519 13.4418 1.29847 13.5375C1.27659 13.543 1.25472 13.5457 1.23284 13.5512C1.11253 13.573 0.994952 13.5922 0.871905 13.6031C0.866436 13.6031 0.858233 13.6059 0.852764 13.6059C0.713311 13.6195 0.573858 13.6277 0.434405 13.6277C0.25667 13.6277 0.0980765 13.5211 0.0297171 13.357C-0.0386422 13.193 -0.000360996 13.007 0.122686 12.8812C0.234795 12.7664 0.335967 12.6434 0.43167 12.5121C0.478155 12.4492 0.521905 12.3863 0.56292 12.3234C0.565655 12.318 0.568389 12.3152 0.571123 12.3098H0.579327Z" fill="black" fill-opacity="0.05" />
		<path d="M3.37933 11.1996C3.73206 10.9426 4.1887 10.877 4.59886 11.0246C5.32347 11.2871 6.13558 11.4375 6.99964 11.4375C10.4094 11.4375 12.6871 9.23633 12.6871 7.0625C12.6871 4.88867 10.4094 2.6875 6.99964 2.6875C3.58987 2.6875 1.31214 4.88867 1.31214 7.0625C1.31214 7.9375 1.6512 8.77969 2.28831 9.50156C2.52347 9.7668 2.63831 10.1168 2.61097 10.4723C2.57269 10.9672 2.45511 11.4211 2.30198 11.823C2.76683 11.607 3.15237 11.3664 3.37933 11.2023V11.1996ZM0.579327 12.3098C0.628545 12.2359 0.67503 12.1621 0.71878 12.0883C0.992217 11.6344 1.25198 11.0383 1.30394 10.3684C0.483623 9.43594 -0.000360994 8.2957 -0.000360994 7.0625C-0.000360994 3.9207 3.13323 1.375 6.99964 1.375C10.866 1.375 13.9996 3.9207 13.9996 7.0625C13.9996 10.2043 10.866 12.75 6.99964 12.75C5.98519 12.75 5.02269 12.575 4.15315 12.2605C3.82776 12.4984 3.2973 12.8238 2.66839 13.0973C2.2555 13.2777 1.78519 13.4418 1.29847 13.5375C1.27659 13.543 1.25472 13.5457 1.23284 13.5512C1.11253 13.573 0.994951 13.5922 0.871905 13.6031C0.866436 13.6031 0.858233 13.6059 0.852764 13.6059C0.713311 13.6195 0.573858 13.6277 0.434405 13.6277C0.25667 13.6277 0.0980765 13.5211 0.0297171 13.357C-0.0386422 13.193 -0.000360999 13.007 0.122686 12.8812C0.234795 12.7664 0.335967 12.6434 0.43167 12.5121C0.478155 12.4492 0.521905 12.3863 0.56292 12.3234C0.565655 12.318 0.568389 12.3152 0.571123 12.3098H0.579327Z" fill="black" fill-opacity="0.5" />
	</g>
	<defs>
		<clipPath id="clip0_1322_33287">
			<rect width="14" height="14" fill="white" transform="translate(0 0.5)" />
		</clipPath>
	</defs>
</svg>
