<svg width="18" height="15" viewBox="0 0 18 15" fill="none" xmlns="http://www.w3.org/2000/svg">
	<path d="M0.000601233 5.4126C0.000601233 6.55557 0.470914 7.60283 1.25568 8.42861C1.23107 8.4751 1.20373 8.52432 1.17912 8.56807C0.897476 9.07119 0.569351 9.56611 0.178336 9.99268C-0.00213315 10.1841 -0.0486175 10.463 0.0525544 10.7009C0.159195 10.9442 0.394351 11.1001 0.656851 11.1001C1.83263 11.1001 3.02209 10.7364 4.01193 10.288C4.14318 10.2278 4.27443 10.1649 4.40021 10.1021C4.8131 10.1841 5.24513 10.2251 5.6881 10.2251C8.8299 10.2251 11.3756 8.07041 11.3756 5.4126C11.3756 2.75479 8.8299 0.600098 5.6881 0.600098C2.5463 0.600098 0.000601233 2.75479 0.000601233 5.4126ZM11.8131 13.7251C12.2561 13.7251 12.6854 13.6813 13.101 13.6021C13.2268 13.6649 13.358 13.7278 13.4893 13.788C14.4791 14.2364 15.6686 14.6001 16.8444 14.6001C17.1069 14.6001 17.342 14.4442 17.4459 14.2036C17.5498 13.963 17.5006 13.6841 17.3201 13.4954C16.9319 13.0688 16.6037 12.5739 16.3194 12.0708C16.2947 12.0243 16.2674 11.9778 16.2428 11.9313C17.0303 11.1028 17.5006 10.0556 17.5006 8.9126C17.5006 6.33135 15.0971 4.22314 12.0811 4.10557C12.1932 4.52119 12.2506 4.95869 12.2506 5.4126V5.429C14.635 5.61221 16.1881 7.27471 16.1881 8.9126C16.1881 9.67822 15.8764 10.4138 15.294 11.0235C14.9029 11.4337 14.8209 12.0517 15.0889 12.5493C15.119 12.604 15.149 12.6587 15.1764 12.7106C15.2447 12.8337 15.3186 12.9567 15.3924 13.0825C14.9276 12.9595 14.4654 12.7899 14.0279 12.5903C13.9104 12.5384 13.7955 12.4837 13.6834 12.4263C13.4236 12.295 13.1283 12.2567 12.844 12.3114C12.5131 12.3771 12.1686 12.4099 11.8104 12.4099C10.1233 12.4099 8.80256 11.6853 8.06974 10.7063C7.63224 10.854 7.17287 10.9634 6.70255 11.029C7.62951 12.6259 9.57091 13.7251 11.8131 13.7251Z" fill="#F2F2F2" />
	<path d="M2.41232 9.05205C2.68029 8.55166 2.59826 7.93643 2.20724 7.52627C1.62482 6.91377 1.3131 6.17822 1.3131 5.4126C1.3131 3.67627 3.05763 1.9126 5.6881 1.9126C8.31857 1.9126 10.0631 3.67627 10.0631 5.4126C10.0631 7.14893 8.31857 8.9126 5.6881 8.9126C5.3299 8.9126 4.98263 8.87705 4.65451 8.81416C4.37013 8.75947 4.07482 8.79775 3.81505 8.929C3.70294 8.98643 3.5881 9.04111 3.47052 9.09307C3.03302 9.28994 2.57091 9.46221 2.10607 9.58525C2.18263 9.45947 2.25373 9.33643 2.32209 9.21338C2.35216 9.16143 2.38224 9.10674 2.40959 9.05205H2.41232ZM0.000601234 5.4126C0.000601234 6.55557 0.470914 7.60283 1.25568 8.42861C1.23107 8.4751 1.20373 8.52432 1.17912 8.56807C0.897476 9.07119 0.569351 9.56611 0.178336 9.99268C-0.00213314 10.1841 -0.0486175 10.463 0.0525544 10.7009C0.159195 10.9442 0.394351 11.1001 0.656851 11.1001C1.83263 11.1001 3.02209 10.7364 4.01193 10.288C4.14318 10.2278 4.27443 10.1649 4.40021 10.1021C4.8131 10.1841 5.24513 10.2251 5.6881 10.2251C8.8299 10.2251 11.3756 8.07041 11.3756 5.4126C11.3756 2.75479 8.8299 0.600098 5.6881 0.600098C2.5463 0.600098 0.000601234 2.75479 0.000601234 5.4126ZM11.8131 13.7251C12.2561 13.7251 12.6854 13.6813 13.101 13.6021C13.2268 13.6649 13.358 13.7278 13.4893 13.788C14.4791 14.2364 15.6686 14.6001 16.8444 14.6001C17.1069 14.6001 17.342 14.4442 17.4459 14.2036C17.5498 13.963 17.5006 13.6841 17.3201 13.4954C16.9319 13.0688 16.6037 12.5739 16.3194 12.0708C16.2947 12.0243 16.2674 11.9778 16.2428 11.9313C17.0303 11.1028 17.5006 10.0556 17.5006 8.9126C17.5006 6.33135 15.0971 4.22314 12.0811 4.10557C12.1932 4.52119 12.2506 4.95869 12.2506 5.4126V5.429C14.635 5.61221 16.1881 7.27471 16.1881 8.9126C16.1881 9.67822 15.8764 10.4138 15.294 11.0235C14.9029 11.4337 14.8209 12.0517 15.0889 12.5493C15.119 12.604 15.149 12.6587 15.1764 12.7106C15.2447 12.8337 15.3186 12.9567 15.3924 13.0825C14.9276 12.9595 14.4654 12.7899 14.0279 12.5903C13.9104 12.5384 13.7955 12.4837 13.6834 12.4263C13.4236 12.295 13.1283 12.2567 12.844 12.3114C12.5131 12.3771 12.1686 12.4099 11.8104 12.4099C10.1233 12.4099 8.80256 11.6853 8.06974 10.7063C7.63224 10.854 7.17287 10.9634 6.70255 11.029C7.62951 12.6259 9.57091 13.7251 11.8131 13.7251Z" fill="#797979" />
</svg>
