<svg width="14" height="15" viewBox="0 0 14 15" fill="none" xmlns="http://www.w3.org/2000/svg">
	<g clip-path="url(#clip0_1322_57347)">
		<path d="M6.69816 11.9194C4.48896 11.7727 2.7188 9.99806 2.57992 7.78662H0C0.14336 11.4244 3.06208 14.3487 6.69816 14.4999V11.9194Z" fill="#797979" />
		<path d="M2.58048 7.19816C2.7272 4.98896 4.50184 3.2188 6.71328 3.07992V0.5C3.07552 0.64336 0.1512 3.56208 0 7.19816H2.58048Z" fill="#797979" />
		<path d="M11.4199 7.80176C11.2732 10.011 9.49855 11.7811 7.28711 11.92V14.4999C10.9249 14.3566 13.8492 11.4378 14.0004 7.80176H11.4199Z" fill="#797979" />
		<path d="M7.30176 3.08048C9.51096 3.2272 11.2811 5.00184 11.42 7.21328H13.9999C13.8566 3.57552 10.9378 0.6512 7.30176 0.5V3.08048Z" fill="#797979" />
	</g>
	<defs>
		<clipPath id="clip0_1322_57347">
			<rect width="14" height="14" fill="white" transform="translate(0 0.5)" />
		</clipPath>
	</defs>
</svg>
