<svg width="14" height="15" viewBox="0 0 14 15" fill="none" xmlns="http://www.w3.org/2000/svg">
<g clip-path="url(#clip0_202_6894)">
<path d="M6.39128 13.2826L3.3478 14.1957L0.304321 13.2826V9.02174L3.3478 9.93479L6.39128 9.02174V13.2826Z" stroke="#160F26" stroke-width="0.75" stroke-linecap="round" stroke-linejoin="round"/>
<path d="M6.39128 9.02173L3.3478 8.10869L0.304321 9.02173" stroke="#160F26" stroke-width="0.75" stroke-linecap="round" stroke-linejoin="round"/>
<path d="M3.34784 9.93478V14.1957" stroke="#160F26" stroke-width="0.75" stroke-linecap="round" stroke-linejoin="round"/>
<path d="M13.6957 13.2826L10.6522 14.1957L7.6087 13.2826V9.02174L10.6522 9.93479L13.6957 9.02174V13.2826Z" stroke="#160F26" stroke-width="0.75" stroke-linecap="round" stroke-linejoin="round"/>
<path d="M13.6957 9.02173L10.6522 8.10869L7.6087 9.02173" stroke="#160F26" stroke-width="0.75" stroke-linecap="round" stroke-linejoin="round"/>
<path d="M10.6522 9.93478V14.1957" stroke="#160F26" stroke-width="0.75" stroke-linecap="round" stroke-linejoin="round"/>
<path d="M10.0435 5.97826L7.00002 6.8913L3.95654 5.97826V1.71739L7.00002 2.63044L10.0435 1.71739V5.97826Z" stroke="#160F26" stroke-width="0.75" stroke-linecap="round" stroke-linejoin="round"/>
<path d="M10.0435 1.7174L7.00002 0.804352L3.95654 1.7174" stroke="#160F26" stroke-width="0.75" stroke-linecap="round" stroke-linejoin="round"/>
<path d="M7 2.63043V6.8913" stroke="#160F26" stroke-width="0.75" stroke-linecap="round" stroke-linejoin="round"/>
</g>
<defs>
<clipPath id="clip0_202_6894">
<rect width="14" height="14" fill="white" transform="translate(0 0.5)"/>
</clipPath>
</defs>
</svg>
