<svg width="15" height="15" viewBox="0 0 15 15" fill="none" xmlns="http://www.w3.org/2000/svg">
	<path d="M0 3.08048C2.21386 3.2272 3.98776 5.00184 4.12694 7.21328H6.7123C6.56864 3.57552 3.64376 0.6512 0 0.5V3.08048Z" fill="#797979" />
	<path d="M4.14153 7.80176C3.9945 10.011 2.21611 11.7811 0 11.92V14.4999C3.64544 14.3566 6.57593 11.4378 6.72745 7.80176H4.14153Z" fill="#797979" />
	<path d="M9.88769 7.19816C10.0347 4.98896 11.8131 3.2188 14.0292 3.07992V0.5C10.3838 0.64336 7.45328 3.56208 7.30176 7.19816H9.88769Z" fill="#797979" />
	<path d="M14.0297 11.9194C11.8158 11.7727 10.0419 9.99806 9.90275 7.78662H7.31738C7.46105 11.4244 10.3859 14.3487 14.0297 14.4999V11.9194Z" fill="#797979" />
</svg>
