<svg width="19" height="11" viewBox="0 0 19 11" fill="none" xmlns="http://www.w3.org/2000/svg">
<g clip-path="url(#clip0_202_7733)">
<path d="M11.014 3.47046L7.57368 4.59661L6.86829 3.89122L9.98686 1.20578H11.3976L13.6623 2.33193L15.5434 2.70319V7.60381L14.0336 7.97507H10.5437" stroke="#160F26" stroke-width="0.75"/>
<path d="M2.72253 6.86128L4.67783 7.23254L7.66028 10.2026L8.94731 9.97986L9.17006 8.69283L10.4571 8.47007L10.6799 7.18304L11.9669 6.96028L12.1896 5.67325L10.2343 3.71796" stroke="#160F26" stroke-width="0.75"/>
<path d="M8.76176 2.27005L7.3386 0.846893L4.61603 1.97305L2.73499 2.3443" stroke="#160F26" stroke-width="0.75"/>
<path d="M2.72252 1.21817H0.470215V7.99983H2.73489V1.21817H2.72252Z" stroke="#160F26" stroke-width="0.75"/>
<path d="M17.7957 1.97305H15.531V8.75472H17.7957V1.97305Z" stroke="#160F26" stroke-width="0.75"/>
</g>
<defs>
<clipPath id="clip0_202_7733">
<rect width="18.2536" height="10.42" fill="white" transform="translate(0 0.290009)"/>
</clipPath>
</defs>
</svg>
