<svg width="16" height="11" viewBox="0 0 16 11" fill="none" xmlns="http://www.w3.org/2000/svg">
	<path d="M6.805 0.693223L5.5275 1.97072C5.145 2.07572 4.79 2.26822 4.49 2.53322L3.825 3.12572C3.57 3.35322 3.2375 3.47822 2.895 3.47822H2.4V6.67822C2.91 6.69322 3.395 6.90072 3.7575 7.26322L4.6475 8.15322L4.8225 8.32822L5.4975 9.00322C5.6525 9.15822 5.9075 9.15822 6.0625 9.00322C6.105 8.96072 6.1375 8.91072 6.155 8.85822C6.225 8.66572 6.3875 8.52072 6.5875 8.47572C6.7875 8.43072 6.9975 8.49072 7.1425 8.63822L7.4125 8.90322C7.7025 9.19322 8.1725 9.19322 8.46 8.90322C8.595 8.76822 8.6675 8.59572 8.675 8.41822C8.685 8.19822 8.815 8.00322 9.015 7.90822C9.215 7.81322 9.4475 7.83322 9.625 7.96072C9.86 8.12822 10.1875 8.10572 10.3975 7.89572C10.6325 7.66072 10.6325 7.28072 10.3975 7.04822L8.5025 5.15322L7.6075 5.97822C6.925 6.60822 5.8775 6.61822 5.1825 6.00072C4.39 5.29572 4.3725 4.06572 5.1425 3.33822L6.895 1.68322C7.58 1.03822 8.485 0.678223 9.4275 0.678223C10.33 0.678223 11.2025 1.01072 11.875 1.60822L12.6275 2.27822H13.6H14.6H15.6C15.82 2.27822 16 2.45822 16 2.67822V7.87822C16 8.32072 15.6425 8.67822 15.2 8.67822H14.4C14.105 8.67822 13.845 8.51822 13.7075 8.27822H11.585C11.5 8.44572 11.3875 8.60572 11.2475 8.74572C10.82 9.17322 10.2275 9.34072 9.6725 9.24822C9.5825 9.43072 9.46 9.60072 9.3075 9.75322C8.625 10.4357 7.5575 10.5032 6.7975 9.95572C6.17 10.4757 5.235 10.4432 4.6475 9.85322L3.975 9.17822L3.8 9.00322L2.91 8.11322C2.7725 7.97572 2.5925 7.89572 2.4 7.88072C2.4 8.32072 2.04 8.67822 1.6 8.67822H0.8C0.3575 8.67822 0 8.32072 0 7.87822V2.67822C0 2.45822 0.18 2.27822 0.4 2.27822H1.4H2.4H2.895C2.945 2.27822 2.9925 2.26072 3.0275 2.22822L3.69 1.63822C4.3875 1.02072 5.285 0.678223 6.2175 0.678223H6.475C6.585 0.678223 6.6975 0.683223 6.805 0.693223ZM13.6 7.07822V3.47822H12.4C12.2525 3.47822 12.11 3.42322 12.0025 3.32572L11.08 2.50572C10.625 2.10072 10.0375 1.87822 9.4275 1.87822C8.7925 1.87822 8.1825 2.12072 7.72 2.55572L5.9675 4.21072C5.71 4.45572 5.715 4.86822 5.98 5.10322C6.2125 5.31072 6.565 5.30572 6.7925 5.09572L8.59 3.43572C8.8325 3.21072 9.2125 3.22572 9.4375 3.47072C9.6625 3.71572 9.6475 4.09322 9.4025 4.31822L9.3825 4.33822L11.2425 6.19822C11.4925 6.44822 11.655 6.75572 11.7275 7.07572H13.6V7.07822ZM1.6 7.47822C1.6 7.37214 1.55786 7.27039 1.48284 7.19538C1.40783 7.12037 1.30609 7.07822 1.2 7.07822C1.09391 7.07822 0.992172 7.12037 0.917157 7.19538C0.842143 7.27039 0.8 7.37214 0.8 7.47822C0.8 7.58431 0.842143 7.68605 0.917157 7.76107C0.992172 7.83608 1.09391 7.87822 1.2 7.87822C1.30609 7.87822 1.40783 7.83608 1.48284 7.76107C1.55786 7.68605 1.6 7.58431 1.6 7.47822ZM14.8 7.87822C14.9061 7.87822 15.0078 7.83608 15.0828 7.76107C15.1579 7.68605 15.2 7.58431 15.2 7.47822C15.2 7.37214 15.1579 7.27039 15.0828 7.19538C15.0078 7.12037 14.9061 7.07822 14.8 7.07822C14.6939 7.07822 14.5922 7.12037 14.5172 7.19538C14.4421 7.27039 14.4 7.37214 14.4 7.47822C14.4 7.58431 14.4421 7.68605 14.5172 7.76107C14.5922 7.83608 14.6939 7.87822 14.8 7.87822Z" fill="#797979" />
</svg>
