<svg width="13" height="15" viewBox="0 0 13 15" fill="none" xmlns="http://www.w3.org/2000/svg">
	<path d="M8.69653 10.6699C10.0171 9.8142 10.8911 8.32152 10.8911 6.6238C10.8911 3.96651 8.74554 1.81224 6.09901 1.81224C3.45248 1.81224 1.30693 3.96651 1.30693 6.6238C1.30693 8.32152 2.18094 9.81146 3.50148 10.6699C3.53416 11.1428 3.6104 11.7087 3.69752 12.2309L3.70297 12.2583C1.52475 11.3205 0 9.15261 0 6.6238C0 3.24204 2.73094 0.5 6.09901 0.5C9.46708 0.5 12.198 3.24204 12.198 6.6238C12.198 9.15261 10.6733 11.3233 8.49505 12.2583L8.50049 12.2282C8.5849 11.7033 8.66386 11.1401 8.69653 10.6699ZM8.63391 9.6283C8.59035 9.47247 8.52772 9.32484 8.44332 9.18541C8.2854 8.92023 8.07574 8.72066 7.84703 8.57303C8.37797 8.09188 8.71287 7.39748 8.71287 6.6238C8.71287 5.17487 7.54208 3.99932 6.09901 3.99932C4.65594 3.99932 3.48515 5.17487 3.48515 6.6238C3.48515 7.39748 3.82005 8.09461 4.35099 8.57303C4.12228 8.72066 3.91262 8.92023 3.7547 9.18541C3.6703 9.32484 3.60767 9.47247 3.56411 9.6283C2.71733 8.90656 2.17822 7.82669 2.17822 6.6238C2.17822 4.4504 3.93441 2.68707 6.09901 2.68707C8.26361 2.68707 10.0198 4.4504 10.0198 6.6238C10.0198 7.82669 9.48069 8.90656 8.63391 9.6283ZM6.09901 9.02958C6.9948 9.02958 7.84158 9.26469 7.84158 10.227C7.84158 11.1292 7.49035 13.0729 7.28069 13.8603C7.14183 14.3797 6.61361 14.5 6.09901 14.5C5.58441 14.5 5.05891 14.3797 4.91733 13.8603C4.70495 13.0811 4.35644 11.1346 4.35644 10.2297C4.35644 9.27016 5.20322 9.03232 6.09901 9.03232V9.02958ZM6.09901 5.09285C6.5034 5.09285 6.89123 5.25415 7.17717 5.54126C7.46312 5.82837 7.62376 6.21777 7.62376 6.6238C7.62376 7.02984 7.46312 7.41924 7.17717 7.70635C6.89123 7.99346 6.5034 8.15476 6.09901 8.15476C5.69462 8.15476 5.30679 7.99346 5.02085 7.70635C4.7349 7.41924 4.57426 7.02984 4.57426 6.6238C4.57426 6.21777 4.7349 5.82837 5.02085 5.54126C5.30679 5.25415 5.69462 5.09285 6.09901 5.09285Z" fill="#797979" />
</svg>
