<svg width="16" height="15" viewBox="0 0 16 15" fill="none" xmlns="http://www.w3.org/2000/svg">
	<path d="M5.25 2C4.83437 2 4.5 2.33438 4.5 2.75V12.25C4.5 12.5125 4.45625 12.7656 4.37187 13H13.75C14.1656 13 14.5 12.6656 14.5 12.25V2.75C14.5 2.33438 14.1656 2 13.75 2H5.25ZM2.25 14.5C1.00625 14.5 0 13.4937 0 12.25V3C0 2.58437 0.334375 2.25 0.75 2.25C1.16562 2.25 1.5 2.58437 1.5 3V12.25C1.5 12.6656 1.83438 13 2.25 13C2.66563 13 3 12.6656 3 12.25V2.75C3 1.50625 4.00625 0.5 5.25 0.5H13.75C14.9937 0.5 16 1.50625 16 2.75V12.25C16 13.4937 14.9937 14.5 13.75 14.5H2.25ZM5.5 3.75C5.5 3.33437 5.83437 3 6.25 3H9.25C9.66562 3 10 3.33437 10 3.75V6.25C10 6.66563 9.66562 7 9.25 7H6.25C5.83437 7 5.5 6.66563 5.5 6.25V3.75ZM11.75 3H12.75C13.1656 3 13.5 3.33437 13.5 3.75C13.5 4.16563 13.1656 4.5 12.75 4.5H11.75C11.3344 4.5 11 4.16563 11 3.75C11 3.33437 11.3344 3 11.75 3ZM11.75 5.5H12.75C13.1656 5.5 13.5 5.83437 13.5 6.25C13.5 6.66563 13.1656 7 12.75 7H11.75C11.3344 7 11 6.66563 11 6.25C11 5.83437 11.3344 5.5 11.75 5.5ZM6.25 8H12.75C13.1656 8 13.5 8.33437 13.5 8.75C13.5 9.16562 13.1656 9.5 12.75 9.5H6.25C5.83437 9.5 5.5 9.16562 5.5 8.75C5.5 8.33437 5.83437 8 6.25 8ZM6.25 10.5H12.75C13.1656 10.5 13.5 10.8344 13.5 11.25C13.5 11.6656 13.1656 12 12.75 12H6.25C5.83437 12 5.5 11.6656 5.5 11.25C5.5 10.8344 5.83437 10.5 6.25 10.5Z" fill="#797979" />
</svg>
