<svg width="207" height="22" viewBox="0 0 207 22" fill="none" xmlns="http://www.w3.org/2000/svg">
<path d="M187.141 8.36739H187.357C188.061 6.17416 189.686 4.82031 192.041 4.82031C194.587 4.82031 195.832 6.33662 196.103 8.584H196.347C196.915 6.30954 198.432 4.82031 201.085 4.82031C204.009 4.82031 205.363 6.7157 205.363 9.47754V17.7089H203.495V9.8837C203.495 7.98831 202.656 6.52616 200.462 6.52616C197.89 6.52616 196.265 8.09662 196.265 10.4523V17.7089H194.397V9.8837C194.397 7.98831 193.558 6.52616 191.365 6.52616C188.846 6.52616 187.168 8.09662 187.168 10.4523V17.7089H185.299V5.11816H187.141V8.36739Z" fill="white"/>
<path d="M178.334 8.50242H178.497C179.092 6.0655 180.473 4.98242 182.504 4.98242H183.018V7.01319H182.423C179.634 7.01319 178.388 8.20458 178.388 11.2372V17.7086H176.52V5.11781H178.334V8.50242Z" fill="white"/>
<path d="M167.55 18.0068C163.57 18.0068 161.323 15.4615 161.323 11.3729C161.323 7.25724 163.814 4.82031 167.55 4.82031C171.287 4.82031 173.778 7.25724 173.778 11.3729C173.778 15.4615 171.504 18.0068 167.55 18.0068ZM167.55 6.472C164.734 6.472 163.191 8.31324 163.191 11.3459C163.191 14.3785 164.599 16.3551 167.523 16.3551C170.448 16.3551 171.91 14.3785 171.91 11.3459C171.91 8.31324 170.366 6.472 167.55 6.472Z" fill="white"/>
<path d="M156.311 4.27815V5.11754H160.481V6.71508H156.311V17.7083H154.47V6.71508H152.033V5.11754H154.47V4.25108C154.47 1.67877 155.796 0 158.477 0C159.398 0 160.047 0.135384 160.562 0.243692L160.454 1.70585C159.831 1.59754 159.289 1.51631 158.694 1.51631C156.961 1.51631 156.311 2.51815 156.311 4.27815Z" fill="white"/>
<path d="M142.593 5.11659H144.651V1.48828H146.492V5.11659H150.77V6.71413H146.492V13.8895C146.492 15.46 147.115 16.2723 148.631 16.2723C149.335 16.2723 149.876 16.164 150.635 15.9474L150.905 17.5991C150.066 17.8698 149.362 18.0052 148.306 18.0052C145.788 18.0052 144.651 16.3535 144.651 14.0249V6.71413H142.593V5.11659Z" fill="white"/>
<path d="M133.865 17.978C131.401 17.978 129.884 16.922 129.884 14.5122C129.884 12.4272 131.292 10.8297 134.298 10.8297H138.63V9.66539C138.63 7.58047 137.818 6.41616 135.543 6.41616C133.648 6.41616 132.592 7.36386 132.159 9.20509L130.372 8.74478C130.94 6.28078 132.727 4.8457 135.57 4.8457C138.982 4.8457 140.471 6.52447 140.471 9.63832V17.7072H138.711V14.7017H138.495C137.845 16.8408 136.166 17.978 133.865 17.978ZM138.63 12.2106H134.514C132.7 12.2106 131.698 12.9417 131.698 14.3497C131.698 15.4328 132.375 16.4346 134.379 16.4346C136.951 16.4346 138.63 14.9995 138.63 13.0771V12.2106Z" fill="white"/>
<path d="M126.935 0.324219V17.7076H125.094V0.324219H126.935Z" fill="white"/>
<path d="M122.192 11.4271C122.192 15.6782 120.324 18.0068 117.237 18.0068C114.665 18.0068 113.04 16.4363 112.445 14.2702H112.309V21.8517H110.441V5.11816H112.309V8.50277H112.472C113.094 6.3637 114.53 4.82031 117.102 4.82031C120.405 4.82031 122.192 7.176 122.192 11.4271ZM112.309 11.9145C112.309 14.5409 113.934 16.3551 116.452 16.3551C119.051 16.3551 120.324 14.7305 120.324 11.4271C120.324 8.09662 119.078 6.52616 116.452 6.52616C113.934 6.52616 112.309 8.232 112.309 10.9668V11.9145Z" fill="white"/>
<g clip-path="url(#clip0_461_1051)">
<path d="M18.0094 10.8884L18.0378 10.8997L18.0663 10.9111L18.0931 10.9241L18.1199 10.9387L18.1459 10.9534L18.1719 10.9696L18.1963 10.9883L18.2198 11.0061L18.2418 11.0265L18.2645 11.0468L18.2857 11.0695L18.3052 11.0914L18.3247 11.1158L18.3417 11.1402L18.3588 11.1662L18.3734 11.1913L18.3872 11.219L18.4002 11.2458L18.4116 11.2734L18.423 11.3018L18.4311 11.331L18.4392 11.3595L18.4449 11.3903L18.4506 11.4196L18.4539 11.4504L18.4555 11.4797L18.4563 11.5097L18.4555 11.5406L18.4539 11.5707L18.4506 11.6007L18.4449 11.6308L18.4392 11.66L18.4311 11.6901L18.423 11.7185L18.4116 11.7477L18.4002 11.7753L18.3872 11.8021L18.3734 11.8289L18.3588 11.8549L18.3417 11.8809L18.3247 11.9053L18.3052 11.928L18.2857 11.9516L18.2645 11.9727L18.2418 11.9946L18.2198 12.015L18.1963 12.0328L18.1719 12.0499L18.1459 12.0677L18.1199 12.0824L18.0931 12.097L18.0663 12.1092L18.0378 12.1214L18.0094 12.1311L17.9809 12.1408L17.9517 12.1473L17.9224 12.1547L17.8916 12.1587L17.8623 12.162L17.8314 12.1652H17.8265L17.8574 12.1644L17.9127 12.162L17.9679 12.1587L18.0232 12.1538L18.0776 12.1465L18.1329 12.1384L18.1873 12.1295L18.2418 12.1181L18.2954 12.1059L18.3499 12.0921L18.4035 12.0767L18.4563 12.0596L18.5083 12.0418L18.5603 12.0223L18.6115 12.0011L18.6627 11.9792L18.7131 11.9557L18.7627 11.9305L18.8114 11.9045L18.8594 11.8769L18.9065 11.8476L18.9536 11.8184L18.9991 11.7875L19.0446 11.7542L19.0885 11.7201L19.1316 11.686L19.1738 11.6494L19.2153 11.6121L19.2551 11.5747L19.2949 11.5349L19.3331 11.4951L19.3697 11.4537L19.4054 11.4115L19.4404 11.3684L19.4745 11.3237L19.507 11.2791L19.5379 11.2336L19.5688 11.1865L19.5972 11.1394L19.6248 11.0906L19.6516 11.0419L19.676 10.9932L19.6996 10.9428L19.7215 10.8916L19.7427 10.8404L19.7622 10.7885L19.7809 10.7357L19.7971 10.6829L19.8125 10.6293L19.8264 10.5757L19.8385 10.522L19.8499 10.4668L19.8597 10.4124L19.8678 10.358L19.8735 10.3027L19.8792 10.2475L19.8832 10.1915L19.8849 10.1362L19.8857 10.081L19.8849 10.0258L19.8832 9.96972L19.8792 9.91449L19.8735 9.85926L19.8678 9.80484L19.8597 9.74961L19.8499 9.69437L19.8385 9.64077L19.8264 9.58635L19.8158 9.54492H17.8404L17.8014 9.54573H13.1289L17.9753 10.8786L18.0094 10.8884Z" fill="white"/>
<path d="M21.074 11.3717L21.0699 11.3018L21.065 11.2328L21.0585 11.1629L21.0504 11.0939L21.0415 11.0256L21.0301 10.9566L21.0171 10.8884L21.0041 10.8201L20.9887 10.7527L20.9716 10.6853L20.9537 10.6179L20.9334 10.5513L20.9123 10.4855L20.8903 10.4189L20.8659 10.3539L20.8408 10.2897L20.8139 10.2248L20.7863 10.1614L20.7571 10.0981L20.727 10.0355L20.6945 9.9746L20.6612 9.91287L20.6262 9.85276L20.5905 9.79266L20.5539 9.73417L20.5149 9.67569L20.4759 9.61884L20.4353 9.56279L20.4215 9.54492H19.8161L19.8266 9.58635L19.8388 9.64077L19.8502 9.69437L19.8599 9.74961L19.8681 9.80484L19.8738 9.85926L19.8795 9.91449L19.8835 9.96972L19.8851 10.0258L19.886 10.081L19.8851 10.1362L19.8835 10.1915L19.8795 10.2475L19.8738 10.3027L19.8681 10.358L19.8599 10.4124L19.8502 10.4668L19.8388 10.522L19.8266 10.5757L19.8128 10.6293L19.7974 10.6829L19.7811 10.7357L19.7624 10.7885L19.7429 10.8404L19.7218 10.8916L19.6999 10.9428L19.6763 10.9932L19.6519 11.0419L19.6251 11.0906L19.5975 11.1394L19.569 11.1865L19.5382 11.2336L19.5073 11.2791L19.4748 11.3237L19.4406 11.3684L19.4057 11.4115L19.37 11.4537L19.3334 11.4951L19.2952 11.5349L19.2554 11.5747L19.2156 11.6121L19.1741 11.6494L19.1319 11.686L19.0888 11.7201L19.0449 11.7542L18.9994 11.7875L18.9539 11.8184L18.9068 11.8476L18.8596 11.8769L18.8117 11.9045L18.7629 11.9305L18.7134 11.9557L18.663 11.9792L18.6118 12.0011L18.5606 12.0223L18.5086 12.0418L18.4566 12.0596L18.4038 12.0767L18.3501 12.0921L18.2957 12.1059L18.2421 12.1181L18.1876 12.1295L18.1332 12.1384L18.0779 12.1465L18.0235 12.1538L17.9682 12.1587L17.913 12.162L17.8577 12.1644L17.8016 12.1652H0.769531V14.7855H17.8016L17.8715 14.7847L17.9406 14.7831L18.0105 14.779L18.0795 14.7733L18.1486 14.7668L18.2177 14.7595L18.2868 14.749L18.355 14.7384L18.4233 14.7262L18.4915 14.7116L18.5598 14.6962L18.6264 14.6799L18.6939 14.6612L18.7613 14.6417L18.8271 14.6214L18.893 14.5979L18.958 14.5743L19.023 14.5491L19.0872 14.5232L19.1505 14.4955L19.2139 14.4655L19.2765 14.4346L19.3383 14.4029L19.3992 14.3696L19.4593 14.3355L19.5195 14.299L19.5772 14.2624L19.6357 14.2243L19.6934 14.1845L19.7494 14.1438L19.8047 14.1016L19.8591 14.0586L19.9136 14.0139L19.9664 13.9684L20.0176 13.9229L20.068 13.875L20.1175 13.8263L20.1663 13.7767L20.2134 13.7255L20.2606 13.6744L20.3061 13.6216L20.3499 13.568L20.393 13.5135L20.4353 13.4575L20.4759 13.4015L20.5149 13.3446L20.5539 13.2861L20.5905 13.2276L20.6262 13.1675L20.6612 13.1074L20.6945 13.0465L20.727 12.9848L20.7571 12.9222L20.7863 12.8597L20.8139 12.7955L20.8408 12.7314L20.8659 12.6672L20.8903 12.6014L20.9123 12.5356L20.9334 12.4698L20.9537 12.4024L20.9716 12.3358L20.9887 12.2684L21.0041 12.2001L21.0171 12.1327L21.0301 12.0645L21.0415 11.9955L21.0504 11.9264L21.0585 11.8574L21.065 11.7883L21.0699 11.7185L21.074 11.6494L21.0764 11.5804L21.0772 11.5105L21.0764 11.4407L21.074 11.3717Z" fill="#FA6863"/>
<path d="M3.83723 10.1667L3.80879 10.1561L3.78035 10.1447L3.75353 10.1317L3.72591 10.1171L3.70071 10.1017L3.67471 10.0854L3.65033 10.0676L3.62677 10.0489L3.60402 10.0286L3.58207 10.0083L3.56095 9.98634L3.54144 9.9636L3.52194 9.93923L3.50488 9.91486L3.48781 9.88968L3.47319 9.8645L3.45937 9.83689L3.44556 9.80927L3.43499 9.78247L3.42362 9.75404L3.41549 9.72399L3.40737 9.69556L3.40087 9.6655L3.39599 9.63626L3.39274 9.6054L3.39111 9.57616L3.3903 9.54529L3.39111 9.51524L3.39274 9.48437L3.39599 9.45513L3.40087 9.42508L3.40737 9.39503L3.41549 9.36579L3.42362 9.33736L3.43499 9.30812L3.44556 9.2805L3.45937 9.25289L3.47319 9.22689L3.48781 9.20009L3.50488 9.17491L3.52194 9.15054L3.54144 9.12699L3.56095 9.10425L3.58207 9.08231L3.60402 9.0612L3.62677 9.04089L3.65033 9.02302L3.67471 9.00515L3.70071 8.98809L3.72591 8.97266L3.75353 8.95885L3.78035 8.94667L3.80879 8.93449L3.83723 8.92393L3.86567 8.91499L3.89493 8.90768L3.92418 8.90118L3.95506 8.89712L3.98431 8.89387L4.01438 8.89062H4.02007H3.98919L3.93393 8.89306L3.87867 8.89712L3.82342 8.902L3.76897 8.90849L3.71372 8.91662L3.65846 8.92636L3.60483 8.93692L3.55038 8.94992L3.49675 8.96373L3.44312 8.97916L3.3903 8.99622L3.33829 9.01409L3.28548 9.03277L3.23509 9.05389L3.1839 9.07663L3.13352 9.10018L3.08395 9.12536L3.03438 9.15136L2.98725 9.17816L2.94012 9.2074L2.89299 9.23745L2.84667 9.26832L2.80198 9.30162L2.75729 9.33492L2.71503 9.36985L2.67278 9.40559L2.63133 9.44295L2.59152 9.48113L2.5517 9.52011L2.51351 9.56073L2.47694 9.60134L2.44037 9.64357L2.40624 9.68744L2.3713 9.7313L2.33961 9.77597L2.30792 9.82227L2.27785 9.86857L2.24941 9.91649L2.22178 9.96441L2.19497 10.014L2.17059 10.0627L2.14702 10.1131L2.12508 10.1642L2.10396 10.2154L2.08445 10.2674L2.06576 10.3202L2.04951 10.373L2.03407 10.4266L2.02026 10.4794L2.00807 10.5338L1.99669 10.5882L1.98694 10.6434L1.97881 10.6979L1.97313 10.7531L1.96744 10.8075L1.96338 10.8636L1.96175 10.9188L1.96094 10.974L1.96175 11.0301L1.96338 11.0853L1.96744 11.1405L1.97313 11.1958L1.97881 11.251L1.98694 11.3062L1.99669 11.3607L2.00807 11.4151L2.02026 11.4687L2.03082 11.5109H4.00625L4.04526 11.5101H8.71771L3.87136 10.1772L3.83723 10.1667Z" fill="white"/>
<path d="M0.772782 9.68339L0.776032 9.75324L0.78172 9.82228L0.788221 9.89132L0.796347 9.96036L0.805286 10.0294L0.816662 10.0976L0.828851 10.1667L0.842665 10.2349L0.858105 10.3023L0.875169 10.3697L0.893046 10.4371L0.913361 10.5038L0.934489 10.5695L0.956429 10.6353L0.980807 10.7011L1.006 10.7653L1.03281 10.8303L1.06044 10.8936L1.0897 10.957L1.11976 11.0187L1.15227 11.0804L1.18558 11.1422L1.22052 11.2023L1.25628 11.2616L1.29285 11.3201L1.33104 11.3785L1.37086 11.4362L1.41149 11.4923L1.4253 11.5101H2.03069L2.02012 11.4679L2.00793 11.4143L1.99656 11.3599L1.98681 11.3054L1.97868 11.2502L1.97299 11.195L1.9673 11.1397L1.96324 11.0845L1.96162 11.0293L1.9608 10.9732L1.96162 10.918L1.96324 10.8628L1.9673 10.8067L1.97299 10.7523L1.97868 10.6971L1.98681 10.6426L1.99656 10.5874L2.00793 10.533L2.02012 10.4786L2.03394 10.4258L2.04938 10.3722L2.06563 10.3194L2.08432 10.2666L2.10382 10.2146L2.12495 10.1634L2.14689 10.1123L2.17045 10.0619L2.19483 10.0132L2.22165 9.96361L2.24928 9.91569L2.27772 9.86777L2.30778 9.82147L2.33947 9.77517L2.37117 9.7305L2.40611 9.68664L2.44024 9.64278L2.4768 9.60054L2.51337 9.55993L2.55156 9.51931L2.59138 9.48033L2.6312 9.44215L2.67264 9.40479L2.7149 9.36905L2.75715 9.33412L2.80184 9.30082L2.84654 9.26752L2.89286 9.23665L2.93999 9.2066L2.98712 9.17736L3.03425 9.15056L3.08382 9.12456L3.13339 9.09938L3.18377 9.07583L3.23496 9.05309L3.28534 9.03197L3.33816 9.01329L3.39017 8.99542L3.44299 8.97836L3.49662 8.96293L3.55025 8.94912L3.60469 8.93612L3.65833 8.92556L3.71358 8.91582L3.76884 8.9077L3.82328 8.9012L3.87854 8.89632L3.9338 8.89226L3.98905 8.88983L4.04512 8.88901H21.0772V6.26953H4.04512L3.97524 6.27034L3.90617 6.27197L3.83628 6.27603L3.76721 6.2809L3.69733 6.2874L3.62907 6.29552L3.56 6.30527L3.49174 6.31583L3.42348 6.32882L3.35441 6.34263L3.28697 6.35807L3.21952 6.37512L3.15289 6.39299L3.08544 6.4133L3.01962 6.4336L2.9538 6.45635L2.88879 6.4799L2.82378 6.50589L2.75959 6.53189L2.69621 6.5595L2.63282 6.58955L2.57025 6.62042L2.5085 6.65129L2.44755 6.6854L2.38742 6.71951L2.32729 6.75525L2.26878 6.79262L2.21027 6.83079L2.15339 6.87059L2.09732 6.9112L2.04125 6.95263L1.98762 6.99568L1.93317 7.04035L1.88036 7.08583L1.82916 7.13213L1.77878 7.18006L1.72921 7.22798L1.68046 7.27834L1.63251 7.32951L1.58619 7.38068L1.54069 7.43348L1.49681 7.48708L1.45374 7.5415L1.41149 7.59674L1.37086 7.65359L1.33104 7.71045L1.29285 7.76812L1.25628 7.82741L1.22052 7.88752L1.18558 7.94762L1.15227 8.00773L1.11976 8.06946L1.0897 8.13282L1.06044 8.19536L1.03281 8.25953L1.006 8.32288L0.980807 8.38786L0.956429 8.45284L0.934489 8.51863L0.913361 8.58523L0.893046 8.65184L0.875169 8.71925L0.858105 8.78667L0.842665 8.8549L0.828851 8.92232L0.816662 8.99054L0.805286 9.05958L0.796347 9.12863L0.788221 9.19767L0.78172 9.26671L0.776032 9.33575L0.772782 9.40479L0.769531 9.47464V9.54449V9.61435L0.772782 9.68339Z" fill="#F18046"/>
<path d="M3.83723 4.27294L3.80879 4.26157L3.78035 4.24938L3.75272 4.2372L3.72672 4.22258L3.6999 4.20796L3.67471 4.19172L3.65033 4.17303L3.62596 4.15516L3.6032 4.13486L3.58126 4.11455L3.56095 4.09181L3.54144 4.06988L3.52194 4.04551L3.50407 4.02114L3.48781 3.99515L3.47237 3.96916L3.45856 3.94236L3.44475 3.91555L3.43418 3.88794L3.42362 3.8587L3.41468 3.83027L3.40737 3.80184L3.40087 3.77097L3.39599 3.74173L3.39193 3.71087L3.39111 3.68081L3.3903 3.64995L3.39111 3.6199L3.39193 3.59066L3.39599 3.5606L3.40087 3.53055L3.40737 3.50131L3.41468 3.47126L3.42362 3.44202L3.43418 3.41359L3.44475 3.38597L3.45856 3.35917L3.47237 3.33155L3.48781 3.30637L3.50407 3.28038L3.52194 3.25601L3.54144 3.23327L3.56095 3.20971L3.58126 3.18697L3.6032 3.16666L3.62596 3.14636L3.65033 3.12849L3.67471 3.11143L3.6999 3.09356L3.72672 3.07894L3.75272 3.06432L3.78035 3.05133L3.80879 3.03995L3.83723 3.03021L3.86567 3.02046L3.89493 3.01234L3.92499 3.00665L3.95425 3.00178L3.98431 2.99853L4.01519 2.99609H4.02494H3.98919L3.93393 2.99853L3.87867 3.00259L3.82342 3.00747L3.76897 3.01478L3.71372 3.0229L3.65846 3.03183L3.60483 3.0432L3.55038 3.05539L3.49675 3.0692L3.44312 3.08463L3.3903 3.10169L3.33829 3.11955L3.28548 3.13905L3.23509 3.15935L3.1839 3.1821L3.13352 3.20565L3.08395 3.23083L3.03438 3.25682L2.98725 3.28363L2.93931 3.31287L2.89299 3.34292L2.84667 3.37379L2.80198 3.40709L2.75729 3.44039L2.71422 3.47532L2.67278 3.51187L2.63133 3.54842L2.5907 3.58659L2.5517 3.62558L2.51351 3.66619L2.47694 3.70762L2.44037 3.74986L2.40624 3.7929L2.3713 3.83758L2.33961 3.88225L2.30792 3.92774L2.27785 3.97403L2.24941 4.02196L2.22178 4.06988L2.19497 4.11943L2.17059 4.16816L2.14702 4.21852L2.12508 4.26969L2.10396 4.32086L2.08445 4.37285L2.06576 4.42564L2.04951 4.47844L2.03407 4.53204L2.02026 4.58565L2.00726 4.63926L1.99669 4.69368L1.98694 4.74891L1.97881 4.80333L1.97231 4.85857L1.96744 4.91299L1.96338 4.96903L1.96175 5.02508L1.96094 5.08031L1.96175 5.13554L1.96338 5.19159L1.96744 5.24682L1.97231 5.30205L1.97881 5.35647L1.98694 5.4117L1.99669 5.46694L2.00726 5.52054L2.02026 5.57496L2.03407 5.62857L2.04951 5.68137L2.06576 5.73498L2.08445 5.78696L2.10396 5.83894L2.12508 5.89011L2.14702 5.94129L2.17059 5.99164L2.19497 6.04119L2.21122 6.06962L2.21284 6.06881L2.2811 6.03388L2.34936 6.00058L2.41843 5.96809L2.48831 5.93804L2.5582 5.90717L2.62971 5.87956L2.7004 5.85356L2.77273 5.82676L2.84505 5.80402L2.91818 5.78127L2.99131 5.76016L3.06445 5.73985L3.1384 5.72117L3.21315 5.70492L3.28791 5.6903L3.36186 5.67568L3.43743 5.6635L3.513 5.65213L3.58858 5.64238L3.66496 5.63426L3.74053 5.62776L3.81692 5.62207L3.89168 5.61883L3.96969 5.6172L4.04526 5.61558H8.71771L3.87055 4.28269L3.83723 4.27294Z" fill="white"/>
<path d="M17.8014 18.0634H17.8574L17.9127 18.0602L17.9679 18.0569L18.0232 18.0521L18.0785 18.0448L18.1337 18.0366L18.1882 18.0277L18.2426 18.0163L18.2962 18.0041L18.3507 17.9903L18.4035 17.9749L18.4563 17.9578L18.5091 17.94L18.5611 17.9205L18.6115 17.8994L18.6627 17.8774L18.7131 17.8539L18.7627 17.8287L18.8122 17.8027L18.8602 17.7751L18.9073 17.7458L18.9536 17.7158L18.9999 17.6849L19.0454 17.6524L19.0893 17.6183L19.1324 17.5842L19.1747 17.5477L19.2153 17.5103L19.2559 17.4729L19.2949 17.4331L19.3331 17.3933L19.3705 17.3519L19.4062 17.3097L19.4412 17.2666L19.4753 17.2219L19.507 17.1773L19.5387 17.1318L19.5688 17.0847L19.5972 17.0376L19.6248 16.9888L19.6516 16.9401L19.6768 16.8906L19.7004 16.841L19.7215 16.7898L19.7435 16.7379L19.7622 16.6867L19.7809 16.6339L19.7979 16.5811L19.8125 16.5275L19.8272 16.4739L19.8394 16.4203L19.8499 16.365L19.8597 16.3106L19.8678 16.2562L19.8743 16.2001L19.88 16.1457L19.8832 16.0897L19.8857 16.0345V15.9792V15.924L19.8832 15.8679L19.88 15.8127L19.8743 15.7575L19.8678 15.7031L19.8597 15.6478L19.8499 15.5926L19.8394 15.539L19.8272 15.4846L19.8125 15.431L19.7979 15.3782L19.7809 15.3245L19.7622 15.2718L19.7435 15.2206L19.7215 15.1694L19.7004 15.1182L19.6768 15.0679L19.6516 15.0183L19.6354 14.9883L19.6338 14.9891L19.5655 15.024L19.4973 15.0573L19.4282 15.0898L19.3583 15.1207L19.2876 15.1499L19.2169 15.1783L19.1462 15.2043L19.0739 15.2303L19.0008 15.2547L18.9284 15.2766L18.8561 15.2977L18.7814 15.3181L18.7082 15.3359L18.6335 15.353L18.5587 15.3684L18.4839 15.3822L18.4092 15.3944L18.3336 15.4058L18.258 15.4155L18.1825 15.4236L18.1061 15.4301L18.0297 15.435L17.9533 15.4391L17.8777 15.4415L17.8014 15.4423H13.1289L17.9753 16.7752L18.0094 16.7858L18.0378 16.7963L18.0663 16.8077L18.0931 16.8207L18.1199 16.8353L18.1459 16.8508L18.1719 16.867L18.1963 16.8849L18.2198 16.9035L18.2418 16.9239L18.2645 16.9442L18.2857 16.9661L18.3052 16.9888L18.3247 17.0132L18.3417 17.0376L18.3588 17.0627L18.3734 17.0879L18.3872 17.1155L18.4002 17.1432L18.4116 17.17L18.423 17.1984L18.4311 17.2284L18.4392 17.2569L18.4449 17.2869L18.4506 17.3162L18.4539 17.347L18.4555 17.3763L18.4563 17.4071L18.4555 17.4372L18.4539 17.4681L18.4506 17.4973L18.4449 17.5274L18.4392 17.5574L18.4311 17.5866L18.423 17.6151L18.4116 17.6443L18.4002 17.6719L18.3872 17.6995L18.3734 17.7255L18.3588 17.7523L18.3417 17.7775L18.3247 17.8019L18.3052 17.8254L18.2857 17.8482L18.2645 17.8701L18.2418 17.8912L18.2198 17.9115L18.1963 17.9294L18.1719 17.9473L18.1459 17.9643L18.1199 17.9798L18.0931 17.9936L18.0663 18.0058L18.0378 18.0179L18.0094 18.0285L17.9809 18.0374L17.9517 18.0448L17.9224 18.0512L17.8916 18.0553L17.8623 18.0586L17.8314 18.0618L17.8014 18.0626" fill="white"/>
<path d="M21.074 17.267L21.0707 17.198L21.0658 17.1289L21.0585 17.0591L21.0512 16.99L21.0415 16.9218L21.0301 16.8528L21.0179 16.7845L21.0041 16.7163L20.9887 16.6481L20.9716 16.5815L20.9537 16.5141L20.9342 16.4467L20.9131 16.3817L20.8903 16.3151L20.8659 16.2501L20.8416 16.1859L20.8148 16.1209L20.7863 16.0576L20.7579 15.9942L20.727 15.9317L20.6945 15.8708L20.662 15.809L20.627 15.7489L20.5905 15.6888L20.5539 15.6303L20.5157 15.5719L20.4759 15.515L20.4353 15.459L20.393 15.4029L20.3508 15.3493L20.3061 15.2949L20.2606 15.2429L20.2142 15.1909L20.1663 15.1406L20.1184 15.0902L20.068 15.0423L20.0176 14.9944L19.9664 14.9481L19.9136 14.9026L19.8599 14.8579L19.8567 14.8555L19.7803 14.9018L19.7129 14.9399L19.643 14.9781L19.634 14.983L19.6519 15.0163L19.6771 15.0658L19.7007 15.1162L19.7218 15.1674L19.7437 15.2185L19.7624 15.2697L19.7811 15.3225L19.7982 15.3761L19.8128 15.4289L19.8274 15.4825L19.8396 15.5369L19.8502 15.5905L19.8599 15.6458L19.8681 15.701L19.8746 15.7554L19.8803 15.8107L19.8835 15.8659L19.886 15.9219V15.9772V16.0324L19.8835 16.0876L19.8803 16.1437L19.8746 16.1981L19.8681 16.2542L19.8599 16.3086L19.8502 16.363L19.8396 16.4182L19.8274 16.4718L19.8128 16.5254L19.7982 16.579L19.7811 16.6318L19.7624 16.6846L19.7437 16.7358L19.7218 16.7878L19.7007 16.839L19.6771 16.8885L19.6519 16.9381L19.6251 16.9868L19.5975 17.0355L19.569 17.0826L19.539 17.1297L19.5073 17.1752L19.4756 17.2199L19.4415 17.2646L19.4065 17.3076L19.3708 17.3499L19.3334 17.3913L19.2952 17.4311L19.2562 17.4709L19.2156 17.5083L19.1749 17.5456L19.1327 17.5822L19.0896 17.6163L19.0457 17.6504L19.0002 17.6829L18.9539 17.7138L18.9076 17.7438L18.8605 17.773L18.8125 17.8007L18.7629 17.8267L18.7134 17.8518L18.663 17.8754L18.6118 17.8973L18.5614 17.9184L18.5094 17.9379L18.4566 17.9558L18.4038 17.9729L18.351 17.9883L18.2965 18.0021L18.2429 18.0143L18.1884 18.0257L18.134 18.0346L18.0787 18.0427L18.0235 18.05L17.9682 18.0549L17.913 18.0581L17.8577 18.0614H17.8016H0.769531V20.6817H17.8016L17.8715 20.6809L17.9406 20.6792L18.0105 20.6752L18.0795 20.6695L18.1494 20.6638L18.2185 20.6557L18.2876 20.6451L18.3558 20.6346L18.4241 20.6224L18.4923 20.6078L18.5598 20.5923L18.6272 20.5761L18.6939 20.5582L18.7613 20.5379L18.8271 20.5176L18.893 20.4941L18.9588 20.4705L19.0238 20.4453L19.088 20.4193L19.1514 20.3917L19.2147 20.3617L19.2765 20.3308L19.3391 20.2991L19.3992 20.2658L19.4601 20.2317L19.5195 20.196L19.578 20.1578L19.6365 20.1204L19.6934 20.0806L19.7494 20.0392L19.8055 19.9978L19.8599 19.9547L19.9136 19.9101L19.9664 19.8646L20.0176 19.8191L20.068 19.7712L20.1184 19.7224L20.1663 19.6729L20.2142 19.6217L20.2606 19.5705L20.3061 19.5177L20.3508 19.4641L20.393 19.4097L20.4353 19.3545L20.4759 19.2976L20.5157 19.2408L20.5539 19.1823L20.5905 19.1238L20.627 19.0637L20.662 19.0036L20.6945 18.9427L20.727 18.8809L20.7579 18.8184L20.7863 18.7559L20.8148 18.6917L20.8416 18.6275L20.8659 18.5634L20.8903 18.4976L20.9131 18.4318L20.9342 18.3652L20.9537 18.2986L20.9716 18.232L20.9887 18.1637L21.0041 18.0963L21.0179 18.0289L21.0301 17.9599L21.0415 17.8916L21.0512 17.8226L21.0585 17.7536L21.0658 17.6845L21.0707 17.6147L21.074 17.5456L21.0772 17.4766V17.4067V17.3369L21.074 17.267Z" fill="#3D95FD"/>
<path d="M0.772782 3.78886L0.776032 3.85871L0.780908 3.92775L0.788221 3.9976L0.796347 4.06664L0.805286 4.13487L0.816662 4.20391L0.828851 4.27214L0.842665 4.34037L0.858105 4.40779L0.875169 4.4752L0.893046 4.5418L0.912549 4.60922L0.934489 4.67501L0.956429 4.7408L0.980807 4.8066L1.00519 4.87076L1.032 4.93574L1.06044 4.9991L1.0897 5.06245L1.11976 5.12418L1.15227 5.18591L1.18558 5.24764L1.21971 5.30775L1.25628 5.36786L1.29285 5.42553L1.33104 5.48401L1.37086 5.54168L1.41149 5.59772L1.45374 5.65377L1.49681 5.70737L1.54069 5.76179L1.58619 5.81378L1.63251 5.86576L1.68046 5.91612L1.72921 5.96567L1.77878 6.0144L1.82916 6.06232L1.88036 6.10862L1.93317 6.15411L1.98762 6.19797L1.99006 6.2004L2.06644 6.15492L2.13389 6.11674L2.20377 6.07776L2.21352 6.0737L2.19483 6.04039L2.17045 5.99085L2.14689 5.94049L2.12495 5.88932L2.10382 5.83814L2.08432 5.78616L2.06563 5.73418L2.04938 5.68057L2.03394 5.62777L2.02012 5.57417L2.00712 5.51975L1.99656 5.46614L1.98681 5.4109L1.97868 5.35567L1.97218 5.30125L1.9673 5.24602L1.96324 5.19079L1.96162 5.13474L1.9608 5.07951L1.96162 5.02428L1.96324 4.96823L1.9673 4.91219L1.97218 4.85777L1.97868 4.80253L1.98681 4.74811L1.99656 4.69288L2.00712 4.63846L2.02012 4.58485L2.03394 4.53125L2.04938 4.47764L2.06563 4.42484L2.08432 4.37205L2.10382 4.32006L2.12495 4.26889L2.14689 4.21772L2.17045 4.16736L2.19483 4.11863L2.22165 4.06908L2.24928 4.02116L2.27772 3.97324L2.30778 3.92694L2.33947 3.88145L2.37117 3.83678L2.40611 3.79211L2.44024 3.74906L2.4768 3.70682L2.51337 3.6654L2.55156 3.62478L2.59057 3.5858L2.6312 3.54762L2.67264 3.51107L2.71408 3.47452L2.75715 3.43959L2.80184 3.40629L2.84654 3.37299L2.89286 3.34212L2.93917 3.31207L2.98712 3.28283L3.03425 3.25602L3.08382 3.23003L3.13339 3.20485L3.18377 3.1813L3.23496 3.15856L3.28534 3.13825L3.33816 3.11876L3.39017 3.10089L3.44299 3.08383L3.49662 3.0684L3.55025 3.05459L3.60469 3.04241L3.65833 3.03103L3.71358 3.0221L3.76884 3.01398L3.82328 3.00667L3.87854 3.00179L3.9338 2.99773L3.98905 2.99529H4.04512H21.0772V0.375H4.04512H3.97524L3.90617 0.377437L3.83628 0.381498L3.76721 0.387184L3.69733 0.392869L3.62826 0.400992L3.56 0.411551L3.49093 0.421298L3.42267 0.434294L3.35441 0.448102L3.28697 0.464347L3.21952 0.480592L3.15289 0.498461L3.08544 0.518767L3.01962 0.539073L2.9538 0.561816L2.88879 0.585371L2.82297 0.611363L2.75959 0.637354L2.69621 0.664971L2.63282 0.695024L2.57025 0.725077L2.5085 0.757566L2.44755 0.790868L2.38742 0.824982L2.32729 0.860721L2.26878 0.898084L2.21027 0.93626L2.15339 0.97606L2.09732 1.01667L2.04125 1.05891L1.98762 1.10196L1.93317 1.14663L1.88036 1.1913L1.82916 1.2376L1.77878 1.28552L1.72921 1.33426L1.68046 1.38381L1.63251 1.43416L1.58619 1.48615L1.54069 1.53894L1.49681 1.59255L1.45374 1.64697L1.41149 1.7022L1.37086 1.75906L1.33104 1.81592L1.29285 1.87359L1.25628 1.93288L1.21971 1.99218L1.18558 2.05309L1.15227 2.11401L1.11976 2.17493L1.0897 2.23828L1.06044 2.30083L1.032 2.36499L1.00519 2.42916L0.980807 2.49333L0.956429 2.55831L0.934489 2.62491L0.912549 2.6907L0.893046 2.75731L0.875169 2.82472L0.858105 2.89214L0.842665 2.96037L0.828851 3.02778L0.816662 3.09601L0.805286 3.16505L0.796347 3.23409L0.788221 3.30313L0.780908 3.37218L0.776032 3.44203L0.772782 3.51107L0.769531 3.58011V3.64996V3.71982L0.772782 3.78886Z" fill="#0DC09D"/>
<path d="M32.6334 16.8526H27.4237V14.8033H32.6334C33.4399 14.8033 34.0613 14.6473 34.4975 14.3338C34.9337 14.0211 35.1522 13.6174 35.1522 13.1236C35.1522 12.6297 34.9458 12.2675 34.5348 12.0368C34.123 11.8069 33.5139 11.6169 32.7073 11.469L31.8674 11.3212C31.0438 11.1734 30.2949 10.9589 29.6208 10.6795C28.9458 10.4001 28.4105 10.0127 28.0158 9.51884C27.621 9.025 27.4229 8.39145 27.4229 7.61738C27.4229 6.46562 27.8509 5.57215 28.707 4.93861C29.5631 4.30506 30.6986 3.98828 32.1144 3.98828H37.2006V6.06275H32.1144C31.4231 6.06275 30.8798 6.19027 30.485 6.44532C30.0903 6.70036 29.8921 7.05856 29.8921 7.5191C29.8921 8.01294 30.0854 8.3752 30.472 8.60588C30.8586 8.83656 31.3817 9.00957 32.0396 9.12409L32.9039 9.27192C33.7762 9.41975 34.5746 9.62606 35.2992 9.88922C36.0237 10.1524 36.5955 10.5309 37.0154 11.0247C37.4354 11.5186 37.6449 12.1773 37.6449 13.0001C37.6449 14.2185 37.1917 15.1647 36.2869 15.8397C35.3812 16.5147 34.1637 16.8518 32.6326 16.8518L32.6334 16.8526Z" fill="white"/>
<path d="M64.1884 20.5983V14.8525H63.7937C63.6125 15.1823 63.3494 15.4991 63.0033 15.8028C62.6573 16.1074 62.2171 16.3584 61.6826 16.5558C61.1474 16.7532 60.4854 16.8523 59.6951 16.8523C58.6741 16.8523 57.736 16.6053 56.8798 16.1115C56.0237 15.6176 55.3406 14.9061 54.8306 13.9753C54.3205 13.0453 54.0654 11.9219 54.0654 10.6045V10.2341C54.0654 8.91745 54.3245 7.79412 54.8436 6.86329C55.3618 5.93327 56.0489 5.22094 56.905 4.72709C57.7611 4.23325 58.6912 3.98633 59.6951 3.98633C60.8801 3.98633 61.7899 4.20076 62.4234 4.628C63.057 5.05605 63.5305 5.54177 63.8432 6.08516H64.238V3.98633H66.7324V20.5967H64.1892L64.1884 20.5983ZM60.4107 14.63C61.5299 14.63 62.4437 14.2758 63.1512 13.5684C63.8586 12.8609 64.2128 11.848 64.2128 10.5314V10.3088C64.2128 9.00842 63.8546 8.00449 63.139 7.29622C62.4226 6.58875 61.5129 6.23462 60.4107 6.23462C59.3085 6.23462 58.4231 6.58875 57.7067 7.29622C56.9903 8.00449 56.6329 9.00842 56.6329 10.3088V10.5314C56.6329 11.8488 56.9911 12.8609 57.7067 13.5684C58.4231 14.2766 59.3239 14.63 60.4107 14.63Z" fill="white"/>
<path d="M51.6281 10.1594C51.6281 8.92476 51.3812 7.84692 50.8873 6.92502C50.3935 6.00313 49.7055 5.28267 48.8259 4.76446C47.9446 4.24625 46.9195 3.98633 45.7515 3.98633C44.5835 3.98633 43.4959 4.24949 42.5911 4.77664C42.1379 5.03981 41.7342 5.35414 41.3784 5.72128C41.3337 5.76676 41.2899 5.81387 41.246 5.86098C41.1161 6.00394 40.995 6.15339 40.8797 6.30934C40.727 6.51809 40.5848 6.73983 40.4549 6.97457C39.9367 7.91271 39.6768 9.01573 39.6768 10.2836V10.5801C39.6768 11.848 39.9359 12.9502 40.4549 13.8892C40.9731 14.8273 41.6936 15.5559 42.6155 16.0741C43.5365 16.5923 44.6152 16.8523 45.8498 16.8523C46.9366 16.8523 47.8414 16.6792 48.5659 16.334C49.2905 15.988 49.8663 15.56 50.2944 15.0499C50.413 14.9077 50.5251 14.768 50.6299 14.63C50.9028 14.2718 51.1286 13.9266 51.3064 13.5927L49.1832 12.5059C48.9201 13.0664 48.5448 13.5602 48.0599 13.9875C47.5734 14.4155 46.8537 14.6291 45.8993 14.6291C44.8784 14.6291 44.0263 14.3116 43.344 13.6788C43.3018 13.639 43.2604 13.6 43.2206 13.5578C43.18 13.5156 43.1418 13.4741 43.1036 13.4319C43.0126 13.3271 42.9282 13.2175 42.8502 13.1021C42.518 12.6034 42.3279 12.0097 42.28 11.3217C42.2751 11.2559 42.2727 11.1893 42.2702 11.1227H51.6289V10.1594H51.6281ZM43.9735 9.17169L42.6731 10.4721H42.2451C42.2386 10.0976 42.2451 9.61679 42.2946 9.17169C42.319 9.00274 42.3515 8.83948 42.3937 8.68272C42.4343 8.52595 42.4839 8.3765 42.5415 8.23354C42.7332 7.75676 43.0183 7.35307 43.3936 7.0233C43.9938 6.49616 44.7711 6.23299 45.7272 6.23299C46.6832 6.23299 47.4556 6.49616 48.0485 7.0233C48.6415 7.55045 48.9786 8.26685 49.0606 9.17169H43.9743H43.9735Z" fill="white"/>
<path d="M81.1193 10.1594C81.1193 8.92476 80.8724 7.84692 80.3785 6.92502C79.8847 6.00313 79.1967 5.28267 78.3171 4.76446C77.4358 4.24625 76.4107 3.98633 75.2427 3.98633C74.0747 3.98633 72.9871 4.24949 72.0823 4.77664C71.6291 5.03981 71.2254 5.35414 70.8696 5.72128C70.8249 5.76676 70.7811 5.81387 70.7372 5.86098C70.6073 6.00394 70.4862 6.15339 70.3709 6.30934C70.2182 6.51809 70.0761 6.73983 69.9461 6.97457C69.4279 7.91271 69.168 9.01573 69.168 10.2836V10.5801C69.168 11.848 69.4271 12.9502 69.9461 13.8892C70.4643 14.8273 71.1848 15.5559 72.1067 16.0741C73.0277 16.5923 74.1064 16.8523 75.341 16.8523C76.4278 16.8523 77.3326 16.6792 78.0572 16.334C78.7817 15.988 79.3576 15.56 79.7856 15.0499C79.9042 14.9077 80.0163 14.768 80.1211 14.63C80.394 14.2718 80.6198 13.9266 80.7977 13.5927L78.6745 12.5059C78.4113 13.0664 78.036 13.5602 77.5511 13.9875C77.0646 14.4155 76.3449 14.6291 75.3906 14.6291C74.3696 14.6291 73.5175 14.3116 72.8352 13.6788C72.793 13.639 72.7516 13.6 72.7118 13.5578C72.6712 13.5156 72.633 13.4741 72.5948 13.4319C72.5038 13.3271 72.4194 13.2175 72.3414 13.1021C72.0092 12.6034 71.8191 12.0097 71.7712 11.3217C71.7663 11.2559 71.7639 11.1893 71.7615 11.1227H81.1201V10.1594H81.1193ZM73.4647 9.17169L72.1643 10.4721H71.7363C71.7298 10.0976 71.7363 9.61679 71.7858 9.17169C71.8102 9.00274 71.8427 8.83948 71.8849 8.68272C71.9255 8.52595 71.9751 8.3765 72.0327 8.23354C72.2244 7.75676 72.5095 7.35307 72.8848 7.0233C73.485 6.49616 74.2624 6.23299 75.2184 6.23299C76.1744 6.23299 76.9468 6.49616 77.5398 7.0233C78.1327 7.55045 78.4698 8.26685 78.5518 9.17169H73.4655H73.4647Z" fill="white"/>
<path d="M83.5565 16.8522V3.98705H86.0501V5.41903H86.4448C86.6422 4.90894 86.959 4.5345 87.3951 4.2957C87.8313 4.0569 88.3706 3.9375 89.0123 3.9375H90.4695V6.23371H88.914C88.0904 6.23371 87.4163 6.46033 86.8891 6.91275C86.362 7.36598 86.0988 8.06126 86.0988 8.9994V16.8513H83.5557L83.5565 16.8522Z" fill="white"/>
<path d="M102.738 8.59977C102.738 7.11174 102.284 5.96242 101.374 5.15262C100.465 4.34281 99.2167 3.9375 97.6287 3.9375C96.5874 3.9375 95.7069 4.10239 94.9873 4.43378C94.2685 4.76518 93.6893 5.20297 93.2515 5.74799C92.8137 6.29382 92.4953 6.88919 92.2963 7.5333L94.677 8.30249C94.8257 7.64133 95.1319 7.10362 95.5949 6.69019C96.0587 6.27757 96.7271 6.07045 97.6035 6.07045C98.48 6.07045 99.1582 6.28975 99.5878 6.72755C100.018 7.16535 100.233 7.7323 100.233 8.42677V10.5418H99.8201L98.497 9.22033H96.5127C95.1733 9.22033 94.0614 9.53873 93.1768 10.1755C92.2923 10.8115 91.8496 11.7505 91.8496 12.9908C91.8496 13.8176 92.0527 14.5194 92.4572 15.0985C92.8625 15.6777 93.4083 16.1155 94.0938 16.4127C94.781 16.71 95.5624 16.8595 96.4372 16.8595C97.3119 16.8595 97.9585 16.7393 98.471 16.4996C98.9835 16.26 99.3726 15.979 99.6366 15.6565C99.9022 15.3341 100.099 15.04 100.232 14.7761H100.629V16.8595H102.737V8.60059L102.738 8.59977ZM100.233 11.4516C100.233 12.4774 99.9144 13.2832 99.2776 13.8696C98.6408 14.456 97.8196 14.7501 96.81 14.7501C96.066 14.7501 95.4795 14.5852 95.049 14.2538C94.6185 13.9224 94.4041 13.4765 94.4041 12.9144C94.4041 12.3523 94.6112 11.9259 95.0239 11.6376C95.4381 11.3484 95.9823 11.2038 96.6605 11.2038H100.232V11.4516H100.233Z" fill="white"/>
</g>
<defs>
<clipPath id="clip0_461_1051">
<rect width="102.385" height="20.3077" fill="white" transform="translate(0.769531 0.375)"/>
</clipPath>
</defs>
</svg>
