<svg width="13" height="14" viewBox="0 0 13 14" fill="none" xmlns="http://www.w3.org/2000/svg">
	<path d="M2.625 0C1.17578 0 0 1.17578 0 2.625V11.375C0 12.8242 1.17578 14 2.625 14H10.5H11.375C11.859 14 12.25 13.609 12.25 13.125C12.25 12.641 11.859 12.25 11.375 12.25V10.5C11.859 10.5 12.25 10.109 12.25 9.625V0.875C12.25 0.391016 11.859 0 11.375 0H10.5H2.625ZM2.625 10.5H9.625V12.25H2.625C2.14102 12.25 1.75 11.859 1.75 11.375C1.75 10.891 2.14102 10.5 2.625 10.5ZM3.5 3.9375C3.5 3.69688 3.69688 3.5 3.9375 3.5H9.1875C9.42813 3.5 9.625 3.69688 9.625 3.9375C9.625 4.17812 9.42813 4.375 9.1875 4.375H3.9375C3.69688 4.375 3.5 4.17812 3.5 3.9375ZM3.9375 5.25H9.1875C9.42813 5.25 9.625 5.44688 9.625 5.6875C9.625 5.92812 9.42813 6.125 9.1875 6.125H3.9375C3.69688 6.125 3.5 5.92812 3.5 5.6875C3.5 5.44688 3.69688 5.25 3.9375 5.25Z" fill="#F2F2F2" />
	<path d="M3.9375 3.5C3.69687 3.5 3.5 3.69687 3.5 3.9375C3.5 4.17813 3.69687 4.375 3.9375 4.375H9.1875C9.42812 4.375 9.625 4.17813 9.625 3.9375C9.625 3.69687 9.42812 3.5 9.1875 3.5H3.9375Z" fill="#797979" />
	<path d="M9.1875 5.25H3.9375C3.69687 5.25 3.5 5.44687 3.5 5.6875C3.5 5.92812 3.69687 6.125 3.9375 6.125H9.1875C9.42812 6.125 9.625 5.92812 9.625 5.6875C9.625 5.44687 9.42812 5.25 9.1875 5.25Z" fill="#797979" />
	<path d="M10.875 12.25V12.75H11.375C11.5828 12.75 11.75 12.9172 11.75 13.125C11.75 13.3328 11.5828 13.5 11.375 13.5H10.5H2.625C1.45192 13.5 0.5 12.5481 0.5 11.375V2.625C0.5 1.45192 1.45192 0.5 2.625 0.5H10.5H11.375C11.5828 0.5 11.75 0.667158 11.75 0.875V9.625C11.75 9.83284 11.5828 10 11.375 10H10.875V10.5V12.25ZM10.125 10.5V10H9.625H2.625C1.86487 10 1.25 10.6149 1.25 11.375C1.25 12.1351 1.86487 12.75 2.625 12.75H9.625H10.125V12.25V10.5Z" stroke="#797979" />
</svg>
