<svg width="14" height="15" viewBox="0 0 14 15" fill="none" xmlns="http://www.w3.org/2000/svg">
<g clip-path="url(#clip0_5019_16163)">
<path d="M9.79115 9.39609H6.37361L2.95607 11.9615V9.39609H1.24272C0.766279 9.39609 0.390625 9.01127 0.390625 8.54399V1.69975C0.390625 1.22331 0.766279 0.847656 1.24272 0.847656H9.79115C10.2676 0.847656 10.6432 1.23247 10.6432 1.69975V8.54399C10.6432 9.02043 10.2584 9.39609 9.79115 9.39609Z" stroke="#4256E7" stroke-width="0.75"/>
<path d="M11.9342 5.11719H12.3649C12.8413 5.11719 13.217 5.502 13.217 5.96928V10.2481C13.217 10.7245 12.8321 11.1002 12.3649 11.1002H11.5128V13.6656L8.94732 11.1002H6.8125" stroke="#4256E7" stroke-width="0.75"/>
</g>
<defs>
<clipPath id="clip0_5019_16163">
<rect width="13.5144" height="14" fill="white" transform="translate(0.046875 0.5)"/>
</clipPath>
</defs>
</svg>
