<?xml version="1.0" encoding="UTF-8"?><svg id="uuid-f0a57e2d-2e65-4fb2-aa72-7294520e671e" xmlns="http://www.w3.org/2000/svg" viewBox="0 0 401.29 79.92"><path d="m67.85,41.38l.11.04.11.04.11.05.11.06.1.06.1.06.1.07.09.07.09.08.09.08.08.09.08.09.08.1.07.1.07.1.06.1.05.11.05.11.04.11.04.11.03.12.03.11.02.12.02.12v.12s.02.12.02.12v.12s0,.12,0,.12v.12s-.02.12-.02.12l-.02.12-.02.12-.03.12-.03.11-.04.12-.04.11-.05.11-.05.11-.06.1-.07.1-.07.1-.08.09-.08.09-.08.08-.09.09-.09.08-.09.07-.1.07-.1.07-.1.06-.11.06-.11.05-.11.05-.11.04-.11.04-.12.03-.12.03-.12.02h-.12s-.12.03-.12.03h-.02.12s.22-.01.22-.01h.22s.22-.03.22-.03l.21-.03.22-.03.21-.04.21-.04.21-.05.21-.05.21-.06.21-.07.2-.07.2-.08.2-.08.2-.09.2-.09.2-.1.19-.1.19-.11.19-.12.19-.12.18-.12.18-.13.17-.13.17-.13.17-.14.16-.15.16-.15.16-.16.15-.16.14-.16.14-.17.14-.17.13-.18.13-.18.12-.18.12-.19.11-.19.11-.19.11-.19.1-.19.09-.2.09-.2.08-.2.08-.2.07-.21.06-.21.06-.21.05-.21.05-.21.04-.22.04-.21.03-.21.02-.22.02-.22.02-.22v-.22s0-.22,0-.22v-.22s0-.22,0-.22l-.02-.22-.02-.22-.02-.21-.03-.22-.04-.22-.04-.21-.05-.21-.04-.16h-7.93s-18.39,0-18.39,0l19.07,5.25.13.04Z" style="fill:#fff; stroke-width:0px;"/><path d="m79.91,43.28l-.02-.27-.02-.27-.03-.27-.03-.27-.04-.27-.04-.27-.05-.27-.05-.27-.06-.27-.07-.27-.07-.27-.08-.26-.08-.26-.09-.26-.1-.26-.1-.25-.11-.26-.11-.25-.12-.25-.12-.25-.13-.24-.13-.24-.14-.24-.14-.24-.14-.23-.15-.23-.15-.22-.16-.22-.05-.07h-2.38l.04.16.05.21.04.21.04.22.03.22.02.21.02.22.02.22v.22s0,.22,0,.22v.22s0,.22,0,.22l-.02.22-.02.22-.02.22-.03.21-.04.21-.04.22-.05.21-.05.21-.06.21-.06.21-.07.21-.08.2-.08.2-.09.2-.09.2-.1.19-.11.19-.11.19-.11.19-.12.19-.12.18-.13.18-.13.18-.14.17-.14.17-.14.16-.15.16-.16.16-.16.15-.16.15-.17.14-.17.13-.17.13-.18.13-.18.12-.19.12-.19.12-.19.11-.19.1-.2.1-.2.09-.2.09-.2.08-.2.08-.2.07-.21.07-.21.06-.21.05-.21.05-.21.04-.21.04-.22.03-.21.03-.22.02h-.22s-.22.02-.22.02h-.22s-67.03,0-67.03,0v10.31h67.3s.27,0,.27,0l.27-.02.27-.02.27-.03.27-.03.27-.04.27-.04.27-.05.27-.06.27-.06.26-.06.27-.07.27-.08.26-.08.26-.09.26-.09.26-.1.25-.1.25-.11.25-.12.25-.12.24-.12.24-.13.24-.13.24-.14.23-.14.23-.15.23-.16.22-.16.22-.17.21-.17.21-.18.21-.18.2-.18.2-.19.2-.19.19-.2.19-.2.19-.2.18-.21.17-.21.17-.21.17-.22.16-.22.15-.22.15-.23.14-.23.14-.24.14-.24.13-.24.13-.24.12-.25.12-.25.11-.25.11-.25.1-.25.1-.26.09-.26.08-.26.08-.27.07-.26.07-.27.06-.27.05-.27.05-.27.04-.27.04-.27.03-.27.03-.27.02-.27.02-.27v-.27s.01-.27.01-.27v-.27s-.01-.27-.01-.27Z" style="fill:#fa6863; stroke-width:0px;"/><path d="m12.07,38.53l-.11-.04-.11-.04-.11-.05-.11-.06-.1-.06-.1-.06-.1-.07-.09-.07-.09-.08-.09-.08-.08-.09-.08-.09-.08-.1-.07-.1-.07-.1-.06-.1-.05-.11-.05-.11-.04-.11-.04-.11-.03-.12-.03-.11-.03-.12-.02-.12v-.12s-.02-.12-.02-.12v-.12s0-.12,0-.12v-.12s.02-.12.02-.12l.02-.12.03-.12.03-.12.03-.11.04-.12.04-.11.05-.11.05-.1.06-.11.07-.1.07-.1.08-.09.08-.09.08-.09.09-.08.09-.08.09-.07.1-.07.1-.07.1-.06.11-.05.11-.05.11-.05.11-.04.11-.04.12-.03.12-.03.12-.02h.12s.12-.03.12-.03h.02-.34s-.22.03-.22.03l-.22.02-.21.03-.22.03-.22.04-.21.04-.21.05-.21.05-.21.06-.21.07-.2.07-.21.07-.2.08-.2.09-.2.09-.2.1-.2.1-.19.11-.19.12-.19.12-.18.12-.18.13-.18.13-.17.14-.17.14-.16.15-.16.15-.16.15-.15.16-.14.16-.14.17-.13.17-.14.17-.12.18-.12.18-.12.18-.11.19-.11.19-.11.2-.1.19-.09.2-.09.2-.08.2-.08.2-.07.21-.06.21-.06.21-.05.21-.05.21-.04.21-.04.22-.03.21-.02.22-.02.21-.02.22v.22s0,.22,0,.22v.22s0,.22,0,.22l.02.22.02.22.02.22.03.22.04.21.04.21.05.21.04.17h7.93s18.39,0,18.39,0l-19.07-5.25-.13-.04Z" style="fill:#fff; stroke-width:0px;"/><path d="m.01,36.64v.27s.04.27.04.27l.03.27.03.27.04.27.04.27.05.27.05.27.06.27.07.27.07.27.08.26.08.26.09.26.1.26.1.25.11.26.11.25.12.25.12.24.13.24.13.24.14.24.14.23.14.23.15.23.16.23.16.22.05.07h2.38l-.04-.17-.05-.21-.04-.21-.04-.21-.03-.22-.02-.22-.02-.22-.02-.22v-.22s0-.22,0-.22v-.22s0-.22,0-.22l.02-.22.02-.21.02-.22.03-.21.04-.22.04-.21.05-.21.05-.21.06-.21.06-.21.07-.21.08-.2.08-.2.09-.2.09-.2.1-.19.11-.2.11-.19.11-.19.12-.18.12-.18.12-.18.14-.17.13-.17.14-.17.14-.16.15-.16.16-.15.16-.15.16-.15.17-.14.17-.14.18-.13.18-.13.18-.12.19-.12.19-.12.19-.11.2-.1.2-.1.2-.09.2-.09.2-.08.21-.07.2-.07.21-.07.21-.06.21-.05.21-.05.21-.04.22-.04.22-.03.21-.03.22-.02.22-.02h.22s.22-.01.22-.01h67.03v-10.31H12.62s-.27,0-.27,0l-.28.02-.27.02-.28.03-.27.03-.27.04-.27.04-.27.05-.27.05-.27.06-.27.07-.26.07-.27.08-.26.08-.26.09-.26.09-.26.1-.25.1-.25.11-.25.12-.25.12-.24.12-.24.13-.24.13-.24.14-.23.15-.23.15-.22.16-.22.16-.22.16-.21.17-.21.18-.21.18-.2.18-.2.19-.2.19-.19.2-.19.2-.18.2-.18.21-.17.21-.17.21-.17.22-.16.22-.16.22-.15.23-.14.23-.14.24-.14.24-.13.24-.13.24-.12.25-.12.25-.11.25-.11.25-.1.26-.1.26-.09.26-.08.26-.08.26-.07.27-.07.27-.06.27-.05.27-.05.27-.04.27-.04.27-.03.27-.03.27-.02.27v.27s-.03.27-.03.27v.82Z" style="fill:#f18046; stroke-width:0px;"/><path d="m12.07,15.34l-.11-.04-.11-.05-.11-.05-.1-.06-.11-.06-.1-.06-.1-.07-.1-.07-.09-.08-.09-.08-.08-.09-.08-.09-.08-.1-.07-.1-.06-.1-.06-.1-.05-.11-.05-.11-.04-.11-.04-.12-.04-.11-.03-.11-.03-.12-.02-.12-.02-.12v-.12s0-.12,0-.12v-.12s0-.12,0-.12l.02-.12.02-.12.03-.12.03-.12.04-.12.04-.11.04-.11.05-.11.05-.11.06-.1.06-.1.07-.1.08-.09.08-.09.08-.09.09-.08.09-.08.1-.07.1-.07.1-.07.11-.06.1-.06.11-.05.11-.04.11-.04.11-.04.12-.03.12-.02.12-.02h.12s.12-.02.12-.02h.04-.36s-.22.03-.22.03l-.22.02-.21.03-.22.03-.22.04-.21.04-.21.05-.21.05-.21.06-.21.07-.2.07-.21.08-.2.08-.2.09-.2.09-.2.1-.2.1-.19.11-.19.12-.18.12-.18.12-.18.13-.18.13-.17.14-.16.14-.16.14-.16.15-.15.15-.15.16-.14.16-.14.17-.13.17-.14.18-.12.18-.12.18-.12.18-.11.19-.11.19-.11.2-.1.19-.09.2-.09.2-.08.2-.08.2-.07.21-.06.21-.06.21-.05.21-.05.21-.04.21-.04.22-.03.21-.03.22-.02.21-.02.22v.22s0,.22,0,.22v.22s0,.22,0,.22l.02.22.02.22.03.21.03.22.04.22.04.21.05.21.05.21.06.21.06.21.07.2.08.2.08.2.09.2.09.2.1.2.06.11h0s.27-.14.27-.14l.27-.13.27-.13.28-.12.28-.12.28-.11.28-.1.28-.11.28-.09.29-.09.29-.08.29-.08.29-.07.29-.06.29-.06.29-.06.3-.05.3-.04.3-.04.3-.03.3-.03.3-.02h.29s.31-.02.31-.02h.3s18.39,0,18.39,0l-19.08-5.25-.13-.04Z" style="fill:#fff; stroke-width:0px;"/><path d="m67.03,69.61h.44s.22-.03.22-.03l.22-.02.22-.03.22-.03.21-.04.21-.04.21-.05.21-.05.21-.06.21-.07.21-.07.2-.08.2-.08.2-.09.2-.09.2-.1.2-.1.19-.11.19-.12.18-.12.18-.12.18-.13.17-.13.17-.13.17-.14.16-.15.16-.15.15-.16.15-.16.15-.16.14-.17.14-.17.13-.18.12-.18.12-.18.12-.19.11-.19.11-.19.11-.19.1-.2.09-.2.08-.2.09-.2.07-.2.07-.21.07-.21.06-.21.06-.21.05-.21.04-.22.04-.21.03-.21.03-.22.02-.21v-.22s.02-.22.02-.22v-.66s-.02-.22-.02-.22l-.02-.22-.03-.21-.03-.22-.04-.22-.04-.21-.05-.21-.06-.21-.06-.21-.07-.21-.07-.21-.07-.2-.09-.2-.08-.2-.09-.2-.1-.2-.06-.12h0s-.27.14-.27.14l-.27.13-.27.13-.28.12-.28.12-.28.11-.28.1-.28.1-.29.1-.28.09-.28.08-.29.08-.29.07-.29.07-.29.06-.29.05-.29.05-.3.04-.3.04-.3.03-.3.03-.3.02-.3.02h-.3s-.3.01-.3.01h-18.39l19.07,5.25.13.04.11.04.11.04.11.05.11.06.1.06.1.06.1.07.09.07.09.08.09.08.08.09.08.09.08.1.07.1.07.1.06.1.05.11.05.11.04.11.04.11.03.12.03.11.02.12.02.12v.12s.02.12.02.12v.12s0,.12,0,.12v.12s-.02.12-.02.12l-.02.12-.02.12-.03.12-.03.11-.04.12-.04.11-.05.11-.05.1-.06.11-.07.1-.07.1-.08.09-.08.09-.08.09-.09.08-.09.08-.09.07-.1.07-.1.07-.1.06-.11.05-.11.05-.11.05-.11.04-.11.04-.12.03-.12.03-.12.02h-.12s-.12.03-.12.03h-.12" style="fill:#fff; stroke-width:0px;"/><path d="m79.91,66.48v-.27s-.03-.27-.03-.27l-.03-.27-.03-.27-.04-.27-.04-.27-.05-.27-.05-.27-.06-.27-.07-.26-.07-.27-.08-.27-.08-.26-.09-.26-.1-.26-.1-.25-.11-.26-.11-.25-.11-.25-.12-.25-.13-.24-.13-.24-.14-.24-.14-.24-.14-.23-.15-.23-.16-.22-.16-.22-.17-.22-.17-.21-.18-.21-.18-.2-.18-.2-.19-.2-.19-.2-.2-.19-.2-.19-.2-.18-.21-.18-.21-.18h-.01s-.3.17-.3.17l-.27.15-.27.15-.04.02.07.13.1.2.09.2.08.2.09.2.07.2.07.21.07.21.06.21.06.21.05.21.04.21.04.22.03.22.03.21.02.22v.22s.02.22.02.22v.65s-.02.22-.02.22l-.02.21-.03.22-.03.21-.04.21-.04.22-.05.21-.06.21-.06.21-.07.21-.07.21-.07.2-.09.2-.08.2-.09.2-.1.2-.11.19-.11.19-.11.19-.12.19-.12.18-.12.18-.13.18-.14.17-.14.17-.15.16-.15.16-.15.16-.16.15-.16.15-.17.14-.17.13-.17.13-.18.13-.18.12-.18.12-.19.12-.19.11-.2.1-.2.1-.2.09-.2.09-.2.08-.2.08-.21.07-.21.07-.21.06-.21.05-.21.05-.21.04-.21.04-.22.03-.22.03-.22.02h-.22s-.22.03-.22.03H0v10.31h67.3s.27,0,.27,0l.27-.02.27-.02.27-.02.27-.03.27-.04.27-.04.27-.05.27-.06.27-.06.27-.06.26-.07.27-.08.26-.08.26-.09.26-.09.26-.1.25-.1.25-.11.25-.12.24-.12.25-.12.24-.13.24-.13.23-.14.23-.15.23-.15.22-.16.22-.16.22-.16.21-.17.21-.18.21-.18.2-.18.2-.19.2-.19.19-.2.19-.2.18-.2.18-.21.18-.21.17-.21.17-.22.16-.22.16-.22.15-.23.14-.23.14-.24.14-.24.13-.24.13-.24.12-.25.11-.25.11-.25.11-.25.1-.25.1-.26.09-.26.08-.26.08-.26.07-.26.07-.27.06-.27.05-.27.05-.27.04-.27.04-.27.03-.27.03-.27.02-.27v-.27s.03-.27.03-.27v-.82Z" style="fill:#3d95fd; stroke-width:0px;"/><path d="m.01,13.43v.27s.03.27.03.27l.03.27.03.27.04.27.04.27.05.27.05.27.06.27.07.27.07.26.08.27.09.26.09.26.1.26.1.25.11.26.11.25.12.25.12.24.13.24.13.24.13.24.14.24.14.23.15.23.16.23.16.22.17.22.17.21.17.21.18.2.18.2.19.2.19.2.2.19.2.19.2.18.21.18.21.17h0s.3-.17.3-.17l.27-.15.28-.15.04-.02-.07-.13-.1-.2-.09-.2-.09-.2-.08-.2-.08-.2-.07-.2-.06-.21-.06-.21-.05-.21-.05-.21-.04-.21-.04-.22-.03-.22-.03-.21-.02-.22-.02-.22v-.22s0-.22,0-.22v-.22s0-.22,0-.22l.02-.22.02-.21.03-.22.03-.21.04-.22.04-.21.05-.21.05-.21.06-.21.06-.21.07-.21.08-.2.08-.2.09-.2.09-.2.1-.19.11-.19.11-.19.11-.19.12-.18.12-.18.12-.18.14-.18.13-.17.14-.17.14-.16.15-.16.15-.15.16-.15.16-.14.16-.14.17-.14.18-.13.18-.13.18-.12.18-.12.19-.12.19-.11.2-.1.2-.1.2-.09.2-.09.2-.08.21-.08.2-.07.21-.07.21-.06.21-.05.21-.05.21-.04.22-.04.22-.03.21-.03.22-.02.22-.02h.22s.22,0,.22,0h67.03V0H12.34s-.28.03-.28.03l-.27.02-.28.02-.27.03-.27.04-.27.04-.27.05-.27.05-.27.06-.27.06-.26.07-.27.08-.26.08-.26.09-.26.09-.26.1-.25.1-.25.11-.25.12-.25.12-.24.13-.24.13-.24.13-.24.14-.23.15-.23.15-.22.16-.22.16-.22.17-.21.17-.21.18-.21.18-.2.18-.2.19-.2.19-.19.19-.19.2-.18.2-.18.21-.17.21-.17.21-.17.22-.16.22-.16.22-.15.23-.14.23-.14.23-.13.24-.13.24-.13.24-.12.25-.12.25-.11.25-.11.25-.1.25-.1.26-.09.26-.09.26-.08.26-.07.27-.07.27-.06.27-.05.27-.05.27-.04.27-.04.27-.03.27-.03.27-.02.27v.27s-.03.27-.03.27v.82Z" style="fill:#0dc09d; stroke-width:0px;"/><path d="m125.4,64.85h-20.5v-8.06h20.5c3.17,0,5.62-.61,7.34-1.85,1.72-1.23,2.58-2.82,2.58-4.76s-.81-3.37-2.43-4.28c-1.62-.9-4.02-1.65-7.19-2.23l-3.31-.58c-3.24-.58-6.19-1.43-8.84-2.53-2.66-1.1-4.76-2.62-6.32-4.57-1.55-1.94-2.33-4.44-2.33-7.48,0-4.53,1.68-8.05,5.05-10.54,3.37-2.49,7.84-3.74,13.41-3.74h20.02v8.16h-20.02c-2.72,0-4.86.5-6.41,1.51-1.55,1-2.33,2.41-2.33,4.23,0,1.94.76,3.37,2.28,4.28,1.52.91,3.58,1.59,6.17,2.04l3.4.58c3.43.58,6.58,1.39,9.43,2.43,2.85,1.04,5.1,2.53,6.75,4.47s2.48,4.54,2.48,7.77c0,4.79-1.78,8.52-5.34,11.18-3.56,2.66-8.36,3.98-14.38,3.98h0Z" style="fill:#fff; stroke-width:0px;"/><path d="m249.58,79.59v-22.61h-1.55c-.71,1.3-1.75,2.54-3.11,3.74-1.36,1.2-3.09,2.19-5.2,2.96-2.11.78-4.71,1.17-7.82,1.17-4.02,0-7.71-.97-11.08-2.92-3.37-1.94-6.06-4.74-8.07-8.41-2.01-3.66-3.01-8.08-3.01-13.27v-1.46c0-5.18,1.02-9.6,3.06-13.27,2.04-3.66,4.74-6.46,8.11-8.41,3.37-1.94,7.03-2.92,10.98-2.92,4.66,0,8.24.84,10.74,2.53,2.49,1.68,4.36,3.6,5.59,5.73h1.55v-8.26h9.82v65.37h-10.01Zm-14.87-23.49c4.41,0,8-1.39,10.79-4.18,2.79-2.78,4.18-6.77,4.18-11.95v-.88c0-5.12-1.41-9.07-4.23-11.86-2.82-2.78-6.4-4.18-10.74-4.18s-7.82,1.39-10.64,4.18c-2.82,2.79-4.23,6.74-4.23,11.86v.88c0,5.18,1.41,9.17,4.23,11.95,2.82,2.79,6.36,4.18,10.64,4.18Z" style="fill:#fff; stroke-width:0px;"/><path d="m200.15,38.52c0-4.86-.97-9.1-2.91-12.73s-4.65-6.46-8.11-8.5c-3.47-2.04-7.5-3.06-12.1-3.06s-8.88,1.04-12.44,3.11c-1.78,1.04-3.37,2.27-4.77,3.72-.18.18-.35.36-.52.55-.51.56-.99,1.15-1.44,1.76-.6.82-1.16,1.69-1.67,2.62-2.04,3.69-3.06,8.03-3.06,13.02v1.17c0,4.99,1.02,9.33,3.06,13.02,2.04,3.69,4.87,6.56,8.5,8.6,3.62,2.04,7.87,3.06,12.73,3.06,4.28,0,7.84-.68,10.69-2.04,2.85-1.36,5.12-3.05,6.8-5.05.47-.56.91-1.11,1.32-1.65,1.07-1.41,1.96-2.77,2.66-4.08l-8.36-4.28c-1.04,2.21-2.51,4.15-4.42,5.83-1.91,1.68-4.75,2.53-8.5,2.53-4.02,0-7.37-1.25-10.06-3.74-.17-.16-.33-.31-.49-.48-.16-.17-.31-.33-.46-.5-.36-.41-.69-.84-1-1.3-1.31-1.96-2.06-4.3-2.24-7.01-.02-.26-.03-.52-.04-.78h36.83v-3.79h0Zm-30.12-3.89l-5.12,5.12h-1.68c-.03-1.47,0-3.37.19-5.12.1-.66.22-1.31.39-1.92.16-.62.35-1.2.58-1.77.75-1.88,1.88-3.47,3.35-4.76,2.36-2.07,5.42-3.11,9.18-3.11s6.8,1.04,9.14,3.11c2.33,2.07,3.66,4.89,3.98,8.45h-20.02Z" style="fill:#fff; stroke-width:0px;"/><path d="m316.21,38.52c0-4.86-.97-9.1-2.92-12.73-1.94-3.63-4.65-6.46-8.11-8.5-3.47-2.04-7.5-3.06-12.1-3.06s-8.88,1.04-12.44,3.11c-1.78,1.04-3.37,2.27-4.77,3.72-.18.18-.35.36-.52.55-.51.56-.99,1.15-1.44,1.76-.6.82-1.16,1.69-1.67,2.62-2.04,3.69-3.06,8.03-3.06,13.02v1.17c0,4.99,1.02,9.33,3.06,13.02,2.04,3.69,4.88,6.56,8.5,8.6,3.62,2.04,7.87,3.06,12.73,3.06,4.28,0,7.84-.68,10.69-2.04,2.85-1.36,5.12-3.05,6.8-5.05.47-.56.91-1.11,1.32-1.65,1.07-1.41,1.96-2.77,2.66-4.08l-8.36-4.28c-1.03,2.21-2.51,4.15-4.42,5.83-1.92,1.68-4.75,2.53-8.5,2.53-4.02,0-7.37-1.25-10.06-3.74-.17-.16-.33-.31-.49-.48-.16-.17-.31-.33-.46-.5-.36-.41-.69-.84-1-1.3-1.31-1.96-2.06-4.3-2.24-7.01-.02-.26-.03-.52-.04-.78h36.83v-3.79h0Zm-30.12-3.89l-5.12,5.12h-1.68c-.03-1.47,0-3.37.2-5.12.1-.66.22-1.31.39-1.92.16-.62.35-1.2.58-1.77.76-1.88,1.88-3.47,3.35-4.76,2.36-2.07,5.42-3.11,9.18-3.11s6.8,1.04,9.13,3.11c2.33,2.07,3.66,4.89,3.98,8.45h-20.02Z" style="fill:#fff; stroke-width:0px;"/><path d="m325.8,64.85V14.22h9.81v5.64h1.55c.78-2.01,2.02-3.48,3.74-4.42,1.72-.94,3.84-1.41,6.36-1.41h5.73v9.04h-6.12c-3.24,0-5.89.89-7.97,2.67-2.07,1.78-3.11,4.52-3.11,8.21v30.9h-10.01,0Z" style="fill:#fff; stroke-width:0px;"/><path d="m401.29,32.38c0-5.86-1.79-10.38-5.37-13.57-3.58-3.19-8.49-4.78-14.74-4.78-4.1,0-7.56.65-10.4,1.95-2.83,1.3-5.11,3.03-6.83,5.17-1.72,2.15-2.98,4.49-3.76,7.03l9.37,3.03c.59-2.6,1.79-4.72,3.61-6.35,1.83-1.62,4.46-2.44,7.91-2.44s6.12.86,7.81,2.59c1.69,1.72,2.54,3.95,2.54,6.69v8.32h-1.62l-5.21-5.2h-7.81c-5.27,0-9.65,1.25-13.13,3.76-3.48,2.5-5.22,6.2-5.22,11.08,0,3.25.8,6.02,2.39,8.3,1.59,2.28,3.74,4,6.44,5.17,2.7,1.17,5.78,1.76,9.22,1.76s5.99-.47,8-1.42c2.02-.94,3.55-2.05,4.59-3.32,1.04-1.27,1.82-2.43,2.34-3.46h1.56v8.2h8.3v-32.5h0Zm-9.86,11.22c0,4.04-1.25,7.21-3.76,9.52-2.51,2.31-5.74,3.47-9.71,3.47-2.93,0-5.24-.65-6.93-1.95-1.69-1.3-2.54-3.06-2.54-5.27s.82-3.89,2.44-5.02c1.63-1.14,3.77-1.71,6.44-1.71h14.06v.98h0Z" style="fill:#fff; stroke-width:0px;"/></svg>