<svg width="15" height="15" viewBox="0 0 15 15" fill="none" xmlns="http://www.w3.org/2000/svg">
	<g clip-path="url(#clip0_1322_33317)">
		<path d="M14.5101 8.08112L14.5072 8.03296L14.5038 7.98536L14.4991 7.93721L14.4933 7.88961L14.4869 7.84258L14.4788 7.79498L14.4695 7.74794L14.4602 7.70091L14.4492 7.65443L14.437 7.60795L14.4242 7.56148L14.4097 7.51556L14.3946 7.47021L14.3789 7.42429L14.3615 7.37949L14.3435 7.33526L14.3243 7.29046L14.3045 7.24678L14.2836 7.20311L14.2621 7.15999L14.2389 7.11799L14.2151 7.07544L14.1901 7.034L14.1646 6.99256L14.1384 6.95225L14.1105 6.91193L14.0827 6.87273L14.0536 6.8341L14.0437 6.82178H13.611L13.6186 6.85034L13.6273 6.88785L13.6354 6.92481L13.6424 6.96289L13.6482 7.00096L13.6523 7.03848L13.6563 7.07656L13.6592 7.11463L13.6604 7.15327L13.661 7.19135L13.6604 7.22942L13.6592 7.2675L13.6563 7.30614L13.6523 7.34422L13.6482 7.38229L13.6424 7.41981L13.6354 7.45733L13.6273 7.4954L13.6186 7.53236L13.6087 7.56932L13.5977 7.60627L13.5861 7.64267L13.5727 7.67907L13.5588 7.71491L13.5437 7.75018L13.528 7.78546L13.5111 7.82018L13.4937 7.85377L13.4745 7.88737L13.4548 7.92097L13.4345 7.95345L13.4124 7.98592L13.3903 8.01728L13.3671 8.04808L13.3427 8.07888L13.3177 8.10855L13.2922 8.13767L13.266 8.16623L13.2387 8.19367L13.2103 8.22111L13.1818 8.24686L13.1522 8.27262L13.122 8.29782L13.0912 8.32134L13.0598 8.34486L13.0273 8.36781L12.9948 8.38909L12.9611 8.40925L12.9274 8.42941L12.8931 8.44845L12.8583 8.46637L12.8229 8.48372L12.7868 8.49996L12.7502 8.51508L12.7137 8.52964L12.6765 8.54308L12.6393 8.5554L12.6016 8.56716L12.5632 8.5778L12.5243 8.58732L12.486 8.59572L12.4471 8.60355L12.4081 8.60971L12.3686 8.61531L12.3297 8.62035L12.2902 8.62371L12.2507 8.62595L12.2112 8.62763L12.1712 8.62819H-0.00292969V10.4346H12.1712L12.2211 10.434L12.2705 10.4329L12.3204 10.4301L12.3698 10.4262L12.4192 10.4217L12.4685 10.4167L12.5179 10.4094L12.5667 10.4021L12.6155 10.3937L12.6643 10.3837L12.7131 10.373L12.7607 10.3618L12.8089 10.3489L12.8571 10.3355L12.9042 10.3215L12.9512 10.3053L12.9977 10.289L13.0441 10.2717L13.09 10.2537L13.1353 10.2347L13.1806 10.214L13.2254 10.1927L13.2695 10.1709L13.3131 10.1479L13.356 10.1244L13.399 10.0992L13.4403 10.074L13.4821 10.0477L13.5233 10.0202L13.5634 9.99224L13.6029 9.96313L13.6418 9.93345L13.6807 9.90265L13.7185 9.87129L13.7551 9.83994L13.7911 9.8069L13.8265 9.7733L13.8614 9.73914L13.8951 9.70387L13.9287 9.66859L13.9613 9.63219L13.9926 9.59523L14.0234 9.55772L14.0536 9.51908L14.0827 9.48044L14.1105 9.44125L14.1384 9.40093L14.1646 9.36061L14.1901 9.31918L14.2151 9.27774L14.2389 9.23574L14.2621 9.19319L14.2836 9.15007L14.3045 9.10695L14.3243 9.06272L14.3435 9.01848L14.3615 8.97424L14.3789 8.92889L14.3946 8.88353L14.4097 8.83818L14.4242 8.7917L14.437 8.74578L14.4492 8.69931L14.4602 8.65227L14.4695 8.60579L14.4788 8.55876L14.4869 8.51116L14.4933 8.46357L14.4991 8.41597L14.5038 8.36837L14.5072 8.32022L14.5101 8.27262L14.5119 8.22503L14.5125 8.17687L14.5119 8.12871L14.5101 8.08112Z" fill="#797979" />
		<path d="M-0.000606387 6.91746L0.00171691 6.96561L0.00578269 7.01321L0.0104293 7.0608L0.0162375 7.1084L0.0226266 7.156L0.0307582 7.20303L0.0394705 7.25063L0.0493446 7.29767L0.0603803 7.34414L0.0725776 7.39062L0.0853557 7.43709L0.0998764 7.48301L0.114978 7.52837L0.13066 7.57372L0.148085 7.61908L0.16609 7.66332L0.185258 7.70811L0.205006 7.75179L0.225915 7.79547L0.247406 7.83802L0.270639 7.88058L0.294453 7.92314L0.319428 7.96457L0.344985 8.00545L0.371122 8.04577L0.39842 8.08608L0.426881 8.12584L0.455922 8.16448L0.465796 8.1768H0.898511L0.89096 8.14768L0.882248 8.11072L0.874116 8.0732L0.867146 8.03569L0.861338 7.99761L0.857272 7.95953L0.853207 7.92146L0.850302 7.88338L0.849141 7.8453L0.84856 7.80667L0.849141 7.76859L0.850302 7.73051L0.853207 7.69187L0.857272 7.65436L0.861338 7.61628L0.867146 7.57876L0.874116 7.54069L0.882248 7.50317L0.89096 7.46565L0.900834 7.42926L0.91187 7.3923L0.923486 7.3559L0.936845 7.3195L0.950785 7.28367L0.965887 7.24839L0.981569 7.21311L0.998413 7.1784L1.01584 7.1448L1.035 7.11064L1.05475 7.0776L1.07508 7.04457L1.09657 7.01265L1.11922 6.98073L1.14188 6.94993L1.16685 6.9197L1.19125 6.88946L1.21738 6.86034L1.24352 6.83234L1.27082 6.80434L1.29928 6.77747L1.32774 6.75115L1.35736 6.72539L1.38757 6.70075L1.41777 6.67668L1.44971 6.65372L1.48166 6.63076L1.51477 6.60948L1.54845 6.58876L1.58214 6.5686L1.61583 6.55013L1.65126 6.53221L1.68669 6.51485L1.7227 6.49861L1.75929 6.48293L1.7953 6.46837L1.83306 6.45549L1.87023 6.44317L1.90799 6.43142L1.94632 6.42078L1.98465 6.41126L2.02357 6.4023L2.0619 6.39502L2.1014 6.3883L2.1409 6.3827L2.17981 6.37822L2.21931 6.37486L2.2588 6.37206L2.2983 6.37038L2.33838 6.36982H14.5125V4.56396H2.33838L2.28843 4.56452L2.23906 4.56564L2.1891 4.56844L2.13973 4.5718L2.08978 4.57628L2.04099 4.58188L1.99162 4.5886L1.94283 4.59588L1.89405 4.60484L1.84468 4.61436L1.79647 4.625L1.74826 4.63676L1.70063 4.64908L1.65242 4.66308L1.60538 4.67708L1.55833 4.69275L1.51186 4.70899L1.4654 4.72691L1.41951 4.74483L1.37421 4.76387L1.3289 4.78459L1.28418 4.80587L1.24004 4.82714L1.19647 4.85066L1.15349 4.87418L1.11051 4.89882L1.06869 4.92458L1.02687 4.95089L0.986216 4.97833L0.946139 5.00633L0.906062 5.03489L0.867727 5.06456L0.828812 5.09536L0.791058 5.12672L0.754466 5.15864L0.718455 5.19167L0.683025 5.22471L0.648175 5.25943L0.613907 5.29471L0.5808 5.32998L0.548273 5.36638L0.516909 5.40334L0.486125 5.44085L0.455922 5.47893L0.426881 5.51813L0.39842 5.55733L0.371122 5.59708L0.344985 5.63796L0.319428 5.6794L0.294453 5.72083L0.270639 5.76227L0.247406 5.80483L0.225915 5.8485L0.205006 5.89162L0.185258 5.93585L0.16609 5.97953L0.148085 6.02433L0.13066 6.06912L0.114978 6.11448L0.0998764 6.1604L0.0853557 6.20631L0.0725776 6.25279L0.0603803 6.29927L0.0493446 6.3463L0.0394705 6.39278L0.0307582 6.43981L0.0226266 6.48741L0.0162375 6.53501L0.0104293 6.5826L0.00578269 6.6302L0.00171691 6.6778L-0.000606387 6.72539L-0.00292969 6.77355V6.8217V6.86986L-0.000606387 6.91746Z" fill="#797979" />
		<path d="M14.5101 12.1459L14.5078 12.0983L14.5043 12.0507L14.4991 12.0026L14.4939 11.955L14.4869 11.9079L14.4788 11.8603L14.4701 11.8133L14.4602 11.7663L14.4492 11.7192L14.437 11.6733L14.4242 11.6268L14.4102 11.5804L14.3951 11.5356L14.3789 11.4896L14.3615 11.4448L14.344 11.4006L14.3249 11.3558L14.3045 11.3121L14.2842 11.2685L14.2621 11.2253L14.2389 11.1833L14.2157 11.1408L14.1907 11.0993L14.1646 11.0579L14.1384 11.0176L14.1111 10.9773L14.0827 10.9381L14.0536 10.8994L14.0234 10.8608L13.9932 10.8239L13.9613 10.7863L13.9287 10.7505L13.8956 10.7147L13.8614 10.6799L13.8271 10.6452L13.7911 10.6122L13.7551 10.5792L13.7185 10.5472L13.6807 10.5159L13.6424 10.4851L13.6401 10.4834L13.5855 10.5153L13.5373 10.5416L13.4873 10.568L13.4809 10.5713L13.4937 10.5943L13.5117 10.6284L13.5286 10.6631L13.5437 10.6984L13.5593 10.7337L13.5727 10.769L13.5861 10.8054L13.5983 10.8423L13.6087 10.8787L13.6192 10.9157L13.6279 10.9532L13.6354 10.9902L13.6424 11.0282L13.6482 11.0663L13.6529 11.1038L13.6569 11.1419L13.6592 11.18L13.661 11.2186V11.2567V11.2948L13.6592 11.3329L13.6569 11.3715L13.6529 11.409L13.6482 11.4476L13.6424 11.4852L13.6354 11.5227L13.6279 11.5608L13.6192 11.5977L13.6087 11.6347L13.5983 11.6716L13.5861 11.708L13.5727 11.7444L13.5593 11.7797L13.5437 11.8155L13.5286 11.8508L13.5117 11.885L13.4937 11.9191L13.4745 11.9527L13.4548 11.9863L13.4345 12.0188L13.413 12.0513L13.3903 12.0826L13.3677 12.1134L13.3433 12.1442L13.3183 12.1739L13.2927 12.203L13.266 12.2316L13.2387 12.259L13.2108 12.2865L13.1818 12.3122L13.1528 12.338L13.1226 12.3632L13.0918 12.3867L13.0604 12.4102L13.0279 12.4326L12.9948 12.4539L12.9617 12.4746L12.928 12.4948L12.8937 12.5138L12.8583 12.5317L12.8229 12.5491L12.7868 12.5653L12.7502 12.5804L12.7142 12.595L12.6771 12.6084L12.6393 12.6207L12.6016 12.6325L12.5638 12.6431L12.5249 12.6527L12.4866 12.6611L12.4476 12.6689L12.4087 12.6751L12.3692 12.6807L12.3297 12.6857L12.2902 12.6891L12.2507 12.6913L12.2112 12.6935H12.1712H-0.00292969V14.5H12.1712L12.2211 14.4994L12.2705 14.4983L12.3204 14.4955L12.3698 14.4916L12.4198 14.4876L12.4691 14.482L12.5185 14.4748L12.5673 14.4675L12.6161 14.4591L12.6649 14.449L12.7131 14.4384L12.7613 14.4272L12.8089 14.4148L12.8571 14.4008L12.9042 14.3868L12.9512 14.3706L12.9983 14.3544L13.0447 14.337L13.0906 14.3191L13.1359 14.3001L13.1812 14.2793L13.2254 14.2581L13.2701 14.2362L13.3131 14.2133L13.3566 14.1897L13.399 14.1651L13.4408 14.1388L13.4827 14.113L13.5233 14.0856L13.5634 14.057L13.6035 14.0285L13.6424 13.9988L13.6807 13.968L13.7185 13.9366L13.7551 13.9053L13.7911 13.8722L13.8271 13.8387L13.8614 13.8045L13.8956 13.7692L13.9287 13.7339L13.9613 13.6975L13.9932 13.6606L14.0234 13.6231L14.0536 13.585L14.0827 13.5458L14.1111 13.5066L14.1384 13.4663L14.1646 13.426L14.1907 13.3845L14.2157 13.3431L14.2389 13.3011L14.2621 13.2585L14.2842 13.2154L14.3045 13.1723L14.3249 13.1281L14.344 13.0838L14.3615 13.0396L14.3789 12.9942L14.3951 12.9489L14.4102 12.903L14.4242 12.857L14.437 12.8111L14.4492 12.7641L14.4602 12.7176L14.4701 12.6711L14.4788 12.6235L14.4869 12.5765L14.4939 12.5289L14.4991 12.4813L14.5043 12.4337L14.5078 12.3856L14.5101 12.338L14.5125 12.2904V12.2422V12.1941L14.5101 12.1459Z" fill="#797979" />
		<path d="M-0.000606387 2.85349L0.00171691 2.90165L0.00520186 2.94924L0.0104293 2.9974L0.0162375 3.045L0.0226266 3.09203L0.0307582 3.13963L0.0394705 3.18667L0.0493446 3.2337L0.0603803 3.28018L0.0725776 3.32665L0.0853557 3.37257L0.0992955 3.41905L0.114978 3.4644L0.13066 3.50976L0.148085 3.55512L0.16551 3.59935L0.184677 3.64415L0.205006 3.68782L0.225915 3.7315L0.247406 3.77406L0.270639 3.81661L0.294453 3.85917L0.318847 3.90061L0.344985 3.94204L0.371122 3.9818L0.39842 4.02212L0.426881 4.06188L0.455922 4.10051L0.486125 4.13915L0.516909 4.17611L0.548273 4.21362L0.5808 4.24946L0.613907 4.2853L0.648175 4.32001L0.683025 4.35417L0.718455 4.38777L0.754466 4.42081L0.791058 4.45272L0.828812 4.48408L0.867727 4.51432L0.86947 4.516L0.924067 4.48464L0.972276 4.45832L1.02223 4.43145L1.0292 4.42865L1.01584 4.40569L0.998413 4.37153L0.981569 4.33681L0.965887 4.30154L0.950785 4.26626L0.936845 4.23042L0.923486 4.19458L0.91187 4.15763L0.900834 4.12123L0.89096 4.08427L0.881667 4.04676L0.874116 4.0098L0.867146 3.97172L0.861338 3.93365L0.856692 3.89613L0.853207 3.85805L0.850302 3.81997L0.849141 3.78134L0.84856 3.74326L0.849141 3.70518L0.850302 3.66655L0.853207 3.62791L0.856692 3.59039L0.861338 3.55232L0.867146 3.5148L0.874116 3.47672L0.881667 3.4392L0.89096 3.40225L0.900834 3.36529L0.91187 3.32833L0.923486 3.29194L0.936845 3.25554L0.950785 3.2197L0.965887 3.18443L0.981569 3.14915L0.998413 3.11443L1.01584 3.08083L1.035 3.04668L1.05475 3.01364L1.07508 2.9806L1.09657 2.94868L1.11922 2.91733L1.14188 2.88653L1.16685 2.85573L1.19125 2.82605L1.21738 2.79694L1.24352 2.76838L1.27082 2.74038L1.2987 2.7135L1.32774 2.68719L1.35736 2.66199L1.38698 2.63679L1.41777 2.61271L1.44971 2.58975L1.48166 2.56679L1.51477 2.54552L1.54787 2.5248L1.58214 2.50464L1.61583 2.48616L1.65126 2.46824L1.68669 2.45088L1.7227 2.43465L1.75929 2.41897L1.7953 2.40497L1.83306 2.39153L1.87023 2.37921L1.90799 2.36745L1.94632 2.35681L1.98465 2.34729L2.02357 2.33889L2.0619 2.33105L2.1014 2.32489L2.1409 2.31929L2.17981 2.31425L2.21931 2.3109L2.2588 2.3081L2.2983 2.30642H2.33838H14.5125V0.5H2.33838H2.28843L2.23906 0.50168L2.1891 0.50448L2.13973 0.508399L2.08978 0.512319L2.04041 0.517919L1.99162 0.525198L1.94225 0.531917L1.89346 0.540877L1.84468 0.550396L1.79647 0.561595L1.74826 0.572794L1.70063 0.585113L1.65242 0.599112L1.60538 0.613111L1.55833 0.62879L1.51186 0.645028L1.46482 0.662947L1.41951 0.680866L1.37421 0.699904L1.3289 0.720622L1.28418 0.741341L1.24004 0.763739L1.19647 0.786697L1.15349 0.810215L1.11051 0.834853L1.06869 0.860611L1.02687 0.886929L0.986216 0.914367L0.946139 0.942365L0.906062 0.971482L0.867727 1.00116L0.828812 1.03196L0.791058 1.06275L0.754466 1.09467L0.718455 1.12771L0.683025 1.16131L0.648175 1.19546L0.613907 1.23018L0.5808 1.26602L0.548273 1.30242L0.516909 1.33937L0.486125 1.37689L0.455922 1.41497L0.426881 1.45416L0.39842 1.49336L0.371122 1.53312L0.344985 1.57399L0.318847 1.61487L0.294453 1.65687L0.270639 1.69886L0.247406 1.74086L0.225915 1.78454L0.205006 1.82765L0.184677 1.87189L0.16551 1.91613L0.148085 1.96036L0.13066 2.00516L0.114978 2.05108L0.0992955 2.09643L0.0853557 2.14235L0.0725776 2.18882L0.0603803 2.2353L0.0493446 2.28234L0.0394705 2.32881L0.0307582 2.37585L0.0226266 2.42345L0.0162375 2.47104L0.0104293 2.51864L0.00520186 2.56623L0.00171691 2.61439L-0.000606387 2.66199L-0.00292969 2.70958V2.75774V2.8059L-0.000606387 2.85349Z" fill="#797979" />
	</g>
	<defs>
		<clipPath id="clip0_1322_33317">
			<rect width="14.5154" height="14" fill="white" transform="translate(0 0.5)" />
		</clipPath>
	</defs>
</svg>
