<svg width="16" height="15" viewBox="0 0 16 15" fill="none" xmlns="http://www.w3.org/2000/svg">
<g clip-path="url(#clip0_202_7772)">
<mask id="path-1-inside-1_202_7772" fill="white">
<path d="M14.5099 8.08145L14.507 8.0333L14.5035 7.9857L14.4989 7.93754L14.4931 7.88995L14.4867 7.84291L14.4785 7.79531L14.4692 7.74828L14.46 7.70124L14.4489 7.65477L14.4367 7.60829L14.4239 7.56181L14.4094 7.5159L14.3943 7.47054L14.3786 7.42462L14.3612 7.37983L14.3432 7.33559L14.324 7.2908L14.3043 7.24712L14.2834 7.20344L14.2619 7.16033L14.2387 7.11833L14.2148 7.07577L14.1899 7.03434L14.1643 6.9929L14.1382 6.95258L14.1103 6.91227L14.0824 6.87307L14.0534 6.83443L14.0435 6.82211H13.6108L13.6183 6.85067L13.627 6.88819L13.6352 6.92514L13.6422 6.96322L13.648 7.0013L13.652 7.03882L13.6561 7.07689L13.659 7.11497L13.6602 7.15361L13.6607 7.19168L13.6602 7.22976L13.659 7.26784L13.6561 7.30647L13.652 7.34455L13.648 7.38263L13.6422 7.42015L13.6352 7.45766L13.627 7.49574L13.6183 7.5327L13.6085 7.56965L13.5974 7.60661L13.5858 7.64301L13.5725 7.6794L13.5585 7.71524L13.5434 7.75052L13.5277 7.7858L13.5109 7.82051L13.4935 7.85411L13.4743 7.88771L13.4545 7.9213L13.4342 7.95378L13.4121 7.98626L13.3901 8.01762L13.3668 8.04841L13.3424 8.07921L13.3175 8.10889L13.2919 8.13801L13.2658 8.16657L13.2385 8.194L13.21 8.22144L13.1816 8.2472L13.1519 8.27296L13.1217 8.29815L13.0909 8.32167L13.0596 8.34519L13.0271 8.36815L12.9945 8.38943L12.9608 8.40959L12.9272 8.42974L12.8929 8.44878L12.858 8.4667L12.8226 8.48406L12.7866 8.5003L12.75 8.51542L12.7134 8.52998L12.6762 8.54342L12.6391 8.55573L12.6013 8.56749L12.563 8.57813L12.5241 8.58765L12.4857 8.59605L12.4468 8.60389L12.4079 8.61005L12.3684 8.61565L12.3295 8.62069L12.29 8.62405L12.2505 8.62629L12.211 8.62797L12.1709 8.62853H-0.00317383V10.4349H12.1709L12.2209 10.4344L12.2702 10.4333L12.3202 10.4305L12.3696 10.4265L12.4189 10.4221L12.4683 10.417L12.5177 10.4097L12.5665 10.4025L12.6153 10.3941L12.664 10.384L12.7128 10.3733L12.7605 10.3621L12.8087 10.3493L12.8569 10.3358L12.9039 10.3218L12.951 10.3056L12.9974 10.2894L13.0439 10.272L13.0898 10.2541L13.1351 10.235L13.1804 10.2143L13.2251 10.193L13.2693 10.1712L13.3128 10.1482L13.3558 10.1247L13.3988 10.0995L13.44 10.0743L13.4818 10.048L13.5231 10.0206L13.5632 9.99258L13.6027 9.96346L13.6416 9.93378L13.6805 9.90299L13.7182 9.87163L13.7548 9.84027L13.7908 9.80723L13.8263 9.77364L13.8611 9.73948L13.8948 9.7042L13.9285 9.66893L13.961 9.63253L13.9924 9.59557L14.0232 9.55805L14.0534 9.51942L14.0824 9.48078L14.1103 9.44158L14.1382 9.40127L14.1643 9.36095L14.1899 9.31951L14.2148 9.27808L14.2387 9.23608L14.2619 9.19352L14.2834 9.15041L14.3043 9.10729L14.324 9.06305L14.3432 9.01882L14.3612 8.97458L14.3786 8.92922L14.3943 8.88387L14.4094 8.83851L14.4239 8.79204L14.4367 8.74612L14.4489 8.69964L14.46 8.65261L14.4692 8.60613L14.4785 8.55909L14.4867 8.5115L14.4931 8.4639L14.4989 8.41631L14.5035 8.36871L14.507 8.32055L14.5099 8.27296L14.5116 8.22536L14.5122 8.1772L14.5116 8.12905L14.5099 8.08145Z"/>
</mask>
<path d="M14.5099 8.08145L14.507 8.0333L14.5035 7.9857L14.4989 7.93754L14.4931 7.88995L14.4867 7.84291L14.4785 7.79531L14.4692 7.74828L14.46 7.70124L14.4489 7.65477L14.4367 7.60829L14.4239 7.56181L14.4094 7.5159L14.3943 7.47054L14.3786 7.42462L14.3612 7.37983L14.3432 7.33559L14.324 7.2908L14.3043 7.24712L14.2834 7.20344L14.2619 7.16033L14.2387 7.11833L14.2148 7.07577L14.1899 7.03434L14.1643 6.9929L14.1382 6.95258L14.1103 6.91227L14.0824 6.87307L14.0534 6.83443L14.0435 6.82211H13.6108L13.6183 6.85067L13.627 6.88819L13.6352 6.92514L13.6422 6.96322L13.648 7.0013L13.652 7.03882L13.6561 7.07689L13.659 7.11497L13.6602 7.15361L13.6607 7.19168L13.6602 7.22976L13.659 7.26784L13.6561 7.30647L13.652 7.34455L13.648 7.38263L13.6422 7.42015L13.6352 7.45766L13.627 7.49574L13.6183 7.5327L13.6085 7.56965L13.5974 7.60661L13.5858 7.64301L13.5725 7.6794L13.5585 7.71524L13.5434 7.75052L13.5277 7.7858L13.5109 7.82051L13.4935 7.85411L13.4743 7.88771L13.4545 7.9213L13.4342 7.95378L13.4121 7.98626L13.3901 8.01762L13.3668 8.04841L13.3424 8.07921L13.3175 8.10889L13.2919 8.13801L13.2658 8.16657L13.2385 8.194L13.21 8.22144L13.1816 8.2472L13.1519 8.27296L13.1217 8.29815L13.0909 8.32167L13.0596 8.34519L13.0271 8.36815L12.9945 8.38943L12.9608 8.40959L12.9272 8.42974L12.8929 8.44878L12.858 8.4667L12.8226 8.48406L12.7866 8.5003L12.75 8.51542L12.7134 8.52998L12.6762 8.54342L12.6391 8.55573L12.6013 8.56749L12.563 8.57813L12.5241 8.58765L12.4857 8.59605L12.4468 8.60389L12.4079 8.61005L12.3684 8.61565L12.3295 8.62069L12.29 8.62405L12.2505 8.62629L12.211 8.62797L12.1709 8.62853H-0.00317383V10.4349H12.1709L12.2209 10.4344L12.2702 10.4333L12.3202 10.4305L12.3696 10.4265L12.4189 10.4221L12.4683 10.417L12.5177 10.4097L12.5665 10.4025L12.6153 10.3941L12.664 10.384L12.7128 10.3733L12.7605 10.3621L12.8087 10.3493L12.8569 10.3358L12.9039 10.3218L12.951 10.3056L12.9974 10.2894L13.0439 10.272L13.0898 10.2541L13.1351 10.235L13.1804 10.2143L13.2251 10.193L13.2693 10.1712L13.3128 10.1482L13.3558 10.1247L13.3988 10.0995L13.44 10.0743L13.4818 10.048L13.5231 10.0206L13.5632 9.99258L13.6027 9.96346L13.6416 9.93378L13.6805 9.90299L13.7182 9.87163L13.7548 9.84027L13.7908 9.80723L13.8263 9.77364L13.8611 9.73948L13.8948 9.7042L13.9285 9.66893L13.961 9.63253L13.9924 9.59557L14.0232 9.55805L14.0534 9.51942L14.0824 9.48078L14.1103 9.44158L14.1382 9.40127L14.1643 9.36095L14.1899 9.31951L14.2148 9.27808L14.2387 9.23608L14.2619 9.19352L14.2834 9.15041L14.3043 9.10729L14.324 9.06305L14.3432 9.01882L14.3612 8.97458L14.3786 8.92922L14.3943 8.88387L14.4094 8.83851L14.4239 8.79204L14.4367 8.74612L14.4489 8.69964L14.46 8.65261L14.4692 8.60613L14.4785 8.55909L14.4867 8.5115L14.4931 8.4639L14.4989 8.41631L14.5035 8.36871L14.507 8.32055L14.5099 8.27296L14.5116 8.22536L14.5122 8.1772L14.5116 8.12905L14.5099 8.08145Z" stroke="black" stroke-width="2" mask="url(#path-1-inside-1_202_7772)"/>
<mask id="path-2-inside-2_202_7772" fill="white">
<path d="M-0.000850528 6.9177L0.00147277 6.96586L0.00553855 7.01345L0.0101852 7.06105L0.0159934 7.10864L0.0223825 7.15624L0.030514 7.20328L0.0392264 7.25087L0.0491004 7.29791L0.0601361 7.34439L0.0723334 7.39086L0.0851116 7.43734L0.0996322 7.48325L0.114734 7.52861L0.130416 7.57397L0.147841 7.61932L0.165846 7.66356L0.185014 7.70836L0.204762 7.75203L0.225671 7.79571L0.247162 7.83827L0.270395 7.88082L0.294209 7.92338L0.319184 7.96482L0.34474 8.00569L0.370878 8.04601L0.398176 8.08633L0.426637 8.12608L0.455678 8.16472L0.465552 8.17704H0.898267L0.890716 8.14792L0.882004 8.11096L0.873872 8.07345L0.866902 8.03593L0.861094 7.99785L0.857028 7.95978L0.852962 7.9217L0.850058 7.88362L0.848897 7.84555L0.848316 7.80691L0.848897 7.76883L0.850058 7.73076L0.852962 7.69212L0.857028 7.6546L0.861094 7.61652L0.866902 7.57901L0.873872 7.54093L0.882004 7.50341L0.890716 7.4659L0.90059 7.4295L0.911626 7.39254L0.923242 7.35615L0.936601 7.31975L0.950541 7.28391L0.965643 7.24863L0.981325 7.21336L0.998169 7.17864L1.01559 7.14504L1.03476 7.11088L1.05451 7.07785L1.07484 7.04481L1.09633 7.01289L1.11898 6.98098L1.14163 6.95018L1.16661 6.91994L1.191 6.8897L1.21714 6.86058L1.24328 6.83259L1.27058 6.80459L1.29904 6.77771L1.3275 6.75139L1.35712 6.72564L1.38732 6.701L1.41752 6.67692L1.44947 6.65396L1.48142 6.631L1.51452 6.60972L1.54821 6.58901L1.5819 6.56885L1.61559 6.55037L1.65102 6.53245L1.68645 6.51509L1.72246 6.49885L1.75905 6.48318L1.79506 6.46862L1.83281 6.45574L1.86999 6.44342L1.90774 6.43166L1.94608 6.42102L1.98441 6.4115L2.02332 6.40254L2.06166 6.39526L2.10116 6.38854L2.14065 6.38294L2.17957 6.37846L2.21906 6.3751L2.25856 6.3723L2.29806 6.37062L2.33813 6.37006H14.5122V4.56421H2.33813L2.28818 4.56477L2.23881 4.56589L2.18886 4.56869L2.13949 4.57205L2.08954 4.57653L2.04075 4.58213L1.99138 4.58885L1.94259 4.59613L1.8938 4.60509L1.84443 4.61461L1.79622 4.62524L1.74801 4.637L1.70039 4.64932L1.65218 4.66332L1.60513 4.67732L1.55808 4.693L1.51162 4.70924L1.46515 4.72716L1.41927 4.74507L1.37396 4.76411L1.32866 4.78483L1.28393 4.80611L1.23979 4.82739L1.19623 4.85091L1.15325 4.87442L1.11027 4.89906L1.06845 4.92482L1.02663 4.95114L0.985971 4.97858L0.945894 5.00657L0.905818 5.03513L0.867483 5.06481L0.828568 5.09561L0.790814 5.12696L0.754222 5.15888L0.718211 5.19192L0.682781 5.22496L0.647931 5.25967L0.613662 5.29495L0.580555 5.33023L0.548029 5.36662L0.516665 5.40358L0.485881 5.4411L0.455678 5.47918L0.426637 5.51837L0.398176 5.55757L0.370878 5.59733L0.34474 5.6382L0.319184 5.67964L0.294209 5.72108L0.270395 5.76251L0.247162 5.80507L0.225671 5.84875L0.204762 5.89186L0.185014 5.9361L0.165846 5.97978L0.147841 6.02457L0.130416 6.06937L0.114734 6.11472L0.0996322 6.16064L0.0851116 6.20656L0.0723334 6.25303L0.0601361 6.29951L0.0491004 6.34655L0.0392264 6.39302L0.030514 6.44006L0.0223825 6.48765L0.0159934 6.53525L0.0101852 6.58285L0.00553855 6.63044L0.00147277 6.67804L-0.000850528 6.72564L-0.00317383 6.77379V6.82195V6.8701L-0.000850528 6.9177Z"/>
</mask>
<path d="M-0.000850528 6.9177L0.00147277 6.96586L0.00553855 7.01345L0.0101852 7.06105L0.0159934 7.10864L0.0223825 7.15624L0.030514 7.20328L0.0392264 7.25087L0.0491004 7.29791L0.0601361 7.34439L0.0723334 7.39086L0.0851116 7.43734L0.0996322 7.48325L0.114734 7.52861L0.130416 7.57397L0.147841 7.61932L0.165846 7.66356L0.185014 7.70836L0.204762 7.75203L0.225671 7.79571L0.247162 7.83827L0.270395 7.88082L0.294209 7.92338L0.319184 7.96482L0.34474 8.00569L0.370878 8.04601L0.398176 8.08633L0.426637 8.12608L0.455678 8.16472L0.465552 8.17704H0.898267L0.890716 8.14792L0.882004 8.11096L0.873872 8.07345L0.866902 8.03593L0.861094 7.99785L0.857028 7.95978L0.852962 7.9217L0.850058 7.88362L0.848897 7.84555L0.848316 7.80691L0.848897 7.76883L0.850058 7.73076L0.852962 7.69212L0.857028 7.6546L0.861094 7.61652L0.866902 7.57901L0.873872 7.54093L0.882004 7.50341L0.890716 7.4659L0.90059 7.4295L0.911626 7.39254L0.923242 7.35615L0.936601 7.31975L0.950541 7.28391L0.965643 7.24863L0.981325 7.21336L0.998169 7.17864L1.01559 7.14504L1.03476 7.11088L1.05451 7.07785L1.07484 7.04481L1.09633 7.01289L1.11898 6.98098L1.14163 6.95018L1.16661 6.91994L1.191 6.8897L1.21714 6.86058L1.24328 6.83259L1.27058 6.80459L1.29904 6.77771L1.3275 6.75139L1.35712 6.72564L1.38732 6.701L1.41752 6.67692L1.44947 6.65396L1.48142 6.631L1.51452 6.60972L1.54821 6.58901L1.5819 6.56885L1.61559 6.55037L1.65102 6.53245L1.68645 6.51509L1.72246 6.49885L1.75905 6.48318L1.79506 6.46862L1.83281 6.45574L1.86999 6.44342L1.90774 6.43166L1.94608 6.42102L1.98441 6.4115L2.02332 6.40254L2.06166 6.39526L2.10116 6.38854L2.14065 6.38294L2.17957 6.37846L2.21906 6.3751L2.25856 6.3723L2.29806 6.37062L2.33813 6.37006H14.5122V4.56421H2.33813L2.28818 4.56477L2.23881 4.56589L2.18886 4.56869L2.13949 4.57205L2.08954 4.57653L2.04075 4.58213L1.99138 4.58885L1.94259 4.59613L1.8938 4.60509L1.84443 4.61461L1.79622 4.62524L1.74801 4.637L1.70039 4.64932L1.65218 4.66332L1.60513 4.67732L1.55808 4.693L1.51162 4.70924L1.46515 4.72716L1.41927 4.74507L1.37396 4.76411L1.32866 4.78483L1.28393 4.80611L1.23979 4.82739L1.19623 4.85091L1.15325 4.87442L1.11027 4.89906L1.06845 4.92482L1.02663 4.95114L0.985971 4.97858L0.945894 5.00657L0.905818 5.03513L0.867483 5.06481L0.828568 5.09561L0.790814 5.12696L0.754222 5.15888L0.718211 5.19192L0.682781 5.22496L0.647931 5.25967L0.613662 5.29495L0.580555 5.33023L0.548029 5.36662L0.516665 5.40358L0.485881 5.4411L0.455678 5.47918L0.426637 5.51837L0.398176 5.55757L0.370878 5.59733L0.34474 5.6382L0.319184 5.67964L0.294209 5.72108L0.270395 5.76251L0.247162 5.80507L0.225671 5.84875L0.204762 5.89186L0.185014 5.9361L0.165846 5.97978L0.147841 6.02457L0.130416 6.06937L0.114734 6.11472L0.0996322 6.16064L0.0851116 6.20656L0.0723334 6.25303L0.0601361 6.29951L0.0491004 6.34655L0.0392264 6.39302L0.030514 6.44006L0.0223825 6.48765L0.0159934 6.53525L0.0101852 6.58285L0.00553855 6.63044L0.00147277 6.67804L-0.000850528 6.72564L-0.00317383 6.77379V6.82195V6.8701L-0.000850528 6.9177Z" stroke="black" stroke-width="2" mask="url(#path-2-inside-2_202_7772)"/>
<mask id="path-3-inside-3_202_7772" fill="white">
<path d="M14.5099 12.1461L14.5076 12.0986L14.5041 12.051L14.4989 12.0028L14.4936 11.9552L14.4867 11.9082L14.4785 11.8606L14.4698 11.8135L14.46 11.7665L14.4489 11.7195L14.4367 11.6735L14.4239 11.6271L14.41 11.5806L14.3949 11.5358L14.3786 11.4899L14.3612 11.4451L14.3438 11.4008L14.3246 11.3561L14.3043 11.3124L14.284 11.2687L14.2619 11.2256L14.2387 11.1836L14.2154 11.141L14.1904 11.0996L14.1643 11.0582L14.1382 11.0178L14.1109 10.9775L14.0824 10.9383L14.0534 10.8997L14.0232 10.8611L13.993 10.8241L13.961 10.7866L13.9285 10.7507L13.8954 10.7149L13.8611 10.6802L13.8269 10.6455L13.7908 10.6124L13.7548 10.5794L13.7182 10.5475L13.6805 10.5161L13.6422 10.4853L13.6398 10.4836L13.5852 10.5156L13.537 10.5419L13.4871 10.5682L13.4807 10.5716L13.4935 10.5945L13.5115 10.6287L13.5283 10.6634L13.5434 10.6987L13.5591 10.7339L13.5725 10.7692L13.5858 10.8056L13.598 10.8426L13.6085 10.879L13.6189 10.9159L13.6276 10.9534L13.6352 10.9904L13.6422 11.0285L13.648 11.0666L13.6526 11.1041L13.6567 11.1422L13.659 11.1802L13.6607 11.2189V11.2569V11.295L13.659 11.3331L13.6567 11.3717L13.6526 11.4092L13.648 11.4479L13.6422 11.4854L13.6352 11.5229L13.6276 11.561L13.6189 11.598L13.6085 11.6349L13.598 11.6719L13.5858 11.7083L13.5725 11.7447L13.5591 11.7799L13.5434 11.8158L13.5283 11.8511L13.5115 11.8852L13.4935 11.9194L13.4743 11.953L13.4545 11.9866L13.4342 12.019L13.4127 12.0515L13.3901 12.0829L13.3674 12.1137L13.343 12.1445L13.3181 12.1741L13.2925 12.2033L13.2658 12.2318L13.2385 12.2593L13.2106 12.2867L13.1816 12.3125L13.1525 12.3382L13.1223 12.3634L13.0915 12.3869L13.0602 12.4104L13.0276 12.4328L12.9945 12.4541L12.9614 12.4748L12.9277 12.495L12.8935 12.514L12.858 12.532L12.8226 12.5493L12.7866 12.5656L12.75 12.5807L12.714 12.5952L12.6768 12.6087L12.6391 12.621L12.6013 12.6328L12.5636 12.6434L12.5246 12.6529L12.4863 12.6613L12.4474 12.6691L12.4085 12.6753L12.369 12.6809L12.3295 12.6859L12.29 12.6893L12.2505 12.6915L12.211 12.6938H12.1709H-0.00317383V14.5002H12.1709L12.2209 14.4996L12.2702 14.4985L12.3202 14.4957L12.3696 14.4918L12.4195 14.4879L12.4689 14.4823L12.5183 14.475L12.567 14.4677L12.6158 14.4593L12.6646 14.4492L12.7128 14.4386L12.761 14.4274L12.8087 14.4151L12.8569 14.4011L12.9039 14.3871L12.951 14.3709L12.998 14.3546L13.0445 14.3373L13.0904 14.3193L13.1357 14.3003L13.181 14.2796L13.2251 14.2583L13.2698 14.2365L13.3128 14.2135L13.3564 14.19L13.3988 14.1653L13.4406 14.139L13.4824 14.1133L13.5231 14.0858L13.5632 14.0573L13.6032 14.0287L13.6422 13.999L13.6805 13.9682L13.7182 13.9369L13.7548 13.9055L13.7908 13.8725L13.8269 13.8389L13.8611 13.8047L13.8954 13.7695L13.9285 13.7342L13.961 13.6978L13.993 13.6608L14.0232 13.6233L14.0534 13.5852L14.0824 13.546L14.1109 13.5068L14.1382 13.4665L14.1643 13.4262L14.1904 13.3848L14.2154 13.3433L14.2387 13.3013L14.2619 13.2588L14.284 13.2157L14.3043 13.1725L14.3246 13.1283L14.3438 13.0841L14.3612 13.0398L14.3786 12.9945L14.3949 12.9491L14.41 12.9032L14.4239 12.8573L14.4367 12.8114L14.4489 12.7643L14.46 12.7179L14.4698 12.6714L14.4785 12.6238L14.4867 12.5768L14.4936 12.5292L14.4989 12.4816L14.5041 12.434L14.5076 12.3858L14.5099 12.3382L14.5122 12.2906V12.2425V12.1943L14.5099 12.1461Z"/>
</mask>
<path d="M14.5099 12.1461L14.5076 12.0986L14.5041 12.051L14.4989 12.0028L14.4936 11.9552L14.4867 11.9082L14.4785 11.8606L14.4698 11.8135L14.46 11.7665L14.4489 11.7195L14.4367 11.6735L14.4239 11.6271L14.41 11.5806L14.3949 11.5358L14.3786 11.4899L14.3612 11.4451L14.3438 11.4008L14.3246 11.3561L14.3043 11.3124L14.284 11.2687L14.2619 11.2256L14.2387 11.1836L14.2154 11.141L14.1904 11.0996L14.1643 11.0582L14.1382 11.0178L14.1109 10.9775L14.0824 10.9383L14.0534 10.8997L14.0232 10.8611L13.993 10.8241L13.961 10.7866L13.9285 10.7507L13.8954 10.7149L13.8611 10.6802L13.8269 10.6455L13.7908 10.6124L13.7548 10.5794L13.7182 10.5475L13.6805 10.5161L13.6422 10.4853L13.6398 10.4836L13.5852 10.5156L13.537 10.5419L13.4871 10.5682L13.4807 10.5716L13.4935 10.5945L13.5115 10.6287L13.5283 10.6634L13.5434 10.6987L13.5591 10.7339L13.5725 10.7692L13.5858 10.8056L13.598 10.8426L13.6085 10.879L13.6189 10.9159L13.6276 10.9534L13.6352 10.9904L13.6422 11.0285L13.648 11.0666L13.6526 11.1041L13.6567 11.1422L13.659 11.1802L13.6607 11.2189V11.2569V11.295L13.659 11.3331L13.6567 11.3717L13.6526 11.4092L13.648 11.4479L13.6422 11.4854L13.6352 11.5229L13.6276 11.561L13.6189 11.598L13.6085 11.6349L13.598 11.6719L13.5858 11.7083L13.5725 11.7447L13.5591 11.7799L13.5434 11.8158L13.5283 11.8511L13.5115 11.8852L13.4935 11.9194L13.4743 11.953L13.4545 11.9866L13.4342 12.019L13.4127 12.0515L13.3901 12.0829L13.3674 12.1137L13.343 12.1445L13.3181 12.1741L13.2925 12.2033L13.2658 12.2318L13.2385 12.2593L13.2106 12.2867L13.1816 12.3125L13.1525 12.3382L13.1223 12.3634L13.0915 12.3869L13.0602 12.4104L13.0276 12.4328L12.9945 12.4541L12.9614 12.4748L12.9277 12.495L12.8935 12.514L12.858 12.532L12.8226 12.5493L12.7866 12.5656L12.75 12.5807L12.714 12.5952L12.6768 12.6087L12.6391 12.621L12.6013 12.6328L12.5636 12.6434L12.5246 12.6529L12.4863 12.6613L12.4474 12.6691L12.4085 12.6753L12.369 12.6809L12.3295 12.6859L12.29 12.6893L12.2505 12.6915L12.211 12.6938H12.1709H-0.00317383V14.5002H12.1709L12.2209 14.4996L12.2702 14.4985L12.3202 14.4957L12.3696 14.4918L12.4195 14.4879L12.4689 14.4823L12.5183 14.475L12.567 14.4677L12.6158 14.4593L12.6646 14.4492L12.7128 14.4386L12.761 14.4274L12.8087 14.4151L12.8569 14.4011L12.9039 14.3871L12.951 14.3709L12.998 14.3546L13.0445 14.3373L13.0904 14.3193L13.1357 14.3003L13.181 14.2796L13.2251 14.2583L13.2698 14.2365L13.3128 14.2135L13.3564 14.19L13.3988 14.1653L13.4406 14.139L13.4824 14.1133L13.5231 14.0858L13.5632 14.0573L13.6032 14.0287L13.6422 13.999L13.6805 13.9682L13.7182 13.9369L13.7548 13.9055L13.7908 13.8725L13.8269 13.8389L13.8611 13.8047L13.8954 13.7695L13.9285 13.7342L13.961 13.6978L13.993 13.6608L14.0232 13.6233L14.0534 13.5852L14.0824 13.546L14.1109 13.5068L14.1382 13.4665L14.1643 13.4262L14.1904 13.3848L14.2154 13.3433L14.2387 13.3013L14.2619 13.2588L14.284 13.2157L14.3043 13.1725L14.3246 13.1283L14.3438 13.0841L14.3612 13.0398L14.3786 12.9945L14.3949 12.9491L14.41 12.9032L14.4239 12.8573L14.4367 12.8114L14.4489 12.7643L14.46 12.7179L14.4698 12.6714L14.4785 12.6238L14.4867 12.5768L14.4936 12.5292L14.4989 12.4816L14.5041 12.434L14.5076 12.3858L14.5099 12.3382L14.5122 12.2906V12.2425V12.1943L14.5099 12.1461Z" stroke="black" stroke-width="2" mask="url(#path-3-inside-3_202_7772)"/>
<mask id="path-4-inside-4_202_7772" fill="white">
<path d="M-0.000850528 2.85364L0.00147277 2.9018L0.00495772 2.9494L0.0101852 2.99755L0.0159934 3.04515L0.0223825 3.09219L0.030514 3.13978L0.0392264 3.18682L0.0491004 3.23385L0.0601361 3.28033L0.0723334 3.32681L0.0851116 3.37272L0.0990514 3.4192L0.114734 3.46456L0.130416 3.50991L0.147841 3.55527L0.165265 3.5995L0.184433 3.6443L0.204762 3.68798L0.225671 3.73165L0.247162 3.77421L0.270395 3.81677L0.294209 3.85932L0.318603 3.90076L0.34474 3.9422L0.370878 3.98195L0.398176 4.02227L0.426637 4.06203L0.455678 4.10066L0.485881 4.1393L0.516665 4.17626L0.548029 4.21378L0.580555 4.24961L0.613662 4.28545L0.647931 4.32017L0.682781 4.35432L0.718211 4.38792L0.754222 4.42096L0.790814 4.45288L0.828568 4.48423L0.867483 4.51447L0.869226 4.51615L0.923823 4.48479L0.972032 4.45848L1.02198 4.4316L1.02895 4.4288L1.01559 4.40584L0.998169 4.37168L0.981325 4.33697L0.965643 4.30169L0.950541 4.26641L0.936601 4.23057L0.923242 4.19474L0.911626 4.15778L0.90059 4.12138L0.890716 4.08443L0.881423 4.04691L0.873872 4.00995L0.866902 3.97187L0.861094 3.9338L0.856447 3.89628L0.852962 3.8582L0.850058 3.82013L0.848897 3.78149L0.848316 3.74341L0.848897 3.70534L0.850058 3.6667L0.852962 3.62806L0.856447 3.59055L0.861094 3.55247L0.866902 3.51495L0.873872 3.47687L0.881423 3.43936L0.890716 3.4024L0.90059 3.36544L0.911626 3.32849L0.923242 3.29209L0.936601 3.25569L0.950541 3.21986L0.965643 3.18458L0.981325 3.1493L0.998169 3.11458L1.01559 3.08099L1.03476 3.04683L1.05451 3.01379L1.07484 2.98075L1.09633 2.94884L1.11898 2.91748L1.14163 2.88668L1.16661 2.85588L1.191 2.82621L1.21714 2.79709L1.24328 2.76853L1.27058 2.74053L1.29846 2.71366L1.3275 2.68734L1.35712 2.66214L1.38674 2.63694L1.41752 2.61286L1.44947 2.58991L1.48142 2.56695L1.51452 2.54567L1.54763 2.52495L1.5819 2.50479L1.61559 2.48631L1.65102 2.4684L1.68645 2.45104L1.72246 2.4348L1.75905 2.41912L1.79506 2.40512L1.83281 2.39168L1.86999 2.37936L1.90774 2.3676L1.94608 2.35696L1.98441 2.34744L2.02332 2.33905L2.06166 2.33121L2.10116 2.32505L2.14065 2.31945L2.17957 2.31441L2.21906 2.31105L2.25856 2.30825L2.29806 2.30657H2.33813H14.5122V0.500153H2.33813H2.28818L2.23881 0.501832L2.18886 0.504632L2.13949 0.508552L2.08954 0.512472L2.04017 0.518071L1.99138 0.525351L1.94201 0.53207L1.89322 0.541029L1.84443 0.550549L1.79622 0.561748L1.74801 0.572947L1.70039 0.585266L1.65218 0.599265L1.60513 0.613264L1.55808 0.628942L1.51162 0.645181L1.46457 0.6631L1.41927 0.681018L1.37396 0.700057L1.32866 0.720775L1.28393 0.741493L1.23979 0.763891L1.19623 0.78685L1.15325 0.810368L1.11027 0.835006L1.06845 0.860764L1.02663 0.887082L0.985971 0.914519L0.945894 0.942517L0.905818 0.971635L0.867483 1.00131L0.828568 1.03211L0.790814 1.06291L0.754222 1.09483L0.718211 1.12786L0.682781 1.16146L0.647931 1.19562L0.613662 1.23033L0.580555 1.26617L0.548029 1.30257L0.516665 1.33953L0.485881 1.37704L0.455678 1.41512L0.426637 1.45432L0.398176 1.49351L0.370878 1.53327L0.34474 1.57415L0.318603 1.61502L0.294209 1.65702L0.270395 1.69902L0.247162 1.74101L0.225671 1.78469L0.204762 1.82781L0.184433 1.87204L0.165265 1.91628L0.147841 1.96052L0.130416 2.00531L0.114734 2.05123L0.0990514 2.09658L0.0851116 2.1425L0.0723334 2.18898L0.0601361 2.23545L0.0491004 2.28249L0.0392264 2.32897L0.030514 2.376L0.0223825 2.4236L0.0159934 2.47119L0.0101852 2.51879L0.00495772 2.56639L0.00147277 2.61454L-0.000850528 2.66214L-0.00317383 2.70974V2.75789V2.80605L-0.000850528 2.85364Z"/>
</mask>
<path d="M-0.000850528 2.85364L0.00147277 2.9018L0.00495772 2.9494L0.0101852 2.99755L0.0159934 3.04515L0.0223825 3.09219L0.030514 3.13978L0.0392264 3.18682L0.0491004 3.23385L0.0601361 3.28033L0.0723334 3.32681L0.0851116 3.37272L0.0990514 3.4192L0.114734 3.46456L0.130416 3.50991L0.147841 3.55527L0.165265 3.5995L0.184433 3.6443L0.204762 3.68798L0.225671 3.73165L0.247162 3.77421L0.270395 3.81677L0.294209 3.85932L0.318603 3.90076L0.34474 3.9422L0.370878 3.98195L0.398176 4.02227L0.426637 4.06203L0.455678 4.10066L0.485881 4.1393L0.516665 4.17626L0.548029 4.21378L0.580555 4.24961L0.613662 4.28545L0.647931 4.32017L0.682781 4.35432L0.718211 4.38792L0.754222 4.42096L0.790814 4.45288L0.828568 4.48423L0.867483 4.51447L0.869226 4.51615L0.923823 4.48479L0.972032 4.45848L1.02198 4.4316L1.02895 4.4288L1.01559 4.40584L0.998169 4.37168L0.981325 4.33697L0.965643 4.30169L0.950541 4.26641L0.936601 4.23057L0.923242 4.19474L0.911626 4.15778L0.90059 4.12138L0.890716 4.08443L0.881423 4.04691L0.873872 4.00995L0.866902 3.97187L0.861094 3.9338L0.856447 3.89628L0.852962 3.8582L0.850058 3.82013L0.848897 3.78149L0.848316 3.74341L0.848897 3.70534L0.850058 3.6667L0.852962 3.62806L0.856447 3.59055L0.861094 3.55247L0.866902 3.51495L0.873872 3.47687L0.881423 3.43936L0.890716 3.4024L0.90059 3.36544L0.911626 3.32849L0.923242 3.29209L0.936601 3.25569L0.950541 3.21986L0.965643 3.18458L0.981325 3.1493L0.998169 3.11458L1.01559 3.08099L1.03476 3.04683L1.05451 3.01379L1.07484 2.98075L1.09633 2.94884L1.11898 2.91748L1.14163 2.88668L1.16661 2.85588L1.191 2.82621L1.21714 2.79709L1.24328 2.76853L1.27058 2.74053L1.29846 2.71366L1.3275 2.68734L1.35712 2.66214L1.38674 2.63694L1.41752 2.61286L1.44947 2.58991L1.48142 2.56695L1.51452 2.54567L1.54763 2.52495L1.5819 2.50479L1.61559 2.48631L1.65102 2.4684L1.68645 2.45104L1.72246 2.4348L1.75905 2.41912L1.79506 2.40512L1.83281 2.39168L1.86999 2.37936L1.90774 2.3676L1.94608 2.35696L1.98441 2.34744L2.02332 2.33905L2.06166 2.33121L2.10116 2.32505L2.14065 2.31945L2.17957 2.31441L2.21906 2.31105L2.25856 2.30825L2.29806 2.30657H2.33813H14.5122V0.500153H2.33813H2.28818L2.23881 0.501832L2.18886 0.504632L2.13949 0.508552L2.08954 0.512472L2.04017 0.518071L1.99138 0.525351L1.94201 0.53207L1.89322 0.541029L1.84443 0.550549L1.79622 0.561748L1.74801 0.572947L1.70039 0.585266L1.65218 0.599265L1.60513 0.613264L1.55808 0.628942L1.51162 0.645181L1.46457 0.6631L1.41927 0.681018L1.37396 0.700057L1.32866 0.720775L1.28393 0.741493L1.23979 0.763891L1.19623 0.78685L1.15325 0.810368L1.11027 0.835006L1.06845 0.860764L1.02663 0.887082L0.985971 0.914519L0.945894 0.942517L0.905818 0.971635L0.867483 1.00131L0.828568 1.03211L0.790814 1.06291L0.754222 1.09483L0.718211 1.12786L0.682781 1.16146L0.647931 1.19562L0.613662 1.23033L0.580555 1.26617L0.548029 1.30257L0.516665 1.33953L0.485881 1.37704L0.455678 1.41512L0.426637 1.45432L0.398176 1.49351L0.370878 1.53327L0.34474 1.57415L0.318603 1.61502L0.294209 1.65702L0.270395 1.69902L0.247162 1.74101L0.225671 1.78469L0.204762 1.82781L0.184433 1.87204L0.165265 1.91628L0.147841 1.96052L0.130416 2.00531L0.114734 2.05123L0.0990514 2.09658L0.0851116 2.1425L0.0723334 2.18898L0.0601361 2.23545L0.0491004 2.28249L0.0392264 2.32897L0.030514 2.376L0.0223825 2.4236L0.0159934 2.47119L0.0101852 2.51879L0.00495772 2.56639L0.00147277 2.61454L-0.000850528 2.66214L-0.00317383 2.70974V2.75789V2.80605L-0.000850528 2.85364Z" stroke="black" stroke-width="2" mask="url(#path-4-inside-4_202_7772)"/>
</g>
<defs>
<clipPath id="clip0_202_7772">
<rect width="14.5154" height="14" fill="white" transform="translate(0 0.5)"/>
</clipPath>
</defs>
</svg>
