<svg width="16" height="16" viewBox="0 0 16 16" fill="none" xmlns="http://www.w3.org/2000/svg">
<g clip-path="url(#clip0_202_6782)">
<path d="M14.5131 7.58122L14.5102 7.53307L14.5067 7.48547L14.502 7.43732L14.4962 7.38972L14.4898 7.34268L14.4817 7.29509L14.4724 7.24805L14.4631 7.20101L14.4521 7.15454L14.4399 7.10806L14.4271 7.06158L14.4126 7.01567L14.3975 6.97031L14.3818 6.9244L14.3644 6.8796L14.3464 6.83536L14.3272 6.79057L14.3075 6.74689L14.2866 6.70321L14.2651 6.6601L14.2418 6.6181L14.218 6.57554L14.193 6.53411L14.1675 6.49267L14.1414 6.45235L14.1135 6.41204L14.0856 6.37284L14.0566 6.3342L14.0467 6.32188H13.614L13.6215 6.35044L13.6302 6.38796L13.6384 6.42492L13.6453 6.46299L13.6511 6.50107L13.6552 6.53859L13.6593 6.57666L13.6622 6.61474L13.6633 6.65338L13.6639 6.69145L13.6633 6.72953L13.6622 6.76761L13.6593 6.80625L13.6552 6.84432L13.6511 6.8824L13.6453 6.91992L13.6384 6.95743L13.6302 6.99551L13.6215 7.03247L13.6116 7.06942L13.6006 7.10638L13.589 7.14278L13.5756 7.17918L13.5617 7.21501L13.5466 7.25029L13.5309 7.28557L13.5141 7.32028L13.4966 7.35388L13.4775 7.38748L13.4577 7.42108L13.4374 7.45355L13.4153 7.48603L13.3932 7.51739L13.37 7.54819L13.3456 7.57898L13.3206 7.60866L13.2951 7.63778L13.269 7.66634L13.2417 7.69377L13.2132 7.72121L13.1847 7.74697L13.1551 7.77273L13.1249 7.79793L13.0941 7.82144L13.0628 7.84496L13.0302 7.86792L12.9977 7.8892L12.964 7.90936L12.9303 7.92952L12.8961 7.94855L12.8612 7.96647L12.8258 7.98383L12.7898 8.00007L12.7532 8.01519L12.7166 8.02975L12.6794 8.04319L12.6422 8.05551L12.6045 8.06726L12.5662 8.0779L12.5272 8.08742L12.4889 8.09582L12.45 8.10366L12.4111 8.10982L12.3716 8.11542L12.3327 8.12046L12.2932 8.12382L12.2537 8.12606L12.2142 8.12774L12.1741 8.1283H0V9.93471H12.1741L12.224 9.93415L12.2734 9.93303L12.3234 9.93023L12.3727 9.92632L12.4221 9.92184L12.4715 9.9168L12.5208 9.90952L12.5696 9.90224L12.6184 9.89384L12.6672 9.88376L12.716 9.87312L12.7636 9.86192L12.8118 9.84904L12.8601 9.8356L12.9071 9.8216L12.9541 9.80537L13.0006 9.78913L13.0471 9.77177L13.093 9.75385L13.1383 9.73481L13.1836 9.71409L13.2283 9.69281L13.2724 9.67098L13.316 9.64802L13.359 9.6245L13.402 9.5993L13.4432 9.5741L13.485 9.54779L13.5263 9.52035L13.5663 9.49235L13.6058 9.46323L13.6447 9.43355L13.6837 9.40276L13.7214 9.3714L13.758 9.34004L13.794 9.30701L13.8294 9.27341L13.8643 9.23925L13.898 9.20397L13.9317 9.1687L13.9642 9.1323L13.9956 9.09534L14.0263 9.05782L14.0566 9.01919L14.0856 8.98055L14.1135 8.94135L14.1414 8.90104L14.1675 8.86072L14.193 8.81928L14.218 8.77785L14.2418 8.73585L14.2651 8.69329L14.2866 8.65018L14.3075 8.60706L14.3272 8.56282L14.3464 8.51859L14.3644 8.47435L14.3818 8.429L14.3975 8.38364L14.4126 8.33828L14.4271 8.29181L14.4399 8.24589L14.4521 8.19941L14.4631 8.15238L14.4724 8.1059L14.4817 8.05886L14.4898 8.01127L14.4962 7.96367L14.502 7.91608L14.5067 7.86848L14.5102 7.82032L14.5131 7.77273L14.5148 7.72513L14.5154 7.67698L14.5148 7.62882L14.5131 7.58122Z" fill="white"/>
<path d="M0.0023233 6.41764L0.0046466 6.4658L0.00871238 6.51339L0.013359 6.56099L0.0191672 6.60858L0.0255563 6.65618L0.0336879 6.70322L0.0424002 6.75081L0.0522743 6.79785L0.06331 6.84433L0.0755073 6.8908L0.0882854 6.93728L0.102806 6.98319L0.117908 7.02855L0.13359 7.07391L0.151015 7.11926L0.16902 7.1635L0.188187 7.2083L0.207935 7.25197L0.228845 7.29565L0.250336 7.33821L0.273569 7.38076L0.297383 7.42332L0.322358 7.46476L0.347914 7.50563L0.374051 7.54595L0.40135 7.58627L0.429811 7.62602L0.458852 7.66466L0.468726 7.67698H0.901441L0.89389 7.64786L0.885178 7.6109L0.877046 7.57339L0.870076 7.53587L0.864268 7.49779L0.860202 7.45972L0.856136 7.42164L0.853232 7.38356L0.852071 7.34548L0.85149 7.30685L0.852071 7.26877L0.853232 7.23069L0.856136 7.19206L0.860202 7.15454L0.864268 7.11646L0.870076 7.07895L0.877046 7.04087L0.885178 7.00335L0.89389 6.96584L0.903764 6.92944L0.9148 6.89248L0.926416 6.85608L0.939775 6.81969L0.953715 6.78385L0.968816 6.74857L0.984499 6.7133L1.00134 6.67858L1.01877 6.64498L1.03793 6.61082L1.05768 6.57779L1.07801 6.54475L1.0995 6.51283L1.12215 6.48091L1.14481 6.45012L1.16978 6.41988L1.19418 6.38964L1.22031 6.36052L1.24645 6.33253L1.27375 6.30453L1.30221 6.27765L1.33067 6.25133L1.36029 6.22557L1.3905 6.20094L1.4207 6.17686L1.45264 6.1539L1.48459 6.13094L1.5177 6.10966L1.55138 6.08895L1.58507 6.06879L1.61876 6.05031L1.65419 6.03239L1.68962 6.01503L1.72563 5.99879L1.76222 5.98311L1.79823 5.96855L1.83599 5.95568L1.87316 5.94336L1.91092 5.9316L1.94925 5.92096L1.98758 5.91144L2.0265 5.90248L2.06483 5.8952L2.10433 5.88848L2.14383 5.88288L2.18274 5.8784L2.22224 5.87504L2.26173 5.87224L2.30123 5.87056L2.34131 5.87H14.5154V4.06415H2.34131L2.29136 4.06471L2.24199 4.06583L2.19203 4.06863L2.14266 4.07199L2.09271 4.07647L2.04392 4.08207L1.99455 4.08879L1.94576 4.09607L1.89698 4.10502L1.8476 4.11454L1.7994 4.12518L1.75119 4.13694L1.70356 4.14926L1.65535 4.16326L1.6083 4.17726L1.56126 4.19294L1.51479 4.20918L1.46833 4.22709L1.42244 4.24501L1.37714 4.26405L1.33183 4.28477L1.28711 4.30605L1.24297 4.32733L1.1994 4.35084L1.15642 4.37436L1.11344 4.399L1.07162 4.42476L1.0298 4.45108L0.989145 4.47851L0.949068 4.50651L0.908991 4.53507L0.870657 4.56475L0.831742 4.59555L0.793988 4.6269L0.757396 4.65882L0.721385 4.69186L0.685955 4.72489L0.651105 4.75961L0.616836 4.79489L0.583729 4.83017L0.551203 4.86656L0.519839 4.90352L0.489055 4.94104L0.458852 4.97911L0.429811 5.01831L0.40135 5.05751L0.374051 5.09727L0.347914 5.13814L0.322358 5.17958L0.297383 5.22101L0.273569 5.26245L0.250336 5.30501L0.228845 5.34868L0.207935 5.3918L0.188187 5.43604L0.16902 5.47971L0.151015 5.52451L0.13359 5.56931L0.117908 5.61466L0.102806 5.66058L0.0882854 5.7065L0.0755073 5.75297L0.06331 5.79945L0.0522743 5.84649L0.0424002 5.89296L0.0336879 5.94L0.0255563 5.98759L0.0191672 6.03519L0.013359 6.08279L0.00871238 6.13038L0.0046466 6.17798L0.0023233 6.22557L0 6.27373V6.32189V6.37004L0.0023233 6.41764Z" fill="white"/>
<path d="M14.5131 11.646L14.5108 11.5984L14.5073 11.5508L14.502 11.5026L14.4968 11.455L14.4898 11.408L14.4817 11.3604L14.473 11.3133L14.4631 11.2663L14.4521 11.2193L14.4399 11.1733L14.4271 11.1269L14.4132 11.0804L14.3981 11.0356L14.3818 10.9897L14.3644 10.9449L14.347 10.9007L14.3278 10.8559L14.3075 10.8122L14.2871 10.7685L14.2651 10.7254L14.2418 10.6834L14.2186 10.6408L14.1936 10.5994L14.1675 10.558L14.1414 10.5176L14.1141 10.4773L14.0856 10.4381L14.0566 10.3995L14.0263 10.3609L13.9961 10.3239L13.9642 10.2864L13.9317 10.2505L13.8986 10.2147L13.8643 10.18L13.83 10.1453L13.794 10.1122L13.758 10.0792L13.7214 10.0473L13.6837 10.0159L13.6453 9.98512L13.643 9.98344L13.5884 10.0154L13.5402 10.0417L13.4902 10.068L13.4839 10.0714L13.4966 10.0943L13.5146 10.1285L13.5315 10.1632L13.5466 10.1985L13.5623 10.2337L13.5756 10.269L13.589 10.3054L13.6012 10.3424L13.6116 10.3788L13.6221 10.4157L13.6308 10.4532L13.6384 10.4902L13.6453 10.5283L13.6511 10.5664L13.6558 10.6039L13.6598 10.642L13.6622 10.68L13.6639 10.7187V10.7567V10.7948L13.6622 10.8329L13.6598 10.8715L13.6558 10.9091L13.6511 10.9477L13.6453 10.9852L13.6384 11.0227L13.6308 11.0608L13.6221 11.0978L13.6116 11.1347L13.6012 11.1717L13.589 11.2081L13.5756 11.2445L13.5623 11.2797L13.5466 11.3156L13.5315 11.3509L13.5146 11.385L13.4966 11.4192L13.4775 11.4528L13.4577 11.4864L13.4374 11.5188L13.4159 11.5513L13.3932 11.5827L13.3706 11.6135L13.3462 11.6443L13.3212 11.6739L13.2957 11.7031L13.269 11.7316L13.2417 11.7591L13.2138 11.7865L13.1847 11.8123L13.1557 11.838L13.1255 11.8632L13.0947 11.8867L13.0633 11.9103L13.0308 11.9326L12.9977 11.9539L12.9646 11.9746L12.9309 11.9948L12.8966 12.0138L12.8612 12.0318L12.8258 12.0491L12.7898 12.0654L12.7532 12.0805L12.7172 12.095L12.68 12.1085L12.6422 12.1208L12.6045 12.1326L12.5667 12.1432L12.5278 12.1527L12.4895 12.1611L12.4506 12.169L12.4117 12.1751L12.3722 12.1807L12.3327 12.1857L12.2932 12.1891L12.2537 12.1913L12.2142 12.1936H12.1741H0V14H12.1741L12.224 13.9994L12.2734 13.9983L12.3234 13.9955L12.3727 13.9916L12.4227 13.9877L12.4721 13.9821L12.5214 13.9748L12.5702 13.9675L12.619 13.9591L12.6678 13.949L12.716 13.9384L12.7642 13.9272L12.8118 13.9149L12.8601 13.9009L12.9071 13.8869L12.9541 13.8707L13.0012 13.8544L13.0477 13.8371L13.0935 13.8191L13.1388 13.8001L13.1842 13.7794L13.2283 13.7581L13.273 13.7363L13.316 13.7133L13.3596 13.6898L13.402 13.6651L13.4438 13.6388L13.4856 13.6131L13.5263 13.5856L13.5663 13.5571L13.6064 13.5285L13.6453 13.4988L13.6837 13.468L13.7214 13.4367L13.758 13.4053L13.794 13.3723L13.83 13.3387L13.8643 13.3045L13.8986 13.2693L13.9317 13.234L13.9642 13.1976L13.9961 13.1606L14.0263 13.1231L14.0566 13.085L14.0856 13.0458L14.1141 13.0066L14.1414 12.9663L14.1675 12.926L14.1936 12.8846L14.2186 12.8431L14.2418 12.8011L14.2651 12.7586L14.2871 12.7155L14.3075 12.6723L14.3278 12.6281L14.347 12.5839L14.3644 12.5396L14.3818 12.4943L14.3981 12.4489L14.4132 12.403L14.4271 12.3571L14.4399 12.3112L14.4521 12.2641L14.4631 12.2177L14.473 12.1712L14.4817 12.1236L14.4898 12.0766L14.4968 12.029L14.502 11.9814L14.5073 11.9338L14.5108 11.8856L14.5131 11.838L14.5154 11.7904V11.7423V11.6941L14.5131 11.646Z" fill="white"/>
<path d="M0.0023233 2.35349L0.0046466 2.40165L0.00813155 2.44924L0.013359 2.4974L0.0191672 2.545L0.0255563 2.59203L0.0336879 2.63963L0.0424002 2.68667L0.0522743 2.7337L0.06331 2.78018L0.0755073 2.82665L0.0882854 2.87257L0.102225 2.91905L0.117908 2.9644L0.13359 3.00976L0.151015 3.05512L0.168439 3.09935L0.187607 3.14415L0.207935 3.18782L0.228845 3.2315L0.250336 3.27406L0.273569 3.31661L0.297383 3.35917L0.321777 3.40061L0.347914 3.44204L0.374051 3.4818L0.40135 3.52212L0.429811 3.56188L0.458852 3.60051L0.489055 3.63915L0.519839 3.67611L0.551203 3.71362L0.583729 3.74946L0.616836 3.7853L0.651105 3.82001L0.685955 3.85417L0.721385 3.88777L0.757396 3.92081L0.793988 3.95272L0.831742 3.98408L0.870657 4.01432L0.8724 4.016L0.926997 3.98464L0.975206 3.95832L1.02516 3.93145L1.03213 3.92865L1.01877 3.90569L1.00134 3.87153L0.984499 3.83681L0.968816 3.80154L0.953715 3.76626L0.939775 3.73042L0.926416 3.69458L0.9148 3.65763L0.903764 3.62123L0.89389 3.58427L0.884597 3.54676L0.877046 3.5098L0.870076 3.47172L0.864268 3.43365L0.859621 3.39613L0.856136 3.35805L0.853232 3.31997L0.852071 3.28134L0.85149 3.24326L0.852071 3.20518L0.853232 3.16655L0.856136 3.12791L0.859621 3.09039L0.864268 3.05232L0.870076 3.0148L0.877046 2.97672L0.884597 2.9392L0.89389 2.90225L0.903764 2.86529L0.9148 2.82833L0.926416 2.79194L0.939775 2.75554L0.953715 2.7197L0.968816 2.68443L0.984499 2.64915L1.00134 2.61443L1.01877 2.58083L1.03793 2.54668L1.05768 2.51364L1.07801 2.4806L1.0995 2.44868L1.12215 2.41733L1.14481 2.38653L1.16978 2.35573L1.19418 2.32605L1.22031 2.29694L1.24645 2.26838L1.27375 2.24038L1.30163 2.2135L1.33067 2.18719L1.36029 2.16199L1.38991 2.13679L1.4207 2.11271L1.45264 2.08975L1.48459 2.06679L1.5177 2.04552L1.5508 2.0248L1.58507 2.00464L1.61876 1.98616L1.65419 1.96824L1.68962 1.95088L1.72563 1.93465L1.76222 1.91897L1.79823 1.90497L1.83599 1.89153L1.87316 1.87921L1.91092 1.86745L1.94925 1.85681L1.98758 1.84729L2.0265 1.83889L2.06483 1.83105L2.10433 1.82489L2.14383 1.81929L2.18274 1.81425L2.22224 1.8109L2.26173 1.8081L2.30123 1.80642H2.34131H14.5154V0H2.34131H2.29136L2.24199 0.00167987L2.19203 0.00447964L2.14266 0.00839933L2.09271 0.012319L2.04334 0.0179186L1.99455 0.025198L1.94518 0.0319174L1.89639 0.0408767L1.8476 0.050396L1.7994 0.0615951L1.75119 0.0727942L1.70356 0.0851132L1.65535 0.0991121L1.6083 0.113111L1.56126 0.12879L1.51479 0.145028L1.46775 0.162947L1.42244 0.180866L1.37714 0.199904L1.33183 0.220622L1.28711 0.241341L1.24297 0.263739L1.1994 0.286697L1.15642 0.310215L1.11344 0.334853L1.07162 0.360611L1.0298 0.386929L0.989145 0.414367L0.949068 0.442365L0.908991 0.471482L0.870657 0.50116L0.831742 0.531957L0.793988 0.562755L0.757396 0.594672L0.721385 0.62771L0.685955 0.661307L0.651105 0.695464L0.616836 0.730182L0.583729 0.766019L0.551203 0.802416L0.519839 0.839373L0.489055 0.87689L0.458852 0.914967L0.429811 0.954164L0.40135 0.993361L0.374051 1.03312L0.347914 1.07399L0.321777 1.11487L0.297383 1.15687L0.273569 1.19886L0.250336 1.24086L0.228845 1.28454L0.207935 1.32765L0.187607 1.37189L0.168439 1.41613L0.151015 1.46036L0.13359 1.50516L0.117908 1.55108L0.102225 1.59643L0.0882854 1.64235L0.0755073 1.68882L0.06331 1.7353L0.0522743 1.78234L0.0424002 1.82881L0.0336879 1.87585L0.0255563 1.92345L0.0191672 1.97104L0.013359 2.01864L0.00813155 2.06623L0.0046466 2.11439L0.0023233 2.16199L0 2.20958V2.25774V2.3059L0.0023233 2.35349Z" fill="white"/>
</g>
<defs>
<clipPath id="clip0_202_6782">
<rect width="14.5154" height="14" fill="white"/>
</clipPath>
</defs>
</svg>
