<svg width="14" height="15" viewBox="0 0 14 15" fill="none" xmlns="http://www.w3.org/2000/svg">
	<path d="M0 1.5C0 0.946875 0.446875 0.5 1 0.5C8.18125 0.5 14 6.31875 14 13.5C14 14.0531 13.5531 14.5 13 14.5C12.4469 14.5 12 14.0531 12 13.5C12 7.425 7.075 2.5 1 2.5C0.446875 2.5 0 2.05313 0 1.5ZM0 12.5C0 11.9696 0.210714 11.4609 0.585786 11.0858C0.960859 10.7107 1.46957 10.5 2 10.5C2.53043 10.5 3.03914 10.7107 3.41421 11.0858C3.78929 11.4609 4 11.9696 4 12.5C4 13.0304 3.78929 13.5391 3.41421 13.9142C3.03914 14.2893 2.53043 14.5 2 14.5C1.46957 14.5 0.960859 14.2893 0.585786 13.9142C0.210714 13.5391 0 13.0304 0 12.5ZM1 4.5C5.97188 4.5 10 8.52812 10 13.5C10 14.0531 9.55313 14.5 9 14.5C8.44687 14.5 8 14.0531 8 13.5C8 9.63437 4.86562 6.5 1 6.5C0.446875 6.5 0 6.05312 0 5.5C0 4.94688 0.446875 4.5 1 4.5Z" fill="#797979" />
</svg>
