<svg width="15" height="15" viewBox="0 0 15 15" fill="none" xmlns="http://www.w3.org/2000/svg">
	<path d="M9.8 3.95H10.45V3.3V2.13333C10.45 1.64601 10.054 1.25 9.56667 1.25H5.36667C4.87935 1.25 4.48333 1.64601 4.48333 2.13333V3.3V3.95H5.13333H9.8ZM3.73333 3.95H4.38333V3.3V2.13333C4.38333 1.59107 4.8244 1.15 5.36667 1.15H9.56667C10.1089 1.15 10.55 1.59107 10.55 2.13333V3.3V3.95H11.2H13.0667C13.7373 3.95 14.2833 4.49607 14.2833 5.16667V7.55H9.33333H5.6H0.65V5.16667C0.65 4.49607 1.19607 3.95 1.86667 3.95H3.73333ZM9.98333 9.83333V9.55H14.2833V12.6333C14.2833 13.3039 13.7373 13.85 13.0667 13.85H1.86667C1.19607 13.85 0.65 13.3039 0.65 12.6333V9.55H4.95V9.83333C4.95 10.7086 5.6581 11.4167 6.53333 11.4167H8.4C9.27523 11.4167 9.98333 10.7086 9.98333 9.83333Z" stroke="#797979" stroke-width="1.3" />
</svg>
