<svg width="13" height="15" viewBox="0 0 13 15" fill="none" xmlns="http://www.w3.org/2000/svg">
	<path d="M7.875 0.5H4.375H3.5C3.01602 0.5 2.625 0.891016 2.625 1.375C2.625 1.85898 3.01602 2.25 3.5 2.25V5.88125C3.5 6.20391 3.40977 6.52383 3.24023 6.79727L0.281641 11.607C0.0984375 11.9078 0 12.2496 0 12.6023C0 13.6496 0.850391 14.5 1.89766 14.5H10.3523C11.3996 14.5 12.25 13.6496 12.25 12.6023C12.25 12.2523 12.1516 11.9078 11.9684 11.607L9.00977 6.8C8.84023 6.52383 8.75 6.20664 8.75 5.88398V2.25C9.23398 2.25 9.625 1.85898 9.625 1.375C9.625 0.891016 9.23398 0.5 8.75 0.5H7.875ZM5.25 5.88125V2.25H7V5.88125C7 6.5293 7.18047 7.16367 7.51953 7.71602L8.46289 9.25H3.78711L4.73047 7.71602C5.06953 7.16367 5.25 6.5293 5.25 5.88125Z" fill="#797979" />
</svg>
