<svg width="14" height="11" viewBox="0 0 14 11" fill="none" xmlns="http://www.w3.org/2000/svg">
	<path d="M1.75 1.5625C1.50937 1.5625 1.3125 1.75937 1.3125 2V2.6043L6.0293 6.47617C6.59531 6.94102 7.40742 6.94102 7.97344 6.47617L12.6875 2.6043V2C12.6875 1.75937 12.4906 1.5625 12.25 1.5625H1.75ZM1.3125 4.30234V9C1.3125 9.24063 1.50937 9.4375 1.75 9.4375H12.25C12.4906 9.4375 12.6875 9.24063 12.6875 9V4.30234L8.80469 7.49062C7.75469 8.35195 6.24258 8.35195 5.19531 7.49062L1.3125 4.30234ZM0 2C0 1.03477 0.784766 0.25 1.75 0.25H12.25C13.2152 0.25 14 1.03477 14 2V9C14 9.96523 13.2152 10.75 12.25 10.75H1.75C0.784766 10.75 0 9.96523 0 9V2Z" fill="#797979" />
</svg>
