<svg width="11" height="18" viewBox="0 0 11 18" fill="none" xmlns="http://www.w3.org/2000/svg">
	<path d="M7.96741 14.7855C8.15197 14.7141 8.27702 14.5405 8.28635 14.3428C8.29558 14.1473 8.18991 13.9646 8.01637 13.875L8.01519 13.8744L8.00615 13.8696C7.99717 13.8649 7.97893 13.8556 7.95395 13.8457C7.80795 13.7215 7.72847 13.5828 7.70184 13.4192L7.70186 13.4192L7.70107 13.4146C7.67787 13.2801 7.6615 13.1707 7.6443 13.0558C7.62869 12.9514 7.61239 12.8425 7.58967 12.706C7.56329 12.5314 7.53587 12.3647 7.50894 12.2008C7.46641 11.942 7.42508 11.6906 7.39096 11.4276C7.36022 11.1815 7.33783 10.9328 7.33041 10.6956L7.33043 10.6956L7.33029 10.692C7.32324 10.5087 7.33009 10.313 7.34504 10.1176C7.36755 9.86367 7.40395 9.62282 7.46572 9.39633L7.46578 9.39634L7.46767 9.38895C7.53851 9.11269 7.63839 8.8469 7.76261 8.58318C7.78169 8.54497 7.79853 8.51064 7.81387 8.47935C7.8667 8.37163 7.90187 8.29994 7.94983 8.23017L7.94996 8.23027L7.95703 8.2194C8.01881 8.12436 8.10654 8.03726 8.22815 7.94765L8.22815 7.94766L8.2299 7.94636C8.48424 7.75724 8.73132 7.65669 9.00226 7.65127C9.27446 7.64583 9.49227 7.42362 9.49227 7.15137C9.49227 7.06169 9.46845 6.97435 9.42408 6.89786C9.38233 6.82587 9.33129 6.7786 9.29449 6.7503C9.25824 6.72241 9.22569 6.70521 9.20777 6.69637C9.20726 6.69612 9.20676 6.69588 9.20626 6.69563C9.19079 6.68726 9.17486 6.67969 9.15854 6.67296C9.00761 6.61082 8.84268 6.55164 8.66077 6.51105C8.28317 6.42418 7.89811 6.41333 7.51086 6.49258C7.02672 6.58961 6.60477 6.80015 6.23188 7.04874L6.23186 7.04872L6.22725 7.05187C6.03675 7.18196 5.85481 7.32346 5.68132 7.47346C5.59586 7.32581 5.50182 7.17852 5.39567 7.03514C5.21943 6.78564 4.99781 6.5389 4.69167 6.34888C4.35529 6.14009 3.96979 6.06055 3.56286 6.1592L3.56286 6.1592L3.56219 6.15937C3.1132 6.26887 2.77372 6.52729 2.50852 6.75826C2.35129 6.89521 2.29555 7.11536 2.36866 7.31063C2.44178 7.50591 2.6284 7.6353 2.83691 7.6353C2.83702 7.6353 2.83718 7.6353 2.8374 7.6353C2.84036 7.63531 2.8532 7.63534 2.86693 7.63481C2.88393 7.63415 2.90916 7.6325 2.9392 7.6275C2.98184 7.62039 3.01924 7.60905 3.05126 7.59651C3.12676 7.57376 3.18855 7.57289 3.25801 7.58921C3.48317 7.64482 3.63384 7.77702 3.73907 8.00765C3.97752 8.54294 4.10915 9.11003 4.1459 9.70539L4.14584 9.7054L4.14642 9.71294C4.16155 9.90964 4.16781 10.0988 4.15434 10.2805L4.15417 10.283C4.13798 10.5178 4.12295 10.7329 4.09379 10.9453C4.04798 11.2501 3.98651 11.558 3.91607 11.8711L3.91578 11.8724C3.83747 12.2248 3.73719 12.5767 3.63357 12.9403C3.61487 13.0059 3.59605 13.0719 3.57723 13.1384L3.57711 13.1389C3.50704 13.3873 3.39572 13.601 3.23165 13.7895C3.20292 13.8224 3.17629 13.8531 3.1505 13.8829L3.15014 13.8833C3.12393 13.9135 3.09857 13.9428 3.07134 13.9739C2.94215 14.1216 2.91124 14.3311 2.99231 14.5098C3.07338 14.6884 3.25144 14.8032 3.44763 14.8032C3.44892 14.8032 3.45033 14.8032 3.45186 14.8032C3.48031 14.8032 3.54846 14.8034 3.63387 14.7804C3.76733 14.7516 3.89638 14.7173 4.01526 14.6857C4.04036 14.6791 4.06502 14.6725 4.08916 14.6662L4.08919 14.6663L4.09927 14.6634C4.28001 14.6117 4.46019 14.5518 4.63979 14.4835C4.74012 14.4483 4.84021 14.4103 4.94009 14.3694C5.18647 14.5439 5.45606 14.6963 5.74904 14.8092C6.15542 14.9695 6.58568 15.0498 7.04985 15.0103L7.05139 15.0102C7.38487 14.9807 7.68922 14.8932 7.96741 14.7855ZM8.01849 13.8761L8.01829 13.876L8.01849 13.8761Z" fill="black" fill-opacity="0.05" stroke="#797979" stroke-linejoin="round" />
	<path d="M10.3339 7.71433C10.3339 7.80272 10.3339 7.89915 10.3339 7.98754C10.3259 7.98754 10.3259 7.98754 10.3179 7.99558C10.2696 7.9554 10.2214 7.92325 10.1812 7.88308C9.87589 7.62593 9.54643 7.3929 9.18482 7.21611C9.12054 7.18397 9.06428 7.15183 8.99196 7.13575C8.98393 7.12772 8.97589 7.11968 8.96786 7.11968C8.83125 7.06343 8.69464 7.01522 8.55 6.98308C8.23661 6.91075 7.92321 6.90272 7.60982 6.967C7.20803 7.04736 6.84643 7.22415 6.50893 7.44915C6.17143 7.67415 5.87411 7.93933 5.59286 8.22861C5.54464 8.27683 5.54464 8.27683 5.5125 8.21254C5.35982 7.89915 5.19911 7.59379 4.99018 7.31254C4.82947 7.09558 4.65268 6.90272 4.42768 6.75808C4.19464 6.61343 3.94554 6.56522 3.68036 6.6295C3.3509 6.70986 3.08572 6.90272 2.83661 7.11968C2.68393 7.24022 2.54732 7.36879 2.41071 7.49736C2.28214 7.60986 2.16161 7.7304 2.025 7.8429C2.00089 7.867 1.98482 7.85897 1.96875 7.8429C1.84018 7.70629 1.70357 7.58575 1.54286 7.49736C1.30982 7.36879 1.06072 7.35272 0.81161 7.44111C0.602681 7.51343 0.409825 7.62593 0.225004 7.73843C0.152682 7.78665 0.0803571 7.83486 0 7.87504C0 7.867 0 7.85897 0 7.85897C0.00803571 7.8429 0.00803865 7.82683 0.00803865 7.81879C0.0160744 7.48129 0.0482182 7.14379 0.104468 6.80629C0.17679 6.34825 0.289287 5.89826 0.498215 5.47236C0.650894 5.15897 0.851787 4.87772 1.11697 4.63665C1.4625 4.32326 1.86429 4.1304 2.30625 4.00183C2.78036 3.86522 3.27054 3.80897 3.76875 3.78486C3.96161 3.77683 4.1625 3.76879 4.35536 3.76076C4.45179 3.80093 4.54821 3.82504 4.65268 3.85718C4.79732 3.89736 4.94196 3.94558 5.07857 3.98576C5.15089 4.00986 5.22321 4.04201 5.29554 4.06611C5.57679 4.17058 5.85 4.29915 6.09107 4.48397C6.15536 4.53218 6.21161 4.5804 6.27589 4.63665C6.25982 4.58843 6.24375 4.54826 6.22768 4.50808C6.12321 4.22683 5.9625 3.99379 5.70536 3.84111C5.60089 3.77683 5.48036 3.72058 5.37589 3.66433C5.38393 3.66433 5.4 3.66433 5.40804 3.65629C5.75357 3.60004 6.09911 3.5679 6.44464 3.55183C6.74196 3.54379 7.04732 3.54379 7.34464 3.57593C7.69018 3.61611 8.03571 3.6804 8.36518 3.80093C8.85536 3.97772 9.27321 4.26701 9.59464 4.67683C9.87589 5.03843 10.0527 5.44826 10.1732 5.88218C10.2857 6.31611 10.3339 6.76611 10.35 7.20808C10.3339 7.37683 10.3339 7.54558 10.3339 7.71433Z" fill="#797979" />
	<path d="M10.334 7.20752H10.342C10.342 7.37627 10.342 7.54502 10.342 7.71377H10.334C10.334 7.54502 10.334 7.37627 10.334 7.20752Z" fill="#ECDC86" />
	<path d="M7.56699 0V0.00803559C7.45449 0.00803559 7.34199 0.00803559 7.22949 0.00803559C7.22949 0.00803559 7.22949 0.00803571 7.22949 0C7.34199 0 7.45449 0 7.56699 0Z" fill="#A0918F" />
	<path d="M7.78048 14.3193C7.97334 14.239 8.15816 14.1506 8.33495 14.0461C8.54388 13.9175 8.74477 13.7809 8.94566 13.6363C9.11441 13.5077 9.27513 13.3792 9.4278 13.2506C9.5162 13.1702 9.61263 13.0979 9.70102 13.0175C9.71709 13.0015 9.71709 13.0095 9.72513 13.0256C9.75727 13.1542 9.78138 13.2747 9.80548 13.4033C9.83763 13.572 9.86977 13.7488 9.88584 13.9256C9.90995 14.1265 9.91798 14.3274 9.90191 14.5363C9.88584 14.7854 9.83762 15.0345 9.75727 15.2756C9.70102 15.4202 9.63673 15.5568 9.55637 15.6854C9.45191 15.8542 9.32334 15.9988 9.1787 16.1354C9.00191 16.2961 8.80906 16.4327 8.60013 16.5452C8.31888 16.7059 8.01352 16.8184 7.70816 16.9149C7.41084 17.0033 7.11352 17.0675 6.80816 17.1238C6.72781 17.1399 6.63941 17.1559 6.55905 17.1479C6.38227 17.1399 6.21352 17.0997 6.04477 17.0354C5.79566 16.939 5.57066 16.7863 5.32959 16.6738C5.19299 16.6095 5.05638 16.5693 4.91173 16.5533C4.71888 16.5372 4.55816 16.6095 4.42156 16.7381C4.31709 16.8345 4.22066 16.939 4.12424 17.0354C3.95549 17.2042 3.75459 17.3167 3.52156 17.3488C3.36888 17.3729 3.20817 17.3649 3.05549 17.3408C2.83852 17.3086 2.62156 17.2604 2.41263 17.1961C2.10727 17.0997 1.82602 16.955 1.56888 16.7622C1.32781 16.5774 1.13495 16.3524 0.974236 16.0872C0.821557 15.822 0.717093 15.5408 0.652807 15.2434C0.620664 15.1149 0.604592 14.9783 0.596556 14.8497C0.580485 14.6649 0.564414 14.48 0.57245 14.2872C0.580486 14.022 0.596556 13.7649 0.636735 13.4917C0.668878 13.5158 0.692988 13.5479 0.72513 13.572C0.89388 13.7247 1.0787 13.8613 1.27959 13.9818C1.50459 14.1104 1.73763 14.2149 1.99477 14.2792C2.16352 14.3274 2.34031 14.3515 2.51709 14.3675C2.66174 14.3756 2.80638 14.3836 2.95102 14.3756C3.11977 14.3675 3.28852 14.3515 3.45727 14.3113C3.48138 14.3113 3.49745 14.3113 3.52156 14.3033C3.67424 14.2711 3.82691 14.239 3.97155 14.1908C4.1403 14.1425 4.31709 14.0863 4.47781 14.022C4.63852 13.9577 4.79924 13.8934 4.95995 13.8292C5.00817 13.805 5.03227 13.8211 5.07245 13.8452C5.33763 14.0542 5.62691 14.2309 5.9403 14.3515C6.28584 14.4881 6.64745 14.5524 7.01709 14.5202C7.27423 14.48 7.53138 14.4158 7.78048 14.3193Z" fill="#797979" />
	<path d="M7.22453 0.00830078C7.33703 0.00830078 7.44953 0.00830078 7.56203 0.00830078C7.83524 0.0243722 8.10845 0.0645508 8.37363 0.152944C8.57453 0.225265 8.62274 0.353836 8.50221 0.530622C8.41381 0.659193 8.29328 0.747586 8.17274 0.827943C8.01203 0.940443 7.83524 1.02884 7.65042 1.09312C7.45756 1.16544 7.27274 1.09312 7.16024 0.900265C7.12006 0.844015 7.09596 0.779729 7.07989 0.707408C7.07185 0.6833 7.06381 0.675265 7.04774 0.675265C6.62185 0.602943 6.24417 0.699372 5.93078 1.00473C5.67364 1.25384 5.52096 1.55919 5.41649 1.89669C5.32006 2.20205 5.27185 2.50741 5.25578 2.8208C5.23971 3.10205 5.26381 3.3833 5.30399 3.65651C5.31203 3.70473 5.3281 3.75294 5.3281 3.80116C5.33614 3.85741 5.32006 3.91366 5.26381 3.9458C5.20756 3.98598 5.15132 3.97794 5.08703 3.97794C4.94239 3.93776 4.79774 3.88955 4.66113 3.84937C4.66113 3.81723 4.66113 3.78508 4.66113 3.74491C4.66113 3.60026 4.66114 3.44758 4.66917 3.30294C4.70131 2.71634 4.78971 2.13776 5.01471 1.59134C5.18346 1.18151 5.42453 0.827943 5.76203 0.546693C6.04328 0.313658 6.36471 0.160979 6.71828 0.0806223C6.87899 0.0404437 7.04774 0.0163365 7.22453 0.00830078Z" fill="#797979" />
	<path d="M5.06738 3.98523C5.13167 3.98523 5.18792 3.99326 5.24417 3.95308C5.29238 3.9129 5.31649 3.86469 5.30845 3.80844C5.30042 3.76023 5.29238 3.71201 5.28435 3.6638C5.30846 3.6638 5.3406 3.65576 5.36471 3.65576C5.47721 3.72005 5.5897 3.76826 5.69417 3.83255C5.95131 3.99326 6.11202 4.2263 6.21649 4.49951C6.23256 4.53969 6.24863 4.5879 6.2647 4.62808C6.20042 4.57987 6.14417 4.52362 6.07988 4.4754C5.83881 4.29058 5.57363 4.16201 5.28435 4.05755C5.21203 4.04148 5.1397 4.00933 5.06738 3.98523Z" fill="#797979" />
	<path d="M4.63912 3.75293C4.63912 3.78507 4.63912 3.81722 4.63912 3.85739C4.54269 3.82525 4.43823 3.80114 4.3418 3.76097C4.44626 3.76097 4.54269 3.75293 4.63912 3.75293Z" fill="#396E35" />
</svg>
