<svg width="13" height="15" viewBox="0 0 13 15" fill="none" xmlns="http://www.w3.org/2000/svg">
	<path d="M3.9375 4C3.69687 4 3.5 4.19687 3.5 4.4375C3.5 4.67813 3.69687 4.875 3.9375 4.875H9.1875C9.42812 4.875 9.625 4.67813 9.625 4.4375C9.625 4.19687 9.42812 4 9.1875 4H3.9375Z" fill="white" fill-opacity="0.5" />
	<path d="M9.1875 5.75H3.9375C3.69687 5.75 3.5 5.94687 3.5 6.1875C3.5 6.42812 3.69687 6.625 3.9375 6.625H9.1875C9.42812 6.625 9.625 6.42812 9.625 6.1875C9.625 5.94687 9.42812 5.75 9.1875 5.75Z" fill="white" fill-opacity="0.5" />
	<path d="M10.875 12.75V13.25H11.375C11.5828 13.25 11.75 13.4172 11.75 13.625C11.75 13.8328 11.5828 14 11.375 14H10.5H2.625C1.45192 14 0.5 13.0481 0.5 11.875V3.125C0.5 1.95192 1.45192 1 2.625 1H10.5H11.375C11.5828 1 11.75 1.16716 11.75 1.375V10.125C11.75 10.3328 11.5828 10.5 11.375 10.5H10.875V11V12.75ZM10.125 11V10.5H9.625H2.625C1.86487 10.5 1.25 11.1149 1.25 11.875C1.25 12.6351 1.86487 13.25 2.625 13.25H9.625H10.125V12.75V11Z" stroke="white" stroke-opacity="0.5" />
</svg>
