<svg width="13" height="15" viewBox="0 0 13 15" fill="none" xmlns="http://www.w3.org/2000/svg">
	<path d="M4.15625 1.15625C4.15625 0.792578 3.86367 0.5 3.5 0.5C3.13633 0.5 2.84375 0.792578 2.84375 1.15625V2.25H1.75C0.784766 2.25 0 3.03477 0 4V4.4375V5.75V12.75C0 13.7152 0.784766 14.5 1.75 14.5H10.5C11.4652 14.5 12.25 13.7152 12.25 12.75V5.75V4.4375V4C12.25 3.03477 11.4652 2.25 10.5 2.25H9.40625V1.15625C9.40625 0.792578 9.11367 0.5 8.75 0.5C8.38633 0.5 8.09375 0.792578 8.09375 1.15625V2.25H4.15625V1.15625ZM1.3125 5.75H10.9375V12.75C10.9375 12.9906 10.7406 13.1875 10.5 13.1875H1.75C1.50937 13.1875 1.3125 12.9906 1.3125 12.75V5.75Z" fill="#797979" />
</svg>
