<svg width="14" height="15" viewBox="0 0 14 15" fill="none" xmlns="http://www.w3.org/2000/svg">
<g clip-path="url(#clip0_202_7696)">
<path d="M9.94364 9.43452H6.45775L2.97186 12.0513V9.43452H1.22424C0.73827 9.43452 0.355103 9.042 0.355103 8.56538V1.58425C0.355103 1.09829 0.73827 0.715118 1.22424 0.715118H9.94364C10.4296 0.715118 10.8128 1.10763 10.8128 1.58425V8.56538C10.8128 9.05135 10.4203 9.43452 9.94364 9.43452Z" stroke="#160F26" stroke-width="0.75"/>
<path d="M12.1305 5.07013H12.5698C13.0557 5.07013 13.4389 5.46264 13.4389 5.93927V10.3036C13.4389 10.7896 13.0464 11.1728 12.5698 11.1728H11.7006V13.7895L9.08389 11.1728H6.90637" stroke="#160F26" stroke-width="0.75"/>
</g>
<defs>
<clipPath id="clip0_202_7696">
<rect width="13.7847" height="14.28" fill="white" transform="translate(0 0.359985)"/>
</clipPath>
</defs>
</svg>
