<svg width="19" height="17" viewBox="0 0 19 17" fill="none" xmlns="http://www.w3.org/2000/svg">
<path d="M13.2778 4.75H17.0556C17.5772 4.75 18 5.16974 18 5.6875V16L14.8522 13.4041C14.6826 13.2642 14.4685 13.1875 14.248 13.1875H6.66667C6.14506 13.1875 5.72222 12.7678 5.72222 12.25V9.4375M13.2778 4.75V1.9375C13.2778 1.41974 12.8549 1 12.3333 1H1.94444C1.42285 1 1 1.41974 1 1.9375V12.2503L4.14784 9.65387C4.31741 9.51409 4.5315 9.4375 4.75196 9.4375H5.72222M13.2778 4.75V8.5C13.2778 9.01777 12.8549 9.4375 12.3333 9.4375H5.72222" stroke="black" stroke-width="1.5" stroke-linecap="round" stroke-linejoin="round"/>
</svg>
