<svg width="14" height="14" viewBox="0 0 14 14" fill="none" xmlns="http://www.w3.org/2000/svg">
<g clip-path="url(#clip0_202_6917)">
<path d="M6.69816 11.4195C4.48896 11.2728 2.7188 9.49815 2.57992 7.28671H0C0.14336 10.9245 3.06208 13.8488 6.69816 14V11.4195Z" fill="#160F26"/>
<path d="M2.58048 6.69816C2.7272 4.48896 4.50184 2.7188 6.71328 2.57992V0C3.07552 0.14336 0.1512 3.06208 0 6.69816H2.58048Z" fill="#160F26"/>
<path d="M11.4195 7.30183C11.2728 9.51103 9.49818 11.2812 7.28674 11.4201V14C10.9245 13.8566 13.8488 10.9379 14 7.30183H11.4195Z" fill="#160F26"/>
<path d="M7.30182 2.58048C9.51102 2.7272 11.2812 4.50184 11.4201 6.71328H14C13.8566 3.07552 10.9379 0.1512 7.30182 0V2.58048Z" fill="#160F26"/>
</g>
<defs>
<clipPath id="clip0_202_6917">
<rect width="14" height="14" fill="white"/>
</clipPath>
</defs>
</svg>
