<svg width="17" height="15" viewBox="0 0 17 15" fill="none" xmlns="http://www.w3.org/2000/svg">
	<path d="M6.73313 8.84728L3.67062 7.53465C3.61665 7.51178 3.55862 7.5 3.5 7.5C3.44138 7.5 3.38335 7.51178 3.32938 7.53465L0.266875 8.84728C0.187798 8.88078 0.120326 8.93681 0.0728692 9.00839C0.0254126 9.07997 6.999e-05 9.16394 0 9.24982V12.7502C6.999e-05 12.8361 0.0254126 12.92 0.0728692 12.9916C0.120326 13.0632 0.187798 13.1192 0.266875 13.1527L3.32938 14.4654C3.38335 14.4882 3.44138 14.5 3.5 14.5C3.55862 14.5 3.61665 14.4882 3.67062 14.4654L6.73313 13.1527C6.8122 13.1192 6.87967 13.0632 6.92713 12.9916C6.97459 12.92 6.99993 12.8361 7 12.7502V9.24982C6.99993 9.16394 6.97459 9.07997 6.92713 9.00839C6.87967 8.93681 6.8122 8.88078 6.73313 8.84728ZM3.5 8.40974L5.45125 9.24982L3.5 10.0855L1.54875 9.24982L3.5 8.40974ZM0.875 9.91051L3.0625 10.8469V13.3934L0.875 12.457V9.91051ZM3.9375 13.4109V10.8512L6.125 9.91489V12.4614L3.9375 13.4109Z" fill="#797979" />
	<path d="M16.0613 8.84728L12.9987 7.53465C12.9448 7.51178 12.8867 7.5 12.8281 7.5C12.7695 7.5 12.7115 7.51178 12.6575 7.53465L9.595 8.84728C9.51592 8.88078 9.44845 8.93681 9.40099 9.00839C9.35354 9.07997 9.32819 9.16394 9.32812 9.24982V12.7502C9.32819 12.8361 9.35354 12.92 9.40099 12.9916C9.44845 13.0632 9.51592 13.1192 9.595 13.1527L12.6575 14.4654C12.7115 14.4882 12.7695 14.5 12.8281 14.5C12.8867 14.5 12.9448 14.4882 12.9987 14.4654L16.0613 13.1527C16.1403 13.1192 16.2078 13.0632 16.2553 12.9916C16.3027 12.92 16.3281 12.8361 16.3281 12.7502V9.24982C16.3281 9.16394 16.3027 9.07997 16.2553 9.00839C16.2078 8.93681 16.1403 8.88078 16.0613 8.84728ZM12.8281 8.40974L14.7794 9.24982L12.8281 10.0855L10.8769 9.24982L12.8281 8.40974ZM10.2031 9.91051L12.3906 10.8469V13.3934L10.2031 12.457V9.91051ZM13.2656 13.4109V10.8512L15.4531 9.91489V12.4614L13.2656 13.4109Z" fill="#797979" />
	<path d="M11.3972 1.84728L8.33469 0.534647C8.28071 0.511782 8.22268 0.5 8.16406 0.5C8.10544 0.5 8.04742 0.511782 7.99344 0.534647L4.93094 1.84728C4.85186 1.88078 4.78439 1.93681 4.73693 2.00839C4.68948 2.07997 4.66413 2.16394 4.66406 2.24982V5.75018C4.66413 5.83606 4.68948 5.92003 4.73693 5.99161C4.78439 6.06319 4.85186 6.11922 4.93094 6.15272L7.99344 7.46535C8.04742 7.48822 8.10544 7.5 8.16406 7.5C8.22268 7.5 8.28071 7.48822 8.33469 7.46535L11.3972 6.15272C11.4763 6.11922 11.5437 6.06319 11.5912 5.99161C11.6386 5.92003 11.664 5.83606 11.6641 5.75018V2.24982C11.664 2.16394 11.6386 2.07997 11.5912 2.00839C11.5437 1.93681 11.4763 1.88078 11.3972 1.84728ZM8.16406 1.40974L10.1153 2.24982L8.16406 3.08553L6.21281 2.24982L8.16406 1.40974ZM5.53906 2.91051L7.72656 3.84686V6.39337L5.53906 5.45702V2.91051ZM8.60156 6.41087V3.85123L10.7891 2.91489V5.4614L8.60156 6.41087Z" fill="#797979" />
</svg>
