<svg width="15" height="14" viewBox="0 0 15 14" fill="none" xmlns="http://www.w3.org/2000/svg">
<path d="M2.58593 6.69816C2.73296 4.48896 4.51134 2.7188 6.72745 2.57992V0C3.08201 0.14336 0.151519 3.06208 0 6.69816H2.58593Z" fill="#160F26"/>
<path d="M6.7123 11.4195C4.49844 11.2728 2.72454 9.49815 2.58537 7.28671H0C0.143663 10.9245 3.06854 13.8488 6.7123 14V11.4195Z" fill="#160F26"/>
<path d="M7.31726 2.58048C9.53113 2.7272 11.305 4.50184 11.4442 6.71328H14.0296C13.8859 3.07552 10.961 0.1512 7.31726 0V2.58048Z" fill="#160F26"/>
<path d="M14.0296 11.4195C11.8157 11.2728 10.0418 9.49815 9.90263 7.28671H7.31726C7.46092 10.9245 10.3858 13.8488 14.0296 14V11.4195Z" fill="#160F26"/>
</svg>
