<svg width="15" height="16" viewBox="0 0 15 16" fill="none" xmlns="http://www.w3.org/2000/svg">
<path d="M0 3.58048C2.21386 3.7272 3.98776 5.50184 4.12694 7.71328H6.7123C6.56864 4.07552 3.64376 1.1512 0 1V3.58048Z" fill="black"/>
<path d="M4.14153 8.30188C3.9945 10.511 2.21611 12.2812 0 12.4201V15C3.64544 14.8566 6.57593 11.9379 6.72745 8.30188H4.14153Z" fill="black"/>
<path d="M9.88769 7.69816C10.0347 5.48896 11.8131 3.7188 14.0292 3.57992V1C10.3837 1.14336 7.45328 4.06208 7.30176 7.69816H9.88769Z" fill="black"/>
<path d="M14.0297 12.4195C11.8158 12.2728 10.0419 10.4982 9.90275 8.28674H7.31738C7.46104 11.9245 10.3859 14.8488 14.0297 15V12.4195Z" fill="black"/>
</svg>
