<svg width="15" height="15" viewBox="0 0 15 15" fill="none" xmlns="http://www.w3.org/2000/svg">
<path d="M0 3.08048C2.21386 3.2272 3.98776 5.00184 4.12694 7.21328H6.7123C6.56864 3.57552 3.64376 0.6512 0 0.5V3.08048Z" fill="#160F26"/>
<path d="M4.14153 7.80185C3.9945 10.011 2.21611 11.7812 0 11.9201V14.5C3.64544 14.3566 6.57593 11.4379 6.72745 7.80185H4.14153Z" fill="#160F26"/>
<path d="M9.88804 7.19816C10.0351 4.98896 11.8135 3.2188 14.0296 3.07992V0.5C10.3841 0.64336 7.45363 3.56208 7.30211 7.19816H9.88804Z" fill="#160F26"/>
<path d="M14.0296 11.9195C11.8157 11.7728 10.0418 9.99815 9.90263 7.78671H7.31726C7.46092 11.4245 10.3858 14.3488 14.0296 14.5V11.9195Z" fill="#160F26"/>
</svg>
