<svg width="15" height="14" viewBox="0 0 15 14" fill="none" xmlns="http://www.w3.org/2000/svg">
<g clip-path="url(#clip0_36_598)">
<path d="M12.7342 7.24819L12.7552 7.25603L12.7762 7.26387L12.796 7.27283L12.8158 7.2829L12.835 7.29298L12.8542 7.30418L12.8722 7.31706L12.8896 7.32938L12.9058 7.34338L12.9226 7.35738L12.9382 7.37306L12.9526 7.38818L12.967 7.40498L12.9796 7.42177L12.9922 7.43969L13.0031 7.45705L13.0133 7.47609L13.0229 7.49457L13.0313 7.51361L13.0397 7.5332L13.0457 7.55336L13.0517 7.57296L13.0559 7.59424L13.0601 7.6144L13.0625 7.63568L13.0637 7.65583L13.0643 7.67655L13.0637 7.69783L13.0625 7.71855L13.0601 7.73927L13.0559 7.75999L13.0517 7.78014L13.0457 7.80086L13.0397 7.82046L13.0313 7.84062L13.0229 7.85966L13.0133 7.87814L13.0031 7.89662L12.9922 7.91453L12.9796 7.93245L12.967 7.94925L12.9526 7.96493L12.9382 7.98117L12.9226 7.99573L12.9058 8.01085L12.8896 8.02485L12.8722 8.03716L12.8542 8.04892L12.835 8.06124L12.8158 8.07132L12.796 8.0814L12.7762 8.0898L12.7552 8.0982L12.7342 8.10492L12.7131 8.11164L12.6915 8.11612L12.6699 8.12116L12.6471 8.12396L12.6255 8.1262L12.6027 8.12844H12.5991L12.6219 8.12788L12.6627 8.1262L12.7035 8.12396L12.7444 8.1206L12.7846 8.11556L12.8254 8.10996L12.8656 8.1038L12.9058 8.09596L12.9454 8.08756L12.9856 8.07804L13.0253 8.0674L13.0643 8.05564L13.1027 8.04332L13.1411 8.02988L13.1789 8.01533L13.2167 8.00021L13.2539 7.98397L13.2906 7.96661L13.3266 7.94869L13.362 7.92965L13.3968 7.90949L13.4316 7.88934L13.4652 7.86806L13.4988 7.8451L13.5312 7.82158L13.5631 7.79806L13.5943 7.77287L13.6249 7.74711L13.6543 7.72135L13.6837 7.69391L13.7119 7.66647L13.7389 7.63792L13.7653 7.6088L13.7911 7.57912L13.8163 7.54832L13.8404 7.51753L13.8632 7.48617L13.886 7.45369L13.907 7.42121L13.9274 7.38762L13.9472 7.35402L13.9652 7.32042L13.9826 7.2857L13.9988 7.25043L14.0144 7.21515L14.0288 7.17931L14.0426 7.14292L14.0546 7.10652L14.066 7.06956L14.0762 7.0326L14.0852 6.99565L14.0936 6.95757L14.1008 6.92005L14.1068 6.88254L14.1111 6.84446L14.1153 6.80638L14.1183 6.76775L14.1195 6.72967L14.1201 6.69159L14.1195 6.65351L14.1183 6.61488L14.1153 6.5768L14.1111 6.53872L14.1068 6.50121L14.1008 6.46313L14.0936 6.42505L14.0852 6.3881L14.0762 6.35058L14.0684 6.32202H12.6093L12.5805 6.32258H9.12926L12.7089 7.24147L12.7342 7.24819Z" fill="#160F26"/>
<path d="M14.9976 7.58136L14.9946 7.5332L14.991 7.48561L14.9862 7.43745L14.9802 7.38986L14.9736 7.34282L14.9652 7.29522L14.9556 7.24819L14.946 7.20115L14.9346 7.15467L14.922 7.1082L14.9088 7.06172L14.8938 7.01581L14.8782 6.97045L14.862 6.92453L14.844 6.87974L14.8254 6.8355L14.8055 6.7907L14.7851 6.74703L14.7635 6.70335L14.7413 6.66023L14.7173 6.61824L14.6927 6.57568L14.6669 6.53424L14.6405 6.49281L14.6135 6.45249L14.5847 6.41217L14.5559 6.37298L14.5258 6.33434L14.5156 6.32202H14.0685L14.0763 6.35058L14.0853 6.3881L14.0937 6.42505L14.1009 6.46313L14.1069 6.50121L14.1111 6.53872L14.1153 6.5768L14.1183 6.61488L14.1195 6.65351L14.1201 6.69159L14.1195 6.72967L14.1183 6.76775L14.1153 6.80638L14.1111 6.84446L14.1069 6.88254L14.1009 6.92005L14.0937 6.95757L14.0853 6.99565L14.0763 7.0326L14.0661 7.06956L14.0547 7.10652L14.0427 7.14292L14.0289 7.17931L14.0145 7.21515L13.9989 7.25043L13.9826 7.2857L13.9652 7.32042L13.9472 7.35402L13.9274 7.38762L13.907 7.42121L13.886 7.45369L13.8632 7.48617L13.8404 7.51753L13.8164 7.54832L13.7912 7.57912L13.7654 7.6088L13.739 7.63792L13.712 7.66647L13.6837 7.69391L13.6543 7.72135L13.6249 7.74711L13.5943 7.77287L13.5631 7.79806L13.5313 7.82158L13.4989 7.8451L13.4653 7.86806L13.4317 7.88934L13.3968 7.90949L13.362 7.92965L13.3266 7.94869L13.2906 7.96661L13.254 7.98397L13.2168 8.00021L13.179 8.01533L13.1411 8.02988L13.1027 8.04332L13.0643 8.05564L13.0253 8.0674L12.9857 8.07804L12.9455 8.08756L12.9059 8.09596L12.8656 8.1038L12.8254 8.10996L12.7846 8.11556L12.7444 8.1206L12.7036 8.12396L12.6628 8.1262L12.622 8.12788L12.5805 8.12844H1.52588e-05V9.93485H12.5805L12.6322 9.93429L12.6832 9.93317L12.7348 9.93037L12.7858 9.92645L12.8368 9.92197L12.8879 9.91693L12.9389 9.90965L12.9893 9.90237L13.0397 9.89398L13.0901 9.8839L13.1405 9.87326L13.1898 9.86206L13.2396 9.84918L13.2894 9.83574L13.338 9.82174L13.3866 9.8055L13.4347 9.78926L13.4827 9.7719L13.5301 9.75399L13.5769 9.73495L13.6237 9.71423L13.6699 9.69295L13.7156 9.67111L13.7606 9.64816L13.805 9.62464L13.8494 9.59944L13.892 9.57424L13.9352 9.54792L13.9778 9.52049L14.0193 9.49249L14.0601 9.46337L14.1003 9.43369L14.1405 9.40289L14.1795 9.37154L14.2173 9.34018L14.2545 9.30714L14.2912 9.27355L14.3272 9.23939L14.362 9.20411L14.3968 9.16883L14.4304 9.13244L14.4628 9.09548L14.4946 9.05796L14.5258 9.01933L14.5559 8.98069L14.5847 8.94149L14.6135 8.90118L14.6405 8.86086L14.6669 8.81942L14.6927 8.77798L14.7173 8.73599L14.7413 8.69343L14.7635 8.65031L14.7851 8.6072L14.8055 8.56296L14.8254 8.51873L14.844 8.47449L14.862 8.42913L14.8782 8.38378L14.8938 8.33842L14.9088 8.29194L14.922 8.24603L14.9346 8.19955L14.946 8.15251L14.9556 8.10604L14.9652 8.059L14.9736 8.01141L14.9802 7.96381L14.9862 7.91621L14.991 7.86862L14.9946 7.82046L14.9976 7.77287L14.9994 7.72527L15 7.67711L14.9994 7.62896L14.9976 7.58136Z" fill="#160F26"/>
<path d="M2.26581 6.7503L2.2448 6.74302L2.2238 6.73518L2.20399 6.72622L2.18358 6.71614L2.16498 6.7055L2.14577 6.6943L2.12776 6.68198L2.11036 6.6691L2.09355 6.6551L2.07734 6.6411L2.06174 6.62599L2.04733 6.61031L2.03293 6.59351L2.02032 6.57671L2.00772 6.55935L1.99692 6.54199L1.98671 6.52295L1.97651 6.50392L1.96871 6.48544L1.9603 6.46584L1.9543 6.44512L1.9483 6.42552L1.9435 6.4048L1.93989 6.38464L1.93749 6.36337L1.93629 6.34321L1.93569 6.32193L1.93629 6.30121L1.93749 6.27993L1.93989 6.25977L1.9435 6.23906L1.9483 6.21834L1.9543 6.19818L1.9603 6.17858L1.96871 6.15842L1.97651 6.13938L1.98671 6.12035L1.99692 6.10243L2.00772 6.08395L2.02032 6.06659L2.03293 6.04979L2.04733 6.03355L2.06174 6.01787L2.07734 6.00275L2.09355 5.9882L2.11036 5.9742L2.12776 5.96188L2.14577 5.94956L2.16498 5.9378L2.18358 5.92716L2.20399 5.91764L2.2238 5.90924L2.2448 5.90084L2.26581 5.89356L2.28682 5.8874L2.30843 5.88236L2.33004 5.87789L2.35284 5.87509L2.37445 5.87285L2.39666 5.87061H2.40086H2.37805L2.33724 5.87229L2.29642 5.87509L2.25561 5.87845L2.21539 5.88292L2.17458 5.88852L2.13376 5.89524L2.09415 5.90252L2.05394 5.91148L2.01432 5.921L1.97471 5.93164L1.93569 5.9434L1.89728 5.95572L1.85827 5.9686L1.82105 5.98316L1.78324 5.99884L1.74603 6.01507L1.70941 6.03243L1.6728 6.05035L1.63799 6.06883L1.60317 6.08899L1.56836 6.10971L1.53415 6.13098L1.50114 6.15394L1.46813 6.1769L1.43691 6.20098L1.4057 6.22562L1.37509 6.25138L1.34568 6.27769L1.31627 6.30457L1.28806 6.33257L1.26105 6.36057L1.23404 6.38968L1.20883 6.41992L1.18302 6.45016L1.15961 6.48096L1.13621 6.51287L1.114 6.54479L1.09299 6.57783L1.07258 6.61087L1.05278 6.64502L1.03477 6.67862L1.01736 6.71334L1.00116 6.74862L0.985551 6.78389L0.971146 6.81973L0.957341 6.85613L0.945337 6.89252L0.933933 6.92948L0.923729 6.96588L0.914726 7.0034L0.906323 7.04091L0.89912 7.07899L0.893118 7.11651L0.888917 7.15458L0.884715 7.1921L0.881714 7.23074L0.880514 7.26881L0.879913 7.30689L0.880514 7.34553L0.881714 7.3836L0.884715 7.42168L0.888917 7.45976L0.893118 7.49784L0.89912 7.53591L0.906323 7.57343L0.914726 7.61095L0.923729 7.6479L0.931532 7.67702H2.39066L2.41947 7.67646H5.87071L2.29102 6.75757L2.26581 6.7503Z" fill="#160F26"/>
<path d="M0.00241612 6.41721L0.00481699 6.46537L0.0090185 6.51296L0.0138202 6.56056L0.0198224 6.60816L0.0264248 6.65575L0.0348278 6.70279L0.043831 6.75039L0.0540347 6.79742L0.0654388 6.8439L0.0780433 6.89037L0.0912481 6.93685L0.106253 6.98277L0.121859 7.02812L0.138065 7.07348L0.156071 7.11884L0.174678 7.16307L0.194485 7.20787L0.214893 7.25155L0.2365 7.29522L0.258708 7.33778L0.282717 7.38033L0.307326 7.42289L0.333135 7.46433L0.359545 7.5052L0.386554 7.54552L0.414765 7.58584L0.444175 7.6256L0.474186 7.66423L0.48439 7.67655H0.931551L0.923748 7.64743L0.914745 7.61048L0.906342 7.57296L0.899139 7.53544L0.893137 7.49737L0.888935 7.45929L0.884734 7.42121L0.881733 7.38313L0.880532 7.34506L0.879932 7.30642L0.880532 7.26834L0.881733 7.23027L0.884734 7.19163L0.888935 7.15411L0.893137 7.11604L0.899139 7.07852L0.906342 7.04044L0.914745 7.00293L0.923748 6.96541L0.933951 6.92901L0.945356 6.89205L0.95736 6.85566L0.971165 6.81926L0.98557 6.78342L1.00118 6.74815L1.01738 6.71287L1.03479 6.67815L1.05279 6.64455L1.0726 6.6104L1.09301 6.57736L1.11402 6.54432L1.13622 6.5124L1.15963 6.48049L1.18304 6.44969L1.20885 6.41945L1.23406 6.38921L1.26107 6.3601L1.28808 6.3321L1.31629 6.3041L1.3457 6.27722L1.37511 6.25091L1.40572 6.22515L1.43693 6.20051L1.46814 6.17643L1.50116 6.15347L1.53417 6.13051L1.56838 6.10924L1.60319 6.08852L1.638 6.06836L1.67282 6.04988L1.70943 6.03196L1.74604 6.0146L1.78326 5.99837L1.82107 5.98269L1.85828 5.96813L1.8973 5.95525L1.93571 5.94293L1.97473 5.93117L2.01434 5.92053L2.05395 5.91101L2.09417 5.90205L2.13378 5.89477L2.1746 5.88805L2.21541 5.88245L2.25563 5.87798L2.29644 5.87462L2.33726 5.87182L2.37807 5.87014L2.41949 5.86958H15V4.06372H2.41949L2.36787 4.06428L2.31685 4.0654L2.26523 4.0682L2.21421 4.07156L2.16259 4.07604L2.11218 4.08164L2.06116 4.08836L2.01074 4.09564L1.96032 4.1046L1.9093 4.11412L1.85948 4.12476L1.80967 4.13651L1.76045 4.14883L1.71063 4.16283L1.66201 4.17683L1.6134 4.19251L1.56538 4.20875L1.51736 4.22667L1.46994 4.24459L1.42313 4.26362L1.37631 4.28434L1.33009 4.30562L1.28448 4.3269L1.23946 4.35042L1.19505 4.37394L1.15063 4.39857L1.10741 4.42433L1.0642 4.45065L1.02218 4.47809L0.980768 4.50609L0.939353 4.53464L0.899739 4.56432L0.859525 4.59512L0.820511 4.62648L0.782697 4.65839L0.745484 4.69143L0.70887 4.72447L0.672857 4.75918L0.637445 4.79446L0.603232 4.82974L0.56962 4.86614L0.537209 4.90309L0.505397 4.94061L0.474186 4.97869L0.444175 5.01788L0.414765 5.05708L0.386554 5.09684L0.359545 5.13771L0.333135 5.17915L0.307326 5.22059L0.282717 5.26202L0.258708 5.30458L0.2365 5.34826L0.214893 5.39137L0.194485 5.43561L0.174678 5.47929L0.156071 5.52408L0.138065 5.56888L0.121859 5.61424L0.106253 5.66015L0.0912481 5.70607L0.0780433 5.75255L0.0654388 5.79902L0.0540347 5.84606L0.043831 5.89253L0.0348278 5.93957L0.0264248 5.98717L0.0198224 6.03476L0.0138202 6.08236L0.0090185 6.12996L0.00481699 6.17755L0.00241612 6.22515L1.52588e-05 6.2733V6.32146V6.36962L0.00241612 6.41721Z" fill="#160F26"/>
<path d="M2.26581 2.6864L2.2448 2.67856L2.2238 2.67016L2.20339 2.66176L2.18418 2.65168L2.16438 2.64161L2.14577 2.63041L2.12776 2.61753L2.10976 2.60521L2.09295 2.59121L2.07674 2.57721L2.06174 2.56153L2.04733 2.54641L2.03293 2.52961L2.01972 2.51282L2.00772 2.4949L1.99632 2.47698L1.98611 2.4585L1.97591 2.44002L1.96811 2.42098L1.9603 2.40082L1.9537 2.38123L1.9483 2.36163L1.9435 2.34035L1.93989 2.32019L1.93689 2.29891L1.93629 2.27819L1.93569 2.25692L1.93629 2.2362L1.93689 2.21604L1.93989 2.19532L1.9435 2.1746L1.9483 2.15444L1.9537 2.13373L1.9603 2.11357L1.96811 2.09397L1.97591 2.07493L1.98611 2.05645L1.99632 2.03741L2.00772 2.02006L2.01972 2.00214L2.03293 1.98534L2.04733 1.96966L2.06174 1.95342L2.07674 1.93774L2.09295 1.92374L2.10976 1.90974L2.12776 1.89743L2.14577 1.88567L2.16438 1.87335L2.18418 1.86327L2.20339 1.85319L2.2238 1.84423L2.2448 1.83639L2.26581 1.82967L2.28682 1.82295L2.30843 1.81735L2.33064 1.81343L2.35224 1.81007L2.37445 1.80783L2.39726 1.80615H2.40446H2.37805L2.33724 1.80783L2.29642 1.81063L2.25561 1.81399L2.21539 1.81903L2.17458 1.82463L2.13376 1.83079L2.09415 1.83863L2.05394 1.84703L2.01432 1.85655L1.97471 1.86719L1.93569 1.87895L1.89728 1.89127L1.85827 1.9047L1.82105 1.9187L1.78324 1.93438L1.74603 1.95062L1.70941 1.96798L1.6728 1.9859L1.63799 2.00438L1.60257 2.02453L1.56836 2.04525L1.53415 2.06653L1.50114 2.08949L1.46813 2.11245L1.43631 2.13653L1.4057 2.16172L1.37509 2.18692L1.34508 2.21324L1.31627 2.24012L1.28806 2.26812L1.26105 2.29667L1.23404 2.32579L1.20883 2.35547L1.18302 2.38627L1.15961 2.41706L1.13621 2.44842L1.114 2.48034L1.09299 2.51338L1.07258 2.54641L1.05278 2.58057L1.03477 2.61417L1.01736 2.64888L1.00116 2.68416L0.985551 2.71944L0.971146 2.75528L0.957341 2.79167L0.945337 2.82807L0.933933 2.86503L0.923729 2.90198L0.914126 2.93894L0.906323 2.97646L0.89912 3.01454L0.893118 3.05205L0.888316 3.09013L0.884715 3.12765L0.881714 3.16628L0.880514 3.20492L0.879913 3.243L0.880514 3.28107L0.881714 3.31971L0.884715 3.35779L0.888316 3.39587L0.893118 3.43338L0.89912 3.47146L0.906323 3.50954L0.914126 3.54649L0.923729 3.58401L0.933933 3.62097L0.945337 3.65736L0.957341 3.69432L0.971146 3.73016L0.985551 3.766L1.00116 3.80127L1.01736 3.83655L1.03477 3.87127L1.05278 3.90542L1.06478 3.92502L1.06598 3.92446L1.1164 3.90038L1.16682 3.87743L1.21784 3.85503L1.26945 3.83431L1.32107 3.81303L1.37389 3.79399L1.42611 3.77607L1.47953 3.7576L1.53295 3.74192L1.58697 3.72624L1.64099 3.71168L1.69501 3.69768L1.74963 3.6848L1.80485 3.6736L1.86007 3.66352L1.91469 3.65344L1.97051 3.64504L2.02633 3.63721L2.08215 3.63049L2.13857 3.62489L2.19439 3.62041L2.25081 3.61649L2.30603 3.61425L2.36365 3.61313L2.41947 3.61201H5.87071L2.29042 2.69312L2.26581 2.6864Z" fill="#160F26"/>
<path d="M12.5805 12.1935H12.6219L12.6627 12.1912L12.7035 12.189L12.7444 12.1856L12.7852 12.1806L12.826 12.175L12.8662 12.1688L12.9064 12.161L12.946 12.1526L12.9862 12.1431L13.0253 12.1324L13.0643 12.1207L13.1033 12.1084L13.1417 12.0949L13.1789 12.0804L13.2167 12.0652L13.2539 12.049L13.2906 12.0316L13.3272 12.0137L13.3626 11.9947L13.3974 11.9745L13.4316 11.9538L13.4658 11.9325L13.4994 11.9101L13.5318 11.8866L13.5637 11.8631L13.5949 11.8379L13.6249 11.8121L13.6549 11.7864L13.6837 11.759L13.7119 11.7315L13.7395 11.703L13.7659 11.6738L13.7917 11.6442L13.8169 11.6134L13.8404 11.5826L13.8638 11.5512L13.886 11.5187L13.907 11.4863L13.9274 11.4527L13.9472 11.4191L13.9658 11.3849L13.9832 11.3507L13.9988 11.3155L14.015 11.2796L14.0288 11.2444L14.0426 11.208L14.0552 11.1716L14.066 11.1346L14.0768 11.0976L14.0858 11.0607L14.0936 11.0226L14.1008 10.9851L14.1068 10.9476L14.1117 10.9089L14.1159 10.8714L14.1183 10.8328L14.1201 10.7947V10.7566V10.7186L14.1183 10.6799L14.1159 10.6418L14.1117 10.6038L14.1068 10.5662L14.1008 10.5282L14.0936 10.4901L14.0858 10.4531L14.0768 10.4156L14.066 10.3787L14.0552 10.3423L14.0426 10.3053L14.0288 10.2689L14.015 10.2336L13.9988 10.1984L13.9832 10.1631L13.9658 10.1284L13.9472 10.0942L13.9352 10.0735L13.934 10.074L13.8836 10.0981L13.8332 10.1211L13.7821 10.1435L13.7305 10.1648L13.6783 10.1849L13.6261 10.2045L13.5739 10.2224L13.5204 10.2404L13.4664 10.2572L13.413 10.2723L13.3596 10.2868L13.3044 10.3008L13.2503 10.3131L13.1951 10.3249L13.1399 10.3355L13.0847 10.3451L13.0295 10.3535L12.9736 10.3613L12.9178 10.368L12.862 10.3736L12.8056 10.3781L12.7492 10.3815L12.6927 10.3843L12.6369 10.3859L12.5805 10.3865H9.12926L12.7089 11.3054L12.7342 11.3127L12.7552 11.3199L12.7762 11.3278L12.796 11.3367L12.8158 11.3468L12.835 11.3575L12.8542 11.3687L12.8722 11.381L12.8896 11.3939L12.9058 11.4079L12.9226 11.4219L12.9382 11.437L12.9526 11.4527L12.967 11.4695L12.9796 11.4863L12.9922 11.5036L13.0031 11.521L13.0133 11.54L13.0229 11.559L13.0313 11.5775L13.0397 11.5971L13.0457 11.6178L13.0517 11.6374L13.0559 11.6582L13.0601 11.6783L13.0625 11.6996L13.0637 11.7198L13.0643 11.741L13.0637 11.7618L13.0625 11.783L13.0601 11.8032L13.0559 11.8239L13.0517 11.8446L13.0457 11.8648L13.0397 11.8844L13.0313 11.9045L13.0229 11.9236L13.0133 11.9426L13.0031 11.9605L12.9922 11.979L12.9796 11.9964L12.967 12.0132L12.9526 12.0294L12.9382 12.0451L12.9226 12.0602L12.9058 12.0748L12.8896 12.0888L12.8722 12.1011L12.8542 12.1134L12.835 12.1252L12.8158 12.1358L12.796 12.1453L12.7762 12.1537L12.7552 12.1621L12.7342 12.1694L12.7131 12.1756L12.6915 12.1806L12.6699 12.1851L12.6471 12.1879L12.6255 12.1901L12.6027 12.1924L12.5805 12.1929" fill="#160F26"/>
<path d="M14.9976 11.6459L14.9952 11.5983L14.9916 11.5507L14.9862 11.5026L14.9808 11.455L14.9736 11.4079L14.9652 11.3603L14.9562 11.3133L14.946 11.2663L14.9346 11.2192L14.922 11.1733L14.9088 11.1268L14.8944 11.0804L14.8788 11.0356L14.862 10.9896L14.844 10.9448L14.826 10.9006L14.8061 10.8558L14.7851 10.8121L14.7641 10.7685L14.7413 10.7253L14.7173 10.6833L14.6933 10.6408L14.6675 10.5993L14.6405 10.5579L14.6135 10.5176L14.5853 10.4773L14.5559 10.4381L14.5258 10.3994L14.4946 10.3608L14.4634 10.3239L14.4304 10.2863L14.3968 10.2505L14.3626 10.2147L14.3272 10.1799L14.2918 10.1452L14.2545 10.1122L14.2173 10.0792L14.1795 10.0472L14.1405 10.0159L14.1009 9.98508L14.0985 9.9834L14.0421 10.0153L13.9923 10.0416L13.9406 10.068L13.934 10.0713L13.9472 10.0943L13.9658 10.1284L13.9832 10.1631L13.9989 10.1984L14.0151 10.2337L14.0289 10.269L14.0427 10.3054L14.0553 10.3423L14.0661 10.3787L14.0769 10.4157L14.0859 10.4532L14.0937 10.4902L14.1009 10.5282L14.1069 10.5663L14.1117 10.6038L14.1159 10.6419L14.1183 10.68L14.1201 10.7186V10.7567V10.7948L14.1183 10.8329L14.1159 10.8715L14.1117 10.909L14.1069 10.9476L14.1009 10.9852L14.0937 11.0227L14.0859 11.0608L14.0769 11.0977L14.0661 11.1347L14.0553 11.1716L14.0427 11.208L14.0289 11.2444L14.0151 11.2797L13.9989 11.3155L13.9832 11.3508L13.9658 11.385L13.9472 11.4191L13.9274 11.4527L13.907 11.4863L13.886 11.5188L13.8638 11.5513L13.8404 11.5826L13.817 11.6134L13.7918 11.6442L13.766 11.6739L13.7396 11.703L13.712 11.7316L13.6837 11.759L13.6549 11.7865L13.6249 11.8122L13.5949 11.838L13.5637 11.8632L13.5319 11.8867L13.4995 11.9102L13.4659 11.9326L13.4317 11.9539L13.3974 11.9746L13.3626 11.9948L13.3272 12.0138L13.2906 12.0317L13.254 12.0491L13.2168 12.0653L13.179 12.0804L13.1417 12.095L13.1033 12.1084L13.0643 12.1207L13.0253 12.1325L12.9863 12.1431L12.9461 12.1527L12.9065 12.1611L12.8662 12.1689L12.826 12.1751L12.7852 12.1807L12.7444 12.1857L12.7036 12.1891L12.6628 12.1913L12.622 12.1935H12.5805H1.52588e-05V14H12.5805L12.6322 13.9994L12.6832 13.9983L12.7348 13.9955L12.7858 13.9916L12.8374 13.9876L12.8885 13.982L12.9395 13.9748L12.9899 13.9675L13.0403 13.9591L13.0907 13.949L13.1405 13.9384L13.1904 13.9272L13.2396 13.9148L13.2894 13.9008L13.338 13.8868L13.3866 13.8706L13.4353 13.8544L13.4833 13.837L13.5307 13.8191L13.5775 13.8001L13.6243 13.7793L13.6699 13.7581L13.7162 13.7362L13.7606 13.7133L13.8056 13.6897L13.8494 13.6651L13.8926 13.6388L13.9358 13.613L13.9778 13.5856L14.0193 13.557L14.0607 13.5285L14.1009 13.4988L14.1405 13.468L14.1795 13.4366L14.2173 13.4053L14.2545 13.3722L14.2918 13.3387L14.3272 13.3045L14.3626 13.2692L14.3968 13.2339L14.4304 13.1975L14.4634 13.1606L14.4946 13.1231L14.5258 13.085L14.5559 13.0458L14.5853 13.0066L14.6135 12.9663L14.6405 12.926L14.6675 12.8845L14.6933 12.8431L14.7173 12.8011L14.7413 12.7585L14.7641 12.7154L14.7851 12.6723L14.8061 12.6281L14.826 12.5838L14.844 12.5396L14.862 12.4942L14.8788 12.4489L14.8944 12.403L14.9088 12.357L14.922 12.3111L14.9346 12.2641L14.946 12.2176L14.9562 12.1711L14.9652 12.1235L14.9736 12.0765L14.9808 12.0289L14.9862 11.9813L14.9916 11.9337L14.9952 11.8856L14.9976 11.838L15 11.7904V11.7422V11.6941L14.9976 11.6459Z" fill="#160F26"/>
<path d="M0.00241612 2.35349L0.00481699 2.40165L0.00841828 2.44924L0.0138202 2.4974L0.0198224 2.545L0.0264248 2.59203L0.0348278 2.63963L0.043831 2.68666L0.0540347 2.7337L0.0654388 2.78018L0.0780433 2.82665L0.0912481 2.87257L0.105653 2.91905L0.121859 2.9644L0.138065 3.00976L0.156071 3.05512L0.174078 3.09935L0.193885 3.14415L0.214893 3.18782L0.2365 3.2315L0.258708 3.27406L0.282717 3.31661L0.307326 3.35917L0.332535 3.40061L0.359545 3.44204L0.386554 3.4818L0.414765 3.52212L0.444175 3.56187L0.474186 3.60051L0.505397 3.63915L0.537209 3.67611L0.56962 3.71362L0.603232 3.74946L0.637445 3.7853L0.672857 3.82001L0.70887 3.85417L0.745484 3.88777L0.782697 3.92081L0.820511 3.95272L0.859525 3.98408L0.899739 4.01432L0.90154 4.016L0.95796 3.98464L1.00778 3.95832L1.0594 3.93144L1.0666 3.92865L1.05279 3.90569L1.03479 3.87153L1.01738 3.83681L1.00118 3.80154L0.98557 3.76626L0.971165 3.73042L0.95736 3.69458L0.945356 3.65763L0.933951 3.62123L0.923748 3.58427L0.914144 3.54676L0.906342 3.5098L0.899139 3.47172L0.893137 3.43364L0.888335 3.39613L0.884734 3.35805L0.881733 3.31997L0.880532 3.28134L0.879932 3.24326L0.880532 3.20518L0.881733 3.16655L0.884734 3.12791L0.888335 3.09039L0.893137 3.05232L0.899139 3.0148L0.906342 2.97672L0.914144 2.9392L0.923748 2.90225L0.933951 2.86529L0.945356 2.82833L0.95736 2.79194L0.971165 2.75554L0.98557 2.7197L1.00118 2.68442L1.01738 2.64915L1.03479 2.61443L1.05279 2.58083L1.0726 2.54668L1.09301 2.51364L1.11402 2.4806L1.13622 2.44868L1.15963 2.41733L1.18304 2.38653L1.20885 2.35573L1.23406 2.32605L1.26107 2.29694L1.28808 2.26838L1.31629 2.24038L1.3451 2.2135L1.37511 2.18718L1.40572 2.16199L1.43633 2.13679L1.46814 2.11271L1.50116 2.08975L1.53417 2.06679L1.56838 2.04552L1.60259 2.0248L1.638 2.00464L1.67282 1.98616L1.70943 1.96824L1.74604 1.95088L1.78326 1.93464L1.82107 1.91897L1.85828 1.90497L1.8973 1.89153L1.93571 1.87921L1.97473 1.86745L2.01434 1.85681L2.05395 1.84729L2.09417 1.83889L2.13378 1.83105L2.1746 1.82489L2.21541 1.81929L2.25563 1.81425L2.29644 1.81089L2.33726 1.8081L2.37807 1.80642H2.41949H15V0H2.41949H2.36787L2.31685 0.00167987L2.26523 0.00447964L2.21421 0.00839933L2.16259 0.012319L2.11158 0.0179186L2.06116 0.025198L2.01014 0.0319174L1.95972 0.0408767L1.9093 0.050396L1.85948 0.0615951L1.80967 0.0727942L1.76045 0.0851132L1.71063 0.0991121L1.66201 0.113111L1.6134 0.12879L1.56538 0.145028L1.51676 0.162947L1.46994 0.180866L1.42313 0.199904L1.37631 0.220622L1.33009 0.241341L1.28448 0.263739L1.23946 0.286697L1.19505 0.310215L1.15063 0.334853L1.10741 0.360611L1.0642 0.386929L1.02218 0.414367L0.980768 0.442365L0.939353 0.471482L0.899739 0.50116L0.859525 0.531957L0.820511 0.562755L0.782697 0.594672L0.745484 0.62771L0.70887 0.661307L0.672857 0.695464L0.637445 0.730181L0.603232 0.766019L0.56962 0.802416L0.537209 0.839373L0.505397 0.87689L0.474186 0.914967L0.444175 0.954164L0.414765 0.99336L0.386554 1.03312L0.359545 1.07399L0.332535 1.11487L0.307326 1.15687L0.282717 1.19886L0.258708 1.24086L0.2365 1.28454L0.214893 1.32765L0.193885 1.37189L0.174078 1.41613L0.156071 1.46036L0.138065 1.50516L0.121859 1.55108L0.105653 1.59643L0.0912481 1.64235L0.0780433 1.68882L0.0654388 1.7353L0.0540347 1.78234L0.043831 1.82881L0.0348278 1.87585L0.0264248 1.92345L0.0198224 1.97104L0.0138202 2.01864L0.00841828 2.06623L0.00481699 2.11439L0.00241612 2.16199L1.52588e-05 2.20958V2.25774V2.3059L0.00241612 2.35349Z" fill="#160F26"/>
</g>
<defs>
<clipPath id="clip0_36_598">
<rect width="15" height="14" fill="white"/>
</clipPath>
</defs>
</svg>
