<svg width="14" height="15" viewBox="0 0 14 15" fill="none" xmlns="http://www.w3.org/2000/svg">
	<path d="M7 1.8125C3.8582 1.8125 1.3125 4.3582 1.3125 7.5V8.59375C1.3125 8.95742 1.01992 9.25 0.65625 9.25C0.292578 9.25 0 8.95742 0 8.59375V7.5C0 3.63359 3.13359 0.5 7 0.5C10.8664 0.5 14 3.63359 14 7.5V11.4402C14 12.7691 12.9227 13.8465 11.591 13.8465L8.575 13.8438C8.34805 14.2348 7.92422 14.5 7.4375 14.5H6.5625C5.83789 14.5 5.25 13.9121 5.25 13.1875C5.25 12.4629 5.83789 11.875 6.5625 11.875H7.4375C7.92422 11.875 8.34805 12.1402 8.575 12.5312L11.5938 12.534C12.198 12.534 12.6875 12.0445 12.6875 11.4402V7.5C12.6875 4.3582 10.1418 1.8125 7 1.8125ZM3.9375 6.1875H4.375C4.85898 6.1875 5.25 6.57852 5.25 7.0625V10.125C5.25 10.609 4.85898 11 4.375 11H3.9375C2.97227 11 2.1875 10.2152 2.1875 9.25V7.9375C2.1875 6.97227 2.97227 6.1875 3.9375 6.1875ZM10.0625 6.1875C11.0277 6.1875 11.8125 6.97227 11.8125 7.9375V9.25C11.8125 10.2152 11.0277 11 10.0625 11H9.625C9.14102 11 8.75 10.609 8.75 10.125V7.0625C8.75 6.57852 9.14102 6.1875 9.625 6.1875H10.0625Z" fill="#797979" />
</svg>
