<svg width="15" height="15" viewBox="0 0 15 15" fill="none" xmlns="http://www.w3.org/2000/svg">
<g clip-path="url(#clip0_202_7750)">
<path d="M4.60037 10.2309L3.39821 10.8367L2.19604 10.2309V5.41278L3.39821 4.80696L4.60037 5.41278V10.2309Z" stroke="#160F26" stroke-width="0.75"/>
<path d="M12.4286 10.2309L11.2265 10.8367L10.0243 10.2309V5.41278L11.2265 4.80696L12.4286 5.41278V10.2309Z" stroke="#160F26" stroke-width="0.75"/>
<path d="M2.18664 9.32218H0.984477L0.378662 7.81711L0.984477 6.31204H2.18664V9.32218Z" stroke="#160F26" stroke-width="0.75"/>
<path d="M12.4287 9.32218H13.6309L14.2367 7.81711L13.6309 6.31204H12.4287V9.32218Z" stroke="#160F26" stroke-width="0.75"/>
<path d="M11.2265 4.80697V2.69609L7.30766 0.888107L3.38879 2.69609V4.80697" stroke="#160F26" stroke-width="0.75"/>
<path d="M11.2265 10.8272V12.0294L10.0243 13.5345H8.82214" stroke="#160F26" stroke-width="0.75"/>
<path d="M8.81272 12.9381H6.39893V14.1403H8.81272V12.9381Z" stroke="#160F26" stroke-width="0.75"/>
</g>
<defs>
<clipPath id="clip0_202_7750">
<rect width="14.6153" height="14" fill="white" transform="translate(0 0.5)"/>
</clipPath>
</defs>
</svg>
