<svg width="12" height="13" viewBox="0 0 12 13" fill="none" xmlns="http://www.w3.org/2000/svg">
	<path d="M0 1.82882V5.91671C0 6.38155 0.183203 6.82726 0.511328 7.15538L5.32383 11.9679C6.00742 12.6515 7.11484 12.6515 7.79844 11.9679L11.4488 8.31749C12.1324 7.6339 12.1324 6.52647 11.4488 5.84288L6.63633 1.03038C6.3082 0.702256 5.8625 0.519052 5.39766 0.519052H1.3125C0.587891 0.516318 0 1.10421 0 1.82882ZM3.0625 2.70382C3.29456 2.70382 3.51712 2.79601 3.68122 2.9601C3.84531 3.12419 3.9375 3.34675 3.9375 3.57882C3.9375 3.81088 3.84531 4.03344 3.68122 4.19754C3.51712 4.36163 3.29456 4.45382 3.0625 4.45382C2.83044 4.45382 2.60788 4.36163 2.44378 4.19754C2.27969 4.03344 2.1875 3.81088 2.1875 3.57882C2.1875 3.34675 2.27969 3.12419 2.44378 2.9601C2.60788 2.79601 2.83044 2.70382 3.0625 2.70382Z" fill="#8B8893" />
</svg>
