<svg width="15" height="15" viewBox="0 0 15 15" fill="none" xmlns="http://www.w3.org/2000/svg">
<g clip-path="url(#clip0_202_6841)">
<path d="M2.60657 7.19812C2.7506 4.98893 4.49269 3.21878 6.66358 3.0799V0.5C3.09253 0.643359 0.221845 3.56206 0.0734177 7.19812H2.60657Z" fill="#160F26"/>
<path d="M2.60656 14.5C2.75059 12.2908 4.49268 10.5207 6.66356 10.3818V7.80191C3.09252 7.94527 0.221829 10.864 0.0734024 14.5H2.60656Z" fill="#160F26"/>
<path d="M11.2835 0.500076C11.1395 2.70926 9.39736 4.47941 7.22648 4.61829V7.1982C10.7975 7.05484 13.6682 4.13613 13.8166 0.500076L11.2835 0.500076Z" fill="#160F26"/>
<path d="M11.2835 7.80191C11.1395 10.0111 9.39736 11.7812 7.22648 11.9201V14.5C10.7975 14.3567 13.6682 11.438 13.8166 7.80191H11.2835Z" fill="#160F26"/>
</g>
<defs>
<clipPath id="clip0_202_6841">
<rect width="14.0296" height="14" fill="white" transform="translate(0 0.5)"/>
</clipPath>
</defs>
</svg>
