<svg width="15" height="15" viewBox="0 0 15 15" fill="none" xmlns="http://www.w3.org/2000/svg">
	<g clip-path="url(#clip0_1322_57327)">
		<path d="M2.65566 7.19812C2.80238 4.98893 4.57701 3.21878 6.78844 3.0799V0.5C3.1507 0.643359 0.226394 3.56206 0.0751953 7.19812H2.65566Z" fill="#797979" />
		<path d="M2.65566 14.4999C2.80238 12.2907 4.57701 10.5205 6.78844 10.3817V7.80176C3.1507 7.94512 0.226394 10.8638 0.0751953 14.4999H2.65566Z" fill="#797979" />
		<path d="M11.4951 0.5C11.3484 2.70919 9.57373 4.47934 7.3623 4.61822V7.19812C11 7.05476 13.9243 4.13606 14.0755 0.5L11.4951 0.5Z" fill="#797979" />
		<path d="M11.4951 7.80176C11.3484 10.0109 9.57373 11.7811 7.3623 11.92V14.4999C11 14.3565 13.9243 11.4378 14.0755 7.80176H11.4951Z" fill="#797979" />
	</g>
	<defs>
		<clipPath id="clip0_1322_57327">
			<rect width="14.2916" height="14" fill="white" transform="translate(0 0.5)" />
		</clipPath>
	</defs>
</svg>
