<svg width="11" height="15" viewBox="0 0 11 15" fill="none" xmlns="http://www.w3.org/2000/svg">
	<path d="M8.75 13.1875C8.99063 13.1875 9.1875 12.9906 9.1875 12.75V4.875H7C6.51602 4.875 6.125 4.48398 6.125 4V1.8125H1.75C1.50937 1.8125 1.3125 2.00937 1.3125 2.25V12.75C1.3125 12.9906 1.50937 13.1875 1.75 13.1875H8.75ZM0 2.25C0 1.28477 0.784766 0.5 1.75 0.5H6.27539C6.74023 0.5 7.18594 0.683203 7.51406 1.01133L9.98867 3.48594C10.3168 3.81406 10.5 4.25977 10.5 4.72461V12.75C10.5 13.7152 9.71523 14.5 8.75 14.5H1.75C0.784766 14.5 0 13.7152 0 12.75V2.25Z" fill="black" fill-opacity="0.5" />
</svg>
