<svg width="150" height="24" viewBox="0 0 150 24" fill="none" xmlns="http://www.w3.org/2000/svg">
<g>
<path d="M0 4.42368C3.86449 4.6752 6.96098 7.71744 7.20392 11.5085H11.7169C11.4661 5.27232 6.36049 0.2592 0 0V4.42368Z" fill="#0DC09D"/>
<path d="M7.22939 12.5173C6.97274 16.3045 3.86841 19.3391 0 19.5772V23.9999C6.36343 23.7541 11.4789 18.7506 11.7433 12.5173H7.22939Z" fill="#0DC09D"/>
<path d="M17.2604 11.4826C17.5171 7.69536 20.6214 4.6608 24.4898 4.42272V0C18.1264 0.24576 13.0109 5.24928 12.7465 11.4826H17.2604Z" fill="#0DC09D"/>
<path d="M24.4898 19.5763C20.6253 19.3247 17.5288 16.2825 17.2859 12.4915H12.7729C13.0237 18.7276 18.1293 23.7407 24.4898 23.9999V19.5763Z" fill="#0DC09D"/>
<path d="M32.1429 19.6339V4.42847H35.1502V6.82175H35.6263C35.9045 6.23807 36.4002 5.69375 37.1153 5.18783C37.8304 4.68191 38.8922 4.42943 40.3019 4.42943C41.4137 4.42943 42.4011 4.67327 43.2651 5.15903C44.1291 5.64575 44.809 6.33119 45.3047 7.21631C45.8003 8.10143 46.0491 9.16703 46.0491 10.4121V19.6339H42.982V10.6454C42.982 9.40031 42.6647 8.48159 42.0289 7.88735C41.3931 7.29407 40.5203 6.99743 39.4085 6.99743C38.138 6.99743 37.1202 7.40639 36.3561 8.22335C35.592 9.04031 35.21 10.2278 35.21 11.784V19.6349H32.1429V19.6339Z" fill="#160F26"/>
<path d="M105.456 19.6406V0.027832H108.524V19.6406H105.456Z" fill="#160F26"/>
<path d="M119.056 19.6408C117.587 19.6408 116.282 19.3441 115.14 18.7508C113.998 18.1576 113.1 17.306 112.445 16.1972C111.79 15.0884 111.462 13.7752 111.462 12.2574V11.8196C111.462 10.3019 111.79 8.9934 112.445 7.8942C113.1 6.795 113.999 5.94348 115.14 5.3406C116.281 4.73772 117.587 4.43628 119.056 4.43628C120.526 4.43628 121.835 4.73772 122.987 5.3406C124.138 5.94348 125.042 6.795 125.697 7.8942C126.352 8.9934 126.679 10.3019 126.679 11.8196V12.2574C126.679 13.7752 126.352 15.0884 125.697 16.1972C125.041 17.306 124.138 18.1576 122.987 18.7508C121.835 19.3441 120.526 19.6408 119.056 19.6408ZM119.056 16.9556C120.406 16.9556 121.503 16.5323 122.347 15.6865C123.19 14.8398 123.612 13.6686 123.612 12.17V11.907C123.612 10.4094 123.195 9.23628 122.361 8.39052C121.528 7.5438 120.426 7.1214 119.056 7.1214C117.687 7.1214 116.639 7.54476 115.795 8.39052C114.951 9.23724 114.529 10.4094 114.529 11.907V12.17C114.529 13.6686 114.951 14.8408 115.795 15.6865C116.639 16.5332 117.726 16.9556 119.056 16.9556Z" fill="#160F26"/>
<path d="M130.823 17.115L128.737 4.43626H131.805L133.651 17.6276H134.127L136.224 6.82762C136.494 5.44042 137.731 4.43626 139.173 4.43626C140.617 4.43626 141.855 5.4433 142.123 6.83338L144.193 17.6267H144.67L146.516 4.4353H149.583L147.498 17.114C147.259 18.5694 145.976 19.6398 144.472 19.6398C142.997 19.6398 141.733 18.6116 141.459 17.1927L139.399 6.47818H138.923L136.863 17.1927C136.59 18.6126 135.325 19.6398 133.851 19.6398C132.346 19.6398 131.064 18.5694 130.825 17.114L130.823 17.115Z" fill="#160F26"/>
<path d="M95.834 0.841821C95.305 1.36886 95.0415 2.07254 95.0415 2.95094V19.6405H98.1203V6.99158H102.518V4.44278H100.392L98.6581 6.14198H98.1203V3.44918C98.1203 2.86358 98.4083 2.57078 98.9873 2.57078H102.506V0.0507812H98.0008C97.0829 0.0507812 96.361 0.314781 95.834 0.841821Z" fill="#160F26"/>
<path d="M87.8405 16.1788V8.18774H84.7607V16.7058C84.7607 17.5852 85.0242 18.2879 85.5531 18.8159C86.0811 19.3429 86.7943 19.6069 87.6916 19.6069H91.7579V17.0572H88.678C88.1187 17.0572 87.8405 16.7644 87.8405 16.1778V16.1788Z" fill="#160F26"/>
<path d="M69.3673 15.5137C68.5151 16.5102 67.2573 16.9969 65.9319 16.9969H56.5905C55.3543 16.9969 54.3228 16.6206 53.496 15.8689C53.4451 15.8219 53.3941 15.7748 53.3461 15.7249C53.2971 15.675 53.2501 15.6251 53.2041 15.5752C53.0934 15.4504 52.9915 15.3198 52.8975 15.1835C52.4949 14.5912 52.2647 13.8865 52.2069 13.0705C52.201 12.9928 52.198 12.914 52.1951 12.8344H63.528V11.692C63.528 10.227 63.2292 8.94731 62.6307 7.85291C62.0322 6.75851 61.1995 5.90411 60.1337 5.28875C59.066 4.67339 57.8248 4.36523 56.4113 4.36523C54.9977 4.36523 53.6802 4.67723 52.584 5.30315C52.0354 5.61515 51.5466 5.98859 51.1156 6.42443C51.0617 6.47819 51.0078 6.53387 50.9559 6.59051C50.7992 6.76043 50.6522 6.93803 50.5122 7.12235C50.327 7.37003 50.1546 7.63403 49.9979 7.91243C49.37 9.02603 49.0555 10.3345 49.0555 11.8388V12.1902C49.0555 13.6945 49.37 15.003 49.9979 16.1166C50.6258 17.2302 51.4976 18.0942 52.6144 18.7096C53.7301 19.3249 55.0369 19.6331 56.5318 19.6331H65.6792C66.5148 19.6331 68.2624 19.4852 69.2988 18.9169C70.4488 18.2852 71.16 17.5201 72.3277 16.156L72.7714 15.5339L71.0875 13.1924L69.3683 15.5137H69.3673ZM52.2245 10.5208C52.2549 10.3201 52.2931 10.1262 52.344 9.94091C52.393 9.75467 52.4527 9.57707 52.5233 9.40715C52.7554 8.84171 53.1002 8.36267 53.5548 7.97099C54.2816 7.34507 55.223 7.03307 56.3809 7.03307C57.5388 7.03307 58.4743 7.34507 59.1913 7.97099C59.9094 8.59691 60.3169 9.44651 60.4178 10.5208H54.2581L52.6839 12.0635H52.1647C52.1569 11.62 52.1647 11.0478 52.2245 10.5208Z" fill="#160F26"/>
<path d="M87.8405 4.39296V0H84.7607V4.39296H81.864C81.0284 4.39296 79.2808 4.5408 78.2444 5.10912C77.0944 5.7408 76.1608 6.55392 74.9931 7.91808L73.704 9.65856C73.1633 8.8944 72.7273 8.27904 72.5226 7.99584C71.4715 6.54336 70.4488 5.78976 69.2978 5.15808C68.2614 4.5888 66.6118 4.44192 65.7762 4.44192H65.2021V7.07904H66.0299C67.3562 7.07904 68.5151 7.56576 69.3673 8.56224L71.8859 12.1123L71.8751 12.1267L73.415 14.2685L74.7198 16.1078C75.8875 17.472 76.8211 18.2851 77.9711 18.9168C79.0075 19.4861 80.7551 19.633 81.5907 19.633H82.1647V16.9958H81.337C80.0106 16.9958 78.7244 16.5322 77.9015 15.5126C77.5851 15.121 76.4713 13.5629 75.3272 11.951L77.782 8.51232C78.6343 7.51584 80.2839 6.94176 81.6093 6.94176H92.1027V4.392H87.8405V4.39296Z" fill="#160F26"/>
</g>
</svg>
