<svg width="4693" height="4695" viewBox="0 0 4693 4695" fill="none" xmlns="http://www.w3.org/2000/svg">
<g opacity="1">
<path d="M4296.82 3272.51L4310.85 3280.55L4324.49 3288.78L4337.95 3297.39L4351.42 3306.18L4364.5 3315.35L4377.4 3324.7L4390.3 3334.42L4402.64 3344.15L4415.17 3354.44L4427.32 3364.91L4439.29 3375.58L4450.69 3386.61L4462.28 3397.84L4473.32 3409.25L4484.35 3420.84L4495.19 3432.81L4505.66 3444.79L4515.76 3457.32L4525.66 3469.66L4535.39 3482.57L4544.73 3495.48L4553.71 3508.76L4562.68 3522.23L4571.1 3535.51L4579.32 3549.35L4587.36 3563.19L4595.03 3577.41L4602.51 3591.62L4609.42 3605.84L4616.15 3620.43L4622.51 3635.02L4628.68 3649.98L4634.48 3664.76L4640.08 3679.91L4645.13 3695.06L4649.99 3710.21L4654.67 3725.55L4658.78 3741.08L4662.71 3756.6L4666.26 3772.13L4669.44 3787.84L4672.24 3803.55L4674.86 3819.45L4676.92 3835.16L4678.79 3851.06L4680.28 3867.15L4681.59 3883.05L4682.34 3899.14L4682.9 3915.04L4683.09 3931.12L4682.9 3947.21L4682.34 3963.11L4681.59 3979.01L4680.28 3995.09L4678.79 4010.99L4676.92 4026.89L4674.86 4042.79L4672.24 4058.69L4669.44 4074.4L4666.26 4089.93L4662.71 4105.64L4658.78 4121.17L4654.67 4136.69L4649.99 4152.03L4645.13 4167.18L4640.08 4182.52L4634.48 4197.48L4628.68 4212.26L4622.51 4227.04L4616.15 4241.82L4609.42 4256.22L4602.51 4270.81L4595.03 4284.84L4587.36 4298.87L4579.32 4312.71L4571.1 4326.55L4562.68 4340.2L4553.71 4353.49L4544.73 4366.58L4535.39 4379.67L4525.66 4392.39L4515.76 4404.92L4505.66 4417.27L4495.19 4429.43L4484.35 4441.21L4473.32 4453L4462.28 4464.41L4450.69 4475.63L4439.29 4486.67L4427.32 4497.33L4415.17 4507.62L4402.64 4517.9L4390.3 4527.82L4377.4 4537.54L4364.5 4546.9L4351.42 4556.06L4337.95 4564.85L4324.49 4573.27L4310.85 4581.69L4296.82 4589.55L4282.8 4597.21L4268.59 4604.51L4254.2 4611.62L4239.61 4618.54L4225.03 4624.9L4210.26 4630.88L4195.3 4636.68L4180.35 4642.29L4165.2 4647.53L4150.06 4652.21L4134.54 4656.88L4119.02 4661L4103.69 4664.74L4087.99 4668.48L4072.28 4671.66L4056.58 4674.65L4040.87 4676.9L4024.98 4679.33L4009.09 4681.2L3993.01 4682.51L3977.31 4683.82L3961.23 4684.75L3945.15 4685.13L3929.07 4685.32H9.04297V4081.89H3929.07H3941.97L3954.87 4081.32L3967.58 4080.39L3980.3 4079.27L3992.82 4077.58L4005.54 4075.71L4018.06 4073.66L4030.59 4071.04L4042.93 4068.23L4055.46 4065.05L4067.8 4061.5L4079.95 4057.57L4091.91 4053.45L4103.88 4048.96L4115.66 4044.29L4127.44 4039.05L4139.03 4033.63L4150.43 4027.83L4161.84 4021.84L4172.68 4015.67L4183.52 4008.75L4194.37 4002.01L4205.02 3994.91L4215.31 3987.24L4225.59 3979.57L4235.31 3971.52L4245.03 3963.11L4254.57 3954.69L4263.92 3945.9L4272.89 3936.92L4281.68 3927.57L4290.28 3918.03L4298.51 3908.3L4306.55 3898.39L4314.4 3888.1L4321.88 3877.81L4328.98 3867.34L4335.9 3856.67L4342.44 3845.64L4348.8 3834.6L4354.97 3823.19L4360.76 3811.97L4366.19 3800.37L4371.23 3788.59L4375.91 3776.8L4380.4 3764.83L4384.7 3752.67L4388.62 3740.52L4391.99 3728.17L4395.35 3715.82L4398.16 3703.48L4400.59 3690.76L4402.83 3678.23L4404.7 3665.69L4406.2 3652.97L4407.5 3640.44L4408.25 3627.35L4408.81 3614.63V3601.91V3589.19L4408.25 3576.28L4407.5 3563.56L4406.2 3550.84L4404.7 3538.31L4402.83 3525.59L4400.59 3512.87L4398.16 3500.53L4395.35 3487.99L4391.99 3475.65L4388.62 3463.49L4384.7 3451.15L4380.4 3439.17L4375.91 3427.2L4371.23 3415.42L4366.19 3403.63L4360.76 3392.04L4354.97 3380.63L4348.8 3369.4L4342.44 3358.18L4335.9 3347.33L4328.98 3336.67L4321.88 3326.01L4314.4 3315.72L4306.55 3305.62L4298.51 3295.52L4290.28 3285.79L4281.68 3276.44L4272.89 3267.09L4257.94 3252.31L4268.59 3257.73L4282.8 3265.03L4296.82 3272.51Z" stroke="#1C1D4D" stroke-width="18"/>
<path d="M3990.02 4069.16L3996.38 4065.98L4002.55 4062.99L4008.53 4059.24L4014.33 4055.5L4020.12 4051.39L4025.55 4047.09L4030.78 4042.6L4035.83 4037.73L4040.5 4032.68L4045.18 4027.45L4049.66 4022.02L4053.59 4016.41L4057.52 4010.61L4060.88 4004.44L4064.25 3998.27L4067.24 3992.09L4069.67 3985.55L4072.1 3979L4074.16 3972.27L4075.84 3965.53L4077.52 3958.8L4078.46 3951.88L4079.39 3944.96L4079.76 3938.22L4079.95 3931.11L4079.76 3924.19L4079.39 3917.27L4078.46 3910.16L4077.52 3903.43L4075.84 3896.51L4074.16 3889.78L4072.1 3883.23L4069.67 3876.68L4067.24 3870.13L4064.25 3863.77L4060.88 3857.6L4057.52 3851.62L4053.59 3845.82L4049.66 3840.21L4045.18 3834.59L4040.5 3829.54L4035.83 3824.31L4030.78 3819.63L4025.55 3814.95L4020.12 3810.84L4014.33 3806.54L4008.53 3802.8L4002.55 3799.43L3996.38 3796.06L3990.02 3793.26L3983.67 3790.45L3977.12 3788.02L3969.27 3785.59L2305.5 3327.68H3929.07L3945.15 3327.5L3961.23 3327.12L3977.31 3326.19L3993.01 3324.88L4009.09 3323.38L4024.98 3321.7L4040.88 3319.27L4056.58 3316.83L4072.29 3313.84L4087.99 3310.66L4103.7 3307.11L4119.03 3303.37L4134.54 3299.06L4150.06 3294.57L4165.21 3289.71L4180.35 3284.47L4195.31 3279.05L4210.26 3273.25L4225.03 3267.08L4239.62 3260.72L4254.2 3253.98L4257.75 3252.11L4257.94 3252.3L4272.9 3267.08L4281.68 3276.43L4290.28 3285.78L4298.51 3295.51L4306.55 3305.61L4314.4 3315.71L4321.88 3326L4328.98 3336.66L4335.9 3347.32L4342.45 3358.17L4348.8 3369.4L4354.97 3380.62L4360.77 3392.03L4366.19 3403.63L4371.24 3415.41L4375.91 3427.2L4380.4 3439.17L4384.7 3451.14L4388.62 3463.48L4391.99 3475.64L4395.36 3487.99L4398.16 3500.52L4400.59 3512.87L4402.83 3525.58L4404.7 3538.3L4406.2 3550.84L4407.51 3563.56L4408.26 3576.28L4408.82 3589.18V3601.9V3614.62L4408.26 3627.34L4407.51 3640.43L4406.2 3652.97L4404.7 3665.69L4402.83 3678.22L4400.59 3690.75L4398.16 3703.47L4395.36 3715.82L4391.99 3728.16L4388.62 3740.51L4384.7 3752.67L4380.4 3764.82L4375.91 3776.8L4371.24 3788.58L4366.19 3800.36L4360.77 3811.96L4354.97 3823.18L4348.8 3834.59L4342.45 3845.63L4335.9 3856.67L4328.98 3867.33L4321.88 3877.8L4314.4 3888.09L4306.55 3898.38L4298.51 3908.29L4290.28 3918.02L4281.68 3927.56L4272.9 3936.91L4263.92 3945.89L4254.57 3954.68L4245.04 3963.1L4235.32 3971.52L4225.59 3979.56L4215.31 3987.23L4205.03 3994.9L4194.37 4002.01L4183.53 4008.74L4172.68 4015.66L4161.84 4021.83L4150.44 4027.82L4139.03 4033.62L4127.44 4039.04L4115.66 4044.28L4103.88 4048.96L4091.92 4053.45L4079.95 4057.56L4067.8 4061.49L4055.46 4065.04L4042.93 4068.22L4030.59 4071.03L4018.07 4073.65L4005.54 4075.71L3992.83 4077.58L3980.3 4079.26L3967.59 4080.38L3954.87 4081.32L3941.97 4081.88H3929.07H3936.18L3943.1 4081.32L3950.01 4080.57L3956.93 4079.45L3963.85 4077.95L3970.39 4076.27L3977.12 4074.02L3983.67 4071.78L3990.02 4069.16Z" stroke="#1C1D4D" stroke-width="18"/>
<path d="M2305.49 3327.67H9.04297V2724.24H310.612L314.725 2727.23L327.626 2736.59L340.713 2745.75L354.174 2754.54L367.635 2763.15L381.284 2771.38L395.306 2779.42L409.141 2786.9L423.537 2794.38L437.746 2801.49L452.329 2808.23L466.912 2814.59L481.682 2820.76L496.826 2826.56L511.783 2831.98L526.927 2837.22L542.071 2842.08L563.01 2848.07L2305.49 3327.67Z" stroke="#1C1D4D" stroke-width="18"/>
<path d="M715.001 1977.92L708.457 1980.16L702.1 1982.97L695.744 1985.77L689.574 1988.95L683.591 1992.7L677.608 1996.44L671.999 2000.55L666.578 2004.85L661.343 2009.34L656.295 2014.21L651.621 2019.26L646.947 2024.49L642.46 2029.92L638.533 2035.72L634.607 2041.33L631.242 2047.31L627.876 2053.49L624.885 2060.03L622.268 2066.39L619.837 2072.94L617.967 2079.67L616.285 2086.41L614.602 2093.14L613.667 2100.06L612.733 2106.98L612.359 2113.91L612.172 2120.83L612.359 2127.93L612.733 2134.85L613.667 2141.78L614.602 2148.51L616.285 2155.43L617.967 2162.16L619.837 2168.71L622.268 2175.26L624.885 2181.81L627.876 2188.16L631.242 2194.15L634.607 2200.32L638.533 2206.12L642.46 2211.92L646.947 2217.34L651.621 2222.4L656.295 2227.63L661.343 2232.31L666.578 2236.8L671.999 2241.29L677.608 2245.4L683.591 2249.14L689.574 2252.7L695.744 2255.88L702.1 2258.87L708.457 2261.49L715.001 2263.92L722.853 2266.35L2386.81 2724.26H310.602L310.416 2724.07L304.433 2712.28L298.637 2700.5L293.215 2688.34L287.98 2676.18L283.306 2663.84L278.819 2651.49L274.519 2638.96L270.593 2626.24L267.227 2613.52L263.862 2600.61L261.058 2587.71L258.627 2574.99L256.384 2561.89L254.514 2548.61L253.018 2535.71L251.71 2522.43L250.962 2509.33L250.401 2496.05V2482.96V2469.68L250.962 2456.58L251.71 2443.49L253.018 2430.21L254.514 2417.12L256.384 2404.02L258.627 2390.93L261.058 2378.02L263.862 2365.12L267.227 2352.21L270.593 2339.68L274.519 2326.96L278.819 2314.42L283.306 2301.89L287.98 2289.73L293.215 2277.58L298.637 2265.42L304.433 2253.63L310.416 2241.85L316.772 2230.25L323.316 2218.84L330.42 2207.62L337.525 2196.58L345.19 2185.73L352.856 2175.07L360.895 2164.6L369.308 2154.31L377.909 2144.39L386.696 2134.48L395.857 2124.94L405.018 2115.78L414.553 2106.42L424.462 2097.63L434.558 2089.03L444.654 2080.8L455.124 2072.75L465.781 2064.9L476.811 2057.42L487.655 2050.12L499.06 2043.2L510.278 2036.47L521.869 2030.29L533.648 2024.12L545.426 2018.32L557.579 2012.9L569.731 2007.85L582.071 2003.17L594.41 1998.49L606.937 1994.38L619.65 1990.45L632.364 1986.9L645.077 1983.72L658.164 1980.91L671.065 1978.29L683.965 1976.23L697.052 1974.36L710.14 1972.68L723.227 1971.56L736.501 1970.81L749.589 1970.06H762.863H755.945L749.028 1970.81L742.11 1971.37L735.192 1972.68L728.275 1973.99L721.544 1975.67L715.001 1977.92Z" stroke="#1C1D4D" stroke-width="18"/>
<path d="M310.611 2724.24H2386.82L4129.12 3203.84L4150.06 3209.83L4165.2 3214.69L4180.34 3219.93L4195.3 3225.35L4210.26 3231.15L4225.03 3237.32L4239.61 3243.68L4254.19 3250.42L4257.75 3252.1L4254.19 3253.97L4239.61 3260.71L4225.03 3267.06L4210.26 3273.24L4195.3 3279.04L4180.34 3284.46L4165.2 3289.7L4150.06 3294.56L4134.54 3299.05L4119.02 3303.35L4103.69 3307.09L4087.98 3310.65L4072.28 3313.83L4056.58 3316.82L4040.87 3319.25L4024.98 3321.68L4009.09 3323.37L3993.01 3324.86L3977.3 3326.17L3961.22 3327.11L3945.15 3327.48L3929.07 3327.67H2305.49L563.01 2848.07L542.07 2842.08L526.926 2837.22L511.782 2831.98L496.825 2826.56L481.681 2820.76L466.911 2814.59L452.328 2808.23L437.745 2801.49L423.536 2794.38L409.14 2786.9L395.305 2779.42L381.283 2771.38L367.635 2763.15L354.173 2754.54L340.712 2745.75L327.625 2736.59L314.725 2727.23L310.611 2724.24Z" stroke="#1C1D4D" stroke-width="18"/>
<path d="M4402.63 1986.52L4415.16 1996.81L4427.31 2007.29L4439.28 2017.95L4450.68 2028.98L4462.27 2040.21L4473.31 2051.62L4484.34 2063.21L4495.18 2075.19L4505.65 2087.16L4515.75 2099.69L4525.65 2112.03L4535.38 2124.94L4544.72 2137.85L4553.7 2150.94L4562.67 2164.41L4571.09 2177.88L4579.31 2191.72L4587.35 2205.56L4595.02 2219.59L4602.5 2233.81L4609.41 2248.21L4616.14 2262.8L4622.5 2277.39L4628.67 2292.35L4634.47 2307.13L4640.08 2322.09L4645.12 2337.43L4649.98 2352.58L4654.66 2367.92L4658.77 2383.45L4662.7 2398.97L4666.25 2414.5L4669.43 2430.21L4672.23 2445.92L4674.85 2461.82L4676.91 2477.53L4678.78 2493.43L4680.27 2509.52L4681.58 2525.42L4682.33 2541.51L4682.89 2557.41L4683.08 2573.49L4682.89 2589.39L4682.33 2605.29L4681.58 2621.38L4680.27 2637.46L4678.78 2653.36L4676.91 2669.26L4674.85 2685.16L4672.23 2700.87L4669.43 2716.59L4666.25 2732.3L4662.7 2748.01L4658.77 2763.54L4654.66 2778.88L4649.98 2794.21L4645.12 2809.55L4640.08 2824.7L4634.47 2839.85L4628.67 2854.63L4622.5 2869.41L4616.14 2884.19L4609.41 2898.59L4602.5 2912.99L4595.02 2927.21L4587.35 2941.24L4579.31 2955.08L4571.09 2968.92L4562.67 2982.39L4553.7 2995.86L4544.72 3008.95L4535.38 3021.86L4525.65 3034.76L4515.75 3047.3L4505.65 3059.64L4495.18 3071.8L4484.34 3083.58L4473.31 3095.37L4462.27 3106.78L4450.68 3118L4439.28 3128.85L4427.31 3139.51L4415.16 3149.99L4402.63 3160.28L4390.29 3170.19L4377.39 3179.92L4364.49 3189.27L4351.41 3198.25L4337.94 3207.22L4324.48 3215.64L4310.84 3223.87L4296.81 3231.92L4282.79 3239.59L4268.58 3246.88L4257.93 3252.12H4257.74L4254.19 3250.43L4239.6 3243.7L4225.02 3237.34L4210.25 3231.17L4195.29 3225.37L4180.34 3219.94L4165.19 3214.71L4150.05 3209.84L4129.11 3203.86L2386.81 2724.26H3929.06L3942.52 2724.07L3955.61 2723.51L3968.7 2722.76L3981.97 2721.64L3995.06 2719.95L4008.14 2718.08L4021.04 2716.03L4033.95 2713.41L4047.03 2710.6L4059.75 2707.42L4072.46 2703.87L4085.17 2699.94L4097.7 2695.82L4110.04 2691.15L4122.38 2686.47L4134.53 2681.42L4146.5 2676L4158.46 2670.2L4170.24 2664.03L4181.64 2657.85L4193.05 2651.12L4204.27 2644.2L4215.3 2636.9L4226.33 2629.42L4236.99 2621.56L4247.46 2613.52L4257.55 2605.29L4267.65 2596.69L4277.37 2587.71L4287.09 2578.54L4296.25 2569.38L4305.41 2559.84L4314.2 2549.92L4322.8 2540.01L4331.21 2529.72L4339.25 2519.25L4346.92 2508.59L4354.58 2497.74L4361.69 2486.7L4368.79 2475.48L4375.34 2464.07L4381.69 2452.47L4387.68 2440.69L4393.47 2428.71L4398.89 2416.74L4404.13 2404.58L4408.8 2392.24L4413.29 2379.89L4417.59 2367.36L4421.52 2354.64L4424.88 2342.11L4428.25 2329.2L4431.05 2316.3L4433.48 2303.39L4435.73 2290.3L4437.6 2277.2L4439.09 2264.11L4440.4 2250.83L4441.15 2237.73L4441.71 2224.64V2211.36V2198.27L4441.15 2184.99L4440.4 2171.7L4439.09 2158.61L4437.6 2145.52L4435.73 2132.42L4433.48 2119.33L4431.05 2106.42L4428.25 2093.7L4424.88 2080.8L4421.52 2068.08L4417.59 2055.36L4413.29 2042.83L4408.8 2030.48L4404.13 2018.13L4398.89 2005.98L4393.47 1993.82L4387.68 1982.03L4381.69 1970.25L4390.29 1976.8L4402.63 1986.52Z" stroke="#1C1D4D" stroke-width="18"/>
<path d="M3990.02 2711.35L3996.38 2708.36L4002.55 2705.36L4008.53 2701.62L4014.33 2697.88L4020.12 2693.77L4025.55 2689.46L4030.78 2684.98L4035.83 2680.11L4040.5 2675.06L4045.18 2669.82L4049.66 2664.4L4053.59 2658.6L4057.52 2652.8L4060.88 2646.82L4064.25 2640.64L4067.24 2634.28L4069.67 2627.92L4072.1 2621.38L4074.16 2614.64L4075.84 2607.91L4077.52 2601.18L4078.46 2594.26L4079.39 2587.33L4079.76 2580.41L4079.95 2573.49L4079.76 2566.38L4079.39 2559.46L4078.46 2552.54L4077.52 2545.81L4075.84 2538.89L4074.16 2532.15L4072.1 2525.61L4069.67 2519.06L4067.24 2512.51L4064.25 2506.15L4060.88 2499.98L4057.52 2494L4053.59 2488.2L4049.66 2482.4L4045.18 2476.97L4040.5 2471.92L4035.83 2466.69L4030.78 2462.01L4025.55 2457.33L4020.12 2453.03L4014.33 2448.92L4008.53 2445.17L4002.55 2441.62L3996.38 2438.44L3990.02 2435.45L3983.67 2432.83L3977.12 2430.4L3969.27 2427.97L2305.5 1970.06H4381.52L4381.71 1970.25L4387.69 1982.03L4393.49 1993.82L4398.91 2005.98L4404.14 2018.13L4408.82 2030.48L4413.3 2042.83L4417.6 2055.36L4421.53 2068.08L4424.9 2080.8L4428.26 2093.7L4431.07 2106.42L4433.5 2119.33L4435.74 2132.42L4437.61 2145.52L4439.1 2158.61L4440.41 2171.7L4441.16 2184.98L4441.72 2198.27V2211.36V2224.64L4441.16 2237.73L4440.41 2250.83L4439.1 2264.11L4437.61 2277.2L4435.74 2290.3L4433.5 2303.39L4431.07 2316.3L4428.26 2329.2L4424.9 2342.11L4421.53 2354.64L4417.6 2367.36L4413.3 2379.89L4408.82 2392.24L4404.14 2404.58L4398.91 2416.74L4393.49 2428.71L4387.69 2440.69L4381.71 2452.47L4375.35 2464.07L4368.81 2475.48L4361.7 2486.7L4354.6 2497.74L4346.93 2508.59L4339.27 2519.25L4331.23 2529.72L4322.81 2540.01L4314.21 2549.92L4305.43 2559.84L4296.27 2569.38L4287.11 2578.54L4277.38 2587.71L4267.66 2596.69L4257.57 2605.29L4247.47 2613.52L4237 2621.56L4226.34 2629.42L4215.31 2636.9L4204.28 2644.2L4193.06 2651.12L4181.66 2657.85L4170.25 2664.03L4158.48 2670.2L4146.51 2676L4134.54 2681.42L4122.39 2686.47L4110.05 2691.15L4097.71 2695.82L4085.19 2699.94L4072.47 2703.87L4059.76 2707.42L4047.05 2710.6L4033.96 2713.41L4021.06 2716.03L4008.16 2718.08L3995.07 2719.95L3981.98 2721.64L3968.71 2722.76L3955.62 2723.51L3942.53 2724.07L3929.07 2724.26L3936.18 2724.07L3943.1 2723.51L3950.01 2722.95L3956.93 2721.64L3963.85 2720.33L3970.39 2718.64L3977.12 2716.4L3983.67 2714.16L3990.02 2711.35Z" stroke="#1C1D4D" stroke-width="18"/>
<path d="M4683.08 1366.62V1970.05H4381.51L4377.39 1967.06L4364.49 1957.7L4351.41 1948.54L4337.94 1939.75L4324.48 1931.14L4310.84 1922.91L4296.81 1914.87L4282.79 1907.39L4268.58 1899.91L4254.19 1892.8L4239.6 1886.06L4225.02 1879.7L4210.25 1873.53L4195.29 1867.73L4180.34 1862.31L4165.19 1857.07L4150.05 1852.21L4129.11 1846.22L2386.81 1366.62H4683.08Z" stroke="#1C1D4D" stroke-width="18"/>
<path d="M289.299 2707.59L276.959 2697.49L264.807 2687.01L252.841 2676.35L241.249 2665.31L229.845 2654.09L218.627 2642.68L207.596 2631.08L196.939 2619.11L186.47 2607.14L176.374 2594.61L166.465 2582.26L156.743 2569.36L147.395 2556.45L138.42 2543.36L129.446 2529.89L121.033 2516.42L112.62 2502.58L104.767 2488.74L97.1019 2474.71L89.6235 2460.49L82.7059 2446.09L75.9753 2431.5L69.4316 2416.91L63.2619 2401.95L57.653 2387.17L52.0442 2372.2L46.9962 2356.87L42.1352 2341.71L37.4611 2326.38L33.348 2310.85L29.4218 2295.33L25.8695 2279.8L22.6912 2264.09L19.8867 2248.38L17.2693 2232.48L15.2127 2216.76L13.3431 2200.86L11.6604 2184.78L10.5387 2168.88L9.79082 2152.79L9.04297 2136.89V2120.81V2104.72L9.79082 2089.01L10.5387 2072.92L11.6604 2056.83L13.3431 2040.93L15.2127 2025.03L17.2693 2009.14L19.8867 1993.42L22.6912 1977.71L25.8695 1962L29.4218 1946.29L33.348 1930.76L37.4611 1915.42L42.1352 1900.08L46.9962 1884.75L52.0442 1869.59L57.653 1854.44L63.2619 1839.67L69.4316 1824.89L75.9753 1810.11L82.7059 1795.71L89.6235 1781.31L97.1019 1767.09L104.767 1753.06L112.62 1739.22L121.033 1725.38L129.446 1711.91L138.42 1698.44L147.395 1685.35L156.743 1672.25L166.465 1659.53L176.374 1647L186.47 1634.66L196.939 1622.5L207.596 1610.71L218.627 1598.93L229.845 1587.52L241.249 1576.3L252.841 1565.45L264.807 1554.79L276.959 1544.31L289.299 1534.02L301.825 1524.11L314.725 1514.38L327.626 1505.03L340.713 1496.05L354.174 1487.07L367.635 1478.47L381.284 1470.43L395.306 1462.38L409.141 1454.71L423.537 1447.42L434.381 1441.99L437.746 1443.68L452.329 1450.6L466.912 1456.96L481.682 1463.13L496.826 1468.93L511.783 1474.35L526.927 1479.59L542.071 1484.45L563.01 1490.44L2305.49 1970.04H762.872H749.598L736.511 1970.79L723.237 1971.54L710.149 1972.66L697.062 1974.34L683.975 1976.21L671.074 1978.27L658.174 1980.89L645.087 1983.7L632.373 1986.88L619.66 1990.43L606.946 1994.36L594.42 1998.47L582.081 2003.15L569.741 2007.83L557.589 2012.88L545.436 2018.3L533.657 2024.1L521.879 2030.27L510.287 2036.45L499.07 2043.18L487.665 2050.1L476.821 2057.4L465.79 2064.88L455.134 2072.73L444.664 2080.78L434.568 2089.01L424.472 2097.61L414.563 2106.4L405.028 2115.76L395.867 2124.92L386.706 2134.46L377.918 2144.37L369.318 2154.29L360.905 2164.58L352.866 2175.05L345.2 2185.71L337.535 2196.56L330.43 2207.6L323.326 2218.82L316.782 2230.23L310.425 2241.83L304.442 2253.61L298.647 2265.4L293.225 2277.56L287.99 2289.71L283.316 2301.87L278.829 2314.4L274.529 2326.94L270.602 2339.66L267.237 2352.19L263.872 2365.1L261.067 2378L258.637 2390.91L256.393 2404L254.524 2417.1L253.028 2430.19L251.719 2443.47L250.971 2456.56L250.411 2469.66V2482.94V2496.03L250.971 2509.31L251.719 2522.41L253.028 2535.69L254.524 2548.59L256.393 2561.87L258.637 2574.97L261.067 2587.69L263.872 2600.59L267.237 2613.5L270.602 2626.22L274.529 2638.94L278.829 2651.47L283.316 2663.82L287.99 2676.16L293.225 2688.32L298.647 2700.48L304.442 2712.26L310.425 2724.05L301.825 2717.5L289.299 2707.59Z" stroke="#1C1D4D" stroke-width="18"/>
<path d="M4364.5 1957.7L4377.4 1967.06L4381.52 1970.05H2305.49L563.012 1490.45L542.072 1484.46L526.928 1479.6L511.784 1474.36L496.827 1468.94L481.684 1463.14L466.914 1456.97L452.331 1450.61L437.748 1443.69L434.382 1442L437.748 1440.32L452.331 1433.58L466.914 1427.22L481.684 1421.05L496.827 1415.07L511.784 1409.83L526.928 1404.59L542.072 1399.73L557.59 1395.05L573.108 1390.94L588.439 1387.2L604.143 1383.64L619.848 1380.46L635.553 1377.47L651.258 1375.04L667.15 1372.61L683.041 1370.74L698.933 1369.43L714.825 1368.12L730.904 1367.18L746.982 1366.81L762.874 1366.62H2386.82L4129.12 1846.22L4150.06 1852.21L4165.2 1857.07L4180.35 1862.31L4195.3 1867.73L4210.26 1873.53L4225.03 1879.7L4239.61 1886.06L4254.2 1892.8L4268.59 1899.91L4282.8 1907.39L4296.82 1914.87L4310.85 1922.91L4324.49 1931.14L4337.96 1939.75L4351.42 1948.54L4364.5 1957.7Z" stroke="#1C1D4D" stroke-width="18"/>
<path d="M699.304 616.741L711.83 615.057L724.544 613.935L737.257 613L749.971 612.439H762.871H755.953L749.036 613L742.118 613.748L735.201 614.87L728.283 616.367L721.552 618.05L715.009 620.295L708.465 622.539L702.108 625.158L695.752 628.151L689.582 631.331L683.599 635.072L677.616 638.813L672.008 642.928L666.586 647.23L661.351 651.72L656.303 656.583L651.629 661.633L646.955 666.871L642.468 672.295L638.541 677.907L634.615 683.706L631.25 689.878L627.885 695.864L624.893 702.224L622.276 708.77L619.845 715.317L617.976 721.864L616.293 728.785L614.61 735.519L613.676 742.44L612.741 749.361L612.367 756.095L612.18 763.203L612.367 770.124L612.741 777.045L613.676 784.152L614.61 790.886L616.293 797.807L617.976 804.541L619.845 811.088L622.276 817.635L624.893 824.182L627.885 830.541L631.25 836.527L634.615 842.7L638.541 848.498L642.468 854.11L646.955 859.722L651.629 864.772L656.303 870.009L661.351 874.686L666.586 879.175L672.008 883.477L677.616 887.779L683.599 891.333L689.582 894.887L695.752 898.254L702.108 901.06L708.465 903.866L715.009 906.298L722.861 908.729L2386.82 1366.63H762.871L746.979 1366.82L730.901 1367.19L714.822 1368.13L698.93 1369.44L683.038 1370.75L667.147 1372.62L651.255 1375.05L635.55 1377.48L619.845 1380.47L604.14 1383.65L588.436 1387.21L573.105 1390.95L557.587 1395.06L542.069 1399.74L526.925 1404.6L511.781 1409.84L496.824 1415.08L481.681 1421.07L466.911 1427.24L452.328 1433.6L437.745 1440.33L434.379 1442.02L434.005 1441.83L419.235 1427.24L410.448 1417.89L401.848 1408.53L393.622 1398.62L385.582 1388.71L377.73 1378.6L370.251 1368.13L363.147 1357.65L356.229 1346.99L349.686 1335.96L343.329 1324.92L337.159 1313.7L331.363 1302.29L325.942 1290.69L320.894 1278.91L316.033 1267.12L311.732 1255.15L307.432 1243.18L303.506 1230.83L300.141 1218.67L296.775 1206.33L293.971 1193.8L291.541 1181.45L289.297 1168.73L287.427 1156.01L285.932 1143.48L284.623 1130.76L283.875 1118.04L283.314 1105.13V1092.41V1079.69L283.875 1066.79L284.623 1053.88L285.932 1041.35L287.427 1028.63L289.297 1016.1L291.541 1003.38L293.971 990.845L296.775 978.5L300.141 966.154L303.506 953.809L307.432 941.65L311.732 929.492L316.033 917.521L320.894 905.736L325.942 893.952L331.363 882.355L337.159 871.132L343.329 859.722L349.686 848.686L356.229 837.649L363.147 826.987L370.251 816.513L377.73 806.225L385.582 795.937L393.622 786.023L401.848 776.296L410.448 766.757L419.235 757.404L428.21 748.426L437.558 739.634L447.093 731.217L456.628 722.799L466.537 714.756L476.82 707.087L487.102 699.418L497.759 692.31L508.416 685.389L519.447 678.655L530.291 672.482L541.695 666.497L553.1 660.698L564.692 655.274L576.47 650.036L588.249 645.36L600.214 640.871L612.18 636.755L624.332 632.827L636.672 629.273L649.011 626.093L661.538 623.288L674.064 620.669L686.591 618.611L699.304 616.741Z" stroke="#1C1D4D" stroke-width="18"/>
<path d="M401.85 1408.52L410.45 1417.88L419.237 1427.23L434.007 1441.82L423.537 1436.58L409.141 1429.29L395.306 1421.81L381.284 1413.76L367.636 1405.53L354.174 1396.93L340.713 1388.14L327.626 1378.97L314.725 1369.62L301.825 1359.89L289.299 1349.98L276.959 1339.88L264.807 1329.4L252.841 1318.74L241.249 1307.7L229.845 1296.48L218.627 1285.07L207.596 1273.47L196.94 1261.5L186.47 1249.53L176.374 1237L166.465 1224.65L156.743 1211.75L147.395 1198.84L138.42 1185.56L129.446 1172.09L121.033 1158.81L112.62 1144.97L104.767 1131.13L97.1019 1116.91L89.6235 1102.69L82.7059 1088.48L75.9753 1073.89L69.4316 1059.3L63.2619 1044.33L57.653 1029.56L52.0442 1014.41L46.9962 999.254L42.1352 984.103L37.4612 968.578L33.348 953.24L29.4218 937.714L25.8695 922.189L22.6912 906.477L19.8867 890.764L17.2693 874.865L15.2127 859.152L13.3431 843.253L11.6604 827.166L10.5387 811.267L9.79082 795.18L9.04297 779.281V763.195V747.108L9.79082 731.209L10.5387 715.309L11.6604 699.223L13.3431 683.323L15.2127 667.424L17.2693 651.524L19.8867 635.625L22.6912 619.913L25.8695 604.387L29.4218 588.675L33.348 573.149L37.4612 557.624L42.1352 542.286L46.9962 527.135L52.0442 511.796L57.653 496.832L63.2619 482.055L69.4316 467.278L75.9753 452.501L82.7059 438.098L89.6235 423.508L97.1019 409.479L104.767 395.45L112.62 381.421L121.033 367.766L129.446 354.111L138.42 340.831L147.395 327.737L156.743 314.643L166.465 301.924L176.374 289.391L186.47 277.046L196.94 264.887L207.596 252.916L218.627 241.319L229.845 229.909L241.249 218.686L252.841 207.649L264.807 196.987L276.959 186.7L289.299 176.412L301.825 166.498L314.725 156.771L327.626 147.419L340.713 138.253L354.174 129.462L367.636 120.857L381.284 112.627L395.306 104.771L409.141 97.1016L423.537 89.6195L437.746 82.6986L452.329 75.7776L466.912 69.4179L481.682 63.4322L496.826 57.4465L511.783 52.022L526.927 46.7845L542.071 42.1082L557.589 37.4319L573.107 33.3168L588.437 29.5757L604.142 25.8347L619.847 22.6548L635.552 19.662L651.256 17.4173L667.148 14.9857L683.04 13.1151L698.932 11.8058L714.823 10.4964L730.902 9.56116L746.981 9H762.873H4683.09V612.43H762.873H749.972L737.259 612.992L724.546 613.927L711.832 615.049L699.306 616.733L686.592 618.603L674.066 620.661L661.539 623.279L649.013 626.085L636.673 629.265L624.334 632.819L612.181 636.747L600.216 640.862L588.25 645.352L576.472 650.028L564.693 655.265L553.102 660.69L541.697 666.489L530.292 672.474L519.448 678.647L508.418 685.381L497.761 692.302L487.104 699.41L476.821 707.079L466.538 714.748L456.629 722.791L447.094 731.209L437.559 739.626L428.211 748.417L419.237 757.396L410.45 766.748L401.85 776.288L393.623 786.015L385.584 795.929L377.731 806.217L370.253 816.504L363.148 826.979L356.231 837.641L349.687 848.677L343.331 859.713L337.161 871.124L331.365 882.347L325.943 893.944L320.895 905.728L316.034 917.513L311.734 929.484L307.434 941.642L303.508 953.801L300.142 966.146L296.777 978.492L293.973 990.837L291.542 1003.37L289.299 1016.09L287.429 1028.62L285.933 1041.34L284.625 1053.87L283.877 1066.78L283.316 1079.69V1092.41V1105.13L283.877 1118.03L284.625 1130.75L285.933 1143.47L287.429 1156L289.299 1168.72L291.542 1181.44L293.973 1193.79L296.777 1206.32L300.142 1218.67L303.508 1230.83L307.434 1243.17L311.734 1255.14L316.034 1267.11L320.895 1278.9L325.943 1290.68L331.365 1302.28L337.161 1313.69L343.331 1324.91L349.687 1335.95L356.231 1346.98L363.148 1357.65L370.253 1368.12L377.731 1378.6L385.584 1388.7L393.623 1398.61L401.85 1408.52Z" stroke="#1C1D4D" stroke-width="18"/>
</g>
</svg>
