<svg xmlns="http://www.w3.org/2000/svg" width="24" height="24" viewBox="0 0 24 24" fill="none">
  <path d="M11.8152 13.1989L10.0167 11.1432C9.80447 10.9013 9.97697 10.5214 10.2991 10.5214H13.8961C13.9682 10.5214 14.0388 10.5421 14.0994 10.5811C14.16 10.6201 14.2081 10.6758 14.2379 10.7414C14.2677 10.8071 14.2779 10.8799 14.2674 10.9512C14.2569 11.0226 14.226 11.0893 14.1785 11.1435L12.38 13.1985C12.3448 13.2388 12.3014 13.2711 12.2527 13.2932C12.204 13.3153 12.1511 13.3268 12.0976 13.3268C12.0441 13.3268 11.9912 13.3153 11.9425 13.2932C11.8938 13.2711 11.8504 13.2388 11.8152 13.1985V13.1989Z" fill="black"/>
</svg>
