<svg viewBox="0 0 114 24" fill="none" xmlns="http://www.w3.org/2000/svg">
<g>
<path d="M11.8463 19.5763C7.9391 19.3247 4.80843 16.2825 4.56281 12.4915H0C0.253544 18.7276 5.41555 23.7407 11.8463 23.9999V19.5763Z" fill="#FA6863"/>
<path d="M4.5638 11.4826C4.82328 7.69536 7.96188 4.6608 11.873 4.42272V0C5.43932 0.24576 0.26741 5.24928 0 11.4826H4.5638Z" fill="#FA6863"/>
<path d="M20.1964 12.5173C19.9369 16.3045 16.7983 19.3391 12.8872 19.5772V23.9999C19.3209 23.7541 24.4928 18.7506 24.7602 12.5173H20.1964Z" fill="#FA6863"/>
<path d="M12.9139 4.42368C16.8211 4.6752 19.9518 7.71744 20.1974 11.5085H24.7602C24.5066 5.27232 19.3446 0.2592 12.9139 0V4.42368Z" fill="#FA6863"/>
</g>
<path d="M48.8682 19.5897C47.7441 19.5897 46.7408 19.3459 45.8574 18.8601C44.9739 18.3744 44.2816 17.6832 43.7795 16.7884C43.2773 15.8937 43.0268 14.8233 43.0268 13.5782V4.38428H46.1277V13.3728C46.1277 14.6179 46.4486 15.5376 47.0914 16.1308C47.7332 16.7241 48.6265 17.0208 49.7714 17.0208C51.0362 17.0208 52.0543 16.608 52.8278 15.7804C53.6004 14.9539 53.9866 13.6166 53.9866 12.0595V4.38428H57.0876V19.5888H54.047V17.1667H53.5657C53.2844 17.7504 52.7833 18.3004 52.0603 18.816C51.3373 19.3315 50.2736 19.5897 48.8692 19.5897H48.8682Z" fill="#160F26"/>
<path d="M75.4953 19.5897V4.38428H78.5963V19.5888H75.4953V19.5897Z" fill="#160F26"/>
<path d="M89.2451 19.5897C87.7595 19.5897 86.4403 19.2931 85.2855 18.6998C84.1306 18.1065 83.2234 17.255 82.5608 16.1462C81.8983 15.0374 81.5675 13.7241 81.5675 12.2064V11.7686C81.5675 10.2509 81.8983 8.94237 82.5608 7.84317C83.2234 6.74397 84.1316 5.89245 85.2855 5.28957C86.4393 4.68669 87.7595 4.38525 89.2451 4.38525C90.7307 4.38525 92.0549 4.68669 93.2196 5.28957C94.3833 5.89245 95.2975 6.74397 95.9591 7.84317C96.6217 8.94237 96.9525 10.2509 96.9525 11.7686V12.2064C96.9525 13.7241 96.6217 15.0374 95.9591 16.1462C95.2965 17.255 94.3833 18.1065 93.2196 18.6998C92.0549 19.2931 90.7307 19.5897 89.2451 19.5897ZM89.2451 16.9046C90.6099 16.9046 91.7191 16.4813 92.5719 15.6355C93.4246 14.7888 93.8515 13.6176 93.8515 12.119V11.856C93.8515 10.3584 93.4296 9.18525 92.5867 8.33949C91.7439 7.49277 90.6297 7.07037 89.2451 7.07037C87.8605 7.07037 86.8008 7.49373 85.948 8.33949C85.0943 9.18621 84.6684 10.3584 84.6684 11.856V12.119C84.6684 13.6176 85.0943 14.7897 85.948 15.6355C86.8008 16.4822 87.9001 16.9046 89.2451 16.9046Z" fill="#160F26"/>
<path d="M99.9247 19.5897V4.38428H102.965V6.77756H103.447C103.728 6.19388 104.229 5.64956 104.952 5.14364C105.675 4.63772 106.749 4.38524 108.174 4.38524C109.298 4.38524 110.296 4.62908 111.17 5.11484C112.043 5.60156 112.73 6.287 113.232 7.17212C113.733 8.05724 113.985 9.12284 113.985 10.368V19.5897H110.884V10.6012C110.884 9.35612 110.563 8.4374 109.92 7.84316C109.277 7.24988 108.395 6.95324 107.271 6.95324C105.986 6.95324 104.957 7.3622 104.184 8.17916C103.412 8.99612 103.026 10.3584 103.026 11.9145V19.5897H99.9247Z" fill="#160F26"/>
<path d="M66.4123 19.5897H60.0598V17.1677H66.4123C67.3957 17.1677 68.1534 16.9833 68.6853 16.6128C69.2171 16.2432 69.4835 15.7661 69.4835 15.1824C69.4835 14.5987 69.232 14.1705 68.7308 13.8979C68.2287 13.6262 67.4859 13.4016 66.5024 13.2269L65.4783 13.0521C64.474 12.8774 63.5609 12.624 62.7388 12.2937C61.9158 11.9635 61.2631 11.5056 60.7818 10.9219C60.3005 10.3382 60.0588 9.58941 60.0588 8.67453C60.0588 7.31325 60.5808 6.25725 61.6246 5.50845C62.6685 4.75965 64.0531 4.38525 65.7794 4.38525H72.2834V6.83709H65.7794C64.9366 6.83709 64.274 6.98781 63.7926 7.28925C63.3113 7.59069 63.0696 8.01405 63.0696 8.55837C63.0696 9.14205 63.3054 9.57021 63.7768 9.84285C64.2482 10.1155 64.886 10.32 65.6883 10.4553L66.7421 10.6301C67.8058 10.8048 68.7793 11.0486 69.6628 11.3597C70.5462 11.6707 71.2435 12.1181 71.7555 12.7017C72.2676 13.2854 72.5231 14.064 72.5231 15.0365C72.5231 16.4765 71.9704 17.5949 70.8671 18.3926C69.7628 19.1904 68.2782 19.5888 66.4113 19.5888L66.4123 19.5897Z" fill="#160F26"/>
<path d="M33.299 0.79104C32.7642 1.31808 32.4977 2.02176 32.4977 2.90016V19.5898H35.6106V6.93984H40.0565V4.39104H37.9073L36.1543 6.09024H35.6106V3.39744C35.6106 2.81184 35.9018 2.51904 36.4871 2.51904H40.0446V0H35.4898C34.5617 0 33.8318 0.264 33.299 0.79104Z" fill="#160F26"/>
</svg>
