<svg fill="none"
    xmlns="http://www.w3.org/2000/svg" viewBox="0 0 83.73 16">
    <path d="M2.94912 7.65504C3.1168 5.13024 5.14496 3.1072 7.67232 2.94848V0C3.51488 0.16384 0.1728 3.49952 0 7.65504H2.94912Z" fill="#F18046"></path>
    <path d="M7.65504 13.0509C5.13024 12.8832 3.1072 10.8551 2.94848 8.3277H0C0.16384 12.4851 3.49952 15.8272 7.65504 16V13.0509Z" fill="#F18046"></path>
    <path d="M8.34497 2.94912C10.8698 3.1168 12.8928 5.14496 13.0515 7.67232H16C15.8362 3.51488 12.5005 0.1728 8.34497 0V2.94912Z" fill="#F18046"></path>
    <path d="M16 13.0509C13.4752 12.8832 11.4522 10.8551 11.2935 8.3277H8.34497C8.50881 12.4851 11.8445 15.8272 16 16V13.0509Z" fill="#F18046"></path>
    <path d="M70.3428 16V11.4925H70.0317C69.889 11.7523 69.6817 12.0019 69.409 12.2413C69.1364 12.4813 68.7895 12.679 68.3684 12.8345C67.9466 12.9901 67.425 13.0681 66.8023 13.0681C65.9978 13.0681 65.2586 12.8736 64.5841 12.4845C63.9095 12.0953 63.3713 11.5347 62.9693 10.8013C62.5668 10.0685 62.3665 9.18334 62.3665 8.14526V7.85342C62.3665 6.81598 62.5706 5.93086 62.9796 5.19742C63.3879 4.46462 63.9293 3.90334 64.6039 3.51422C65.2785 3.1251 66.0113 2.93054 66.8023 2.93054C67.7361 2.93054 68.4529 3.0995 68.9521 3.43614C69.4513 3.77342 69.8244 4.15614 70.0708 4.5843H70.3818V2.93054H72.3466V15.9987H70.3428V16ZM67.3661 11.3171C68.2481 11.3171 68.9681 11.0381 69.5255 10.4806C70.0829 9.92318 70.362 9.1251 70.362 8.08766V7.9123C70.362 6.88766 70.0797 6.09662 69.5159 5.53854C68.9514 4.9811 68.2346 4.70206 67.3661 4.70206C66.4977 4.70206 65.8001 4.9811 65.2356 5.53854C64.6711 6.09662 64.3895 6.88766 64.3895 7.9123V8.08766C64.3895 9.12574 64.6717 9.92318 65.2356 10.4806C65.8001 11.0387 66.5098 11.3171 67.3661 11.3171Z" fill="#FFFFFF"></path>
    <path d="M78.9814 13.0681C78.0604 13.0681 77.2272 12.8736 76.4816 12.4844C75.7353 12.0953 75.1452 11.5308 74.7113 10.7916C74.2768 10.0524 74.0598 9.16411 74.0598 8.12603V7.87323C74.0598 6.83579 74.2768 5.95067 74.7113 5.21723C75.1459 4.48443 75.736 3.92059 76.4816 3.52443C77.2272 3.12891 78.0604 2.93115 78.9814 2.93115C79.9024 2.93115 80.687 3.10011 81.3353 3.43675C81.9836 3.77403 82.5059 4.22139 82.9014 4.77947C83.2969 5.33755 83.5529 5.95323 83.67 6.62779L81.7245 7.03611C81.6592 6.60795 81.5235 6.21883 81.3161 5.86875C81.1088 5.51867 80.8169 5.23963 80.4406 5.03227C80.0643 4.82491 79.5907 4.72123 79.0205 4.72123C78.4502 4.72123 77.96 4.84795 77.5126 5.10075C77.0653 5.35355 76.7113 5.71707 76.4521 6.19003C76.1923 6.66363 76.063 7.23771 76.063 7.91163V8.08699C76.063 8.76155 76.1923 9.33883 76.4521 9.81883C76.7113 10.2988 77.0653 10.6624 77.5126 10.9081C77.96 11.1545 78.4624 11.278 79.0205 11.278C79.8633 11.278 80.5053 11.0611 80.9469 10.6265C81.3878 10.192 81.6668 9.63771 81.7833 8.96315L83.7289 9.41051C83.5734 10.0723 83.2976 10.6822 82.902 11.2396C82.5065 11.7977 81.9843 12.2419 81.336 12.5721C80.687 12.903 79.9024 13.0681 78.982 13.0681H78.9814Z" fill="#FFFFFF"></path>
    <path d="M21.0013 13.0681V2.93182H22.9661V4.21566H23.2771C23.4589 3.87838 23.7507 3.58014 24.1526 3.32094C24.5546 3.06174 25.0992 2.93182 25.7872 2.93182C26.4752 2.93182 27.0742 3.07774 27.5088 3.36958C27.9434 3.66142 28.2704 4.03454 28.4912 4.4883H28.8022C29.0224 4.04734 29.3437 3.67806 29.7654 3.37918C30.1866 3.08094 30.7869 2.93182 31.5651 2.93182C32.1878 2.93182 32.7389 3.05854 33.2189 3.31134C33.6989 3.56414 34.0816 3.94046 34.367 4.43966C34.6525 4.93886 34.7952 5.55838 34.7952 6.29758V13.0681H32.7914V6.4531C32.7914 5.86942 32.6326 5.41886 32.3146 5.10078C31.9965 4.78334 31.5459 4.62398 30.9622 4.62398C30.3395 4.62398 29.8403 4.82494 29.464 5.22686C29.0877 5.62878 28.8995 6.20606 28.8995 6.9587V13.0681H26.8957V6.4531C26.8957 5.86942 26.737 5.41886 26.4189 5.10078C26.1008 4.78334 25.6502 4.62398 25.0666 4.62398C24.4438 4.62398 23.9446 4.82494 23.5683 5.22686C23.192 5.62878 23.0038 6.20606 23.0038 6.9587V13.0681H21H21.0013Z" fill="#FFFFFF"></path>
    <path d="M40.4898 13.0464C39.7634 13.0464 39.1151 12.8838 38.5442 12.56C37.9733 12.2361 37.526 11.7753 37.2015 11.1789C36.877 10.5824 36.7151 9.86878 36.7151 9.0387V2.93182H38.7189V8.90238C38.7189 9.73246 38.9263 10.3456 39.3416 10.7411C39.7564 11.1366 40.3336 11.3344 41.0735 11.3344C41.8908 11.3344 42.5487 11.0592 43.0485 10.5075C43.5477 9.95646 43.7973 9.16222 43.7973 8.12414V2.93182H45.8012V13.0681H43.8364V11.4317H43.5253C43.3436 11.8208 43.0197 12.1875 42.5525 12.5312C42.0853 12.8749 41.398 13.047 40.4904 13.047L40.4898 13.0464Z" fill="#FFFFFF"></path>
    <path d="M47.7212 13.0682V0H49.725V13.0682H47.7212Z" fill="#FFFFFF"></path>
    <path d="M58.4419 13.0681V2.93182H60.4457V13.0681H58.4419Z" fill="#FFFFFF"></path>
    <path d="M56.5218 4.57408V2.93184H55.2757L54.1807 4.02688H53.6565V0H51.645V11.1347C51.645 11.7203 51.8172 12.1894 52.1628 12.5408C52.5077 12.8922 52.9788 13.0682 53.5785 13.0682H56.5212V11.3888H54.2223C53.8447 11.3888 53.6559 11.1936 53.6559 10.8032V4.57472H56.5205L56.5218 4.57408Z" fill="#FFFFFF"></path>
</svg>
