<svg fill="none" xmlns="http://www.w3.org/2000/svg" viewBox="0 0 97.78 16"> <g clip-path="url(#clip0_2110_1497)"> <path d="M0 2.94912C2.51908 3.1168 4.53753 5.14496 4.69589 7.67232H7.63768C7.47421 3.51488 4.1461 0.1728 0 0V2.94912Z" fill="#0DC09D"></path> <path d="M4.71249 8.34497C4.54519 10.8698 2.52163 12.8928 0 13.0515V16C4.14801 15.8362 7.48251 12.5005 7.65492 8.34497H4.71249Z" fill="#0DC09D"></path> <path d="M11.2513 7.65504C11.4186 5.13024 13.4421 3.1072 15.9638 2.94848V0C11.8157 0.16384 8.48125 3.49952 8.30884 7.65504H11.2513Z" fill="#0DC09D"></path> <path d="M15.9636 13.0509C13.4445 12.8832 11.4261 10.8551 11.2677 8.3277H8.32593C8.4894 12.4851 11.8175 15.8272 15.9636 16V13.0509Z" fill="#0DC09D"></path> <path d="M20.9524 13.0893V2.95233H22.9127V4.54785H23.2231C23.4044 4.15873 23.7275 3.79585 24.1937 3.45857C24.6598 3.12129 25.352 2.95297 26.2709 2.95297C26.9956 2.95297 27.6393 3.11553 28.2025 3.43937C28.7657 3.76385 29.2088 4.22081 29.5319 4.81089C29.855 5.40097 30.0172 6.11137 30.0172 6.94145V13.0893H28.0179V7.09697C28.0179 6.26689 27.811 5.65441 27.3966 5.25825C26.9822 4.86273 26.4133 4.66497 25.6885 4.66497C24.8603 4.66497 24.1969 4.93761 23.6988 5.48225C23.2007 6.02689 22.9517 6.81857 22.9517 7.85601V13.0899H20.9524V13.0893Z" fill="#160F26"></path> <path d="M68.7419 13.0938V0.0185547H70.7412V13.0938H68.7419Z" fill="#160F26"></path> <path d="M77.607 13.0938C76.6492 13.0938 75.7986 12.896 75.0541 12.5005C74.3095 12.105 73.7246 11.5373 73.2974 10.7981C72.8703 10.0589 72.657 9.18338 72.657 8.17154V7.8797C72.657 6.86786 72.8703 5.99554 73.2974 5.26274C73.7246 4.52994 74.3102 3.96226 75.0541 3.56034C75.798 3.15842 76.6492 2.95746 77.607 2.95746C78.5648 2.95746 79.4186 3.15842 80.1695 3.56034C80.9198 3.96226 81.5092 4.52994 81.9357 5.26274C82.3629 5.99554 82.5762 6.86786 82.5762 7.8797V8.17154C82.5762 9.18338 82.3629 10.0589 81.9357 10.7981C81.5085 11.5373 80.9198 12.105 80.1695 12.5005C79.4186 12.896 78.5648 13.0938 77.607 13.0938ZM77.607 11.3037C78.4869 11.3037 79.2021 11.0215 79.7519 10.4576C80.3017 9.89314 80.5769 9.11234 80.5769 8.1133V7.93794C80.5769 6.93954 80.3049 6.15746 79.7615 5.59362C79.2181 5.02914 78.4997 4.74754 77.607 4.74754C76.7143 4.74754 76.0311 5.02978 75.4813 5.59362C74.9309 6.1581 74.6563 6.93954 74.6563 7.93794V8.1133C74.6563 9.11234 74.9309 9.89378 75.4813 10.4576C76.0311 11.0221 76.7399 11.3037 77.607 11.3037Z" fill="#160F26"></path> <path d="M85.2772 11.4099L83.9177 2.95743H85.917L87.1207 11.7517H87.431L88.7982 4.55167C88.9738 3.62687 89.7802 2.95743 90.7202 2.95743C91.6614 2.95743 92.4685 3.62879 92.6429 4.55551L93.9927 11.751H94.3031L95.5068 2.95679H97.506L96.1466 11.4093C95.9908 12.3795 95.1549 13.0931 94.1741 13.0931C93.2131 13.0931 92.3887 12.4077 92.2106 11.4617L90.8677 4.31871H90.5574L89.2145 11.4617C89.0363 12.4083 88.212 13.0931 87.251 13.0931C86.2701 13.0931 85.4343 12.3795 85.2785 11.4093L85.2772 11.4099Z" fill="#160F26"></path> <path d="M62.4695 0.561296C62.1246 0.912656 61.9529 1.38178 61.9529 1.96738V13.0938H63.9598V4.66114H66.8263V2.96194H65.4406L64.3104 4.09474H63.9598V2.29954C63.9598 1.90914 64.1476 1.71394 64.525 1.71394H66.8186V0.0339355H63.8819C63.2836 0.0339355 62.813 0.209936 62.4695 0.561296Z" fill="#160F26"></path> <path d="M57.2591 10.7859V5.45856H55.2515V11.1373C55.2515 11.7235 55.4232 12.192 55.768 12.544C56.1122 12.8954 56.5771 13.0714 57.162 13.0714H59.8126V11.3715H57.805C57.4404 11.3715 57.2591 11.1763 57.2591 10.7853V10.7859Z" fill="#160F26"></path> <path d="M45.2174 10.3424C44.6618 11.0067 43.8419 11.3312 42.978 11.3312H36.8888C36.0829 11.3312 35.4105 11.0803 34.8716 10.5792C34.8384 10.5479 34.8052 10.5165 34.7739 10.4832C34.742 10.4499 34.7113 10.4167 34.6813 10.3834C34.6091 10.3002 34.5427 10.2131 34.4814 10.1223C34.219 9.72738 34.0689 9.25761 34.0313 8.71361C34.0274 8.66177 34.0255 8.60929 34.0236 8.55617H41.411V7.79457C41.411 6.81793 41.2162 5.96482 40.8261 5.23522C40.4359 4.50562 39.8931 3.93602 39.1984 3.52578C38.5024 3.11554 37.6933 2.9101 36.7719 2.9101C35.8505 2.9101 34.9916 3.1181 34.2771 3.53538C33.9195 3.74338 33.6009 3.99233 33.3199 4.28289C33.2848 4.31873 33.2497 4.35586 33.2158 4.39362C33.1137 4.5069 33.0179 4.6253 32.9266 4.74818C32.8059 4.9133 32.6935 5.08929 32.5913 5.27489C32.182 6.01729 31.9771 6.88961 31.9771 7.89249V8.12674C31.9771 9.12961 32.182 10.0019 32.5913 10.7443C33.0006 11.4867 33.569 12.0627 34.2969 12.473C35.0242 12.8832 35.876 13.0887 36.8505 13.0887H42.8132C43.3579 13.0887 44.4971 12.9901 45.1727 12.6112C45.9223 12.1901 46.3859 11.68 47.1471 10.7706L47.4363 10.3559L46.3387 8.79489L45.218 10.3424H45.2174ZM34.0428 7.01377C34.0626 6.88001 34.0875 6.75074 34.1207 6.62722C34.1526 6.50306 34.1915 6.38465 34.2375 6.27137C34.3888 5.89441 34.6136 5.57505 34.9099 5.31393C35.3837 4.89665 35.9974 4.68866 36.7521 4.68866C37.5069 4.68866 38.1167 4.89665 38.5841 5.31393C39.0522 5.73121 39.3178 6.29761 39.3836 7.01377H35.3684L34.3422 8.04225H34.0038C33.9987 7.74657 34.0038 7.36513 34.0428 7.01377Z" fill="#160F26"></path> <path d="M57.2591 2.92864V0H55.2515V2.92864H53.3633C52.8186 2.92864 51.6794 3.0272 51.0038 3.40608C50.2542 3.8272 49.6456 4.36928 48.8845 5.27872L48.0442 6.43904C47.6917 5.9296 47.4075 5.51936 47.2741 5.33056C46.5889 4.36224 45.9223 3.85984 45.172 3.43872C44.4964 3.0592 43.4211 2.96128 42.8764 2.96128H42.5022V4.71936H43.0418C43.9064 4.71936 44.6618 5.04384 45.2173 5.70816L46.859 8.07488L46.852 8.08448L47.8558 9.51232L48.7063 10.7386C49.4675 11.648 50.076 12.1901 50.8257 12.6112C51.5013 12.9907 52.6404 13.0886 53.1851 13.0886H53.5593V11.3306H53.0197C52.1551 11.3306 51.3167 11.0214 50.7803 10.3418C50.5741 10.0806 49.8481 9.04192 49.1022 7.96736L50.7024 5.67488C51.258 5.01056 52.3333 4.62784 53.1972 4.62784H60.0374V2.928H57.2591V2.92864Z" fill="#160F26"></path> </g> <defs> <clipPath id="clip0_2110_1497"> <rect width="97.7778" height="16" fill="white"></rect> </clipPath> </defs> </svg>
