<?xml version="1.0" encoding="UTF-8"?><svg id="uuid-661f7723-5071-4f8f-9eee-90c3dab90282" xmlns="http://www.w3.org/2000/svg" viewBox="0 0 146.6 16.36"><path d="M13.58,8.28h.02s.02.02.02.02h.02s.02.02.02.02h.02s.02.02.02.02h.02s.02.03.02.03l.02.02.02.02.02.02.02.02.02.02v.02s.03.02.03.02v.02s.02.02.02.02v.02s.02.02.02.02v.02s.02.02.02.02v.02s.01.02.01.02v.02s0,.02,0,.02v.02s0,.02,0,.02v.02s0,.02,0,.02v.02s0,.02,0,.02v.02s-.01.02-.01.02v.02s-.02.02-.02.02v.02s-.02.02-.02.02v.02s-.02.02-.02.02v.02s-.03.02-.03.02l-.02.02-.02.02-.02.02-.02.02-.02.02h-.02s-.02.03-.02.03h-.02s-.02.03-.02.03h-.02s-.02.02-.02.02h-.02s-.02.02-.02.02h-.02s-.02.01-.02.01h-.02s-.02,0-.02,0h-.02s-.02,0-.02,0h0,.02s.04,0,.04,0h.04s.04,0,.04,0h.04s.04-.01.04-.01h.04s.04-.02.04-.02h.04s.04-.02.04-.02h.04s.04-.03.04-.03h.04s.04-.03.04-.03l.04-.02.04-.02.04-.02.04-.02.04-.02.04-.02.04-.02.04-.02.04-.02.04-.03.03-.03.03-.03.03-.03.03-.03.03-.03.03-.03.03-.03.03-.03.03-.03.03-.03.03-.04.03-.04.02-.04.02-.04.02-.04.02-.04.02-.04.02-.04.02-.04.02-.04.02-.04.02-.04v-.04s.03-.04.03-.04v-.04s.02-.04.02-.04v-.04s.02-.04.02-.04v-.04s.01-.04.01-.04v-.04s0-.04,0-.04v-.04s0-.04,0-.04v-.04s0-.04,0-.04v-.04s0-.04,0-.04v-.04s0-.04,0-.04v-.04s-.01-.04-.01-.04v-.04s-.02-.04-.02-.04v-.03h-1.6s-3.68,0-3.68,0l3.82,1.05h.03Z" fill="#160F26" style="stroke-width:0px;"/><path d="M16,8.66v-.06s0-.05,0-.05v-.06s-.01-.05-.01-.05v-.05s-.02-.05-.02-.05v-.05s-.02-.05-.02-.05v-.05s-.03-.05-.03-.05v-.05s-.03-.05-.03-.05l-.02-.05-.02-.05-.02-.05-.02-.05-.02-.05-.02-.05-.02-.05-.02-.05-.03-.05-.03-.05-.03-.05-.03-.05-.03-.05-.03-.05-.03-.04-.03-.04h-.01s-.48-.01-.48-.01v.03s.02.04.02.04v.04s.02.04.02.04v.04s.01.04.01.04v.04s0,.04,0,.04v.04s0,.04,0,.04v.04s0,.04,0,.04v.04s0,.04,0,.04v.04s-.01.04-.01.04v.04s-.02.04-.02.04v.04s-.02.04-.02.04v.04s-.03.04-.03.04v.04s-.03.04-.03.04l-.02.04-.02.04-.02.04-.02.04-.02.04-.02.04-.02.04-.02.04-.02.04-.03.04-.03.04-.03.03-.03.03-.03.03-.03.03-.03.03-.03.03-.03.03-.03.03-.03.03-.03.03-.04.03-.04.02-.04.02-.04.02-.04.02-.04.02-.04.02-.04.02-.04.02-.04.02-.04.02h-.04s-.04.03-.04.03h-.04s-.04.02-.04.02h-.04s-.04.02-.04.02h-.04s-.04.01-.04.01h-.04s-.04,0-.04,0h-.04s-.04,0-.04,0h-.04s-13.42,0-13.42,0v2.06h13.47s.05,0,.05,0h.06s.05,0,.05,0h.05s.05-.01.05-.01h.05s.05-.02.05-.02h.05s.05-.02.05-.02h.05s.05-.02.05-.02h.05s.05-.03.05-.03l.05-.02.05-.02.05-.02.05-.02.05-.02.05-.02.05-.02.05-.02.05-.02.05-.03.05-.03.05-.03.05-.03.05-.03.05-.03.04-.03.04-.03.04-.03.04-.04.04-.04.04-.04.04-.04.04-.04.04-.04.04-.04.04-.04.04-.04.03-.04.03-.04.03-.04.03-.04.03-.04.03-.05.03-.05.03-.05.03-.05.03-.05.03-.05.02-.05.02-.05.02-.05.02-.05.02-.05.02-.05.02-.05.02-.05.02-.05v-.05s.03-.05.03-.05v-.05s.02-.05.02-.05v-.05s.02-.05.02-.05v-.05s.01-.05.01-.05v-.05s0-.06,0-.06v-.05s0-.05,0-.05v-.06s0-.06,0-.06v-.05Z" style="fill:#fa6863; stroke-width:0px;"/><path d="M2.42,7.71h-.02s-.02-.02-.02-.02h-.02s-.02-.02-.02-.02h-.02s-.02-.02-.02-.02h-.02s-.02-.03-.02-.03l-.02-.02-.02-.02-.02-.02-.02-.02-.02-.02v-.02s-.03-.02-.03-.02v-.02s-.02-.02-.02-.02v-.02s-.02-.02-.02-.02v-.02s-.02-.02-.02-.02v-.02s-.01-.02-.01-.02v-.02s0-.02,0-.02v-.02s0-.02,0-.02v-.02s0-.02,0-.02v-.02s0-.02,0-.02v-.02s.01-.02.01-.02v-.02s.02-.02.02-.02v-.02s.02-.02.02-.02v-.02s.02-.02.02-.02v-.02s.03-.02.03-.02l.02-.02.02-.02.02-.02.02-.02.02-.02h.02s.02-.03.02-.03h.02s.02-.03.02-.03h.02s.02-.02.02-.02h.02s.02-.02.02-.02h.02s.02-.01.02-.01h.02s.02,0,.02,0h.02s.02,0,.02,0h0-.07s-.04,0-.04,0h-.04s-.04,0-.04,0h-.04s-.04.01-.04.01h-.04s-.04.02-.04.02h-.04s-.04.02-.04.02h-.04s-.04.03-.04.03h-.04s-.04.03-.04.03l-.04.02-.04.02-.04.02-.04.02-.04.02-.04.02-.04.02-.04.02-.04.03-.04.03-.03.03-.03.03-.03.03-.03.03-.03.03-.03.03-.03.03-.03.03-.03.03-.03.03-.02.04-.02.04-.02.04-.02.04-.02.04-.02.04-.02.04-.02.04-.02.04-.02.04-.02.04v.04s-.03.04-.03.04v.04s-.02.04-.02.04v.04s-.02.04-.02.04v.04s-.01.04-.01.04v.04s0,.04,0,.04v.04s0,.04,0,.04v.04s0,.04,0,.04v.04s0,.04,0,.04v.04s0,.04,0,.04v.04s.01.04.01.04v.04s.02.04.02.04v.03h1.6s3.68,0,3.68,0l-3.82-1.05h-.03Z" fill="#160F26" style="stroke-width:0px;"/><path d="M0,7.33v.06s0,.05,0,.05v.05s.01.05.01.05v.05s.02.05.02.05v.05s.02.05.02.05v.05s.03.05.03.05v.05s.03.05.03.05l.02.05.02.05.02.05.02.05.02.05.02.05.02.05.02.05.03.05.03.05.03.05.03.05.03.05.03.05.03.05.03.04h.01s.48.01.48.01v-.03s-.02-.04-.02-.04v-.04s-.02-.04-.02-.04v-.04s-.01-.04-.01-.04v-.04s0-.04,0-.04v-.04s0-.04,0-.04v-.04s0-.04,0-.04v-.04s0-.04,0-.04v-.04s.01-.04.01-.04v-.04s.02-.04.02-.04v-.04s.02-.04.02-.04v-.04s.02-.04.02-.04v-.04s.03-.04.03-.04l.02-.04.02-.04.02-.04.02-.04.02-.04.02-.04.02-.04.02-.04.02-.04.02-.04.03-.03.03-.03.03-.03.03-.03.03-.03.03-.03.03-.03.03-.03.03-.03.03-.03.04-.03.04-.03.04-.02.04-.02.04-.02.04-.02.04-.02.04-.02.04-.02.04-.02.04-.02h.04s.04-.03.04-.03h.04s.04-.03.04-.03h.04s.04-.02.04-.02h.04s.04-.02.04-.02h.04s.04-.01.04-.01h.04s.04,0,.04,0h.04s.04,0,.04,0h13.42v-2.06H2.53s-.05,0-.05,0h-.06s-.05,0-.05,0h-.06s-.05.01-.05.01h-.05s-.05.02-.05.02h-.05s-.05.02-.05.02h-.05s-.05.03-.05.03h-.05s-.05.03-.05.03l-.05.02-.05.02-.05.02-.05.02-.05.02-.05.02-.05.02-.05.02-.05.02-.05.03-.05.03-.05.03-.05.03-.05.03-.04.03-.04.03-.04.03-.04.03-.04.04-.04.04-.04.04-.04.04-.04.04-.04.04-.04.04-.04.04-.04.04-.03.04-.03.04-.03.04-.03.04-.03.04-.03.05-.03.05-.03.05-.03.05-.03.05-.03.05-.02.05-.02.05-.02.05-.02.05-.02.05-.02.05-.02.05-.02.05-.02.05v.05s-.03.05-.03.05v.05s-.02.05-.02.05v.05s-.02.05-.02.05v.05s-.01.05-.01.05v.05s0,.05,0,.05v.05s0,.06,0,.06v.16Z" style="fill:#f18046; stroke-width:0px;"/><path d="M2.42,3.07h-.02s-.02-.02-.02-.02h-.02s-.02-.02-.02-.02h-.02s-.02-.02-.02-.02h-.02s-.02-.03-.02-.03l-.02-.02-.02-.02-.02-.02-.02-.02-.02-.02v-.02s-.03-.02-.03-.02v-.02s-.02-.02-.02-.02v-.02s-.02-.02-.02-.02v-.02s-.02-.02-.02-.02v-.02s-.01-.02-.01-.02v-.02s0-.02,0-.02v-.02s0-.02,0-.02v-.02s0-.02,0-.02v-.02s0-.02,0-.02v-.02s.01-.02.01-.02v-.02s.02-.02.02-.02v-.02s.02-.02.02-.02v-.02s.02-.02.02-.02v-.02s.03-.02.03-.02l.02-.02.02-.02.02-.02.02-.02.02-.02h.02s.02-.03.02-.03h.02s.02-.03.02-.03h.02s.02-.02.02-.02h.02s.02-.02.02-.02h.02s.02-.01.02-.01h.02s.02,0,.02,0h.02s.02,0,.02,0h0-.07s-.04,0-.04,0h-.04s-.04,0-.04,0h-.04s-.04.01-.04.01h-.04s-.04.02-.04.02h-.04s-.04.02-.04.02h-.04s-.04.03-.04.03l-.04.02-.04.02-.04.02-.04.02-.04.02-.04.02-.04.02-.04.02-.04.02-.04.02-.04.03-.04.03-.03.03-.03.03-.03.03-.03.03-.03.03-.03.03-.03.03-.03.03-.03.03-.03.04-.02.04-.02.04-.02.04-.02.04-.02.04-.02.04-.02.04-.02.04-.02.04-.02.04-.02.04v.04s-.03.04-.03.04v.04s-.02.04-.02.04v.04s-.02.04-.02.04v.04s-.01.04-.01.04v.04s0,.04,0,.04v.04s0,.04,0,.04v.04s0,.04,0,.04v.04s0,.04,0,.04v.04s0,.04,0,.04v.04s.01.04.01.04v.04s.02.04.02.04v.04s.02.04.02.04v.04s.03.04.03.04l.02.04.02.04.02.04.02.04.02.04v.02s.01,0,.01,0l.05-.03.05-.03.05-.03.06-.02.06-.02.06-.02.06-.02.06-.02.06-.02.06-.02.06-.02.06-.02h.06s.06-.03.06-.03h.06s.06-.02.06-.02h.06s.06-.02.06-.02h.06s.06-.01.06-.01h.06s.06,0,.06,0h.06s.06,0,.06,0h.06s3.68,0,3.68,0l-3.82-1.05h-.03Z" fill="#160F26" style="stroke-width:0px;"/><path d="M13.42,13.94h.09s.04,0,.04,0h.04s.04,0,.04,0h.04s.04-.01.04-.01h.04s.04-.02.04-.02h.04s.04-.02.04-.02h.04s.04-.03.04-.03l.04-.02.04-.02.04-.02.04-.02.04-.02.04-.02.04-.02.04-.02.04-.02.04-.02.04-.03.03-.03.03-.03.03-.03.03-.03.03-.03.03-.03.03-.03.03-.03.03-.03.03-.03.03-.04.02-.04.02-.04.02-.04.02-.04.02-.04.02-.04.02-.04.02-.04.02-.04.02-.04v-.04s.03-.04.03-.04v-.04s.03-.04.03-.04v-.04s.02-.04.02-.04v-.04s.02-.04.02-.04v-.04s.01-.04.01-.04v-.04s0-.04,0-.04v-.04s0-.04,0-.04v-.09s0-.04,0-.04v-.04s0-.04,0-.04v-.04s-.01-.04-.01-.04v-.04s-.02-.04-.02-.04v-.04s-.02-.04-.02-.04v-.04s-.03-.04-.03-.04v-.04s-.03-.04-.03-.04l-.02-.04-.02-.04-.02-.04v-.02s-.01,0-.01,0l-.05.03-.05.03-.05.03-.06.02-.06.02-.06.02-.06.02-.06.02-.06.02-.06.02-.06.02-.06.02h-.06s-.06.03-.06.03h-.06s-.06.02-.06.02h-.06s-.06.02-.06.02h-.06s-.06.01-.06.01h-.06s-.06,0-.06,0h-.06s-.06,0-.06,0h-.06s-3.68,0-3.68,0l3.82,1.05h.03s.02.02.02.02h.02s.02.02.02.02h.02s.02.02.02.02h.02s.02.03.02.03h.02s.02.03.02.03l.02.02.02.02.02.02.02.02v.02s.03.02.03.02v.02s.02.02.02.02v.02s.02.02.02.02v.02s.02.02.02.02v.02s.01.02.01.02v.02s0,.02,0,.02v.02s0,.02,0,.02v.02s0,.02,0,.02v.02s0,.02,0,.02v.02s-.01.02-.01.02v.02s-.02.02-.02.02v.02s-.02.02-.02.02v.02s-.02.02-.02.02v.02s-.03.02-.03.02l-.02.02-.02.02-.02.02-.02.02-.02.02h-.02s-.02.03-.02.03h-.02s-.02.03-.02.03h-.02s-.02.02-.02.02h-.02s-.02.02-.02.02h-.02s-.02.01-.02.01h-.02s-.02,0-.02,0h-.02s-.02,0-.02,0h-.02" fill="#160F26" style="stroke-width:0px;"/><path d="M16,13.31v-.05s0-.05,0-.05v-.06s-.01-.05-.01-.05v-.05s-.02-.05-.02-.05v-.05s-.02-.05-.02-.05v-.05s-.03-.05-.03-.05v-.05s-.03-.05-.03-.05l-.02-.05-.02-.05-.02-.05-.02-.05-.02-.05-.02-.05-.02-.05-.02-.05-.03-.05-.03-.05-.03-.05-.03-.05-.03-.05-.03-.05-.03-.04-.03-.04-.03-.04-.03-.04-.04-.04-.04-.04-.04-.04-.04-.04-.04-.04-.04-.04-.04-.04-.04-.04-.04-.04-.04-.04h0s-.06.03-.06.03l-.05.03-.06.03h0s.01.03.01.03l.02.04.02.04.02.04.02.04v.04s.03.04.03.04v.04s.03.04.03.04v.04s.02.04.02.04v.04s.02.04.02.04v.04s.01.04.01.04v.04s0,.04,0,.04v.04s0,.04,0,.04v.09s0,.04,0,.04v.04s0,.04,0,.04v.04s-.01.04-.01.04v.04s-.02.04-.02.04v.04s-.02.04-.02.04v.04s-.03.04-.03.04v.04s-.03.04-.03.04l-.02.04-.02.04-.02.04-.02.04-.02.04-.02.04-.02.04-.02.04-.02.04-.03.04-.03.03-.03.03-.03.03-.03.03-.03.03-.03.03-.03.03-.03.03-.03.03-.03.03-.04.03-.04.02-.04.02-.04.02-.04.02-.04.02-.04.02-.04.02-.04.02-.04.02-.04.02h-.04s-.04.03-.04.03h-.04s-.04.02-.04.02h-.04s-.04.02-.04.02h-.04s-.04.01-.04.01h-.04s-.04,0-.04,0h-.04s-.04,0-.04,0H0v2.06h13.47s.05,0,.05,0h.06s.05,0,.05,0h.06s.05-.01.05-.01h.05s.05-.02.05-.02h.05s.05-.02.05-.02h.05s.05-.03.05-.03h.05s.05-.03.05-.03l.05-.02.05-.02.05-.02.05-.02.05-.02.05-.02.05-.02.05-.02.05-.03.05-.03.05-.03.05-.03.05-.03.05-.03.04-.03.04-.03.04-.03.04-.03.04-.04.04-.04.04-.04.04-.04.04-.04.04-.04.04-.04.04-.04.04-.04.04-.04.03-.04.03-.04.03-.04.03-.04.03-.05.03-.05.03-.05.03-.05.03-.05.03-.05.02-.05.02-.05.02-.05.02-.05.02-.05.02-.05.02-.05.02-.05.02-.05v-.05s.03-.05.03-.05v-.05s.02-.05.02-.05v-.05s.02-.05.02-.05v-.05s.01-.05.01-.05v-.05s0-.06,0-.06v-.05s0-.05,0-.05v-.17Z" style="fill:#3d95fd; stroke-width:0px;"/><path d="M0,2.69v.06s0,.05,0,.05v.06s.01.05.01.05v.05s.02.05.02.05v.05s.02.05.02.05v.05s.03.05.03.05v.05s.03.05.03.05l.02.05.02.05.02.05.02.05.02.05.02.05.02.05.02.05.03.05.03.05.03.05.03.05.03.05.03.05.03.05.03.04.03.04.03.04.03.04.04.04.04.04.04.04.04.04.04.04.04.04.04.04.04.04.04.03h0s.06-.03.06-.03l.05-.03.06-.03h0s-.01-.03-.01-.03l-.02-.04-.02-.04-.02-.04-.02-.04-.02-.04v-.04s-.03-.04-.03-.04v-.04s-.02-.04-.02-.04v-.04s-.02-.04-.02-.04v-.04s-.01-.04-.01-.04v-.04s0-.04,0-.04v-.04s0-.04,0-.04v-.04s0-.04,0-.04v-.04s0-.04,0-.04v-.04s0-.04,0-.04v-.04s.01-.04.01-.04v-.04s.02-.04.02-.04v-.04s.02-.04.02-.04v-.04s.03-.04.03-.04l.02-.04.02-.04.02-.04.02-.04.02-.04.02-.04.02-.04.02-.04.02-.04.02-.04.02-.04.03-.04.03-.03.03-.03.03-.03.03-.03.03-.03.03-.03.03-.03.03-.03.03-.03.04-.03.04-.03.04-.02.04-.02.04-.02.04-.02.04-.02.04-.02.04-.02.04-.02.04-.02.04-.02h.04s.04-.03.04-.03h.04s.04-.02.04-.02h.04s.04-.02.04-.02h.04s.04-.01.04-.01h.04s.04,0,.04,0h.04s.04,0,.04,0h13.46V0H2.47s-.06,0-.06,0h-.05s-.06,0-.06,0h-.05s-.05.01-.05.01h-.05s-.05.02-.05.02h-.05s-.05.02-.05.02h-.05s-.05.03-.05.03l-.05.02-.05.02-.05.02-.05.02-.05.02-.05.02-.05.02-.05.02-.05.02-.05.03-.05.03-.05.03-.05.03-.05.03-.05.03-.04.03-.04.03-.04.03-.04.03-.04.04-.04.04-.04.04-.04.04-.04.04-.04.04-.04.04-.04.04-.04.04-.03.04-.03.04-.03.04-.03.04-.03.04-.03.05-.03.05-.03.05-.03.05-.03.05-.03.05-.02.05-.02.05-.02.05-.02.05-.02.05-.02.05-.02.05-.02.05-.02.05v.05s-.03.05-.03.05v.05s-.02.05-.02.05v.05s-.02.05-.02.05v.05s-.01.05-.01.05v.05s0,.06,0,.06v.05s0,.05,0,.05v.16Z" style="fill:#0dc09d; stroke-width:0px;"/><path d="M25.24,13.73c-3.26-.02-4.5-1.53-4.77-3.53l1.96-.41c.27,1.53,1.24,2.27,2.88,2.27,1.49,0,2.18-.54,2.18-1.42s-.59-1.39-2.72-1.75c-2.95-.49-3.89-1.62-3.89-3.31,0-1.93,1.37-3.11,4.14-3.11s3.91,1.3,4.27,3.19l-2.03.4c-.29-1.28-.83-1.94-2.34-1.94-1.37,0-2.02.5-2.02,1.37,0,.77.41,1.31,2.68,1.73,3.22.59,3.96,1.76,3.96,3.31,0,1.98-1.26,3.22-4.3,3.22ZM35.29,13.72c-2.59,0-4.27-1.51-4.27-4.34s1.62-4.55,4.27-4.55,3.8,1.55,3.8,3.87c0,.32,0,.7-.04,1.13h-6.08c.14,1.55.92,2.3,2.34,2.3s1.82-.65,2.05-1.46l1.66.47c-.41,1.53-1.46,2.57-3.73,2.57ZM32.97,8.53h4.34c-.07-1.46-.72-2.21-2.07-2.21s-2.09.68-2.27,2.21ZM40.53,9.32c0-2.92,1.12-4.5,3.15-4.5,1.51,0,2.43.95,2.88,2.41h.13v-2.2h1.93v11.32h-1.93v-5.09h-.13c-.41,1.46-1.42,2.47-2.97,2.47-1.89,0-3.06-1.55-3.06-4.41ZM46.68,9c0-1.49-.85-2.43-2.16-2.43-1.42,0-2.09.88-2.09,2.74s.67,2.72,2.09,2.72c1.3,0,2.16-.97,2.16-2.38v-.65ZM54.77,13.72c-2.59,0-4.27-1.51-4.27-4.34s1.62-4.55,4.27-4.55,3.8,1.55,3.8,3.87c0,.32,0,.7-.04,1.13h-6.08c.14,1.55.92,2.3,2.34,2.3s1.82-.65,2.05-1.46l1.66.47c-.41,1.53-1.46,2.57-3.73,2.57ZM52.44,8.53h4.34c-.07-1.46-.72-2.21-2.07-2.21s-2.09.68-2.27,2.21ZM62.32,7.58l.16.02c.47-2.05,1.28-2.65,2.5-2.65h.31v2.18h-.47c-1.78,0-2.41.63-2.41,2.36v4.01h-1.93V5.04h1.84v2.54ZM68.98,13.68c-1.51,0-2.57-.72-2.57-2.38,0-1.51.92-2.61,3.06-2.61h2.52v-.58c0-1.1-.45-1.73-1.64-1.73-.99,0-1.57.5-1.78,1.49l-1.84-.41c.32-1.6,1.53-2.63,3.69-2.63,2.45,0,3.49,1.15,3.49,3.26v5.4h-1.84v-2.02h-.18c-.43,1.37-1.44,2.2-2.92,2.2ZM71.99,9.97h-2.2c-.97,0-1.53.36-1.53,1.06,0,.61.38,1.13,1.48,1.13,1.35,0,2.25-.79,2.25-1.85v-.34ZM82.13,9.94v3.56h-2.05V2.7h4.34c2.68,0,4,1.22,4,3.64,0,2.05-1.39,3.6-3.92,3.6h-2.36ZM82.13,4.45v3.8h2.12c1.51,0,2.14-.61,2.14-1.89s-.56-1.91-2.16-1.91h-2.11ZM92.07,1.94v11.56h-1.94V1.94h1.94ZM96.56,13.68c-1.51,0-2.57-.72-2.57-2.38,0-1.51.92-2.61,3.06-2.61h2.52v-.58c0-1.1-.45-1.73-1.64-1.73-.99,0-1.57.5-1.78,1.49l-1.84-.41c.32-1.6,1.53-2.63,3.69-2.63,2.45,0,3.49,1.15,3.49,3.26v5.4h-1.84v-2.02h-.18c-.43,1.37-1.44,2.2-2.92,2.2ZM99.57,9.97h-2.2c-.97,0-1.53.36-1.53,1.06,0,.61.38,1.13,1.48,1.13,1.35,0,2.25-.79,2.25-1.85v-.34ZM103.03,5.04h1.19v-2.29h1.94v2.29h2.48v1.57h-2.48v4.05c0,.83.31,1.26,1.15,1.26.43,0,.81-.09,1.22-.22l.23,1.73c-.63.2-1.06.31-1.91.31-1.85,0-2.65-1.22-2.65-2.81v-4.32h-1.19v-1.57ZM113.15,4.61v.43h2.32v1.57h-2.32v6.89h-1.94v-6.89h-1.4v-1.57h1.4v-.47c0-1.71.94-2.88,2.9-2.88.67,0,1.1.07,1.44.14l-.07,1.39c-.38-.05-.68-.09-1.03-.09-.88,0-1.3.49-1.3,1.48ZM120.62,13.73c-2.72,0-4.3-1.71-4.3-4.48s1.67-4.43,4.3-4.43,4.27,1.64,4.27,4.43-1.58,4.48-4.27,4.48ZM120.6,6.46c-1.57,0-2.34,1.03-2.34,2.77s.72,2.83,2.34,2.83,2.36-1.08,2.36-2.83-.79-2.77-2.36-2.77ZM128.62,7.58l.16.02c.47-2.05,1.28-2.65,2.5-2.65h.31v2.18h-.47c-1.78,0-2.41.63-2.41,2.36v4.01h-1.93V5.04h1.84v2.54ZM135.15,7.27h.16c.49-1.58,1.53-2.45,2.97-2.45,1.58,0,2.38.97,2.5,2.54h.2c.41-1.62,1.4-2.54,2.97-2.54,1.78,0,2.65,1.19,2.65,3.02v5.65h-1.94v-5.15c0-1.03-.47-1.78-1.6-1.78-1.33,0-2.16.86-2.16,2.14v4.79h-1.93v-5.15c0-1.03-.49-1.78-1.62-1.78-1.3,0-2.16.86-2.16,2.14v4.79h-1.93V5.04h1.89v2.23Z" fill="#160F26" style="stroke-width:0px;"/></svg>