<svg xmlns="http://www.w3.org/2000/svg" fill="none" viewBox="0 7.13 155.17 16.52"><path d="M141.828 13.2587H141.987C142.502 11.6527 143.692 10.6614 145.417 10.6614C147.28 10.6614 148.192 11.7717 148.391 13.4173H148.569C148.986 11.7518 150.096 10.6614 152.039 10.6614C154.18 10.6614 155.171 12.0492 155.171 14.0715V20.0988H153.803V14.3689C153.803 12.9811 153.189 11.9104 151.583 11.9104C149.699 11.9104 148.51 13.0604 148.51 14.7853V20.0988H147.142V14.3689C147.142 12.9811 146.527 11.9104 144.921 11.9104C143.077 11.9104 141.848 13.0604 141.848 14.7853V20.0988H140.48V10.8795H141.828V13.2587Z" fill="#160F26"></path><path d="M135.38 13.3578H135.499C135.936 11.5734 136.947 10.7803 138.434 10.7803H138.81V12.2673H138.374C136.332 12.2673 135.42 13.1397 135.42 15.3603V20.0988H134.052V10.8795H135.38V13.3578Z" fill="#160F26"></path><path d="M127.484 20.3169C124.569 20.3169 122.924 18.4532 122.924 15.4594C122.924 12.4458 124.748 10.6614 127.484 10.6614C130.22 10.6614 132.044 12.4458 132.044 15.4594C132.044 18.4532 130.379 20.3169 127.484 20.3169ZM127.484 11.8708C125.422 11.8708 124.292 13.219 124.292 15.4396C124.292 17.6601 125.323 19.1075 127.464 19.1075C129.605 19.1075 130.676 17.6601 130.676 15.4396C130.676 13.219 129.546 11.8708 127.484 11.8708Z" fill="#160F26"></path><path d="M119.254 10.2649V10.8795H122.307V12.0492H119.254V20.0988H117.906V12.0492H116.121V10.8795H117.906V10.245C117.906 8.36151 118.877 7.13226 120.84 7.13226C121.514 7.13226 121.99 7.2314 122.367 7.3107L122.287 8.38133C121.831 8.30203 121.435 8.24255 120.999 8.24255C119.73 8.24255 119.254 8.97613 119.254 10.2649Z" fill="#160F26"></path><path d="M109.209 10.8795H110.716V8.22272H112.064V10.8795H115.197V12.0492H112.064V17.3033C112.064 18.4532 112.52 19.048 113.631 19.048C114.146 19.048 114.543 18.9687 115.098 18.8101L115.296 20.0195C114.681 20.2178 114.166 20.3169 113.393 20.3169C111.549 20.3169 110.716 19.1075 110.716 17.4024V12.0492H109.209V10.8795Z" fill="#160F26"></path><path d="M102.818 20.2971C101.014 20.2971 99.9036 19.5238 99.9036 17.7593C99.9036 16.2326 100.935 15.0629 103.135 15.0629H106.308V14.2103C106.308 12.6837 105.713 11.8312 104.047 11.8312C102.659 11.8312 101.886 12.5251 101.569 13.8733L100.26 13.5362C100.677 11.732 101.985 10.6812 104.067 10.6812C106.565 10.6812 107.656 11.9105 107.656 14.1905V20.0988H106.367V17.8981H106.208C105.733 19.4644 104.503 20.2971 102.818 20.2971ZM106.308 16.074H103.294C101.966 16.074 101.232 16.6093 101.232 17.6403C101.232 18.4334 101.728 19.167 103.195 19.167C105.078 19.167 106.308 18.1162 106.308 16.7085V16.074Z" fill="#160F26"></path><path d="M97.7442 7.37018V20.0988H96.396V7.37018H97.7442Z" fill="#160F26"></path><path d="M94.2715 15.499C94.2715 18.6118 92.9034 20.3169 90.6432 20.3169C88.7597 20.3169 87.5701 19.167 87.1339 17.5808H87.0348V23.1323H85.6667V10.8795H87.0348V13.3578H87.1537C87.6097 11.7915 88.6606 10.6614 90.5441 10.6614C92.9629 10.6614 94.2715 12.3863 94.2715 15.499ZM87.0348 15.8559C87.0348 17.7791 88.2244 19.1075 90.0682 19.1075C91.9716 19.1075 92.9034 17.9179 92.9034 15.499C92.9034 13.0604 91.9914 11.9104 90.0682 11.9104C88.2244 11.9104 87.0348 13.1595 87.0348 15.162V15.8559Z" fill="#160F26"></path><g clip-path="url(#clip0_2161_1432)"><g clip-path="url(#clip1_2161_1432)"><path d="M13.583 15.937L13.6054 15.9459L13.6278 15.9549L13.649 15.9651L13.6701 15.9766L13.6906 15.9882L13.7111 16.0009L13.7303 16.0157L13.7488 16.0297L13.7661 16.0457L13.784 16.0617L13.8007 16.0797L13.8161 16.0969L13.8314 16.1161L13.8449 16.1353L13.8583 16.1558L13.8698 16.1757L13.8807 16.1974L13.891 16.2185L13.8999 16.2403L13.9089 16.2627L13.9153 16.2857L13.9217 16.3081L13.9262 16.3324L13.9307 16.3555L13.9332 16.3798L13.9345 16.4028L13.9351 16.4265L13.9345 16.4508L13.9332 16.4745L13.9307 16.4982L13.9262 16.5219L13.9217 16.5449L13.9153 16.5686L13.9089 16.591L13.8999 16.614L13.891 16.6358L13.8807 16.6569L13.8698 16.678L13.8583 16.6985L13.8449 16.719L13.8314 16.7382L13.8161 16.7561L13.8007 16.7746L13.784 16.7913L13.7661 16.8086L13.7488 16.8246L13.7303 16.8386L13.7111 16.8521L13.6906 16.8662L13.6701 16.8777L13.649 16.8892L13.6278 16.8988L13.6054 16.9084L13.583 16.9161L13.5606 16.9238L13.5376 16.9289L13.5145 16.9346L13.4902 16.9378L13.4671 16.9404L13.4428 16.943H13.439L13.4633 16.9423L13.5068 16.9404L13.5504 16.9378L13.5939 16.934L13.6368 16.9282L13.6803 16.9218L13.7232 16.9148L13.7661 16.9058L13.8084 16.8962L13.8513 16.8854L13.8935 16.8732L13.9351 16.8598L13.9761 16.8457L14.0171 16.8303L14.0574 16.8137L14.0978 16.7964L14.1375 16.7778L14.1765 16.758L14.2149 16.7375L14.2527 16.7158L14.2898 16.6927L14.327 16.6697L14.3628 16.6454L14.3987 16.6191L14.4332 16.5923L14.4672 16.5654L14.5005 16.5366L14.5331 16.5071L14.5645 16.4777L14.5959 16.4464L14.626 16.415L14.6548 16.3824L14.6829 16.3491L14.7105 16.3152L14.7374 16.28L14.763 16.2448L14.7873 16.2089L14.8116 16.1718L14.834 16.1347L14.8558 16.0963L14.8769 16.0579L14.8961 16.0195L14.9147 15.9798L14.932 15.9395L14.9486 15.8992L14.964 15.8582L14.9787 15.8166L14.9915 15.775L15.0037 15.7328L15.0146 15.6906L15.0242 15.6483L15.0331 15.6048L15.0408 15.5619L15.0472 15.5191L15.0517 15.4756L15.0562 15.432L15.0594 15.3879L15.0607 15.3444L15.0613 15.3008L15.0607 15.2573L15.0594 15.2132L15.0562 15.1697L15.0517 15.1261L15.0472 15.0833L15.0408 15.0397L15.0331 14.9962L15.0242 14.954L15.0146 14.9111L15.0062 14.8785H13.4498L13.4191 14.8791H9.73779L13.5561 15.9293L13.583 15.937Z" fill="#160F26"></path><path d="M15.9974 16.3177L15.9942 16.2627L15.9904 16.2083L15.9853 16.1533L15.9789 16.0989L15.9718 16.0451L15.9629 15.9907L15.9526 15.937L15.9424 15.8832L15.9302 15.8301L15.9168 15.777L15.9027 15.7239L15.8867 15.6714L15.87 15.6195L15.8527 15.5671L15.8335 15.5159L15.8137 15.4653L15.7926 15.4141L15.7708 15.3642L15.7477 15.3143L15.7241 15.265L15.6985 15.217L15.6722 15.1684L15.6447 15.121L15.6165 15.0737L15.5877 15.0276L15.557 14.9815L15.5262 14.9367L15.4942 14.8926L15.4833 14.8785H15.0064L15.0147 14.9111L15.0243 14.954L15.0333 14.9962L15.0409 15.0397L15.0473 15.0833L15.0518 15.1261L15.0563 15.1697L15.0595 15.2132L15.0608 15.2573L15.0614 15.3008L15.0608 15.3444L15.0595 15.3879L15.0563 15.432L15.0518 15.4756L15.0473 15.5191L15.0409 15.5619L15.0333 15.6048L15.0243 15.6483L15.0147 15.6906L15.0038 15.7328L14.9916 15.775L14.9788 15.8166L14.9641 15.8582L14.9487 15.8992L14.9321 15.9395L14.9148 15.9798L14.8962 16.0195L14.877 16.0579L14.8559 16.0963L14.8341 16.1347L14.8117 16.1718L14.7874 16.2089L14.7631 16.2448L14.7375 16.28L14.7106 16.3152L14.683 16.3491L14.6549 16.3824L14.6261 16.415L14.596 16.4464L14.5646 16.4777L14.5332 16.5071L14.5006 16.5366L14.4673 16.5654L14.4334 16.5923L14.3988 16.6191L14.3629 16.6454L14.3271 16.6697L14.2899 16.6927L14.2528 16.7158L14.215 16.7375L14.1766 16.758L14.1376 16.7778L14.0979 16.7964L14.0575 16.8137L14.0172 16.8303L13.9762 16.8457L13.9353 16.8598L13.8936 16.8732L13.8514 16.8854L13.8085 16.8962L13.7662 16.9058L13.7233 16.9148L13.6804 16.9218L13.6369 16.9282L13.594 16.934L13.5505 16.9378L13.5069 16.9404L13.4634 16.9423L13.4192 16.943H0V19.0074H13.4192L13.4743 19.0068L13.5287 19.0055L13.5838 19.0023L13.6382 18.9978L13.6926 18.9927L13.747 18.987L13.8014 18.9786L13.8552 18.9703L13.909 18.9607L13.9628 18.9492L14.0166 18.937L14.0691 18.9242L14.1222 18.9095L14.1753 18.8942L14.2272 18.8782L14.2791 18.8596L14.3303 18.841L14.3815 18.8212L14.4321 18.8007L14.482 18.779L14.532 18.7553L14.5812 18.731L14.6299 18.706L14.6779 18.6798L14.7253 18.6529L14.7727 18.6241L14.8181 18.5953L14.8642 18.5652L14.9097 18.5339L14.9539 18.5019L14.9974 18.4686L15.0403 18.4347L15.0832 18.3995L15.1248 18.3636L15.1651 18.3278L15.2048 18.29L15.2439 18.2516L15.2823 18.2126L15.3194 18.1723L15.3566 18.132L15.3924 18.0904L15.427 18.0481L15.4609 18.0053L15.4942 17.9611L15.5262 17.917L15.557 17.8722L15.5877 17.8261L15.6165 17.78L15.6447 17.7327L15.6722 17.6853L15.6985 17.6373L15.7241 17.5887L15.7477 17.5394L15.7708 17.4901L15.7926 17.4396L15.8137 17.389L15.8335 17.3384L15.8527 17.2866L15.87 17.2348L15.8867 17.1829L15.9027 17.1298L15.9168 17.0773L15.9302 17.0242L15.9424 16.9705L15.9526 16.9174L15.9629 16.8636L15.9718 16.8092L15.9789 16.7548L15.9853 16.7004L15.9904 16.646L15.9942 16.591L15.9974 16.5366L15.9994 16.4822L16 16.4272L15.9994 16.3721L15.9974 16.3177Z" fill="#FA6863"></path><path d="M2.41677 15.368L2.39436 15.3597L2.37195 15.3508L2.35083 15.3405L2.32906 15.329L2.30921 15.3168L2.28872 15.304L2.26952 15.29L2.25095 15.2752L2.23302 15.2592L2.21574 15.2432L2.19909 15.226L2.18372 15.208L2.16836 15.1888L2.15491 15.1696L2.14147 15.1498L2.12995 15.13L2.11906 15.1082L2.10818 15.0865L2.09985 15.0653L2.09089 15.0429L2.08449 15.0193L2.07809 14.9969L2.07297 14.9732L2.06912 14.9501L2.06656 14.9258L2.06528 14.9028L2.06464 14.8785L2.06528 14.8548L2.06656 14.8305L2.06912 14.8074L2.07297 14.7838L2.07809 14.7601L2.08449 14.737L2.09089 14.7146L2.09985 14.6916L2.10818 14.6698L2.11906 14.6481L2.12995 14.6276L2.14147 14.6065L2.15491 14.5867L2.16836 14.5675L2.18372 14.5489L2.19909 14.531L2.21574 14.5137L2.23302 14.4971L2.25095 14.4811L2.26952 14.467L2.28872 14.4529L2.30921 14.4395L2.32906 14.4273L2.35083 14.4164L2.37195 14.4068L2.39436 14.3972L2.41677 14.3889L2.43918 14.3819L2.46223 14.3761L2.48527 14.371L2.5096 14.3678L2.53265 14.3652L2.55634 14.3627H2.56082H2.53649L2.49296 14.3646L2.44942 14.3678L2.40589 14.3716L2.36299 14.3767L2.31945 14.3831L2.27592 14.3908L2.23366 14.3991L2.19077 14.4094L2.14851 14.4203L2.10626 14.4324L2.06464 14.4459L2.02367 14.4599L1.98205 14.4747L1.94236 14.4913L1.90202 14.5092L1.86233 14.5278L1.82328 14.5476L1.78422 14.5681L1.74709 14.5892L1.70995 14.6123L1.67282 14.6359L1.63633 14.6602L1.60112 14.6865L1.5659 14.7127L1.53261 14.7402L1.49932 14.7684L1.46667 14.7978L1.4353 14.8279L1.40392 14.8586L1.37383 14.8906L1.34502 14.9226L1.31621 14.9559L1.28932 14.9905L1.26179 15.025L1.23682 15.0602L1.21186 15.0967L1.18817 15.1332L1.16576 15.1709L1.14399 15.2087L1.12286 15.2477L1.10366 15.2861L1.08509 15.3258L1.0678 15.3661L1.05116 15.4064L1.03579 15.4474L1.02107 15.489L1.00826 15.5306L0.996097 15.5728L0.985213 15.6144L0.97561 15.6573L0.966647 15.7002L0.958964 15.7437L0.952562 15.7866L0.94808 15.8301L0.943598 15.873L0.940397 15.9171L0.939117 15.9606L0.938477 16.0041L0.939117 16.0483L0.940397 16.0918L0.943598 16.1353L0.94808 16.1788L0.952562 16.2224L0.958964 16.2659L0.966647 16.3088L0.97561 16.3516L0.985213 16.3939L0.993536 16.4271H2.54994L2.58067 16.4265H6.26199L2.44366 15.3764L2.41677 15.368Z" fill="#160F26"></path><path d="M0.00256092 14.9879L0.00512184 15.043L0.00960346 15.0974L0.0147253 15.1517L0.0211276 15.2061L0.0281701 15.2605L0.0371334 15.3143L0.0467368 15.3687L0.0576207 15.4224L0.0697851 15.4756L0.08323 15.5287L0.097315 15.5818L0.113321 15.6343L0.129967 15.6861L0.147253 15.7379L0.16646 15.7898L0.186307 15.8403L0.207435 15.8915L0.229203 15.9414L0.252251 15.9914L0.275939 16.04L0.301549 16.0886L0.327798 16.1373L0.355328 16.1846L0.383498 16.2313L0.412308 16.2774L0.442399 16.3235L0.473771 16.3689L0.505782 16.4131L0.516666 16.4272H0.993638L0.985315 16.3939L0.975711 16.3517L0.966748 16.3088L0.959065 16.2659L0.952663 16.2224L0.948181 16.1789L0.9437 16.1353L0.940499 16.0918L0.939218 16.0483L0.938578 16.0042L0.939218 15.9606L0.940499 15.9171L0.9437 15.873L0.948181 15.8301L0.952663 15.7866L0.959065 15.7437L0.966748 15.7002L0.975711 15.6573L0.985315 15.6144L0.996199 15.5728L1.00836 15.5306L1.02117 15.489L1.03589 15.4474L1.05126 15.4064L1.0679 15.3661L1.08519 15.3258L1.10376 15.2861L1.12296 15.2477L1.14409 15.2087L1.16586 15.1709L1.18827 15.1332L1.21196 15.0967L1.23693 15.0602L1.26189 15.025L1.28942 14.9905L1.31631 14.9559L1.34512 14.9226L1.37393 14.8906L1.40403 14.8587L1.4354 14.8279L1.46677 14.7979L1.49942 14.7684L1.53271 14.7403L1.566 14.7127L1.60122 14.6865L1.63643 14.6603L1.67292 14.636L1.71006 14.6123L1.74719 14.5892L1.78432 14.5681L1.82338 14.5476L1.86243 14.5278L1.90212 14.5092L1.94246 14.4913L1.98215 14.4747L2.02377 14.46L2.06474 14.4459L2.10636 14.4324L2.14861 14.4203L2.19087 14.4094L2.23376 14.3992L2.27602 14.3909L2.31956 14.3832L2.36309 14.3768L2.40599 14.3717L2.44952 14.3678L2.49306 14.3646L2.53659 14.3627L2.58077 14.3621H16V12.2982H2.58077L2.52571 12.2989L2.47129 12.3001L2.41623 12.3033L2.36181 12.3072L2.30675 12.3123L2.25297 12.3187L2.19855 12.3264L2.14477 12.3347L2.09099 12.3449L2.03657 12.3558L1.98343 12.368L1.93029 12.3814L1.8778 12.3955L1.82466 12.4115L1.7728 12.4275L1.72094 12.4454L1.66972 12.464L1.6185 12.4844L1.56792 12.5049L1.51799 12.5267L1.46805 12.5504L1.41875 12.5747L1.37009 12.599L1.32208 12.6259L1.2747 12.6527L1.22732 12.6809L1.18123 12.7103L1.13513 12.7404L1.09031 12.7718L1.04614 12.8038L1.00196 12.8364L0.959705 12.8703L0.91681 12.9055L0.875195 12.9414L0.834861 12.9778L0.795166 13.0156L0.756112 13.0534L0.717698 13.093L0.679925 13.1334L0.643432 13.1737L0.607579 13.2153L0.573006 13.2575L0.539074 13.3004L0.505782 13.3439L0.473771 13.3887L0.442399 13.4335L0.412308 13.4789L0.383498 13.5256L0.355328 13.573L0.327798 13.6204L0.301549 13.6677L0.275939 13.7163L0.252251 13.7663L0.229203 13.8155L0.207435 13.8661L0.186307 13.916L0.16646 13.9672L0.147253 14.0184L0.129967 14.0702L0.113321 14.1227L0.097315 14.1752L0.08323 14.2283L0.0697851 14.2814L0.0576207 14.3352L0.0467368 14.3883L0.0371334 14.442L0.0281701 14.4964L0.0211276 14.5508L0.0147253 14.6052L0.00960346 14.6596L0.00512184 14.714L0.00256092 14.7684L0 14.8235V14.8785V14.9335L0.00256092 14.9879Z" fill="#F18046"></path><path d="M2.41677 10.7239L2.39436 10.7149L2.37195 10.7053L2.35018 10.6957L2.3297 10.6842L2.30857 10.6727L2.28872 10.6599L2.26952 10.6452L2.25031 10.6311L2.23238 10.6151L2.2151 10.5991L2.19909 10.5812L2.18372 10.5639L2.16836 10.5447L2.15427 10.5255L2.14147 10.505L2.12931 10.4846L2.11842 10.4634L2.10754 10.4423L2.09921 10.4206L2.09089 10.3975L2.08385 10.3751L2.07809 10.3527L2.07297 10.3284L2.06912 10.3054L2.06592 10.2811L2.06528 10.2574L2.06464 10.2331L2.06528 10.2094L2.06592 10.1863L2.06912 10.1627L2.07297 10.139L2.07809 10.1159L2.08385 10.0923L2.09089 10.0692L2.09921 10.0468L2.10754 10.0251L2.11842 10.004L2.12931 9.98219L2.14147 9.96236L2.15427 9.94188L2.16836 9.92268L2.18372 9.90476L2.19909 9.8862L2.2151 9.86828L2.23238 9.85228L2.25031 9.83629L2.26952 9.82221L2.28872 9.80877L2.30857 9.79469L2.3297 9.78317L2.35018 9.77165L2.37195 9.76141L2.39436 9.75245L2.41677 9.74477L2.43918 9.73709L2.46223 9.73069L2.48591 9.72621L2.50896 9.72238L2.53265 9.71982L2.55698 9.7179H2.56466H2.53649L2.49296 9.71982L2.44942 9.72302L2.40589 9.72685L2.36299 9.73261L2.31945 9.73901L2.27592 9.74605L2.23366 9.75501L2.19077 9.76461L2.14851 9.77549L2.10626 9.78765L2.06464 9.80109L2.02367 9.81517L1.98205 9.83053L1.94236 9.84653L1.90202 9.86444L1.86233 9.883L1.82328 9.90284L1.78422 9.92332L1.74709 9.94444L1.70931 9.96748L1.67282 9.99115L1.63633 10.0155L1.60112 10.0417L1.5659 10.0679L1.53197 10.0955L1.49932 10.1243L1.46667 10.1531L1.43466 10.1831L1.40392 10.2139L1.37383 10.2459L1.34502 10.2785L1.31621 10.3118L1.28932 10.3457L1.26179 10.3809L1.23682 10.4161L1.21186 10.4519L1.18817 10.4884L1.16576 10.5262L1.14399 10.5639L1.12286 10.6029L1.10366 10.6413L1.08509 10.681L1.0678 10.7213L1.05116 10.7617L1.03579 10.8026L1.02107 10.8442L1.00826 10.8858L0.996097 10.928L0.985213 10.9703L0.97497 11.0125L0.966647 11.0554L0.958964 11.0989L0.952562 11.1418L0.94744 11.1853L0.943598 11.2282L0.940397 11.2723L0.939117 11.3165L0.938477 11.36L0.939117 11.4035L0.940397 11.4477L0.943598 11.4912L0.94744 11.5347L0.952562 11.5776L0.958964 11.6211L0.966647 11.6646L0.97497 11.7069L0.985213 11.7497L0.996097 11.792L1.00826 11.8336L1.02107 11.8758L1.03579 11.9168L1.05116 11.9577L1.0678 11.998L1.08509 12.0383L1.10366 12.078L1.12286 12.1171L1.13567 12.1395L1.13695 12.1388L1.19073 12.1113L1.24451 12.0851L1.29893 12.0595L1.35399 12.0358L1.40905 12.0115L1.46539 11.9897L1.52109 11.9692L1.57807 11.9481L1.63505 11.9302L1.69267 11.9123L1.75029 11.8956L1.80791 11.8796L1.86617 11.8649L1.92507 11.8521L1.98397 11.8406L2.04223 11.8291L2.10178 11.8195L2.16132 11.8105L2.22086 11.8028L2.28104 11.7964L2.34058 11.7913L2.40076 11.7868L2.45966 11.7843L2.52113 11.783L2.58067 11.7817H6.26199L2.44302 10.7316L2.41677 10.7239Z" fill="#160F26"></path><path d="M13.4191 21.589H13.4633L13.5068 21.5864L13.5504 21.5839L13.5939 21.58L13.6374 21.5743L13.681 21.5679L13.7239 21.5608L13.7668 21.5519L13.809 21.5423L13.8519 21.5314L13.8935 21.5192L13.9351 21.5058L13.9768 21.4917L14.0177 21.4764L14.0574 21.4597L14.0978 21.4424L14.1375 21.4239L14.1765 21.404L14.2156 21.3836L14.2533 21.3618L14.2905 21.3388L14.327 21.3151L14.3635 21.2908L14.3993 21.2652L14.4339 21.2383L14.4678 21.2114L14.5011 21.1826L14.5331 21.1532L14.5651 21.1237L14.5959 21.0924L14.626 21.061L14.6554 21.0284L14.6836 20.9951L14.7111 20.9612L14.738 20.926L14.763 20.8908L14.7879 20.855L14.8116 20.8178L14.834 20.7807L14.8558 20.7423L14.8769 20.7039L14.8968 20.6649L14.9153 20.6259L14.932 20.5855L14.9493 20.5446L14.964 20.5043L14.9787 20.4627L14.9922 20.4211L15.0037 20.3788L15.0152 20.3366L15.0248 20.2944L15.0331 20.2509L15.0408 20.208L15.0472 20.1651L15.0523 20.1209L15.0568 20.0781L15.0594 20.0339L15.0613 19.9904V19.9469V19.9034L15.0594 19.8592L15.0568 19.8157L15.0523 19.7722L15.0472 19.7293L15.0408 19.6858L15.0331 19.6423L15.0248 19.6L15.0152 19.5571L15.0037 19.5149L14.9922 19.4733L14.9787 19.4311L14.964 19.3895L14.9493 19.3492L14.932 19.3088L14.9153 19.2685L14.8968 19.2289L14.8769 19.1898L14.8641 19.1661L14.8628 19.1668L14.8091 19.1943L14.7553 19.2205L14.7009 19.2461L14.6458 19.2704L14.5901 19.2935L14.5344 19.3159L14.4787 19.3364L14.4217 19.3568L14.3641 19.376L14.3071 19.3933L14.2501 19.41L14.1912 19.426L14.1336 19.44L14.0747 19.4535L14.0158 19.4656L13.9569 19.4765L13.898 19.4861L13.8385 19.4951L13.7789 19.5028L13.7194 19.5092L13.6592 19.5143L13.599 19.5181L13.5388 19.5213L13.4793 19.5232L13.4191 19.5239H9.73779L13.5561 20.574L13.583 20.5823L13.6054 20.5907L13.6278 20.5996L13.649 20.6099L13.6701 20.6214L13.6906 20.6335L13.7111 20.6463L13.7303 20.6604L13.7488 20.6751L13.7661 20.6911L13.784 20.7071L13.8007 20.7244L13.8161 20.7423L13.8314 20.7615L13.8449 20.7807L13.8583 20.8006L13.8698 20.8204L13.8807 20.8422L13.891 20.8639L13.8999 20.885L13.9089 20.9074L13.9153 20.9311L13.9217 20.9535L13.9262 20.9772L13.9307 21.0002L13.9332 21.0245L13.9345 21.0476L13.9351 21.0719L13.9345 21.0956L13.9332 21.1199L13.9307 21.1429L13.9262 21.1666L13.9217 21.1903L13.9153 21.2133L13.9089 21.2357L13.8999 21.2588L13.891 21.2805L13.8807 21.3023L13.8698 21.3228L13.8583 21.3439L13.8449 21.3637L13.8314 21.3829L13.8161 21.4015L13.8007 21.4194L13.784 21.4367L13.7661 21.4533L13.7488 21.4693L13.7303 21.4834L13.7111 21.4975L13.6906 21.5109L13.6701 21.5231L13.649 21.5339L13.6278 21.5435L13.6054 21.5531L13.583 21.5615L13.5606 21.5685L13.5376 21.5743L13.5145 21.5794L13.4902 21.5826L13.4671 21.5851L13.4428 21.5877L13.4191 21.5883" fill="#160F26"></path><path d="M15.9974 20.9631L15.9949 20.9087L15.991 20.8543L15.9853 20.7993L15.9795 20.7449L15.9718 20.6911L15.9629 20.6367L15.9533 20.583L15.9424 20.5292L15.9302 20.4755L15.9168 20.423L15.9027 20.3699L15.8873 20.3168L15.8707 20.2656L15.8527 20.2131L15.8335 20.1619L15.8143 20.1113L15.7932 20.0602L15.7708 20.0102L15.7484 19.9603L15.7241 19.911L15.6985 19.863L15.6728 19.8144L15.6453 19.7671L15.6165 19.7197L15.5877 19.6736L15.5576 19.6275L15.5262 19.5827L15.4942 19.5386L15.4609 19.4944L15.4276 19.4522L15.3924 19.4093L15.3566 19.3684L15.3201 19.3274L15.2823 19.2877L15.2445 19.2481L15.2048 19.2103L15.1651 19.1725L15.1248 19.1361L15.0832 19.1002L15.0409 19.065L15.0384 19.0631L14.9782 19.0996L14.9251 19.1297L14.87 19.1597L14.863 19.1636L14.877 19.1898L14.8969 19.2289L14.9154 19.2685L14.9321 19.3089L14.9494 19.3492L14.9641 19.3895L14.9788 19.4311L14.9923 19.4733L15.0038 19.5149L15.0153 19.5572L15.0249 19.6L15.0333 19.6423L15.0409 19.6858L15.0473 19.7293L15.0525 19.7722L15.0569 19.8157L15.0595 19.8592L15.0614 19.9034V19.9469V19.9904L15.0595 20.0339L15.0569 20.0781L15.0525 20.1209L15.0473 20.1651L15.0409 20.208L15.0333 20.2509L15.0249 20.2944L15.0153 20.3366L15.0038 20.3788L14.9923 20.4211L14.9788 20.4627L14.9641 20.5043L14.9494 20.5446L14.9321 20.5855L14.9154 20.6259L14.8969 20.6649L14.877 20.7039L14.8559 20.7423L14.8341 20.7807L14.8117 20.8179L14.788 20.855L14.7631 20.8908L14.7381 20.926L14.7112 20.9612L14.6837 20.9951L14.6555 21.0284L14.6261 21.061L14.596 21.0924L14.5652 21.1237L14.5332 21.1532L14.5012 21.1826L14.4679 21.2114L14.434 21.2383L14.3994 21.2652L14.3636 21.2908L14.3271 21.3151L14.2906 21.3388L14.2535 21.3618L14.2157 21.3836L14.1766 21.404L14.1376 21.4239L14.0979 21.4424L14.0575 21.4597L14.0178 21.4764L13.9769 21.4917L13.9353 21.5058L13.8936 21.5192L13.852 21.5314L13.8091 21.5423L13.7669 21.5519L13.724 21.5608L13.6811 21.5679L13.6375 21.5743L13.594 21.58L13.5505 21.5839L13.5069 21.5864L13.4634 21.589H13.4192H0V23.6535H13.4192L13.4743 23.6528L13.5287 23.6515L13.5838 23.6483L13.6382 23.6439L13.6932 23.6394L13.7477 23.633L13.8021 23.6247L13.8559 23.6163L13.9096 23.6067L13.9634 23.5952L14.0166 23.5831L14.0697 23.5703L14.1222 23.5562L14.1753 23.5402L14.2272 23.5242L14.2791 23.5056L14.3309 23.4871L14.3821 23.4672L14.4327 23.4468L14.4827 23.425L14.5326 23.4013L14.5812 23.377L14.6305 23.352L14.6779 23.3258L14.7259 23.2989L14.7727 23.2708L14.8188 23.2407L14.8649 23.2113L14.9097 23.1799L14.9539 23.1473L14.998 23.1146L15.0409 23.0807L15.0832 23.0455L15.1248 23.0097L15.1651 22.9738L15.2048 22.9361L15.2445 22.8977L15.2823 22.8586L15.3201 22.8183L15.3566 22.778L15.3924 22.7364L15.4276 22.6942L15.4609 22.6513L15.4942 22.6078L15.5262 22.563L15.5576 22.5182L15.5877 22.4721L15.6165 22.426L15.6453 22.3787L15.6728 22.3313L15.6985 22.2833L15.7241 22.2347L15.7484 22.1854L15.7708 22.1361L15.7932 22.0856L15.8143 22.035L15.8335 21.9845L15.8527 21.9326L15.8707 21.8808L15.8873 21.8283L15.9027 21.7759L15.9168 21.7234L15.9302 21.6696L15.9424 21.6165L15.9533 21.5634L15.9629 21.509L15.9718 21.4552L15.9795 21.4008L15.9853 21.3464L15.991 21.2921L15.9949 21.237L15.9974 21.1826L16 21.1282V21.0732V21.0182L15.9974 20.9631Z" fill="#3D95FD"></path><path d="M0.00256092 10.3431L0.00512184 10.3982L0.00896323 10.4526L0.0147253 10.5076L0.0211276 10.562L0.0281701 10.6158L0.0371334 10.6702L0.0467368 10.7239L0.0576207 10.7777L0.0697851 10.8308L0.08323 10.8839L0.097315 10.9364L0.112681 10.9895L0.129967 11.0413L0.147253 11.0932L0.16646 11.145L0.185667 11.1956L0.206794 11.2468L0.229203 11.2967L0.252251 11.3466L0.275939 11.3952L0.301549 11.4439L0.327798 11.4925L0.354688 11.5399L0.383498 11.5872L0.412308 11.6326L0.442399 11.6787L0.473771 11.7242L0.505782 11.7683L0.539074 11.8125L0.573006 11.8547L0.607579 11.8976L0.643432 11.9385L0.679925 11.9795L0.717698 12.0192L0.756112 12.0582L0.795166 12.0966L0.834861 12.1344L0.875195 12.1708L0.91681 12.2067L0.959705 12.2412L0.961626 12.2432L1.02181 12.2073L1.07495 12.1772L1.13001 12.1465L1.13769 12.1433L1.12296 12.1171L1.10376 12.078L1.08519 12.0384L1.0679 11.9981L1.05126 11.9577L1.03589 11.9168L1.02117 11.8758L1.00836 11.8336L0.996199 11.792L0.985315 11.7498L0.975071 11.7069L0.966748 11.6646L0.959065 11.6211L0.952663 11.5776L0.947541 11.5347L0.9437 11.4912L0.940499 11.4477L0.939218 11.4035L0.938578 11.36L0.939218 11.3165L0.940499 11.2724L0.9437 11.2282L0.947541 11.1853L0.952663 11.1418L0.959065 11.0989L0.966748 11.0554L0.975071 11.0125L0.985315 10.9703L0.996199 10.9281L1.00836 10.8858L1.02117 10.8442L1.03589 10.8026L1.05126 10.7617L1.0679 10.7214L1.08519 10.681L1.10376 10.6414L1.12296 10.603L1.14409 10.5639L1.16586 10.5262L1.18827 10.4884L1.21196 10.4519L1.23693 10.4161L1.26189 10.3809L1.28942 10.3457L1.31631 10.3118L1.34512 10.2785L1.37393 10.2459L1.40403 10.2139L1.43476 10.1832L1.46677 10.1531L1.49942 10.1243L1.53207 10.0955L1.566 10.068L1.60122 10.0417L1.63643 10.0155L1.67292 9.99118L1.70942 9.9675L1.74719 9.94446L1.78432 9.92334L1.82338 9.90286L1.86243 9.88302L1.90212 9.86447L1.94246 9.84655L1.98215 9.83055L2.02377 9.81519L2.06474 9.80111L2.10636 9.78767L2.14861 9.77551L2.19087 9.76463L2.23376 9.75503L2.27602 9.74607L2.31956 9.73904L2.36309 9.73264L2.40599 9.72688L2.44952 9.72304L2.49306 9.71984L2.53659 9.71792H2.58077H16V7.65344H2.58077H2.52571L2.47129 7.65536L2.41623 7.65856L2.36181 7.66304L2.30675 7.66752L2.25233 7.67392L2.19855 7.68224L2.14413 7.68992L2.09035 7.70016L2.03657 7.71104L1.98343 7.72384L1.93029 7.73664L1.8778 7.75071L1.82466 7.76671L1.7728 7.78271L1.72094 7.80063L1.66972 7.81919L1.61786 7.83967L1.56792 7.86015L1.51799 7.8819L1.46805 7.90558L1.41875 7.92926L1.37009 7.95486L1.32208 7.9811L1.2747 8.00797L1.22732 8.03613L1.18123 8.06557L1.13513 8.09565L1.09031 8.127L1.04614 8.159L1.00196 8.19228L0.959705 8.2262L0.91681 8.26139L0.875195 8.29659L0.834861 8.33307L0.795166 8.37082L0.756112 8.40922L0.717698 8.44826L0.679925 8.48794L0.643432 8.52889L0.607579 8.57049L0.573006 8.61273L0.539074 8.6556L0.505782 8.69912L0.473771 8.74392L0.442399 8.78871L0.412308 8.83415L0.383498 8.88086L0.354688 8.92758L0.327798 8.97558L0.301549 9.02357L0.275939 9.07157L0.252251 9.12148L0.229203 9.17076L0.206794 9.22132L0.185667 9.27187L0.16646 9.32243L0.147253 9.37362L0.129967 9.4261L0.112681 9.47794L0.097315 9.53041L0.08323 9.58353L0.0697851 9.63664L0.0576207 9.6904L0.0467368 9.74352L0.0371334 9.79727L0.0281701 9.85167L0.0211276 9.90606L0.0147253 9.96046L0.00896323 10.0149L0.00512184 10.0699L0.00256092 10.1243L0 10.1787V10.2337V10.2888L0.00256092 10.3431Z" fill="#0DC09D"></path></g><path d="M25.1053 20.6367H21.0006V19.0221H25.1053C25.7407 19.0221 26.2303 18.8993 26.574 18.6522C26.9176 18.4059 27.0898 18.0878 27.0898 17.6987C27.0898 17.3096 26.9272 17.0242 26.6034 16.8425C26.2789 16.6614 25.799 16.5116 25.1635 16.3951L24.5018 16.2787C23.8529 16.1622 23.2629 15.9933 22.7317 15.7731C22.1999 15.553 21.7782 15.2477 21.4672 14.8586C21.1561 14.4695 21 13.9704 21 13.3605C21 12.4531 21.3373 11.7491 22.0118 11.25C22.6863 10.7508 23.5809 10.5012 24.6963 10.5012H28.7037V12.1356H24.6963C24.1517 12.1356 23.7236 12.2361 23.4126 12.4371C23.1016 12.638 22.9454 12.9202 22.9454 13.2831C22.9454 13.6722 23.0978 13.9576 23.4024 14.1393C23.707 14.3211 24.1191 14.4574 24.6375 14.5476L25.3184 14.6641C26.0057 14.7806 26.6347 14.9431 27.2056 15.1504C27.7764 15.3578 28.2269 15.656 28.5578 16.0451C28.8886 16.4342 29.0538 16.9532 29.0538 17.6015C29.0538 18.5614 28.6967 19.3069 27.9838 19.8387C27.2702 20.3705 26.3109 20.6361 25.1046 20.6361L25.1053 20.6367Z" fill="#160F26"></path><path d="M49.9666 23.5882V19.0612H49.6556C49.5129 19.321 49.3056 19.5706 49.033 19.8099C48.7603 20.0499 48.4135 20.2476 47.9924 20.4031C47.5707 20.5587 47.0491 20.6367 46.4265 20.6367C45.622 20.6367 44.8829 20.4422 44.2084 20.0531C43.5339 19.664 42.9957 19.1034 42.5938 18.37C42.1919 17.6373 41.991 16.7522 41.991 15.7142V15.4224C41.991 14.3851 42.1951 13.5 42.604 12.7666C43.0123 12.0339 43.5537 11.4727 44.2282 11.0836C44.9027 10.6945 45.6355 10.4999 46.4265 10.4999C47.3601 10.4999 48.0769 10.6689 48.576 11.0055C49.0752 11.3428 49.4483 11.7254 49.6947 12.1536H50.0057V10.4999H51.971V23.5869H49.9673L49.9666 23.5882ZM46.9902 18.8858C47.8721 18.8858 48.592 18.6068 49.1494 18.0494C49.7068 17.492 49.9858 16.694 49.9858 15.6566V15.4813C49.9858 14.4567 49.7036 13.6658 49.1398 13.1077C48.5754 12.5503 47.8587 12.2713 46.9902 12.2713C46.1218 12.2713 45.4243 12.5503 44.8599 13.1077C44.2954 13.6658 44.0138 14.4567 44.0138 15.4813V15.6566C44.0138 16.6946 44.2961 17.492 44.8599 18.0494C45.4243 18.6075 46.134 18.8858 46.9902 18.8858Z" fill="#160F26"></path><path d="M40.0705 15.3642C40.0705 14.3915 39.876 13.5423 39.4869 12.8159C39.0978 12.0896 38.5557 11.522 37.8627 11.1137C37.1683 10.7054 36.3607 10.5006 35.4405 10.5006C34.5202 10.5006 33.6633 10.708 32.9504 11.1233C32.5933 11.3306 32.2753 11.5783 31.995 11.8675C31.9598 11.9034 31.9252 11.9405 31.8907 11.9776C31.7883 12.0902 31.6929 12.208 31.6021 12.3309C31.4818 12.4953 31.3698 12.67 31.2674 12.855C30.8591 13.5941 30.6543 14.4632 30.6543 15.4621V15.6957C30.6543 16.6947 30.8584 17.5631 31.2674 18.3029C31.6757 19.042 32.2433 19.616 32.9696 20.0243C33.6953 20.4326 34.5452 20.6374 35.5179 20.6374C36.3742 20.6374 37.0871 20.5011 37.6579 20.2291C38.2287 19.9565 38.6825 19.6192 39.0197 19.2174C39.1131 19.1054 39.2015 18.9953 39.284 18.8865C39.499 18.6043 39.6769 18.3323 39.8171 18.0693L38.1443 17.213C37.9369 17.6546 37.6413 18.0437 37.2592 18.3803C36.8759 18.7176 36.3089 18.8859 35.5569 18.8859C34.7525 18.8859 34.0812 18.6356 33.5437 18.1371C33.5104 18.1058 33.4778 18.075 33.4464 18.0418C33.4144 18.0085 33.3843 17.9759 33.3542 17.9426C33.2826 17.86 33.216 17.7736 33.1546 17.6828C32.8928 17.2898 32.7431 16.822 32.7053 16.28C32.7015 16.2282 32.6996 16.1757 32.6977 16.1232H40.0711V15.3642H40.0705ZM34.0396 14.586L33.0151 15.6106H32.6778C32.6727 15.3156 32.6778 14.9367 32.7169 14.586C32.7361 14.4529 32.7616 14.3243 32.7949 14.2008C32.8269 14.0773 32.866 13.9595 32.9114 13.8469C33.0624 13.4713 33.287 13.1532 33.5827 12.8934C34.0556 12.4781 34.6681 12.2707 35.4213 12.2707C36.1745 12.2707 36.7831 12.4781 37.2502 12.8934C37.7174 13.3087 37.983 13.8731 38.0476 14.586H34.0403H34.0396Z" fill="#160F26"></path><path d="M63.3063 15.3642C63.3063 14.3915 63.1118 13.5423 62.7227 12.8159C62.3336 12.0896 61.7916 11.522 61.0985 11.1137C60.4042 10.7054 59.5966 10.5006 58.6763 10.5006C57.7561 10.5006 56.8992 10.708 56.1863 11.1233C55.8292 11.3306 55.5111 11.5783 55.2308 11.8675C55.1956 11.9034 55.1611 11.9405 55.1265 11.9776C55.0241 12.0902 54.9288 12.208 54.8379 12.3309C54.7176 12.4953 54.6056 12.67 54.5032 12.855C54.0949 13.5941 53.8901 14.4632 53.8901 15.4621V15.6957C53.8901 16.6947 54.0943 17.5631 54.5032 18.3029C54.9115 19.042 55.4791 19.616 56.2055 20.0243C56.9312 20.4326 57.781 20.6374 58.7537 20.6374C59.61 20.6374 60.3229 20.5011 60.8937 20.2291C61.4646 19.9565 61.9183 19.6192 62.2555 19.2174C62.349 19.1054 62.4373 18.9953 62.5198 18.8865C62.7349 18.6043 62.9128 18.3323 63.0529 18.0693L61.3801 17.213C61.1728 17.6546 60.8771 18.0437 60.495 18.3803C60.1117 18.7176 59.5447 18.8859 58.7928 18.8859C57.9884 18.8859 57.3171 18.6356 56.7795 18.1371C56.7462 18.1058 56.7136 18.075 56.6822 18.0418C56.6502 18.0085 56.6202 17.9759 56.5901 17.9426C56.5184 17.86 56.4519 17.7736 56.3904 17.6828C56.1287 17.2898 55.9789 16.822 55.9412 16.28C55.9373 16.2282 55.9354 16.1757 55.9335 16.1232H63.307V15.3642H63.3063ZM57.2755 14.586L56.2509 15.6106H55.9137C55.9085 15.3156 55.9137 14.9367 55.9527 14.586C55.9719 14.4529 55.9975 14.3243 56.0308 14.2008C56.0628 14.0773 56.1018 13.9595 56.1472 13.8469C56.2983 13.4713 56.5229 13.1532 56.8185 12.8934C57.2915 12.4781 57.9039 12.2707 58.6571 12.2707C59.4103 12.2707 60.0189 12.4781 60.4861 12.8934C60.9533 13.3087 61.2188 13.8731 61.2835 14.586H57.2761H57.2755Z" fill="#160F26"></path><path d="M65.2262 20.6367V10.5006H67.1909V11.6288H67.5019C67.6574 11.2269 67.907 10.9319 68.2506 10.7438C68.5943 10.5556 69.0192 10.4615 69.5248 10.4615H70.6728V12.2707H69.4473C68.7984 12.2707 68.2673 12.4492 67.8519 12.8057C67.4366 13.1628 67.2293 13.7106 67.2293 14.4497V20.6361H65.2256L65.2262 20.6367Z" fill="#160F26"></path><path d="M80.3385 14.1355C80.3385 12.9631 79.9808 12.0576 79.2641 11.4196C78.5479 10.7816 77.5643 10.4622 76.3132 10.4622C75.4928 10.4622 74.7991 10.5921 74.2321 10.8532C73.6658 11.1143 73.2095 11.4593 72.8646 11.8887C72.5196 12.3187 72.2688 12.7878 72.112 13.2953L73.9877 13.9013C74.1048 13.3804 74.3461 12.9567 74.7108 12.631C75.0762 12.3059 75.6029 12.1427 76.2934 12.1427C76.9839 12.1427 77.5183 12.3155 77.8568 12.6604C78.196 13.0054 78.3649 13.4521 78.3649 13.9992V15.6656H78.0398L76.9974 14.6244H75.434C74.3787 14.6244 73.5026 14.8753 72.8057 15.377C72.1088 15.8781 71.76 16.6179 71.76 17.5951C71.76 18.2466 71.92 18.7995 72.2387 19.2558C72.558 19.712 72.9881 20.057 73.5282 20.2912C74.0696 20.5254 74.6852 20.6432 75.3744 20.6432C76.0637 20.6432 76.5731 20.5485 76.9769 20.3597C77.3807 20.1709 77.6872 19.9495 77.8952 19.6954C78.1045 19.4413 78.2593 19.2097 78.3643 19.0017H78.6772V20.6432H80.3379V14.1362L80.3385 14.1355ZM78.3649 16.3824C78.3649 17.1906 78.1141 17.8255 77.6123 18.2875C77.1106 18.7496 76.4636 18.9812 75.6682 18.9812C75.082 18.9812 74.6199 18.8513 74.2808 18.5902C73.9416 18.3291 73.7727 17.9778 73.7727 17.5349C73.7727 17.0921 73.9358 16.7561 74.2609 16.5289C74.5873 16.3011 75.0161 16.1872 75.5504 16.1872H78.3643V16.3824H78.3649Z" fill="#160F26"></path></g><defs><clipPath id="clip0_2161_1432"><rect width="80.6667" height="16" fill="white" transform="translate(0 7.65344)"></rect></clipPath><clipPath id="clip1_2161_1432"><rect width="16" height="16" fill="white" transform="translate(0 7.65344)"></rect></clipPath></defs></svg>
