<svg width="466" height="62" viewBox="0 0 466 62" fill="none" xmlns="http://www.w3.org/2000/svg">
<path d="M271.815 45H268.384V16.8H287.372V19.855H271.815V29.114H285.727V32.122H271.815V41.945H287.372V45H271.815ZM296.175 28.785H296.551C297.726 25.025 300.734 22.628 304.635 22.628C309.758 22.628 312.014 25.918 312.014 30.712V45H308.771V31.417C308.771 28.127 307.455 25.589 303.507 25.589C299.136 25.589 296.222 28.315 296.222 32.404V45H292.979V23.145H296.175V28.785ZM315.649 23.145H319.221V16.847H322.417V23.145H329.843V25.918H322.417V38.373C322.417 41.099 323.498 42.509 326.13 42.509C327.352 42.509 328.292 42.321 329.608 41.945L330.078 44.812C328.621 45.282 327.399 45.517 325.566 45.517C321.195 45.517 319.221 42.65 319.221 38.608V25.918H315.649V23.145ZM343.273 45.517C336.505 45.517 332.463 41.287 332.463 34.143C332.463 26.905 336.74 22.628 343.179 22.628C349.618 22.628 352.908 26.67 352.908 32.686C352.908 33.25 352.908 34.143 352.814 34.989H335.706C335.988 39.924 338.573 42.744 343.273 42.744C347.597 42.744 349.101 40.488 349.9 37.715L352.767 38.561C351.686 42.885 348.772 45.517 343.273 45.517ZM335.753 32.498H349.9C349.712 27.939 347.691 25.307 343.085 25.307C338.808 25.307 336.223 27.751 335.753 32.498ZM360.845 29.02H361.127C362.161 24.79 364.558 22.91 368.083 22.91H368.976V26.435H367.942C363.101 26.435 360.939 28.503 360.939 33.767V45H357.696V23.145H360.845V29.02ZM393.332 34.096C393.332 41.475 390.089 45.517 384.731 45.517C380.266 45.517 377.446 42.791 376.412 39.031H376.177V52.191H372.934V23.145H376.177V29.02H376.459C377.54 25.307 380.031 22.628 384.496 22.628C390.23 22.628 393.332 26.717 393.332 34.096ZM376.177 34.942C376.177 39.501 378.997 42.65 383.368 42.65C387.88 42.65 390.089 39.83 390.089 34.096C390.089 28.315 387.927 25.589 383.368 25.589C378.997 25.589 376.177 28.55 376.177 33.297V34.942ZM401.235 29.02H401.517C402.551 24.79 404.948 22.91 408.473 22.91H409.366V26.435H408.332C403.491 26.435 401.329 28.503 401.329 33.767V45H398.086V23.145H401.235V29.02ZM417.085 45H413.842V23.145H417.085V45ZM417.461 18.492H413.466V15.202H417.461V18.492ZM432.015 45.564C425.482 45.564 422.991 42.697 422.004 38.232L425.012 37.621C425.764 40.629 427.456 42.932 432.062 42.932C435.54 42.932 437.279 41.616 437.279 39.219C437.279 36.916 435.634 35.976 430.84 35.177C425.294 34.237 423.179 32.216 423.179 28.832C423.179 25.166 425.905 22.628 431.216 22.628C436.715 22.628 438.783 25.119 439.77 29.02L436.762 29.725C435.963 26.388 434.224 25.213 431.169 25.213C427.973 25.213 426.328 26.482 426.328 28.691C426.328 30.618 427.691 31.934 432.109 32.639C438.125 33.626 440.475 35.6 440.475 39.125C440.475 42.932 437.937 45.564 432.015 45.564ZM454.439 45.517C447.671 45.517 443.629 41.287 443.629 34.143C443.629 26.905 447.906 22.628 454.345 22.628C460.784 22.628 464.074 26.67 464.074 32.686C464.074 33.25 464.074 34.143 463.98 34.989H446.872C447.154 39.924 449.739 42.744 454.439 42.744C458.763 42.744 460.267 40.488 461.066 37.715L463.933 38.561C462.852 42.885 459.938 45.517 454.439 45.517ZM446.919 32.498H461.066C460.878 27.939 458.857 25.307 454.251 25.307C449.974 25.307 447.389 27.751 446.919 32.498Z" fill="white"/>
<g clip-path="url(#clip0_67_672)">
<g clip-path="url(#clip1_67_672)">
<path d="M40.7493 31.8827L40.8165 31.9096L40.8837 31.9365L40.9471 31.9672L41.0105 32.0017L41.072 32.0363L41.1334 32.0747L41.1911 32.1188L41.2468 32.1611L41.2986 32.2091L41.3524 32.2571L41.4023 32.3108L41.4484 32.3627L41.4945 32.4203L41.5349 32.4779L41.5752 32.5393L41.6098 32.5988L41.6424 32.6641L41.6731 32.7274L41.7 32.7927L41.7269 32.8599L41.7461 32.929L41.7653 32.9962L41.7788 33.0692L41.7922 33.1383L41.7999 33.2112L41.8038 33.2803L41.8057 33.3514L41.8038 33.4243L41.7999 33.4954L41.7922 33.5664L41.7788 33.6374L41.7653 33.7066L41.7461 33.7776L41.7269 33.8448L41.7 33.9139L41.6731 33.9792L41.6424 34.0425L41.6098 34.1059L41.5752 34.1673L41.5349 34.2288L41.4945 34.2863L41.4484 34.3401L41.4023 34.3958L41.3524 34.4457L41.2986 34.4975L41.2468 34.5455L41.1911 34.5878L41.1334 34.6281L41.072 34.6703L41.0105 34.7049L40.9471 34.7394L40.8837 34.7682L40.8165 34.797L40.7493 34.8201L40.6821 34.8431L40.6129 34.8585L40.5438 34.8757L40.4708 34.8853L40.4017 34.893L40.3287 34.9007H40.3171L40.3901 34.8988L40.5207 34.893L40.6513 34.8853L40.7819 34.8738L40.9106 34.8565L41.0412 34.8373L41.1699 34.8162L41.2986 34.7893L41.4254 34.7605L41.5541 34.7279L41.6808 34.6914L41.8057 34.6511L41.9286 34.6089L42.0515 34.5628L42.1725 34.5129L42.2935 34.4611L42.4126 34.4054L42.5298 34.3459L42.645 34.2844L42.7583 34.2192L42.8697 34.15L42.9811 34.0809L43.0887 34.008L43.1963 33.9293L43.3 33.8486L43.4018 33.768L43.5016 33.6816L43.5996 33.5933L43.6937 33.505L43.7878 33.4109L43.8781 33.3168L43.9645 33.2189L44.049 33.1191L44.1316 33.0173L44.2123 32.9117L44.2891 32.8061L44.3621 32.6986L44.4351 32.5873L44.5023 32.4759L44.5676 32.3607L44.631 32.2456L44.6886 32.1304L44.7443 32.0113L44.7962 31.8904L44.8461 31.7694L44.8922 31.6466L44.9364 31.5218L44.9748 31.397L45.0113 31.2703L45.044 31.1436L45.0728 31.0169L45.0997 30.8863L45.1227 30.7577L45.1419 30.629L45.1554 30.4985L45.1688 30.3679L45.1784 30.2355L45.1823 30.1049L45.1842 29.9744L45.1823 29.8438L45.1784 29.7114L45.1688 29.5808L45.1554 29.4503L45.1419 29.3216L45.1227 29.1911L45.0997 29.0605L45.0728 28.9338L45.044 28.8052L45.019 28.7073H40.3498L40.2576 28.7092H29.2136L40.6686 31.8597L40.7493 31.8827Z" fill="white"/>
<path d="M47.9923 33.025L47.9827 32.8599L47.9712 32.6967L47.9558 32.5316L47.9366 32.3684L47.9155 32.2072L47.8886 32.044L47.8579 31.8827L47.8271 31.7214L47.7906 31.5621L47.7503 31.4027L47.7081 31.2434L47.66 31.086L47.6101 30.9305L47.5582 30.773L47.5006 30.6194L47.4411 30.4678L47.3777 30.3142L47.3124 30.1644L47.2432 30.0147L47.1722 29.8669L47.0954 29.7229L47.0166 29.577L46.934 29.4349L46.8495 29.2928L46.7631 29.1546L46.6709 29.0164L46.5787 28.882L46.4827 28.7495L46.45 28.7073H45.0191L45.0441 28.8052L45.0729 28.9338L45.0998 29.0605L45.1228 29.1911L45.142 29.3216L45.1555 29.4503L45.1689 29.5808L45.1785 29.7114L45.1823 29.8438L45.1843 29.9744L45.1823 30.1049L45.1785 30.2355L45.1689 30.3679L45.1555 30.4985L45.142 30.629L45.1228 30.7577L45.0998 30.8863L45.0729 31.0169L45.0441 31.1436L45.0114 31.2703L44.9749 31.397L44.9365 31.5218L44.8923 31.6466L44.8462 31.7694L44.7963 31.8904L44.7444 32.0113L44.6887 32.1304L44.6311 32.2456L44.5677 32.3607L44.5024 32.4759L44.4352 32.5873L44.3622 32.6986L44.2892 32.8061L44.2124 32.9117L44.1317 33.0173L44.0491 33.1191L43.9646 33.2189L43.8782 33.3168L43.7879 33.4109L43.6938 33.505L43.5997 33.5933L43.5017 33.6816L43.4019 33.768L43.3001 33.8486L43.1964 33.9293L43.0888 34.008L42.9812 34.0809L42.8698 34.15L42.7584 34.2192L42.6451 34.2844L42.5299 34.3459L42.4127 34.4054L42.2936 34.4611L42.1726 34.5129L42.0516 34.5628L41.9287 34.6089L41.8058 34.6511L41.6809 34.6914L41.5542 34.7279L41.4255 34.7605L41.2987 34.7893L41.17 34.8162L41.0413 34.8373L40.9107 34.8565L40.782 34.8738L40.6514 34.8853L40.5208 34.893L40.3902 34.8988L40.2577 34.9007H0V41.0941H40.2577L40.4229 41.0922L40.5861 41.0884L40.7513 41.0788L40.9146 41.0653L41.0778 41.05L41.2411 41.0327L41.4043 41.0077L41.5657 40.9828L41.727 40.954L41.8884 40.9194L42.0497 40.8829L42.2072 40.8445L42.3666 40.8004L42.526 40.7543L42.6816 40.7063L42.8372 40.6506L42.9908 40.595L43.1445 40.5354L43.2962 40.474L43.446 40.4087L43.5959 40.3377L43.7437 40.2648L43.8897 40.1899L44.0338 40.1112L44.1759 40.0305L44.318 39.9441L44.4544 39.8577L44.5927 39.7675L44.7291 39.6734L44.8616 39.5774L44.9922 39.4776L45.1209 39.3759L45.2496 39.2703L45.3744 39.1628L45.4954 39.0552L45.6145 38.942L45.7317 38.8268L45.8469 38.7097L45.9583 38.5887L46.0697 38.4678L46.1773 38.343L46.281 38.2163L46.3828 38.0876L46.4827 37.9552L46.5787 37.8227L46.6709 37.6883L46.7631 37.5501L46.8495 37.4119L46.934 37.2698L47.0166 37.1277L47.0954 36.9837L47.1722 36.8378L47.2432 36.69L47.3124 36.5422L47.3777 36.3905L47.4411 36.2388L47.5006 36.0872L47.5582 35.9317L47.6101 35.7761L47.66 35.6206L47.7081 35.4613L47.7503 35.3039L47.7906 35.1445L47.8271 34.9833L47.8579 34.8239L47.8886 34.6626L47.9155 34.4995L47.9366 34.3363L47.9558 34.1731L47.9712 34.0099L47.9827 33.8448L47.9923 33.6816L47.9981 33.5184L48 33.3533L47.9981 33.1882L47.9923 33.025Z" fill="#FA6863"/>
<path d="M7.25055 30.176L7.18333 30.151L7.1161 30.1242L7.05272 30.0934L6.98742 30.0589L6.92787 30.0224L6.86641 29.984L6.80879 29.9418L6.75309 29.8976L6.69931 29.8496L6.64745 29.8016L6.59751 29.7498L6.55142 29.696L6.50532 29.6384L6.46499 29.5808L6.42465 29.5213L6.39008 29.4618L6.35743 29.3965L6.32478 29.3313L6.29981 29.2679L6.27292 29.2007L6.25371 29.1297L6.2345 29.0625L6.21914 28.9914L6.20761 28.9223L6.19993 28.8494L6.19609 28.7803L6.19417 28.7073L6.19609 28.6363L6.19993 28.5633L6.20761 28.4942L6.21914 28.4232L6.2345 28.3521L6.25371 28.283L6.27292 28.2158L6.29981 28.1467L6.32478 28.0814L6.35743 28.0162L6.39008 27.9547L6.42465 27.8914L6.46499 27.8319L6.50532 27.7743L6.55142 27.7186L6.59751 27.6648L6.64745 27.613L6.69931 27.5631L6.75309 27.5151L6.80879 27.4728L6.86641 27.4306L6.92787 27.3903L6.98742 27.3538L7.05272 27.3212L7.1161 27.2924L7.18333 27.2636L7.25055 27.2386L7.31777 27.2175L7.38692 27.2002L7.45606 27.1849L7.52905 27.1753L7.5982 27.1676L7.66926 27.1599H7.68271H7.60972L7.47911 27.1657L7.34851 27.1753L7.2179 27.1868L7.08921 27.2021L6.95861 27.2213L6.828 27.2444L6.70123 27.2693L6.57255 27.3001L6.44578 27.3327L6.31902 27.3692L6.19417 27.4095L6.07125 27.4517L5.9464 27.4959L5.82732 27.5458L5.70631 27.5996L5.58723 27.6552L5.47007 27.7147L5.35291 27.7762L5.24151 27.8395L5.13011 27.9087L5.01871 27.9797L4.90923 28.0526L4.80359 28.1314L4.69795 28.2101L4.59808 28.2926L4.4982 28.3771L4.40024 28.4654L4.30613 28.5556L4.21202 28.6478L4.12174 28.7438L4.03531 28.8398L3.94888 28.9396L3.86821 29.0433L3.78562 29.147L3.71072 29.2525L3.63581 29.362L3.56474 29.4714L3.49752 29.5847L3.43222 29.6979L3.36883 29.8151L3.31121 29.9303L3.25551 30.0493L3.20365 30.1702L3.15372 30.2912L3.10762 30.4141L3.06344 30.5388L3.02503 30.6636L2.98854 30.7903L2.95588 30.9151L2.92707 31.0438L2.90018 31.1724L2.87714 31.3029L2.85793 31.4316L2.84448 31.5621L2.83104 31.6908L2.82144 31.8232L2.81759 31.9538L2.81567 32.0843L2.81759 32.2168L2.82144 32.3473L2.83104 32.4779L2.84448 32.6084L2.85793 32.739L2.87714 32.8695L2.90018 32.9982L2.92707 33.1268L2.95588 33.2535L2.98085 33.3533H7.65005L7.74225 33.3514H18.7862L7.33122 30.2009L7.25055 30.176Z" fill="white"/>
<path d="M0.00768277 29.0356L0.0153655 29.2007L0.0288104 29.3639L0.0441759 29.5271L0.0633828 29.6903L0.0845104 29.8535L0.1114 30.0147L0.14021 30.1779L0.172862 30.3392L0.209355 30.4985L0.24969 30.6579L0.291945 30.8172L0.339962 30.9747L0.3899 31.1302L0.441759 31.2857L0.49938 31.4412L0.558921 31.5928L0.622304 31.7464L0.687608 31.8962L0.756752 32.0459L0.827818 32.1918L0.904646 32.3377L0.983394 32.4837L1.06598 32.6257L1.15049 32.7659L1.23693 32.9041L1.3272 33.0423L1.42131 33.1786L1.51735 33.3111L1.55 33.3533H2.98091L2.95594 33.2535L2.92713 33.1268L2.90024 32.9982L2.8772 32.8695L2.85799 32.739L2.84454 32.6084L2.8311 32.4779L2.8215 32.3473L2.81765 32.2168L2.81573 32.0843L2.81765 31.9538L2.8215 31.8232L2.8311 31.6908L2.84454 31.5621L2.85799 31.4316L2.8772 31.3029L2.90024 31.1724L2.92713 31.0438L2.95594 30.9151L2.9886 30.7903L3.02509 30.6636L3.0635 30.5388L3.10768 30.4141L3.15378 30.2912L3.20371 30.1702L3.25557 30.0493L3.31127 29.9303L3.36889 29.8151L3.43228 29.698L3.49758 29.5847L3.5648 29.4714L3.63587 29.362L3.71078 29.2525L3.78568 29.147L3.86827 29.0433L3.94894 28.9396L4.03537 28.8398L4.1218 28.7438L4.21208 28.6478L4.30619 28.5556L4.4003 28.4654L4.49826 28.3771L4.59814 28.2926L4.69801 28.2101L4.80365 28.1314L4.90929 28.0526L5.01877 27.9797L5.13017 27.9087L5.24157 27.8395L5.35297 27.7762L5.47013 27.7148L5.58729 27.6552L5.70637 27.5996L5.82738 27.5458L5.94646 27.4959L6.07131 27.4517L6.19423 27.4095L6.31908 27.3692L6.44584 27.3327L6.57261 27.3001L6.70129 27.2693L6.82806 27.2444L6.95866 27.2214L7.08927 27.2022L7.21796 27.1868L7.34857 27.1753L7.47917 27.1657L7.60978 27.1599L7.74231 27.158H48V20.9665H7.74231L7.57713 20.9684L7.41387 20.9723L7.24869 20.9819L7.08543 20.9934L6.92025 21.0087L6.75891 21.0279L6.59565 21.051L6.43432 21.0759L6.27298 21.1066L6.10972 21.1393L5.9503 21.1758L5.79088 21.2161L5.63339 21.2583L5.47397 21.3063L5.31839 21.3543L5.16282 21.4081L5.00916 21.4637L4.85551 21.5252L4.70377 21.5866L4.55396 21.6519L4.40415 21.7229L4.25625 21.7959L4.11028 21.8688L3.96623 21.9495L3.8241 22.0301L3.68197 22.1146L3.54368 22.2029L3.40539 22.2931L3.27094 22.3872L3.13841 22.4832L3.00588 22.5811L2.87912 22.6828L2.75043 22.7884L2.62559 22.8959L2.50458 23.0054L2.3855 23.1186L2.26834 23.2319L2.1531 23.3509L2.03977 23.4719L1.93029 23.5928L1.82274 23.7176L1.71902 23.8443L1.61722 23.973L1.51735 24.1035L1.42131 24.2379L1.3272 24.3723L1.23693 24.5086L1.15049 24.6488L1.06598 24.7908L0.983394 24.9329L0.904646 25.075L0.827818 25.2209L0.756752 25.3706L0.687608 25.5184L0.622304 25.6701L0.558921 25.8199L0.49938 25.9735L0.441759 26.127L0.3899 26.2825L0.339962 26.44L0.291945 26.5974L0.24969 26.7567L0.209355 26.9161L0.172862 27.0774L0.14021 27.2367L0.1114 27.398L0.0845104 27.5612L0.0633828 27.7244L0.0441759 27.8875L0.0288104 28.0507L0.0153655 28.2139L0.00768277 28.3771L0 28.5422V28.7073V28.8724L0.00768277 29.0356Z" fill="#F18046"/>
<path d="M7.25055 16.2436L7.18333 16.2167L7.1161 16.1879L7.0508 16.1591L6.98934 16.1246L6.92595 16.09L6.86641 16.0516L6.80879 16.0074L6.75117 15.9652L6.69739 15.9172L6.64553 15.8692L6.59751 15.8155L6.55142 15.7636L6.50532 15.706L6.46307 15.6484L6.42465 15.587L6.38816 15.5256L6.35551 15.4622L6.32286 15.3989L6.29789 15.3336L6.27292 15.2645L6.25179 15.1973L6.2345 15.1301L6.21914 15.0571L6.20761 14.988L6.19801 14.9151L6.19609 14.844L6.19417 14.7711L6.19609 14.7L6.19801 14.6309L6.20761 14.5599L6.21914 14.4888L6.2345 14.4197L6.25179 14.3487L6.27292 14.2796L6.29789 14.2124L6.32286 14.1471L6.35551 14.0838L6.38816 14.0185L6.42465 13.959L6.46307 13.8975L6.50532 13.8399L6.55142 13.7862L6.59751 13.7305L6.64553 13.6768L6.69739 13.6288L6.75117 13.5808L6.80879 13.5385L6.86641 13.4982L6.92595 13.456L6.98934 13.4214L7.0508 13.3869L7.1161 13.3561L7.18333 13.3293L7.25055 13.3062L7.31777 13.2832L7.38692 13.264L7.45799 13.2505L7.52713 13.239L7.5982 13.2313L7.67118 13.2256H7.69423H7.60972L7.47911 13.2313L7.34851 13.2409L7.2179 13.2525L7.08921 13.2697L6.95861 13.2889L6.828 13.3101L6.70123 13.3369L6.57255 13.3657L6.44578 13.3984L6.31902 13.4348L6.19417 13.4752L6.07125 13.5174L5.9464 13.5635L5.82732 13.6115L5.70631 13.6652L5.58723 13.7209L5.47007 13.7804L5.35291 13.8419L5.24151 13.9052L5.12819 13.9743L5.01871 14.0454L4.90923 14.1183L4.80359 14.197L4.69795 14.2757L4.59615 14.3583L4.4982 14.4447L4.40024 14.5311L4.30421 14.6213L4.21202 14.7135L4.12174 14.8095L4.03531 14.9074L3.94888 15.0072L3.86821 15.109L3.78562 15.2145L3.71072 15.3201L3.63581 15.4276L3.56474 15.5371L3.49752 15.6504L3.43222 15.7636L3.36883 15.8807L3.31121 15.9959L3.25551 16.115L3.20365 16.2359L3.15372 16.3569L3.10762 16.4797L3.06344 16.6045L3.02503 16.7293L2.98854 16.856L2.95588 16.9827L2.92515 17.1094L2.90018 17.2381L2.87714 17.3686L2.85793 17.4972L2.84256 17.6278L2.83104 17.7564L2.82144 17.8889L2.81759 18.0214L2.81567 18.1519L2.81759 18.2825L2.82144 18.4149L2.83104 18.5455L2.84256 18.676L2.85793 18.8047L2.87714 18.9352L2.90018 19.0658L2.92515 19.1925L2.95588 19.3211L2.98854 19.4478L3.02503 19.5726L3.06344 19.6993L3.10762 19.8222L3.15372 19.945L3.20365 20.066L3.25551 20.1869L3.31121 20.306L3.36883 20.4231L3.40725 20.4903L3.41109 20.4884L3.57243 20.4058L3.73376 20.3271L3.89702 20.2503L4.0622 20.1793L4.22738 20.1063L4.3964 20.041L4.5635 19.9796L4.73444 19.9163L4.90539 19.8625L5.07825 19.8087L5.25111 19.7588L5.42397 19.7108L5.59876 19.6667L5.77546 19.6283L5.95216 19.5937L6.12695 19.5592L6.30557 19.5304L6.48419 19.5035L6.66282 19.4804L6.84336 19.4612L7.02199 19.4459L7.20253 19.4324L7.37924 19.4248L7.56362 19.4209L7.74225 19.4171H18.7862L7.3293 16.2666L7.25055 16.2436Z" fill="white"/>
<path d="M40.2576 48.8389H40.3901L40.5207 48.8312L40.6513 48.8235L40.7819 48.812L40.9126 48.7947L41.0432 48.7755L41.1718 48.7544L41.3005 48.7275L41.4273 48.6987L41.556 48.6661L41.6808 48.6296L41.8057 48.5893L41.9305 48.547L42.0534 48.501L42.1725 48.451L42.2935 48.3992L42.4126 48.3435L42.5298 48.284L42.6469 48.2226L42.7603 48.1573L42.8717 48.0882L42.9811 48.0172L43.0906 47.9442L43.1982 47.8674L43.3019 47.7868L43.4037 47.7061L43.5036 47.6198L43.5996 47.5314L43.6956 47.4431L43.7878 47.3491L43.8781 47.255L43.9665 47.1571L44.051 47.0572L44.1336 46.9555L44.2142 46.8499L44.2891 46.7443L44.364 46.6368L44.4351 46.5254L44.5023 46.4141L44.5676 46.2989L44.631 46.1837L44.6906 46.0666L44.7463 45.9495L44.7962 45.8285L44.8481 45.7057L44.8922 45.5847L44.9364 45.4599L44.9767 45.3351L45.0113 45.2084L45.0459 45.0817L45.0747 44.955L45.0997 44.8245L45.1227 44.6958L45.1419 44.5672L45.1573 44.4347L45.1707 44.3061L45.1784 44.1736L45.1842 44.0431V43.9125V43.782L45.1784 43.6495L45.1707 43.519L45.1573 43.3884L45.1419 43.2598L45.1227 43.1292L45.0997 42.9987L45.0747 42.872L45.0459 42.7433L45.0113 42.6166L44.9767 42.4918L44.9364 42.3651L44.8922 42.2403L44.8481 42.1194L44.7962 41.9984L44.7463 41.8775L44.6906 41.7585L44.631 41.6413L44.5926 41.5703L44.5888 41.5722L44.4274 41.6548L44.2661 41.7335L44.1028 41.8103L43.9376 41.8832L43.7705 41.9524L43.6034 42.0196L43.4363 42.081L43.2654 42.1424L43.0925 42.2L42.9216 42.2519L42.7507 42.3018L42.574 42.3498L42.4011 42.392L42.2244 42.4323L42.0477 42.4688L41.871 42.5014L41.6943 42.5302L41.5156 42.5571L41.337 42.5802L41.1584 42.5994L40.9779 42.6147L40.7973 42.6262L40.6168 42.6358L40.4381 42.6416L40.2576 42.6435H29.2136L40.6686 45.794L40.7493 45.8189L40.8165 45.8439L40.8837 45.8708L40.9471 45.9015L41.0105 45.936L41.072 45.9725L41.1334 46.0109L41.1911 46.0532L41.2468 46.0973L41.2986 46.1453L41.3524 46.1933L41.4023 46.2451L41.4484 46.2989L41.4945 46.3565L41.5349 46.4141L41.5752 46.4736L41.6098 46.5331L41.6424 46.5984L41.6731 46.6637L41.7 46.727L41.7269 46.7942L41.7461 46.8652L41.7653 46.9324L41.7788 47.0035L41.7922 47.0726L41.7999 47.1455L41.8038 47.2147L41.8057 47.2876L41.8038 47.3587L41.7999 47.4316L41.7922 47.5007L41.7788 47.5718L41.7653 47.6428L41.7461 47.7119L41.7269 47.7791L41.7 47.8482L41.6731 47.9135L41.6424 47.9788L41.6098 48.0402L41.5752 48.1035L41.5349 48.1631L41.4945 48.2207L41.4484 48.2763L41.4023 48.3301L41.3524 48.3819L41.2986 48.4318L41.2468 48.4798L41.1911 48.5221L41.1334 48.5643L41.072 48.6046L41.0105 48.6411L40.9471 48.6737L40.8837 48.7025L40.8165 48.7313L40.7493 48.7563L40.6821 48.7774L40.6129 48.7947L40.5438 48.8101L40.4708 48.8197L40.4017 48.8273L40.3287 48.835L40.2576 48.8369" fill="white"/>
<path d="M47.9923 46.9612L47.9846 46.798L47.9731 46.6348L47.9558 46.4697L47.9385 46.3065L47.9155 46.1453L47.8886 45.9821L47.8598 45.8208L47.8271 45.6595L47.7906 45.4983L47.7503 45.3408L47.7081 45.1815L47.662 45.0222L47.612 44.8686L47.5582 44.7111L47.5006 44.5575L47.443 44.4059L47.3796 44.2523L47.3124 44.1025L47.2452 43.9528L47.1722 43.805L47.0954 43.661L47.0185 43.5151L46.9359 43.373L46.8495 43.2309L46.7631 43.0927L46.6728 42.9545L46.5787 42.8201L46.4827 42.6876L46.3828 42.5551L46.2829 42.4284L46.1773 42.2998L46.0697 42.1769L45.9602 42.0541L45.8469 41.935L45.7336 41.816L45.6145 41.7027L45.4954 41.5895L45.3744 41.48L45.2496 41.3725L45.1228 41.2669L45.1151 41.2612L44.9346 41.3706L44.7752 41.4608L44.61 41.5511L44.5889 41.5626L44.6311 41.6413L44.6906 41.7584L44.7463 41.8774L44.7963 41.9984L44.8481 42.1193L44.8923 42.2403L44.9365 42.3651L44.9768 42.4918L45.0114 42.6166L45.046 42.7433L45.0748 42.8719L45.0998 42.9986L45.1228 43.1292L45.142 43.2597L45.1574 43.3884L45.1708 43.5189L45.1785 43.6495L45.1843 43.7819V43.9125V44.043L45.1785 44.1736L45.1708 44.306L45.1574 44.4347L45.142 44.5671L45.1228 44.6958L45.0998 44.8244L45.0748 44.955L45.046 45.0817L45.0114 45.2084L44.9768 45.3351L44.9365 45.4599L44.8923 45.5847L44.8481 45.7056L44.7963 45.8285L44.7463 45.9494L44.6906 46.0665L44.6311 46.1837L44.5677 46.2988L44.5024 46.414L44.4352 46.5254L44.3641 46.6367L44.2892 46.7443L44.2143 46.8498L44.1336 46.9554L44.0511 47.0572L43.9665 47.157L43.8782 47.2549L43.7879 47.349L43.6957 47.4431L43.5997 47.5314L43.5037 47.6197L43.4038 47.7061L43.302 47.7867L43.1983 47.8674L43.0907 47.9442L42.9812 48.0171L42.8718 48.0881L42.7604 48.1573L42.647 48.2225L42.5299 48.284L42.4127 48.3435L42.2936 48.3992L42.1726 48.451L42.0535 48.5009L41.9306 48.547L41.8058 48.5892L41.6809 48.6295L41.5561 48.666L41.4274 48.6987L41.3006 48.7275L41.1719 48.7543L41.0433 48.7754L40.9126 48.7946L40.782 48.8119L40.6514 48.8234L40.5208 48.8311L40.3902 48.8388H40.2577H0V55.0322H40.2577L40.4229 55.0303L40.5861 55.0265L40.7513 55.0169L40.9146 55.0034L41.0798 54.99L41.243 54.9708L41.4063 54.9458L41.5676 54.9209L41.7289 54.8921L41.8903 54.8575L42.0497 54.821L42.2091 54.7826L42.3666 54.7404L42.526 54.6924L42.6816 54.6444L42.8372 54.5887L42.9928 54.5331L43.1464 54.4736L43.2981 54.4121L43.448 54.3468L43.5978 54.2758L43.7437 54.2029L43.8916 54.128L44.0338 54.0493L44.1778 53.9686L44.318 53.8842L44.4563 53.7939L44.5946 53.7056L44.7291 53.6115L44.8616 53.5136L44.9941 53.4157L45.1228 53.314L45.2496 53.2084L45.3744 53.1009L45.4954 52.9934L45.6145 52.8801L45.7336 52.7649L45.8469 52.6478L45.9602 52.5268L46.0697 52.4059L46.1773 52.2811L46.2829 52.1544L46.3828 52.0257L46.4827 51.8952L46.5787 51.7608L46.6728 51.6264L46.7631 51.4882L46.8495 51.35L46.9359 51.2079L47.0185 51.0658L47.0954 50.9218L47.1722 50.7759L47.2452 50.6281L47.3124 50.4803L47.3796 50.3286L47.443 50.1769L47.5006 50.0253L47.5582 49.8698L47.612 49.7143L47.662 49.5568L47.7081 49.3994L47.7503 49.242L47.7906 49.0807L47.8271 48.9214L47.8598 48.762L47.8886 48.5988L47.9155 48.4376L47.9385 48.2744L47.9558 48.1112L47.9731 47.948L47.9846 47.7829L47.9923 47.6197L48 47.4565V47.2914V47.1263L47.9923 46.9612Z" fill="#3D95FD"/>
<path d="M0.00768277 15.1013L0.0153655 15.2664L0.0268897 15.4296L0.0441759 15.5947L0.0633828 15.7579L0.0845104 15.9192L0.1114 16.0824L0.14021 16.2436L0.172862 16.4049L0.209355 16.5643L0.24969 16.7236L0.291945 16.881L0.338042 17.0404L0.3899 17.1959L0.441759 17.3514L0.49938 17.5069L0.557001 17.6586L0.620383 17.8122L0.687608 17.9619L0.756752 18.1117L0.827818 18.2576L0.904646 18.4035L0.983394 18.5494L1.06406 18.6915L1.15049 18.8335L1.23693 18.9698L1.3272 19.1081L1.42131 19.2444L1.51735 19.3768L1.61722 19.5093L1.71902 19.636L1.82274 19.7646L1.93029 19.8875L2.03977 20.0104L2.1531 20.1294L2.26834 20.2465L2.3855 20.3617L2.50458 20.475L2.62559 20.5844L2.75043 20.6919L2.87912 20.7956L2.88488 20.8014L3.06542 20.6939L3.22484 20.6036L3.39002 20.5115L3.41307 20.5019L3.36889 20.4232L3.31127 20.306L3.25557 20.187L3.20371 20.0661L3.15378 19.9451L3.10768 19.8222L3.0635 19.6994L3.02509 19.5727L2.9886 19.4479L2.95594 19.3212L2.92521 19.1925L2.90024 19.0658L2.8772 18.9353L2.85799 18.8047L2.84262 18.6761L2.8311 18.5455L2.8215 18.415L2.81765 18.2825L2.81573 18.152L2.81765 18.0214L2.8215 17.889L2.8311 17.7565L2.84262 17.6279L2.85799 17.4973L2.8772 17.3687L2.90024 17.2381L2.92521 17.1095L2.95594 16.9828L2.9886 16.8561L3.02509 16.7294L3.0635 16.6046L3.10768 16.4798L3.15378 16.3569L3.20371 16.236L3.25557 16.115L3.31127 15.996L3.36889 15.8808L3.43228 15.7637L3.49758 15.6504L3.5648 15.5371L3.63587 15.4277L3.71078 15.3202L3.78568 15.2146L3.86827 15.109L3.94894 15.0073L4.03537 14.9074L4.1218 14.8095L4.21208 14.7135L4.30427 14.6214L4.4003 14.5311L4.49826 14.4448L4.59621 14.3584L4.69801 14.2758L4.80365 14.1971L4.90929 14.1184L5.01877 14.0454L5.12825 13.9744L5.24157 13.9053L5.35297 13.8419L5.47013 13.7805L5.58729 13.721L5.70637 13.6653L5.82738 13.6115L5.94646 13.5635L6.07131 13.5175L6.19423 13.4752L6.31908 13.4349L6.44584 13.3984L6.57261 13.3658L6.70129 13.337L6.82806 13.3101L6.95866 13.289L7.08927 13.2698L7.21796 13.2525L7.34857 13.241L7.47917 13.2314L7.60978 13.2257H7.74231H48V7.03223H7.74231H7.57713L7.41387 7.03799L7.24869 7.04759L7.08543 7.06102L6.92025 7.07446L6.75699 7.09366L6.59565 7.11862L6.4324 7.14166L6.27106 7.17238L6.10972 7.20501L5.9503 7.24341L5.79088 7.28181L5.63339 7.32404L5.47397 7.37204L5.31839 7.42004L5.16282 7.47379L5.00916 7.52947L4.85359 7.5909L4.70377 7.65234L4.55396 7.71761L4.40415 7.78865L4.25625 7.85968L4.11028 7.93647L3.96623 8.01519L3.8241 8.09582L3.68197 8.18029L3.54368 8.26861L3.40539 8.35884L3.27094 8.45291L3.13841 8.54891L3.00588 8.64874L2.87912 8.75049L2.75043 8.85608L2.62559 8.96167L2.50458 9.0711L2.3855 9.18437L2.26834 9.29957L2.1531 9.41668L2.03977 9.53571L1.93029 9.65858L1.82274 9.78337L1.71902 9.91008L1.61722 10.0387L1.51735 10.1693L1.42131 10.3036L1.3272 10.438L1.23693 10.5743L1.15049 10.7145L1.06406 10.8546L0.983394 10.9986L0.904646 11.1426L0.827818 11.2866L0.756752 11.4364L0.687608 11.5842L0.620383 11.7359L0.557001 11.8875L0.49938 12.0392L0.441759 12.1928L0.3899 12.3502L0.338042 12.5057L0.291945 12.6631L0.24969 12.8225L0.209355 12.9818L0.172862 13.1431L0.14021 13.3024L0.1114 13.4637L0.0845104 13.6269L0.0633828 13.7901L0.0441759 13.9533L0.0268897 14.1165L0.0153655 14.2816L0.00768277 14.4448L0 14.6079V14.773V14.9382L0.00768277 15.1013Z" fill="#0DC09D"/>
</g>
<path d="M75.3158 45.9821H63.0019V41.1383H75.3158C77.2222 41.1383 78.6909 40.7697 79.7219 40.0286C80.7528 39.2895 81.2693 38.3353 81.2693 37.1681C81.2693 36.0008 80.7816 35.1446 79.8102 34.5993C78.8368 34.056 77.3969 33.6068 75.4905 33.2573L73.5054 32.9079C71.5587 32.5585 69.7886 32.0517 68.1951 31.3913C66.5997 30.7308 65.3345 29.8151 64.4015 28.6478C63.4684 27.4805 63 25.983 63 24.1534C63 21.4311 64.0118 19.3193 66.0353 17.8218C68.0588 16.3243 70.7427 15.5756 74.089 15.5756H86.1111V20.4788H74.089C72.4552 20.4788 71.1709 20.7803 70.2378 21.3831C69.3048 21.9859 68.8363 22.8326 68.8363 23.9211C68.8363 25.0884 69.2933 25.9447 70.2071 26.4899C71.121 27.0351 72.3573 27.4441 73.9124 27.7148L75.9551 28.0642C78.017 28.4136 79.9042 28.9012 81.6167 29.5232C83.3293 30.1453 84.6808 31.0399 85.6734 32.2072C86.6659 33.3745 87.1613 34.9315 87.1613 36.8763C87.1613 39.756 86.09 41.9926 83.9513 43.588C81.8107 45.1834 78.9328 45.9802 75.3139 45.9802L75.3158 45.9821Z" fill="white"/>
<path d="M149.9 54.8364V41.2554H148.967C148.539 42.0349 147.917 42.7836 147.099 43.5016C146.281 44.2216 145.24 44.8148 143.977 45.2813C142.712 45.7479 141.147 45.9821 139.279 45.9821C136.866 45.9821 134.649 45.3984 132.625 44.2312C130.602 43.0639 128.987 41.3821 127.781 39.182C126.576 36.9838 125.973 34.3286 125.973 31.2146V30.3392C125.973 27.2271 126.585 24.572 127.812 22.3718C129.037 20.1736 130.661 18.4899 132.685 17.3226C134.708 16.1553 136.906 15.5717 139.279 15.5717C142.08 15.5717 144.231 16.0786 145.728 17.0884C147.226 18.1002 148.345 19.2482 149.084 20.5326H150.017V15.5717H155.913V54.8326H149.902L149.9 54.8364ZM140.971 40.7294C143.616 40.7294 145.776 39.8923 147.448 38.2201C149.12 36.548 149.958 34.1539 149.958 31.0418V30.5158C149.958 27.4421 149.111 25.0692 147.419 23.3951C145.726 21.7229 143.576 20.8859 140.971 20.8859C138.366 20.8859 136.273 21.7229 134.58 23.3951C132.886 25.0692 132.042 27.4421 132.042 30.5158V31.0418C132.042 34.1558 132.888 36.548 134.58 38.2201C136.273 39.8943 138.402 40.7294 140.971 40.7294Z" fill="white"/>
<path d="M120.211 30.1645C120.211 27.2463 119.628 24.6987 118.46 22.5197C117.293 20.3406 115.667 18.6377 113.588 17.4129C111.505 16.188 109.082 15.5737 106.321 15.5737C103.561 15.5737 100.99 16.1957 98.8512 17.4417C97.7799 18.0637 96.8257 18.8067 95.9848 19.6745C95.8793 19.782 95.7756 19.8933 95.6719 20.0047C95.3647 20.3426 95.0787 20.6958 94.8061 21.0644C94.4451 21.5578 94.1092 22.0819 93.802 22.6368C92.5771 24.8542 91.9628 27.4614 91.9628 30.4582V31.159C91.9628 34.1559 92.5752 36.7611 93.802 38.9804C95.0268 41.1979 96.7297 42.92 98.9088 44.1448C101.086 45.3697 103.635 45.984 106.554 45.984C109.122 45.984 111.261 45.5751 112.974 44.7592C114.686 43.9413 116.047 42.9296 117.059 41.7239C117.339 41.3879 117.604 41.0577 117.852 40.7313C118.497 39.8847 119.031 39.0687 119.451 38.2797L114.433 35.7109C113.811 37.0356 112.924 38.2029 111.778 39.2127C110.628 40.2245 108.927 40.7294 106.671 40.7294C104.257 40.7294 102.244 39.9788 100.631 38.4832C100.531 38.3891 100.433 38.297 100.339 38.1971C100.243 38.0973 100.153 37.9994 100.063 37.8996C99.8476 37.6519 99.6479 37.3927 99.4636 37.1201C98.6784 35.9413 98.2291 34.5379 98.1159 32.9118C98.1044 32.7563 98.0986 32.5989 98.0928 32.4414H120.213V30.1645H120.211ZM102.119 27.83L99.0451 30.9036H98.0333C98.018 30.0186 98.0333 28.882 98.1504 27.83C98.208 27.4306 98.2848 27.0448 98.3847 26.6742C98.4806 26.3037 98.5978 25.9504 98.7341 25.6125C99.1872 24.4856 99.861 23.5314 100.748 22.752C102.167 21.506 104.004 20.884 106.264 20.884C108.523 20.884 110.349 21.506 111.751 22.752C113.152 23.998 113.949 25.6913 114.143 27.83H102.121H102.119Z" fill="white"/>
<path d="M189.919 30.1645C189.919 27.2463 189.336 24.6987 188.168 22.5197C187.001 20.3406 185.375 18.6377 183.296 17.4129C181.213 16.188 178.79 15.5737 176.029 15.5737C173.268 15.5737 170.698 16.1957 168.559 17.4417C167.488 18.0637 166.534 18.8067 165.693 19.6745C165.587 19.782 165.483 19.8933 165.38 20.0047C165.073 20.3426 164.786 20.6958 164.514 21.0644C164.153 21.5578 163.817 22.0819 163.51 22.6368C162.285 24.8542 161.671 27.4614 161.671 30.4582V31.159C161.671 34.1559 162.283 36.7611 163.51 38.9804C164.735 41.1979 166.438 42.92 168.617 44.1448C170.794 45.3697 173.343 45.984 176.261 45.984C178.83 45.984 180.969 45.5751 182.681 44.7592C184.394 43.9413 185.755 42.9296 186.767 41.7239C187.047 41.3879 187.312 41.0577 187.56 40.7313C188.205 39.8847 188.738 39.0687 189.159 38.2797L184.14 35.7109C183.518 37.0356 182.631 38.2029 181.485 39.2127C180.335 40.2245 178.634 40.7294 176.378 40.7294C173.965 40.7294 171.951 39.9788 170.339 38.4832C170.239 38.3891 170.141 38.297 170.047 38.1971C169.951 38.0973 169.861 37.9994 169.77 37.8996C169.555 37.6519 169.356 37.3927 169.171 37.1201C168.386 35.9413 167.937 34.5379 167.824 32.9118C167.812 32.7563 167.806 32.5989 167.801 32.4414H189.921V30.1645H189.919ZM171.827 27.83L168.753 30.9036H167.741C167.726 30.0186 167.741 28.882 167.858 27.83C167.916 27.4306 167.993 27.0448 168.092 26.6742C168.188 26.3037 168.306 25.9504 168.442 25.6125C168.895 24.4856 169.569 23.5314 170.456 22.752C171.875 21.506 173.712 20.884 175.971 20.884C178.231 20.884 180.057 21.506 181.458 22.752C182.86 23.998 183.657 25.6913 183.851 27.83H171.828H171.827Z" fill="white"/>
<path d="M195.679 45.9821V15.5737H201.573V18.9583H202.506C202.972 17.7527 203.721 16.8676 204.752 16.3032C205.783 15.7388 207.058 15.4565 208.574 15.4565H212.018V20.8839H208.342C206.395 20.8839 204.802 21.4196 203.556 22.4889C202.31 23.5602 201.688 25.2036 201.688 27.421V45.9802H195.677L195.679 45.9821Z" fill="white"/>
<path d="M241.016 26.4784C241.016 22.9612 239.943 20.2446 237.792 18.3305C235.644 16.4164 232.693 15.4584 228.94 15.4584C226.479 15.4584 224.398 15.8482 222.697 16.6315C220.998 17.4148 219.629 18.4496 218.594 19.7378C217.559 21.0279 216.807 22.4352 216.336 23.9576L221.963 25.7757C222.315 24.2129 223.038 22.942 224.133 21.9648C225.229 20.9895 226.809 20.5 228.88 20.5C230.952 20.5 232.555 21.0183 233.571 22.0531C234.588 23.0879 235.095 24.428 235.095 26.0694V31.0687H234.12L230.992 27.9451H226.302C223.136 27.9451 220.508 28.6977 218.417 30.2029C216.327 31.7061 215.28 33.9254 215.28 36.857C215.28 38.8114 215.76 40.4702 216.716 41.839C217.674 43.2079 218.964 44.2427 220.585 44.9454C222.209 45.648 224.056 46.0013 226.124 46.0013C228.191 46.0013 229.719 45.7171 230.931 45.1508C232.142 44.5844 233.062 43.9202 233.686 43.158C234.314 42.3958 234.778 41.7008 235.093 41.0769H236.032V46.0013H241.014V26.4803L241.016 26.4784ZM235.095 33.2189C235.095 35.6437 234.342 37.5482 232.837 38.9343C231.332 40.3204 229.391 41.0154 227.005 41.0154C225.246 41.0154 223.86 40.6257 222.843 39.8424C221.825 39.0591 221.318 38.0051 221.318 36.6766C221.318 35.348 221.808 34.3401 222.783 33.6586C223.762 32.9751 225.048 32.6334 226.652 32.6334H235.093V33.2189H235.095Z" fill="white"/>
</g>
<defs>
<clipPath id="clip0_67_672">
<rect width="242" height="48" fill="white" transform="translate(0 7.03223)"/>
</clipPath>
<clipPath id="clip1_67_672">
<rect width="48" height="48" fill="white" transform="translate(0 7.03223)"/>
</clipPath>
</defs>
</svg>
