<svg viewBox="0 0 100 24" fill="none" xmlns="http://www.w3.org/2000/svg">
<g>
<path d="M4.64478 11.4825C4.90144 7.69531 8.00576 4.66077 11.8742 4.42269V0C5.51074 0.245759 0.395315 5.24925 0.130825 11.4825H4.64478Z" fill="#3D95FD"/>
<path d="M4.64476 24.0001C4.90142 20.2129 8.00574 17.1784 11.8742 16.9403V12.5176C5.51072 12.7633 0.395292 17.7668 0.130802 24.0001H4.64476Z" fill="#3D95FD"/>
<path d="M20.1066 0.000244141C19.85 3.78742 16.7456 6.82196 12.8772 7.06004V11.4827C19.2407 11.237 24.3561 6.23349 24.6206 0.000244141L20.1066 0.000244141Z" fill="#3D95FD"/>
<path d="M20.1066 12.5176C19.85 16.3048 16.7456 19.3393 12.8772 19.5774V24.0001C19.2407 23.7543 24.3561 18.7508 24.6206 12.5176H20.1066Z" fill="#3D95FD"/>
<path d="M34.2285 17.0766L32.1429 4.39793H35.21L37.0565 17.5892H37.5326L39.6289 6.78928C39.8983 5.40209 41.1356 4.39793 42.5775 4.39793C44.0214 4.39793 45.2596 5.40497 45.5271 6.79504L47.5979 17.5883H48.074L49.9205 4.39697H52.9876L50.9021 17.0756C50.6631 18.531 49.3808 19.6014 47.8761 19.6014C46.4018 19.6014 45.1372 18.5732 44.8639 17.1543L42.8038 6.43984H42.3277L40.2667 17.1543C39.9934 18.5742 38.7287 19.6014 37.2544 19.6014C35.7498 19.6014 34.4675 18.531 34.2285 17.0756V17.0766Z" fill="#160F26"/>
<path d="M73.8177 17.3224L69.6153 4.39795H72.8616L76.7624 17.3848H77.2384L81.1392 4.39795H84.3855L80.1831 17.3224C79.7413 18.6807 78.4541 19.6023 76.9994 19.6023C75.5447 19.6023 74.2575 18.6798 73.8157 17.3224H73.8177Z" fill="#160F26"/>
<path d="M99.9473 11.6939C99.9473 10.2347 99.6495 8.9608 99.0539 7.87121C98.4583 6.78161 97.6286 5.9301 96.5677 5.31762C95.5049 4.70515 94.2686 4.39795 92.86 4.39795C91.4513 4.39795 90.1396 4.70899 89.0484 5.33202C88.5018 5.64306 88.0149 6.01458 87.5859 6.4485C87.532 6.50226 87.4791 6.55794 87.4262 6.61362C87.2694 6.78257 87.1235 6.95921 86.9844 7.14353C86.8002 7.39025 86.6288 7.65233 86.4721 7.92977C85.8471 9.03856 85.5336 10.3422 85.5336 11.8408V12.1912C85.5336 13.6897 85.8461 14.9924 86.4721 16.1022C87.097 17.211 87.9659 18.0721 89.0778 18.6846C90.1886 19.2971 91.4895 19.6043 92.9785 19.6043C94.2892 19.6043 95.3805 19.3998 96.2543 18.9918C97.1281 18.5828 97.8226 18.0769 98.3388 17.474C98.4819 17.306 98.617 17.1409 98.7434 16.9777C99.0725 16.5544 99.3449 16.1464 99.5594 15.7518L96.9988 14.4673C96.6814 15.1297 96.2288 15.7134 95.644 16.2184C95.0572 16.7243 94.1893 16.9768 93.0383 16.9768C91.8069 16.9768 90.7793 16.6014 89.9565 15.8536C89.9055 15.8065 89.8556 15.7604 89.8076 15.7105C89.7586 15.6606 89.7125 15.6116 89.6665 15.5617C89.5568 15.4379 89.4549 15.3083 89.3609 15.172C88.9602 14.5825 88.731 13.8808 88.6732 13.0677C88.6673 12.9899 88.6644 12.9112 88.6615 12.8325H99.9483V11.6939H99.9473ZM90.7157 10.5266L89.1473 12.0635H88.6311C88.6232 11.6209 88.6311 11.0526 88.6908 10.5266C88.7202 10.3269 88.7594 10.1339 88.8103 9.94864C88.8593 9.76336 88.9191 9.58672 88.9886 9.41776C89.2198 8.85424 89.5637 8.37713 90.0162 7.98737C90.7401 7.36433 91.6776 7.05329 92.8306 7.05329C93.9836 7.05329 94.9152 7.36433 95.6303 7.98737C96.3454 8.6104 96.7519 9.45712 96.8508 10.5266H90.7166H90.7157Z" fill="#160F26"/>
<path d="M67.8323 9.84191C67.8323 8.0832 67.2847 6.72481 66.1876 5.76769C65.0914 4.81058 63.5858 4.33154 61.6707 4.33154C60.4149 4.33154 59.353 4.52642 58.4851 4.9181C57.6181 5.30978 56.9197 5.82721 56.3917 6.47137C55.8637 7.11649 55.4797 7.82016 55.2397 8.58144L58.1109 9.49055C58.2901 8.70912 58.6594 8.0736 59.2178 7.58496C59.7772 7.09729 60.5834 6.85249 61.6403 6.85249C62.6973 6.85249 63.5153 7.11169 64.0335 7.62912C64.5527 8.14656 64.8113 8.81664 64.8113 9.63743V12.1373H64.3136L62.7179 10.5753H60.3247C58.7094 10.5753 57.3683 10.9517 56.3016 11.7043C55.2348 12.456 54.7009 13.5657 54.7009 15.0316C54.7009 16.0089 54.9458 16.8383 55.4336 17.5228C55.9225 18.2073 56.5807 18.7247 57.4075 19.0761C58.2363 19.4275 59.1786 19.6041 60.2336 19.6041C61.2887 19.6041 62.0684 19.462 62.6865 19.1788C63.3047 18.8956 63.7739 18.5635 64.0923 18.1823C64.4126 17.8012 64.6496 17.4537 64.8103 17.1417H65.2893V19.6041H67.8314V9.84287L67.8323 9.84191ZM64.8113 13.2125C64.8113 14.4249 64.4273 15.3772 63.6593 16.0704C62.8923 16.7635 61.9009 17.111 60.6833 17.111C59.786 17.111 59.0787 16.9161 58.5595 16.5244C58.0403 16.1328 57.7817 15.6057 57.7817 14.9414C57.7817 14.2771 58.0315 13.7731 58.5292 13.4323C59.0287 13.0905 59.6851 12.9197 60.503 12.9197H64.8103V13.2125H64.8113Z" fill="#160F26"/>
</g>
</svg>
