<svg fill="none"
    xmlns="http://www.w3.org/2000/svg" viewBox="0 0 65.33 16">
    <g clipPath="url(#clip0_2110_1503)">
        <g clipPath="url(#clip1_2110_1503)">
            <path d="M3.03455 7.65499C3.20223 5.13021 5.23038 3.10718 7.75772 2.94846V0C3.60031 0.163839 0.258248 3.4995 0.0854492 7.65499H3.03455Z" fill="#3D95FD"></path>
            <path d="M3.03455 16C3.20223 13.4752 5.23038 11.4522 7.75772 11.2935V8.34503C3.60031 8.50887 0.258248 11.8445 0.0854492 16H3.03455Z" fill="#3D95FD"></path>
            <path d="M13.1363 6.10352e-05C12.9686 2.52485 10.9404 4.54787 8.41309 4.70659V7.65506C12.5705 7.49122 15.9126 4.15556 16.0854 6.10352e-05L13.1363 6.10352e-05Z" fill="#3D95FD"></path>
            <path d="M13.1363 8.34503C12.9686 10.8698 10.9404 12.8928 8.41309 13.0516V16C12.5705 15.8362 15.9126 12.5005 16.0854 8.34503H13.1363Z" fill="#3D95FD"></path>
        </g>
        <path d="M22.3623 11.3844L20.9998 2.93198H23.0036L24.21 11.7262H24.521L25.8906 4.52621C26.0666 3.60141 26.8749 2.93198 27.817 2.93198C28.7603 2.93198 29.5693 3.60333 29.744 4.53005L31.097 11.7255H31.408L32.6144 2.93134H34.6182L33.2557 11.3838C33.0995 12.354 32.2618 13.0676 31.2787 13.0676C30.3155 13.0676 29.4893 12.3822 29.3107 11.4362L27.9648 4.29325H27.6538L26.3072 11.4362C26.1287 12.3828 25.3025 13.0676 24.3393 13.0676C23.3562 13.0676 22.5185 12.354 22.3623 11.3838V11.3844Z" fill="#FFFFFF"></path>
        <path d="M48.2273 11.5483L45.4817 2.93207H47.6026L50.1511 11.5899H50.4621L53.0106 2.93207H55.1315L52.386 11.5483C52.0973 12.4539 51.2564 13.0683 50.306 13.0683C49.3556 13.0683 48.5146 12.4533 48.226 11.5483H48.2273Z" fill="#FFFFFF"></path>
        <path d="M65.2985 7.79604C65.2985 6.82324 65.1039 5.97397 64.7148 5.24757C64.3257 4.52118 63.7836 3.9535 63.0905 3.54518C62.3961 3.13687 61.5884 2.93207 60.6681 2.93207C59.7478 2.93207 58.8909 3.13943 58.1779 3.55478C57.8208 3.76214 57.5027 4.00982 57.2224 4.2991C57.1872 4.33494 57.1526 4.37206 57.1181 4.40918C57.0157 4.52182 56.9203 4.63958 56.8294 4.76246C56.7091 4.92694 56.5971 5.10165 56.4947 5.28661C56.0864 6.02581 55.8816 6.89492 55.8816 7.89396V8.12756C55.8816 9.12659 56.0857 9.99507 56.4947 10.7349C56.903 11.4741 57.4707 12.0482 58.1971 12.4565C58.9229 12.8648 59.7728 13.0696 60.7456 13.0696C61.6019 13.0696 62.3148 12.9333 62.8857 12.6613C63.4566 12.3887 63.9103 12.0514 64.2476 11.6495C64.3411 11.5375 64.4294 11.4274 64.5119 11.3186C64.727 11.0363 64.9049 10.7643 65.0451 10.5013L63.3721 9.64499C63.1647 10.0866 62.8691 10.4757 62.487 10.8123C62.1036 11.1496 61.5366 11.3179 60.7846 11.3179C59.9801 11.3179 59.3088 11.0677 58.7712 10.5691C58.7379 10.5378 58.7053 10.5071 58.6739 10.4738C58.6419 10.4405 58.6118 10.4079 58.5817 10.3746C58.5101 10.292 58.4435 10.2056 58.3821 10.1147C58.1203 9.72179 57.9705 9.25395 57.9328 8.71187C57.9289 8.66003 57.927 8.60755 57.9251 8.55507H65.2991V7.79604H65.2985ZM59.2672 7.0178L58.2425 8.04244H57.9053C57.9001 7.7474 57.9053 7.36852 57.9443 7.0178C57.9635 6.88468 57.9891 6.75605 58.0224 6.63253C58.0544 6.50901 58.0934 6.39125 58.1389 6.27861C58.2899 5.90293 58.5145 5.58485 58.8102 5.32501C59.2832 4.90966 59.8956 4.7023 60.6489 4.7023C61.4022 4.7023 62.0108 4.90966 62.478 5.32501C62.9452 5.74037 63.2108 6.30485 63.2755 7.0178H59.2678H59.2672Z" fill="#FFFFFF"></path>
        <path d="M44.3167 6.56133C44.3167 5.38886 43.9589 4.48327 43.2421 3.84519C42.526 3.20711 41.5423 2.88776 40.2911 2.88776C39.4706 2.88776 38.7769 3.01768 38.2099 3.27879C37.6435 3.53991 37.1871 3.88487 36.8422 4.31431C36.4972 4.74439 36.2463 5.2135 36.0895 5.72102L37.9654 6.3271C38.0825 5.80614 38.3238 5.38246 38.6886 5.0567C39.054 4.73159 39.5807 4.56839 40.2713 4.56839C40.9618 4.56839 41.4962 4.74119 41.8348 5.08614C42.174 5.4311 42.3429 5.87782 42.3429 6.42502V8.09156H42.0178L40.9753 7.05029H39.4118C38.3564 7.05029 37.4803 7.30117 36.7833 7.80293C36.0863 8.30404 35.7375 9.04388 35.7375 10.0212C35.7375 10.6727 35.8975 11.2256 36.2163 11.6819C36.5356 12.1383 36.9657 12.4832 37.5059 12.7175C38.0473 12.9517 38.663 13.0695 39.3522 13.0695C40.0415 13.0695 40.551 12.9747 40.9548 12.7859C41.3586 12.5971 41.6652 12.3757 41.8732 12.1216C42.0825 11.8675 42.2373 11.6359 42.3423 11.4279H42.6553V13.0695H44.3161V6.56197L44.3167 6.56133ZM42.3429 8.80836C42.3429 9.61668 42.0921 10.2516 41.5903 10.7136C41.0892 11.1757 40.4415 11.4074 39.646 11.4074C39.0598 11.4074 38.5977 11.2775 38.2585 11.0163C37.9193 10.7552 37.7503 10.4039 37.7503 9.96099C37.7503 9.51812 37.9135 9.18212 38.2387 8.95492C38.565 8.72708 38.9938 8.61316 39.5282 8.61316H42.3423V8.80836H42.3429Z" fill="#FFFFFF"></path>
    </g>
    <defs>
        <clipPath id="clip0_2110_1503">
            <rect width="65.3329" height="16" fill="white"></rect>
        </clipPath>
        <clipPath id="clip1_2110_1503">
            <rect width="16.3332" height="16" fill="white"></rect>
        </clipPath>
    </defs>
</svg>
